<?xml version="1.0" encoding="UTF-8"?>
<svg xmlns="http://www.w3.org/2000/svg" xmlns:xlink="http://www.w3.org/1999/xlink" width="432pt" height="216pt" viewBox="0 0 432 216" version="1.1">
<defs>
<clipPath id="clip1">
  <path d="M 46.152344 183 L 222 183 L 222 184 L 46.152344 184 Z M 46.152344 183 "/>
</clipPath>
<clipPath id="clip2">
  <path d="M 46.152344 157 L 222 157 L 222 159 L 46.152344 159 Z M 46.152344 157 "/>
</clipPath>
<clipPath id="clip3">
  <path d="M 46.152344 131 L 222 131 L 222 133 L 46.152344 133 Z M 46.152344 131 "/>
</clipPath>
<clipPath id="clip4">
  <path d="M 46.152344 106 L 222 106 L 222 107 L 46.152344 107 Z M 46.152344 106 "/>
</clipPath>
<clipPath id="clip5">
  <path d="M 46.152344 80 L 222 80 L 222 82 L 46.152344 82 Z M 46.152344 80 "/>
</clipPath>
<clipPath id="clip6">
  <path d="M 46.152344 54 L 222 54 L 222 56 L 46.152344 56 Z M 46.152344 54 "/>
</clipPath>
<clipPath id="clip7">
  <path d="M 46.152344 29 L 222 29 L 222 30 L 46.152344 30 Z M 46.152344 29 "/>
</clipPath>
<clipPath id="clip8">
  <path d="M 46.152344 16 L 222 16 L 222 17 L 46.152344 17 Z M 46.152344 16 "/>
</clipPath>
<clipPath id="clip9">
  <path d="M 56 5.480469 L 57 5.480469 L 57 195 L 56 195 Z M 56 5.480469 "/>
</clipPath>
<clipPath id="clip10">
  <path d="M 82 5.480469 L 83 5.480469 L 83 195 L 82 195 Z M 82 5.480469 "/>
</clipPath>
<clipPath id="clip11">
  <path d="M 107 5.480469 L 109 5.480469 L 109 195 L 107 195 Z M 107 5.480469 "/>
</clipPath>
<clipPath id="clip12">
  <path d="M 133 5.480469 L 134 5.480469 L 134 195 L 133 195 Z M 133 5.480469 "/>
</clipPath>
<clipPath id="clip13">
  <path d="M 159 5.480469 L 160 5.480469 L 160 195 L 159 195 Z M 159 5.480469 "/>
</clipPath>
<clipPath id="clip14">
  <path d="M 184 5.480469 L 186 5.480469 L 186 195 L 184 195 Z M 184 5.480469 "/>
</clipPath>
<clipPath id="clip15">
  <path d="M 210 5.480469 L 211 5.480469 L 211 195 L 210 195 Z M 210 5.480469 "/>
</clipPath>
<clipPath id="clip16">
  <path d="M 46.152344 170 L 222 170 L 222 172 L 46.152344 172 Z M 46.152344 170 "/>
</clipPath>
<clipPath id="clip17">
  <path d="M 46.152344 144 L 222 144 L 222 146 L 46.152344 146 Z M 46.152344 144 "/>
</clipPath>
<clipPath id="clip18">
  <path d="M 46.152344 118 L 222 118 L 222 120 L 46.152344 120 Z M 46.152344 118 "/>
</clipPath>
<clipPath id="clip19">
  <path d="M 46.152344 93 L 222 93 L 222 95 L 46.152344 95 Z M 46.152344 93 "/>
</clipPath>
<clipPath id="clip20">
  <path d="M 46.152344 67 L 222 67 L 222 69 L 46.152344 69 Z M 46.152344 67 "/>
</clipPath>
<clipPath id="clip21">
  <path d="M 46.152344 41 L 222 41 L 222 43 L 46.152344 43 Z M 46.152344 41 "/>
</clipPath>
<clipPath id="clip22">
  <path d="M 68 5.480469 L 71 5.480469 L 71 195.644531 L 68 195.644531 Z M 68 5.480469 "/>
</clipPath>
<clipPath id="clip23">
  <path d="M 94 5.480469 L 96 5.480469 L 96 195.644531 L 94 195.644531 Z M 94 5.480469 "/>
</clipPath>
<clipPath id="clip24">
  <path d="M 120 5.480469 L 122 5.480469 L 122 195.644531 L 120 195.644531 Z M 120 5.480469 "/>
</clipPath>
<clipPath id="clip25">
  <path d="M 145 5.480469 L 148 5.480469 L 148 195.644531 L 145 195.644531 Z M 145 5.480469 "/>
</clipPath>
<clipPath id="clip26">
  <path d="M 171 5.480469 L 173 5.480469 L 173 195.644531 L 171 195.644531 Z M 171 5.480469 "/>
</clipPath>
<clipPath id="clip27">
  <path d="M 197 5.480469 L 199 5.480469 L 199 195.644531 L 197 195.644531 Z M 197 5.480469 "/>
</clipPath>
<clipPath id="clip28">
  <path d="M 226.679688 183 L 402 183 L 402 184 L 226.679688 184 Z M 226.679688 183 "/>
</clipPath>
<clipPath id="clip29">
  <path d="M 226.679688 157 L 402 157 L 402 159 L 226.679688 159 Z M 226.679688 157 "/>
</clipPath>
<clipPath id="clip30">
  <path d="M 226.679688 131 L 402 131 L 402 133 L 226.679688 133 Z M 226.679688 131 "/>
</clipPath>
<clipPath id="clip31">
  <path d="M 226.679688 106 L 402 106 L 402 107 L 226.679688 107 Z M 226.679688 106 "/>
</clipPath>
<clipPath id="clip32">
  <path d="M 226.679688 80 L 402 80 L 402 82 L 226.679688 82 Z M 226.679688 80 "/>
</clipPath>
<clipPath id="clip33">
  <path d="M 226.679688 54 L 402 54 L 402 56 L 226.679688 56 Z M 226.679688 54 "/>
</clipPath>
<clipPath id="clip34">
  <path d="M 226.679688 29 L 402 29 L 402 30 L 226.679688 30 Z M 226.679688 29 "/>
</clipPath>
<clipPath id="clip35">
  <path d="M 226.679688 16 L 402 16 L 402 17 L 226.679688 17 Z M 226.679688 16 "/>
</clipPath>
<clipPath id="clip36">
  <path d="M 236 5.480469 L 238 5.480469 L 238 195 L 236 195 Z M 236 5.480469 "/>
</clipPath>
<clipPath id="clip37">
  <path d="M 262 5.480469 L 264 5.480469 L 264 195 L 262 195 Z M 262 5.480469 "/>
</clipPath>
<clipPath id="clip38">
  <path d="M 288 5.480469 L 289 5.480469 L 289 195 L 288 195 Z M 288 5.480469 "/>
</clipPath>
<clipPath id="clip39">
  <path d="M 313 5.480469 L 315 5.480469 L 315 195 L 313 195 Z M 313 5.480469 "/>
</clipPath>
<clipPath id="clip40">
  <path d="M 339 5.480469 L 341 5.480469 L 341 195 L 339 195 Z M 339 5.480469 "/>
</clipPath>
<clipPath id="clip41">
  <path d="M 365 5.480469 L 366 5.480469 L 366 195 L 365 195 Z M 365 5.480469 "/>
</clipPath>
<clipPath id="clip42">
  <path d="M 390 5.480469 L 392 5.480469 L 392 195 L 390 195 Z M 390 5.480469 "/>
</clipPath>
<clipPath id="clip43">
  <path d="M 226.679688 170 L 402.726563 170 L 402.726563 172 L 226.679688 172 Z M 226.679688 170 "/>
</clipPath>
<clipPath id="clip44">
  <path d="M 226.679688 144 L 402.726563 144 L 402.726563 146 L 226.679688 146 Z M 226.679688 144 "/>
</clipPath>
<clipPath id="clip45">
  <path d="M 226.679688 118 L 402.726563 118 L 402.726563 120 L 226.679688 120 Z M 226.679688 118 "/>
</clipPath>
<clipPath id="clip46">
  <path d="M 226.679688 93 L 402.726563 93 L 402.726563 95 L 226.679688 95 Z M 226.679688 93 "/>
</clipPath>
<clipPath id="clip47">
  <path d="M 226.679688 67 L 402.726563 67 L 402.726563 69 L 226.679688 69 Z M 226.679688 67 "/>
</clipPath>
<clipPath id="clip48">
  <path d="M 226.679688 41 L 402.726563 41 L 402.726563 43 L 226.679688 43 Z M 226.679688 41 "/>
</clipPath>
<clipPath id="clip49">
  <path d="M 249 5.480469 L 251 5.480469 L 251 195.644531 L 249 195.644531 Z M 249 5.480469 "/>
</clipPath>
<clipPath id="clip50">
  <path d="M 275 5.480469 L 277 5.480469 L 277 195.644531 L 275 195.644531 Z M 275 5.480469 "/>
</clipPath>
<clipPath id="clip51">
  <path d="M 300 5.480469 L 302 5.480469 L 302 195.644531 L 300 195.644531 Z M 300 5.480469 "/>
</clipPath>
<clipPath id="clip52">
  <path d="M 326 5.480469 L 328 5.480469 L 328 195.644531 L 326 195.644531 Z M 326 5.480469 "/>
</clipPath>
<clipPath id="clip53">
  <path d="M 352 5.480469 L 354 5.480469 L 354 195.644531 L 352 195.644531 Z M 352 5.480469 "/>
</clipPath>
<clipPath id="clip54">
  <path d="M 377 5.480469 L 379 5.480469 L 379 195.644531 L 377 195.644531 Z M 377 5.480469 "/>
</clipPath>
</defs>
<g id="surface11">
<rect x="0" y="0" width="432" height="216" style="fill:rgb(100%,100%,100%);fill-opacity:1;stroke:none;"/>
<g clip-path="url(#clip1)" clip-rule="nonzero">
<path style="fill:none;stroke-width:0.533489;stroke-linecap:butt;stroke-linejoin:round;stroke:rgb(92.156863%,92.156863%,92.156863%);stroke-opacity:1;stroke-miterlimit:10;" d="M 46.152344 183.476563 L 221.199219 183.476563 "/>
</g>
<g clip-path="url(#clip2)" clip-rule="nonzero">
<path style="fill:none;stroke-width:0.533489;stroke-linecap:butt;stroke-linejoin:round;stroke:rgb(92.156863%,92.156863%,92.156863%);stroke-opacity:1;stroke-miterlimit:10;" d="M 46.152344 157.808594 L 221.199219 157.808594 "/>
</g>
<g clip-path="url(#clip3)" clip-rule="nonzero">
<path style="fill:none;stroke-width:0.533489;stroke-linecap:butt;stroke-linejoin:round;stroke:rgb(92.156863%,92.156863%,92.156863%);stroke-opacity:1;stroke-miterlimit:10;" d="M 46.152344 132.144531 L 221.199219 132.144531 "/>
</g>
<g clip-path="url(#clip4)" clip-rule="nonzero">
<path style="fill:none;stroke-width:0.533489;stroke-linecap:butt;stroke-linejoin:round;stroke:rgb(92.156863%,92.156863%,92.156863%);stroke-opacity:1;stroke-miterlimit:10;" d="M 46.152344 106.476563 L 221.199219 106.476563 "/>
</g>
<g clip-path="url(#clip5)" clip-rule="nonzero">
<path style="fill:none;stroke-width:0.533489;stroke-linecap:butt;stroke-linejoin:round;stroke:rgb(92.156863%,92.156863%,92.156863%);stroke-opacity:1;stroke-miterlimit:10;" d="M 46.152344 80.8125 L 221.199219 80.8125 "/>
</g>
<g clip-path="url(#clip6)" clip-rule="nonzero">
<path style="fill:none;stroke-width:0.533489;stroke-linecap:butt;stroke-linejoin:round;stroke:rgb(92.156863%,92.156863%,92.156863%);stroke-opacity:1;stroke-miterlimit:10;" d="M 46.152344 55.144531 L 221.199219 55.144531 "/>
</g>
<g clip-path="url(#clip7)" clip-rule="nonzero">
<path style="fill:none;stroke-width:0.533489;stroke-linecap:butt;stroke-linejoin:round;stroke:rgb(92.156863%,92.156863%,92.156863%);stroke-opacity:1;stroke-miterlimit:10;" d="M 46.152344 29.476563 L 221.199219 29.476563 "/>
</g>
<g clip-path="url(#clip8)" clip-rule="nonzero">
<path style="fill:none;stroke-width:0.533489;stroke-linecap:butt;stroke-linejoin:round;stroke:rgb(92.156863%,92.156863%,92.156863%);stroke-opacity:1;stroke-miterlimit:10;" d="M 46.152344 16.644531 L 221.199219 16.644531 "/>
</g>
<g clip-path="url(#clip9)" clip-rule="nonzero">
<path style="fill:none;stroke-width:0.533489;stroke-linecap:butt;stroke-linejoin:round;stroke:rgb(92.156863%,92.156863%,92.156863%);stroke-opacity:1;stroke-miterlimit:10;" d="M 56.675781 194.640625 L 56.675781 5.480469 "/>
</g>
<g clip-path="url(#clip10)" clip-rule="nonzero">
<path style="fill:none;stroke-width:0.533489;stroke-linecap:butt;stroke-linejoin:round;stroke:rgb(92.156863%,92.156863%,92.156863%);stroke-opacity:1;stroke-miterlimit:10;" d="M 82.34375 194.640625 L 82.34375 5.480469 "/>
</g>
<g clip-path="url(#clip11)" clip-rule="nonzero">
<path style="fill:none;stroke-width:0.533489;stroke-linecap:butt;stroke-linejoin:round;stroke:rgb(92.156863%,92.156863%,92.156863%);stroke-opacity:1;stroke-miterlimit:10;" d="M 108.011719 194.640625 L 108.011719 5.480469 "/>
</g>
<g clip-path="url(#clip12)" clip-rule="nonzero">
<path style="fill:none;stroke-width:0.533489;stroke-linecap:butt;stroke-linejoin:round;stroke:rgb(92.156863%,92.156863%,92.156863%);stroke-opacity:1;stroke-miterlimit:10;" d="M 133.675781 194.640625 L 133.675781 5.480469 "/>
</g>
<g clip-path="url(#clip13)" clip-rule="nonzero">
<path style="fill:none;stroke-width:0.533489;stroke-linecap:butt;stroke-linejoin:round;stroke:rgb(92.156863%,92.156863%,92.156863%);stroke-opacity:1;stroke-miterlimit:10;" d="M 159.34375 194.640625 L 159.34375 5.480469 "/>
</g>
<g clip-path="url(#clip14)" clip-rule="nonzero">
<path style="fill:none;stroke-width:0.533489;stroke-linecap:butt;stroke-linejoin:round;stroke:rgb(92.156863%,92.156863%,92.156863%);stroke-opacity:1;stroke-miterlimit:10;" d="M 185.011719 194.640625 L 185.011719 5.480469 "/>
</g>
<g clip-path="url(#clip15)" clip-rule="nonzero">
<path style="fill:none;stroke-width:0.533489;stroke-linecap:butt;stroke-linejoin:round;stroke:rgb(92.156863%,92.156863%,92.156863%);stroke-opacity:1;stroke-miterlimit:10;" d="M 210.675781 194.640625 L 210.675781 5.480469 "/>
</g>
<g clip-path="url(#clip16)" clip-rule="nonzero">
<path style="fill:none;stroke-width:1.066978;stroke-linecap:butt;stroke-linejoin:round;stroke:rgb(92.156863%,92.156863%,92.156863%);stroke-opacity:1;stroke-miterlimit:10;" d="M 46.152344 170.644531 L 221.199219 170.644531 "/>
</g>
<g clip-path="url(#clip17)" clip-rule="nonzero">
<path style="fill:none;stroke-width:1.066978;stroke-linecap:butt;stroke-linejoin:round;stroke:rgb(92.156863%,92.156863%,92.156863%);stroke-opacity:1;stroke-miterlimit:10;" d="M 46.152344 144.976563 L 221.199219 144.976563 "/>
</g>
<g clip-path="url(#clip18)" clip-rule="nonzero">
<path style="fill:none;stroke-width:1.066978;stroke-linecap:butt;stroke-linejoin:round;stroke:rgb(92.156863%,92.156863%,92.156863%);stroke-opacity:1;stroke-miterlimit:10;" d="M 46.152344 119.308594 L 221.199219 119.308594 "/>
</g>
<g clip-path="url(#clip19)" clip-rule="nonzero">
<path style="fill:none;stroke-width:1.066978;stroke-linecap:butt;stroke-linejoin:round;stroke:rgb(92.156863%,92.156863%,92.156863%);stroke-opacity:1;stroke-miterlimit:10;" d="M 46.152344 93.644531 L 221.199219 93.644531 "/>
</g>
<g clip-path="url(#clip20)" clip-rule="nonzero">
<path style="fill:none;stroke-width:1.066978;stroke-linecap:butt;stroke-linejoin:round;stroke:rgb(92.156863%,92.156863%,92.156863%);stroke-opacity:1;stroke-miterlimit:10;" d="M 46.152344 67.976563 L 221.199219 67.976563 "/>
</g>
<g clip-path="url(#clip21)" clip-rule="nonzero">
<path style="fill:none;stroke-width:1.066978;stroke-linecap:butt;stroke-linejoin:round;stroke:rgb(92.156863%,92.156863%,92.156863%);stroke-opacity:1;stroke-miterlimit:10;" d="M 46.152344 42.3125 L 221.199219 42.3125 "/>
</g>
<g clip-path="url(#clip22)" clip-rule="nonzero">
<path style="fill:none;stroke-width:1.066978;stroke-linecap:butt;stroke-linejoin:round;stroke:rgb(92.156863%,92.156863%,92.156863%);stroke-opacity:1;stroke-miterlimit:10;" d="M 69.511719 194.640625 L 69.511719 5.480469 "/>
</g>
<g clip-path="url(#clip23)" clip-rule="nonzero">
<path style="fill:none;stroke-width:1.066978;stroke-linecap:butt;stroke-linejoin:round;stroke:rgb(92.156863%,92.156863%,92.156863%);stroke-opacity:1;stroke-miterlimit:10;" d="M 95.175781 194.640625 L 95.175781 5.480469 "/>
</g>
<g clip-path="url(#clip24)" clip-rule="nonzero">
<path style="fill:none;stroke-width:1.066978;stroke-linecap:butt;stroke-linejoin:round;stroke:rgb(92.156863%,92.156863%,92.156863%);stroke-opacity:1;stroke-miterlimit:10;" d="M 120.84375 194.640625 L 120.84375 5.480469 "/>
</g>
<g clip-path="url(#clip25)" clip-rule="nonzero">
<path style="fill:none;stroke-width:1.066978;stroke-linecap:butt;stroke-linejoin:round;stroke:rgb(92.156863%,92.156863%,92.156863%);stroke-opacity:1;stroke-miterlimit:10;" d="M 146.511719 194.640625 L 146.511719 5.480469 "/>
</g>
<g clip-path="url(#clip26)" clip-rule="nonzero">
<path style="fill:none;stroke-width:1.066978;stroke-linecap:butt;stroke-linejoin:round;stroke:rgb(92.156863%,92.156863%,92.156863%);stroke-opacity:1;stroke-miterlimit:10;" d="M 172.175781 194.640625 L 172.175781 5.480469 "/>
</g>
<g clip-path="url(#clip27)" clip-rule="nonzero">
<path style="fill:none;stroke-width:1.066978;stroke-linecap:butt;stroke-linejoin:round;stroke:rgb(92.156863%,92.156863%,92.156863%);stroke-opacity:1;stroke-miterlimit:10;" d="M 197.84375 194.640625 L 197.84375 5.480469 "/>
</g>
<path style="fill:none;stroke-width:6.40187;stroke-linecap:round;stroke-linejoin:round;stroke:rgb(0%,0%,0%);stroke-opacity:1;stroke-miterlimit:10;" d="M 120.84375 132.144531 L 172.175781 106.476563 L 197.84375 157.808594 L 120.84375 170.644531 L 69.511719 106.476563 L 82.34375 55.144531 L 146.511719 29.476563 "/>
<path style="fill-rule:nonzero;fill:rgb(97.254902%,46.27451%,42.745098%);fill-opacity:1;stroke-width:0.708661;stroke-linecap:round;stroke-linejoin:round;stroke:rgb(97.254902%,46.27451%,42.745098%);stroke-opacity:1;stroke-miterlimit:10;" d="M 127.601563 132.144531 C 127.601563 135.875 124.574219 138.898438 120.84375 138.898438 C 117.113281 138.898438 114.085938 135.875 114.085938 132.144531 C 114.085938 128.414063 117.113281 125.386719 120.84375 125.386719 C 124.574219 125.386719 127.601563 128.414063 127.601563 132.144531 "/>
<path style="fill-rule:nonzero;fill:rgb(97.254902%,46.27451%,42.745098%);fill-opacity:1;stroke-width:0.708661;stroke-linecap:round;stroke-linejoin:round;stroke:rgb(97.254902%,46.27451%,42.745098%);stroke-opacity:1;stroke-miterlimit:10;" d="M 178.933594 106.476563 C 178.933594 110.207031 175.90625 113.234375 172.175781 113.234375 C 168.445313 113.234375 165.421875 110.207031 165.421875 106.476563 C 165.421875 102.746094 168.445313 99.722656 172.175781 99.722656 C 175.90625 99.722656 178.933594 102.746094 178.933594 106.476563 "/>
<path style="fill-rule:nonzero;fill:rgb(97.254902%,46.27451%,42.745098%);fill-opacity:1;stroke-width:0.708661;stroke-linecap:round;stroke-linejoin:round;stroke:rgb(97.254902%,46.27451%,42.745098%);stroke-opacity:1;stroke-miterlimit:10;" d="M 204.597656 157.808594 C 204.597656 161.542969 201.574219 164.566406 197.84375 164.566406 C 194.113281 164.566406 191.085938 161.542969 191.085938 157.808594 C 191.085938 154.078125 194.113281 151.054688 197.84375 151.054688 C 201.574219 151.054688 204.597656 154.078125 204.597656 157.808594 "/>
<path style="fill-rule:nonzero;fill:rgb(97.254902%,46.27451%,42.745098%);fill-opacity:1;stroke-width:0.708661;stroke-linecap:round;stroke-linejoin:round;stroke:rgb(97.254902%,46.27451%,42.745098%);stroke-opacity:1;stroke-miterlimit:10;" d="M 127.601563 170.644531 C 127.601563 174.375 124.574219 177.398438 120.84375 177.398438 C 117.113281 177.398438 114.085938 174.375 114.085938 170.644531 C 114.085938 166.914063 117.113281 163.886719 120.84375 163.886719 C 124.574219 163.886719 127.601563 166.914063 127.601563 170.644531 "/>
<path style="fill-rule:nonzero;fill:rgb(97.254902%,46.27451%,42.745098%);fill-opacity:1;stroke-width:0.708661;stroke-linecap:round;stroke-linejoin:round;stroke:rgb(97.254902%,46.27451%,42.745098%);stroke-opacity:1;stroke-miterlimit:10;" d="M 76.265625 106.476563 C 76.265625 110.207031 73.242188 113.234375 69.511719 113.234375 C 65.777344 113.234375 62.753906 110.207031 62.753906 106.476563 C 62.753906 102.746094 65.777344 99.722656 69.511719 99.722656 C 73.242188 99.722656 76.265625 102.746094 76.265625 106.476563 "/>
<path style="fill-rule:nonzero;fill:rgb(97.254902%,46.27451%,42.745098%);fill-opacity:1;stroke-width:0.708661;stroke-linecap:round;stroke-linejoin:round;stroke:rgb(97.254902%,46.27451%,42.745098%);stroke-opacity:1;stroke-miterlimit:10;" d="M 89.101563 55.144531 C 89.101563 58.875 86.074219 61.898438 82.34375 61.898438 C 78.613281 61.898438 75.585938 58.875 75.585938 55.144531 C 75.585938 51.414063 78.613281 48.386719 82.34375 48.386719 C 86.074219 48.386719 89.101563 51.414063 89.101563 55.144531 "/>
<path style="fill-rule:nonzero;fill:rgb(97.254902%,46.27451%,42.745098%);fill-opacity:1;stroke-width:0.708661;stroke-linecap:round;stroke-linejoin:round;stroke:rgb(97.254902%,46.27451%,42.745098%);stroke-opacity:1;stroke-miterlimit:10;" d="M 153.265625 29.476563 C 153.265625 33.210938 150.242188 36.234375 146.511719 36.234375 C 142.777344 36.234375 139.753906 33.210938 139.753906 29.476563 C 139.753906 25.746094 142.777344 22.722656 146.511719 22.722656 C 150.242188 22.722656 153.265625 25.746094 153.265625 29.476563 "/>
<g clip-path="url(#clip28)" clip-rule="nonzero">
<path style="fill:none;stroke-width:0.533489;stroke-linecap:butt;stroke-linejoin:round;stroke:rgb(92.156863%,92.156863%,92.156863%);stroke-opacity:1;stroke-miterlimit:10;" d="M 226.679688 183.476563 L 401.726563 183.476563 "/>
</g>
<g clip-path="url(#clip29)" clip-rule="nonzero">
<path style="fill:none;stroke-width:0.533489;stroke-linecap:butt;stroke-linejoin:round;stroke:rgb(92.156863%,92.156863%,92.156863%);stroke-opacity:1;stroke-miterlimit:10;" d="M 226.679688 157.808594 L 401.726563 157.808594 "/>
</g>
<g clip-path="url(#clip30)" clip-rule="nonzero">
<path style="fill:none;stroke-width:0.533489;stroke-linecap:butt;stroke-linejoin:round;stroke:rgb(92.156863%,92.156863%,92.156863%);stroke-opacity:1;stroke-miterlimit:10;" d="M 226.679688 132.144531 L 401.726563 132.144531 "/>
</g>
<g clip-path="url(#clip31)" clip-rule="nonzero">
<path style="fill:none;stroke-width:0.533489;stroke-linecap:butt;stroke-linejoin:round;stroke:rgb(92.156863%,92.156863%,92.156863%);stroke-opacity:1;stroke-miterlimit:10;" d="M 226.679688 106.476563 L 401.726563 106.476563 "/>
</g>
<g clip-path="url(#clip32)" clip-rule="nonzero">
<path style="fill:none;stroke-width:0.533489;stroke-linecap:butt;stroke-linejoin:round;stroke:rgb(92.156863%,92.156863%,92.156863%);stroke-opacity:1;stroke-miterlimit:10;" d="M 226.679688 80.8125 L 401.726563 80.8125 "/>
</g>
<g clip-path="url(#clip33)" clip-rule="nonzero">
<path style="fill:none;stroke-width:0.533489;stroke-linecap:butt;stroke-linejoin:round;stroke:rgb(92.156863%,92.156863%,92.156863%);stroke-opacity:1;stroke-miterlimit:10;" d="M 226.679688 55.144531 L 401.726563 55.144531 "/>
</g>
<g clip-path="url(#clip34)" clip-rule="nonzero">
<path style="fill:none;stroke-width:0.533489;stroke-linecap:butt;stroke-linejoin:round;stroke:rgb(92.156863%,92.156863%,92.156863%);stroke-opacity:1;stroke-miterlimit:10;" d="M 226.679688 29.476563 L 401.726563 29.476563 "/>
</g>
<g clip-path="url(#clip35)" clip-rule="nonzero">
<path style="fill:none;stroke-width:0.533489;stroke-linecap:butt;stroke-linejoin:round;stroke:rgb(92.156863%,92.156863%,92.156863%);stroke-opacity:1;stroke-miterlimit:10;" d="M 226.679688 16.644531 L 401.726563 16.644531 "/>
</g>
<g clip-path="url(#clip36)" clip-rule="nonzero">
<path style="fill:none;stroke-width:0.533489;stroke-linecap:butt;stroke-linejoin:round;stroke:rgb(92.156863%,92.156863%,92.156863%);stroke-opacity:1;stroke-miterlimit:10;" d="M 237.203125 194.640625 L 237.203125 5.480469 "/>
</g>
<g clip-path="url(#clip37)" clip-rule="nonzero">
<path style="fill:none;stroke-width:0.533489;stroke-linecap:butt;stroke-linejoin:round;stroke:rgb(92.156863%,92.156863%,92.156863%);stroke-opacity:1;stroke-miterlimit:10;" d="M 262.867188 194.640625 L 262.867188 5.480469 "/>
</g>
<g clip-path="url(#clip38)" clip-rule="nonzero">
<path style="fill:none;stroke-width:0.533489;stroke-linecap:butt;stroke-linejoin:round;stroke:rgb(92.156863%,92.156863%,92.156863%);stroke-opacity:1;stroke-miterlimit:10;" d="M 288.535156 194.640625 L 288.535156 5.480469 "/>
</g>
<g clip-path="url(#clip39)" clip-rule="nonzero">
<path style="fill:none;stroke-width:0.533489;stroke-linecap:butt;stroke-linejoin:round;stroke:rgb(92.156863%,92.156863%,92.156863%);stroke-opacity:1;stroke-miterlimit:10;" d="M 314.203125 194.640625 L 314.203125 5.480469 "/>
</g>
<g clip-path="url(#clip40)" clip-rule="nonzero">
<path style="fill:none;stroke-width:0.533489;stroke-linecap:butt;stroke-linejoin:round;stroke:rgb(92.156863%,92.156863%,92.156863%);stroke-opacity:1;stroke-miterlimit:10;" d="M 339.867188 194.640625 L 339.867188 5.480469 "/>
</g>
<g clip-path="url(#clip41)" clip-rule="nonzero">
<path style="fill:none;stroke-width:0.533489;stroke-linecap:butt;stroke-linejoin:round;stroke:rgb(92.156863%,92.156863%,92.156863%);stroke-opacity:1;stroke-miterlimit:10;" d="M 365.535156 194.640625 L 365.535156 5.480469 "/>
</g>
<g clip-path="url(#clip42)" clip-rule="nonzero">
<path style="fill:none;stroke-width:0.533489;stroke-linecap:butt;stroke-linejoin:round;stroke:rgb(92.156863%,92.156863%,92.156863%);stroke-opacity:1;stroke-miterlimit:10;" d="M 391.203125 194.640625 L 391.203125 5.480469 "/>
</g>
<g clip-path="url(#clip43)" clip-rule="nonzero">
<path style="fill:none;stroke-width:1.066978;stroke-linecap:butt;stroke-linejoin:round;stroke:rgb(92.156863%,92.156863%,92.156863%);stroke-opacity:1;stroke-miterlimit:10;" d="M 226.679688 170.644531 L 401.726563 170.644531 "/>
</g>
<g clip-path="url(#clip44)" clip-rule="nonzero">
<path style="fill:none;stroke-width:1.066978;stroke-linecap:butt;stroke-linejoin:round;stroke:rgb(92.156863%,92.156863%,92.156863%);stroke-opacity:1;stroke-miterlimit:10;" d="M 226.679688 144.976563 L 401.726563 144.976563 "/>
</g>
<g clip-path="url(#clip45)" clip-rule="nonzero">
<path style="fill:none;stroke-width:1.066978;stroke-linecap:butt;stroke-linejoin:round;stroke:rgb(92.156863%,92.156863%,92.156863%);stroke-opacity:1;stroke-miterlimit:10;" d="M 226.679688 119.308594 L 401.726563 119.308594 "/>
</g>
<g clip-path="url(#clip46)" clip-rule="nonzero">
<path style="fill:none;stroke-width:1.066978;stroke-linecap:butt;stroke-linejoin:round;stroke:rgb(92.156863%,92.156863%,92.156863%);stroke-opacity:1;stroke-miterlimit:10;" d="M 226.679688 93.644531 L 401.726563 93.644531 "/>
</g>
<g clip-path="url(#clip47)" clip-rule="nonzero">
<path style="fill:none;stroke-width:1.066978;stroke-linecap:butt;stroke-linejoin:round;stroke:rgb(92.156863%,92.156863%,92.156863%);stroke-opacity:1;stroke-miterlimit:10;" d="M 226.679688 67.976563 L 401.726563 67.976563 "/>
</g>
<g clip-path="url(#clip48)" clip-rule="nonzero">
<path style="fill:none;stroke-width:1.066978;stroke-linecap:butt;stroke-linejoin:round;stroke:rgb(92.156863%,92.156863%,92.156863%);stroke-opacity:1;stroke-miterlimit:10;" d="M 226.679688 42.3125 L 401.726563 42.3125 "/>
</g>
<g clip-path="url(#clip49)" clip-rule="nonzero">
<path style="fill:none;stroke-width:1.066978;stroke-linecap:butt;stroke-linejoin:round;stroke:rgb(92.156863%,92.156863%,92.156863%);stroke-opacity:1;stroke-miterlimit:10;" d="M 250.035156 194.640625 L 250.035156 5.480469 "/>
</g>
<g clip-path="url(#clip50)" clip-rule="nonzero">
<path style="fill:none;stroke-width:1.066978;stroke-linecap:butt;stroke-linejoin:round;stroke:rgb(92.156863%,92.156863%,92.156863%);stroke-opacity:1;stroke-miterlimit:10;" d="M 275.703125 194.640625 L 275.703125 5.480469 "/>
</g>
<g clip-path="url(#clip51)" clip-rule="nonzero">
<path style="fill:none;stroke-width:1.066978;stroke-linecap:butt;stroke-linejoin:round;stroke:rgb(92.156863%,92.156863%,92.156863%);stroke-opacity:1;stroke-miterlimit:10;" d="M 301.367188 194.640625 L 301.367188 5.480469 "/>
</g>
<g clip-path="url(#clip52)" clip-rule="nonzero">
<path style="fill:none;stroke-width:1.066978;stroke-linecap:butt;stroke-linejoin:round;stroke:rgb(92.156863%,92.156863%,92.156863%);stroke-opacity:1;stroke-miterlimit:10;" d="M 327.035156 194.640625 L 327.035156 5.480469 "/>
</g>
<g clip-path="url(#clip53)" clip-rule="nonzero">
<path style="fill:none;stroke-width:1.066978;stroke-linecap:butt;stroke-linejoin:round;stroke:rgb(92.156863%,92.156863%,92.156863%);stroke-opacity:1;stroke-miterlimit:10;" d="M 352.703125 194.640625 L 352.703125 5.480469 "/>
</g>
<g clip-path="url(#clip54)" clip-rule="nonzero">
<path style="fill:none;stroke-width:1.066978;stroke-linecap:butt;stroke-linejoin:round;stroke:rgb(92.156863%,92.156863%,92.156863%);stroke-opacity:1;stroke-miterlimit:10;" d="M 378.367188 194.640625 L 378.367188 5.480469 "/>
</g>
<path style="fill:none;stroke-width:6.40187;stroke-linecap:round;stroke-linejoin:round;stroke:rgb(0%,0%,0%);stroke-opacity:1;stroke-miterlimit:10;" d="M 301.367188 132.144531 L 310.359375 119.460938 L 321.902344 109.042969 L 337.160156 106.0625 L 352.703125 106.476563 L 366.238281 114.832031 L 377.3125 126.253906 L 380.640625 141.9375 L 378.367188 157.808594 L 361.84375 170.761719 L 342.1875 178.136719 L 321.5 175.902344 L 301.367188 170.644531 L 285.070313 157.566406 L 269.886719 143.210938 L 259.128906 125.296875 L 250.035156 106.476563 L 250.597656 93.078125 L 252.300781 79.773438 L 257 67.207031 L 262.867188 55.144531 L 277.410156 45.347656 L 292.824219 36.992188 L 309.847656 32.867188 L 327.035156 29.476563 "/>
<path style="fill-rule:nonzero;fill:rgb(38.039216%,61.176471%,100%);fill-opacity:1;stroke-width:0.708661;stroke-linecap:round;stroke-linejoin:round;stroke:rgb(38.039216%,61.176471%,100%);stroke-opacity:1;stroke-miterlimit:10;" d="M 308.125 132.144531 C 308.125 135.875 305.101563 138.898438 301.367188 138.898438 C 297.636719 138.898438 294.613281 135.875 294.613281 132.144531 C 294.613281 128.414063 297.636719 125.386719 301.367188 125.386719 C 305.101563 125.386719 308.125 128.414063 308.125 132.144531 "/>
<path style="fill-rule:nonzero;fill:rgb(38.039216%,61.176471%,100%);fill-opacity:1;stroke-width:0.708661;stroke-linecap:round;stroke-linejoin:round;stroke:rgb(38.039216%,61.176471%,100%);stroke-opacity:1;stroke-miterlimit:10;" d="M 317.117188 119.460938 C 317.117188 123.191406 314.09375 126.21875 310.359375 126.21875 C 306.628906 126.21875 303.605469 123.191406 303.605469 119.460938 C 303.605469 115.730469 306.628906 112.703125 310.359375 112.703125 C 314.09375 112.703125 317.117188 115.730469 317.117188 119.460938 "/>
<path style="fill-rule:nonzero;fill:rgb(38.039216%,61.176471%,100%);fill-opacity:1;stroke-width:0.708661;stroke-linecap:round;stroke-linejoin:round;stroke:rgb(38.039216%,61.176471%,100%);stroke-opacity:1;stroke-miterlimit:10;" d="M 328.65625 109.042969 C 328.65625 112.773438 325.632813 115.800781 321.902344 115.800781 C 318.171875 115.800781 315.144531 112.773438 315.144531 109.042969 C 315.144531 105.3125 318.171875 102.289063 321.902344 102.289063 C 325.632813 102.289063 328.65625 105.3125 328.65625 109.042969 "/>
<path style="fill-rule:nonzero;fill:rgb(38.039216%,61.176471%,100%);fill-opacity:1;stroke-width:0.708661;stroke-linecap:round;stroke-linejoin:round;stroke:rgb(38.039216%,61.176471%,100%);stroke-opacity:1;stroke-miterlimit:10;" d="M 343.917969 106.0625 C 343.917969 109.792969 340.890625 112.820313 337.160156 112.820313 C 333.429688 112.820313 330.402344 109.792969 330.402344 106.0625 C 330.402344 102.332031 333.429688 99.308594 337.160156 99.308594 C 340.890625 99.308594 343.917969 102.332031 343.917969 106.0625 "/>
<path style="fill-rule:nonzero;fill:rgb(38.039216%,61.176471%,100%);fill-opacity:1;stroke-width:0.708661;stroke-linecap:round;stroke-linejoin:round;stroke:rgb(38.039216%,61.176471%,100%);stroke-opacity:1;stroke-miterlimit:10;" d="M 359.457031 106.476563 C 359.457031 110.207031 356.433594 113.234375 352.703125 113.234375 C 348.96875 113.234375 345.945313 110.207031 345.945313 106.476563 C 345.945313 102.746094 348.96875 99.722656 352.703125 99.722656 C 356.433594 99.722656 359.457031 102.746094 359.457031 106.476563 "/>
<path style="fill-rule:nonzero;fill:rgb(38.039216%,61.176471%,100%);fill-opacity:1;stroke-width:0.708661;stroke-linecap:round;stroke-linejoin:round;stroke:rgb(38.039216%,61.176471%,100%);stroke-opacity:1;stroke-miterlimit:10;" d="M 372.996094 114.832031 C 372.996094 118.5625 369.96875 121.589844 366.238281 121.589844 C 362.507813 121.589844 359.484375 118.5625 359.484375 114.832031 C 359.484375 111.101563 362.507813 108.078125 366.238281 108.078125 C 369.96875 108.078125 372.996094 111.101563 372.996094 114.832031 "/>
<path style="fill-rule:nonzero;fill:rgb(38.039216%,61.176471%,100%);fill-opacity:1;stroke-width:0.708661;stroke-linecap:round;stroke-linejoin:round;stroke:rgb(38.039216%,61.176471%,100%);stroke-opacity:1;stroke-miterlimit:10;" d="M 384.066406 126.253906 C 384.066406 129.988281 381.042969 133.011719 377.3125 133.011719 C 373.578125 133.011719 370.554688 129.988281 370.554688 126.253906 C 370.554688 122.523438 373.578125 119.5 377.3125 119.5 C 381.042969 119.5 384.066406 122.523438 384.066406 126.253906 "/>
<path style="fill-rule:nonzero;fill:rgb(38.039216%,61.176471%,100%);fill-opacity:1;stroke-width:0.708661;stroke-linecap:round;stroke-linejoin:round;stroke:rgb(38.039216%,61.176471%,100%);stroke-opacity:1;stroke-miterlimit:10;" d="M 387.394531 141.9375 C 387.394531 145.671875 384.371094 148.695313 380.640625 148.695313 C 376.910156 148.695313 373.882813 145.671875 373.882813 141.9375 C 373.882813 138.207031 376.910156 135.183594 380.640625 135.183594 C 384.371094 135.183594 387.394531 138.207031 387.394531 141.9375 "/>
<path style="fill-rule:nonzero;fill:rgb(38.039216%,61.176471%,100%);fill-opacity:1;stroke-width:0.708661;stroke-linecap:round;stroke-linejoin:round;stroke:rgb(38.039216%,61.176471%,100%);stroke-opacity:1;stroke-miterlimit:10;" d="M 385.125 157.808594 C 385.125 161.542969 382.101563 164.566406 378.367188 164.566406 C 374.636719 164.566406 371.613281 161.542969 371.613281 157.808594 C 371.613281 154.078125 374.636719 151.054688 378.367188 151.054688 C 382.101563 151.054688 385.125 154.078125 385.125 157.808594 "/>
<path style="fill-rule:nonzero;fill:rgb(38.039216%,61.176471%,100%);fill-opacity:1;stroke-width:0.708661;stroke-linecap:round;stroke-linejoin:round;stroke:rgb(38.039216%,61.176471%,100%);stroke-opacity:1;stroke-miterlimit:10;" d="M 368.601563 170.761719 C 368.601563 174.492188 365.574219 177.515625 361.84375 177.515625 C 358.113281 177.515625 355.085938 174.492188 355.085938 170.761719 C 355.085938 167.03125 358.113281 164.003906 361.84375 164.003906 C 365.574219 164.003906 368.601563 167.03125 368.601563 170.761719 "/>
<path style="fill-rule:nonzero;fill:rgb(38.039216%,61.176471%,100%);fill-opacity:1;stroke-width:0.708661;stroke-linecap:round;stroke-linejoin:round;stroke:rgb(38.039216%,61.176471%,100%);stroke-opacity:1;stroke-miterlimit:10;" d="M 348.941406 178.136719 C 348.941406 181.867188 345.917969 184.890625 342.1875 184.890625 C 338.457031 184.890625 335.429688 181.867188 335.429688 178.136719 C 335.429688 174.402344 338.457031 171.378906 342.1875 171.378906 C 345.917969 171.378906 348.941406 174.402344 348.941406 178.136719 "/>
<path style="fill-rule:nonzero;fill:rgb(38.039216%,61.176471%,100%);fill-opacity:1;stroke-width:0.708661;stroke-linecap:round;stroke-linejoin:round;stroke:rgb(38.039216%,61.176471%,100%);stroke-opacity:1;stroke-miterlimit:10;" d="M 328.257813 175.902344 C 328.257813 179.632813 325.230469 182.660156 321.5 182.660156 C 317.769531 182.660156 314.742188 179.632813 314.742188 175.902344 C 314.742188 172.171875 317.769531 169.144531 321.5 169.144531 C 325.230469 169.144531 328.257813 172.171875 328.257813 175.902344 "/>
<path style="fill-rule:nonzero;fill:rgb(38.039216%,61.176471%,100%);fill-opacity:1;stroke-width:0.708661;stroke-linecap:round;stroke-linejoin:round;stroke:rgb(38.039216%,61.176471%,100%);stroke-opacity:1;stroke-miterlimit:10;" d="M 308.125 170.644531 C 308.125 174.375 305.101563 177.398438 301.367188 177.398438 C 297.636719 177.398438 294.613281 174.375 294.613281 170.644531 C 294.613281 166.914063 297.636719 163.886719 301.367188 163.886719 C 305.101563 163.886719 308.125 166.914063 308.125 170.644531 "/>
<path style="fill-rule:nonzero;fill:rgb(38.039216%,61.176471%,100%);fill-opacity:1;stroke-width:0.708661;stroke-linecap:round;stroke-linejoin:round;stroke:rgb(38.039216%,61.176471%,100%);stroke-opacity:1;stroke-miterlimit:10;" d="M 291.828125 157.566406 C 291.828125 161.300781 288.800781 164.324219 285.070313 164.324219 C 281.339844 164.324219 278.3125 161.300781 278.3125 157.566406 C 278.3125 153.835938 281.339844 150.8125 285.070313 150.8125 C 288.800781 150.8125 291.828125 153.835938 291.828125 157.566406 "/>
<path style="fill-rule:nonzero;fill:rgb(38.039216%,61.176471%,100%);fill-opacity:1;stroke-width:0.708661;stroke-linecap:round;stroke-linejoin:round;stroke:rgb(38.039216%,61.176471%,100%);stroke-opacity:1;stroke-miterlimit:10;" d="M 276.644531 143.210938 C 276.644531 146.941406 273.621094 149.96875 269.886719 149.96875 C 266.15625 149.96875 263.132813 146.941406 263.132813 143.210938 C 263.132813 139.480469 266.15625 136.457031 269.886719 136.457031 C 273.621094 136.457031 276.644531 139.480469 276.644531 143.210938 "/>
<path style="fill-rule:nonzero;fill:rgb(38.039216%,61.176471%,100%);fill-opacity:1;stroke-width:0.708661;stroke-linecap:round;stroke-linejoin:round;stroke:rgb(38.039216%,61.176471%,100%);stroke-opacity:1;stroke-miterlimit:10;" d="M 265.882813 125.296875 C 265.882813 129.027344 262.859375 132.050781 259.128906 132.050781 C 255.394531 132.050781 252.371094 129.027344 252.371094 125.296875 C 252.371094 121.5625 255.394531 118.539063 259.128906 118.539063 C 262.859375 118.539063 265.882813 121.5625 265.882813 125.296875 "/>
<path style="fill-rule:nonzero;fill:rgb(38.039216%,61.176471%,100%);fill-opacity:1;stroke-width:0.708661;stroke-linecap:round;stroke-linejoin:round;stroke:rgb(38.039216%,61.176471%,100%);stroke-opacity:1;stroke-miterlimit:10;" d="M 256.792969 106.476563 C 256.792969 110.207031 253.765625 113.234375 250.035156 113.234375 C 246.304688 113.234375 243.28125 110.207031 243.28125 106.476563 C 243.28125 102.746094 246.304688 99.722656 250.035156 99.722656 C 253.765625 99.722656 256.792969 102.746094 256.792969 106.476563 "/>
<path style="fill-rule:nonzero;fill:rgb(38.039216%,61.176471%,100%);fill-opacity:1;stroke-width:0.708661;stroke-linecap:round;stroke-linejoin:round;stroke:rgb(38.039216%,61.176471%,100%);stroke-opacity:1;stroke-miterlimit:10;" d="M 257.351563 93.078125 C 257.351563 96.808594 254.328125 99.832031 250.597656 99.832031 C 246.863281 99.832031 243.839844 96.808594 243.839844 93.078125 C 243.839844 89.34375 246.863281 86.320313 250.597656 86.320313 C 254.328125 86.320313 257.351563 89.34375 257.351563 93.078125 "/>
<path style="fill-rule:nonzero;fill:rgb(38.039216%,61.176471%,100%);fill-opacity:1;stroke-width:0.708661;stroke-linecap:round;stroke-linejoin:round;stroke:rgb(38.039216%,61.176471%,100%);stroke-opacity:1;stroke-miterlimit:10;" d="M 259.058594 79.773438 C 259.058594 83.503906 256.035156 86.53125 252.300781 86.53125 C 248.570313 86.53125 245.546875 83.503906 245.546875 79.773438 C 245.546875 76.042969 248.570313 73.015625 252.300781 73.015625 C 256.035156 73.015625 259.058594 76.042969 259.058594 79.773438 "/>
<path style="fill-rule:nonzero;fill:rgb(38.039216%,61.176471%,100%);fill-opacity:1;stroke-width:0.708661;stroke-linecap:round;stroke-linejoin:round;stroke:rgb(38.039216%,61.176471%,100%);stroke-opacity:1;stroke-miterlimit:10;" d="M 263.757813 67.207031 C 263.757813 70.9375 260.730469 73.964844 257 73.964844 C 253.269531 73.964844 250.246094 70.9375 250.246094 67.207031 C 250.246094 63.476563 253.269531 60.453125 257 60.453125 C 260.730469 60.453125 263.757813 63.476563 263.757813 67.207031 "/>
<path style="fill-rule:nonzero;fill:rgb(38.039216%,61.176471%,100%);fill-opacity:1;stroke-width:0.708661;stroke-linecap:round;stroke-linejoin:round;stroke:rgb(38.039216%,61.176471%,100%);stroke-opacity:1;stroke-miterlimit:10;" d="M 269.625 55.144531 C 269.625 58.875 266.601563 61.898438 262.867188 61.898438 C 259.136719 61.898438 256.113281 58.875 256.113281 55.144531 C 256.113281 51.414063 259.136719 48.386719 262.867188 48.386719 C 266.601563 48.386719 269.625 51.414063 269.625 55.144531 "/>
<path style="fill-rule:nonzero;fill:rgb(38.039216%,61.176471%,100%);fill-opacity:1;stroke-width:0.708661;stroke-linecap:round;stroke-linejoin:round;stroke:rgb(38.039216%,61.176471%,100%);stroke-opacity:1;stroke-miterlimit:10;" d="M 284.167969 45.347656 C 284.167969 49.082031 281.140625 52.105469 277.410156 52.105469 C 273.679688 52.105469 270.65625 49.082031 270.65625 45.347656 C 270.65625 41.617188 273.679688 38.59375 277.410156 38.59375 C 281.140625 38.59375 284.167969 41.617188 284.167969 45.347656 "/>
<path style="fill-rule:nonzero;fill:rgb(38.039216%,61.176471%,100%);fill-opacity:1;stroke-width:0.708661;stroke-linecap:round;stroke-linejoin:round;stroke:rgb(38.039216%,61.176471%,100%);stroke-opacity:1;stroke-miterlimit:10;" d="M 299.582031 36.992188 C 299.582031 40.722656 296.554688 43.746094 292.824219 43.746094 C 289.09375 43.746094 286.066406 40.722656 286.066406 36.992188 C 286.066406 33.261719 289.09375 30.234375 292.824219 30.234375 C 296.554688 30.234375 299.582031 33.261719 299.582031 36.992188 "/>
<path style="fill-rule:nonzero;fill:rgb(38.039216%,61.176471%,100%);fill-opacity:1;stroke-width:0.708661;stroke-linecap:round;stroke-linejoin:round;stroke:rgb(38.039216%,61.176471%,100%);stroke-opacity:1;stroke-miterlimit:10;" d="M 316.605469 32.867188 C 316.605469 36.601563 313.582031 39.625 309.847656 39.625 C 306.117188 39.625 303.09375 36.601563 303.09375 32.867188 C 303.09375 29.136719 306.117188 26.113281 309.847656 26.113281 C 313.582031 26.113281 316.605469 29.136719 316.605469 32.867188 "/>
<path style="fill-rule:nonzero;fill:rgb(38.039216%,61.176471%,100%);fill-opacity:1;stroke-width:0.708661;stroke-linecap:round;stroke-linejoin:round;stroke:rgb(38.039216%,61.176471%,100%);stroke-opacity:1;stroke-miterlimit:10;" d="M 333.792969 29.476563 C 333.792969 33.210938 330.765625 36.234375 327.035156 36.234375 C 323.304688 36.234375 320.277344 33.210938 320.277344 29.476563 C 320.277344 25.746094 323.304688 22.722656 327.035156 22.722656 C 330.765625 22.722656 333.792969 25.746094 333.792969 29.476563 "/>
</g>
</svg>
