<?xml version="1.0" encoding="UTF-8"?>
<svg xmlns="http://www.w3.org/2000/svg" xmlns:xlink="http://www.w3.org/1999/xlink" width="288pt" height="288pt" viewBox="0 0 288 288" version="1.1">
<defs>
<clipPath id="clip1">
  <path d="M 32.8125 229 L 272 229 L 272 231 L 32.8125 231 Z M 32.8125 229 "/>
</clipPath>
<clipPath id="clip2">
  <path d="M 32.8125 187 L 272 187 L 272 189 L 32.8125 189 Z M 32.8125 187 "/>
</clipPath>
<clipPath id="clip3">
  <path d="M 32.8125 146 L 272 146 L 272 147 L 32.8125 147 Z M 32.8125 146 "/>
</clipPath>
<clipPath id="clip4">
  <path d="M 32.8125 104 L 272 104 L 272 106 L 32.8125 106 Z M 32.8125 104 "/>
</clipPath>
<clipPath id="clip5">
  <path d="M 32.8125 62 L 272 62 L 272 64 L 32.8125 64 Z M 32.8125 62 "/>
</clipPath>
<clipPath id="clip6">
  <path d="M 32.8125 21 L 272 21 L 272 22 L 32.8125 22 Z M 32.8125 21 "/>
</clipPath>
<clipPath id="clip7">
  <path d="M 68 5.480469 L 69 5.480469 L 69 267 L 68 267 Z M 68 5.480469 "/>
</clipPath>
<clipPath id="clip8">
  <path d="M 110 5.480469 L 111 5.480469 L 111 267 L 110 267 Z M 110 5.480469 "/>
</clipPath>
<clipPath id="clip9">
  <path d="M 151 5.480469 L 153 5.480469 L 153 267 L 151 267 Z M 151 5.480469 "/>
</clipPath>
<clipPath id="clip10">
  <path d="M 193 5.480469 L 194 5.480469 L 194 267 L 193 267 Z M 193 5.480469 "/>
</clipPath>
<clipPath id="clip11">
  <path d="M 234 5.480469 L 236 5.480469 L 236 267 L 234 267 Z M 234 5.480469 "/>
</clipPath>
<clipPath id="clip12">
  <path d="M 32.8125 250 L 272 250 L 272 252 L 32.8125 252 Z M 32.8125 250 "/>
</clipPath>
<clipPath id="clip13">
  <path d="M 32.8125 208 L 272 208 L 272 210 L 32.8125 210 Z M 32.8125 208 "/>
</clipPath>
<clipPath id="clip14">
  <path d="M 32.8125 166 L 272 166 L 272 168 L 32.8125 168 Z M 32.8125 166 "/>
</clipPath>
<clipPath id="clip15">
  <path d="M 32.8125 125 L 272 125 L 272 127 L 32.8125 127 Z M 32.8125 125 "/>
</clipPath>
<clipPath id="clip16">
  <path d="M 32.8125 83 L 272 83 L 272 85 L 32.8125 85 Z M 32.8125 83 "/>
</clipPath>
<clipPath id="clip17">
  <path d="M 32.8125 41 L 272 41 L 272 43 L 32.8125 43 Z M 32.8125 41 "/>
</clipPath>
<clipPath id="clip18">
  <path d="M 47 5.480469 L 49 5.480469 L 49 267.644531 L 47 267.644531 Z M 47 5.480469 "/>
</clipPath>
<clipPath id="clip19">
  <path d="M 88 5.480469 L 90 5.480469 L 90 267.644531 L 88 267.644531 Z M 88 5.480469 "/>
</clipPath>
<clipPath id="clip20">
  <path d="M 130 5.480469 L 132 5.480469 L 132 267.644531 L 130 267.644531 Z M 130 5.480469 "/>
</clipPath>
<clipPath id="clip21">
  <path d="M 172 5.480469 L 174 5.480469 L 174 267.644531 L 172 267.644531 Z M 172 5.480469 "/>
</clipPath>
<clipPath id="clip22">
  <path d="M 213 5.480469 L 215 5.480469 L 215 267.644531 L 213 267.644531 Z M 213 5.480469 "/>
</clipPath>
<clipPath id="clip23">
  <path d="M 255 5.480469 L 257 5.480469 L 257 267.644531 L 255 267.644531 Z M 255 5.480469 "/>
</clipPath>
</defs>
<g id="surface41">
<rect x="0" y="0" width="288" height="288" style="fill:rgb(100%,100%,100%);fill-opacity:1;stroke:none;"/>
<g clip-path="url(#clip1)" clip-rule="nonzero">
<path style="fill:none;stroke-width:0.533489;stroke-linecap:butt;stroke-linejoin:round;stroke:rgb(92.156863%,92.156863%,92.156863%);stroke-opacity:1;stroke-miterlimit:10;" d="M 32.8125 229.777344 L 271.066406 229.777344 "/>
</g>
<g clip-path="url(#clip2)" clip-rule="nonzero">
<path style="fill:none;stroke-width:0.533489;stroke-linecap:butt;stroke-linejoin:round;stroke:rgb(92.156863%,92.156863%,92.156863%);stroke-opacity:1;stroke-miterlimit:10;" d="M 32.8125 188.125 L 271.066406 188.125 "/>
</g>
<g clip-path="url(#clip3)" clip-rule="nonzero">
<path style="fill:none;stroke-width:0.533489;stroke-linecap:butt;stroke-linejoin:round;stroke:rgb(92.156863%,92.156863%,92.156863%);stroke-opacity:1;stroke-miterlimit:10;" d="M 32.8125 146.472656 L 271.066406 146.472656 "/>
</g>
<g clip-path="url(#clip4)" clip-rule="nonzero">
<path style="fill:none;stroke-width:0.533489;stroke-linecap:butt;stroke-linejoin:round;stroke:rgb(92.156863%,92.156863%,92.156863%);stroke-opacity:1;stroke-miterlimit:10;" d="M 32.8125 104.820313 L 271.066406 104.820313 "/>
</g>
<g clip-path="url(#clip5)" clip-rule="nonzero">
<path style="fill:none;stroke-width:0.533489;stroke-linecap:butt;stroke-linejoin:round;stroke:rgb(92.156863%,92.156863%,92.156863%);stroke-opacity:1;stroke-miterlimit:10;" d="M 32.8125 63.167969 L 271.066406 63.167969 "/>
</g>
<g clip-path="url(#clip6)" clip-rule="nonzero">
<path style="fill:none;stroke-width:0.533489;stroke-linecap:butt;stroke-linejoin:round;stroke:rgb(92.156863%,92.156863%,92.156863%);stroke-opacity:1;stroke-miterlimit:10;" d="M 32.8125 21.515625 L 271.066406 21.515625 "/>
</g>
<g clip-path="url(#clip7)" clip-rule="nonzero">
<path style="fill:none;stroke-width:0.533489;stroke-linecap:butt;stroke-linejoin:round;stroke:rgb(92.156863%,92.156863%,92.156863%);stroke-opacity:1;stroke-miterlimit:10;" d="M 68.632813 266.640625 L 68.632813 5.480469 "/>
</g>
<g clip-path="url(#clip8)" clip-rule="nonzero">
<path style="fill:none;stroke-width:0.533489;stroke-linecap:butt;stroke-linejoin:round;stroke:rgb(92.156863%,92.156863%,92.156863%);stroke-opacity:1;stroke-miterlimit:10;" d="M 110.285156 266.640625 L 110.285156 5.480469 "/>
</g>
<g clip-path="url(#clip9)" clip-rule="nonzero">
<path style="fill:none;stroke-width:0.533489;stroke-linecap:butt;stroke-linejoin:round;stroke:rgb(92.156863%,92.156863%,92.156863%);stroke-opacity:1;stroke-miterlimit:10;" d="M 151.9375 266.640625 L 151.9375 5.480469 "/>
</g>
<g clip-path="url(#clip10)" clip-rule="nonzero">
<path style="fill:none;stroke-width:0.533489;stroke-linecap:butt;stroke-linejoin:round;stroke:rgb(92.156863%,92.156863%,92.156863%);stroke-opacity:1;stroke-miterlimit:10;" d="M 193.59375 266.640625 L 193.59375 5.480469 "/>
</g>
<g clip-path="url(#clip11)" clip-rule="nonzero">
<path style="fill:none;stroke-width:0.533489;stroke-linecap:butt;stroke-linejoin:round;stroke:rgb(92.156863%,92.156863%,92.156863%);stroke-opacity:1;stroke-miterlimit:10;" d="M 235.246094 266.640625 L 235.246094 5.480469 "/>
</g>
<g clip-path="url(#clip12)" clip-rule="nonzero">
<path style="fill:none;stroke-width:1.066978;stroke-linecap:butt;stroke-linejoin:round;stroke:rgb(92.156863%,92.156863%,92.156863%);stroke-opacity:1;stroke-miterlimit:10;" d="M 32.8125 250.605469 L 271.066406 250.605469 "/>
</g>
<g clip-path="url(#clip13)" clip-rule="nonzero">
<path style="fill:none;stroke-width:1.066978;stroke-linecap:butt;stroke-linejoin:round;stroke:rgb(92.156863%,92.156863%,92.156863%);stroke-opacity:1;stroke-miterlimit:10;" d="M 32.8125 208.953125 L 271.066406 208.953125 "/>
</g>
<g clip-path="url(#clip14)" clip-rule="nonzero">
<path style="fill:none;stroke-width:1.066978;stroke-linecap:butt;stroke-linejoin:round;stroke:rgb(92.156863%,92.156863%,92.156863%);stroke-opacity:1;stroke-miterlimit:10;" d="M 32.8125 167.300781 L 271.066406 167.300781 "/>
</g>
<g clip-path="url(#clip15)" clip-rule="nonzero">
<path style="fill:none;stroke-width:1.066978;stroke-linecap:butt;stroke-linejoin:round;stroke:rgb(92.156863%,92.156863%,92.156863%);stroke-opacity:1;stroke-miterlimit:10;" d="M 32.8125 125.648438 L 271.066406 125.648438 "/>
</g>
<g clip-path="url(#clip16)" clip-rule="nonzero">
<path style="fill:none;stroke-width:1.066978;stroke-linecap:butt;stroke-linejoin:round;stroke:rgb(92.156863%,92.156863%,92.156863%);stroke-opacity:1;stroke-miterlimit:10;" d="M 32.8125 83.996094 L 271.066406 83.996094 "/>
</g>
<g clip-path="url(#clip17)" clip-rule="nonzero">
<path style="fill:none;stroke-width:1.066978;stroke-linecap:butt;stroke-linejoin:round;stroke:rgb(92.156863%,92.156863%,92.156863%);stroke-opacity:1;stroke-miterlimit:10;" d="M 32.8125 42.34375 L 271.066406 42.34375 "/>
</g>
<g clip-path="url(#clip18)" clip-rule="nonzero">
<path style="fill:none;stroke-width:1.066978;stroke-linecap:butt;stroke-linejoin:round;stroke:rgb(92.156863%,92.156863%,92.156863%);stroke-opacity:1;stroke-miterlimit:10;" d="M 47.808594 266.640625 L 47.808594 5.480469 "/>
</g>
<g clip-path="url(#clip19)" clip-rule="nonzero">
<path style="fill:none;stroke-width:1.066978;stroke-linecap:butt;stroke-linejoin:round;stroke:rgb(92.156863%,92.156863%,92.156863%);stroke-opacity:1;stroke-miterlimit:10;" d="M 89.460938 266.640625 L 89.460938 5.480469 "/>
</g>
<g clip-path="url(#clip20)" clip-rule="nonzero">
<path style="fill:none;stroke-width:1.066978;stroke-linecap:butt;stroke-linejoin:round;stroke:rgb(92.156863%,92.156863%,92.156863%);stroke-opacity:1;stroke-miterlimit:10;" d="M 131.113281 266.640625 L 131.113281 5.480469 "/>
</g>
<g clip-path="url(#clip21)" clip-rule="nonzero">
<path style="fill:none;stroke-width:1.066978;stroke-linecap:butt;stroke-linejoin:round;stroke:rgb(92.156863%,92.156863%,92.156863%);stroke-opacity:1;stroke-miterlimit:10;" d="M 172.765625 266.640625 L 172.765625 5.480469 "/>
</g>
<g clip-path="url(#clip22)" clip-rule="nonzero">
<path style="fill:none;stroke-width:1.066978;stroke-linecap:butt;stroke-linejoin:round;stroke:rgb(92.156863%,92.156863%,92.156863%);stroke-opacity:1;stroke-miterlimit:10;" d="M 214.417969 266.640625 L 214.417969 5.480469 "/>
</g>
<g clip-path="url(#clip23)" clip-rule="nonzero">
<path style="fill:none;stroke-width:1.066978;stroke-linecap:butt;stroke-linejoin:round;stroke:rgb(92.156863%,92.156863%,92.156863%);stroke-opacity:1;stroke-miterlimit:10;" d="M 256.070313 266.640625 L 256.070313 5.480469 "/>
</g>
<path style="fill:none;stroke-width:6.40187;stroke-linecap:round;stroke-linejoin:round;stroke:rgb(0%,0%,0%);stroke-opacity:1;stroke-miterlimit:10;" d="M 131.113281 188.125 L 214.417969 146.472656 L 256.070313 229.777344 L 131.113281 250.605469 L 47.808594 146.472656 L 68.632813 63.167969 L 172.765625 21.515625 "/>
<path style="fill-rule:nonzero;fill:rgb(97.254902%,46.27451%,42.745098%);fill-opacity:1;stroke-width:0.708661;stroke-linecap:round;stroke-linejoin:round;stroke:rgb(97.254902%,46.27451%,42.745098%);stroke-opacity:1;stroke-miterlimit:10;" d="M 140.003906 188.125 C 140.003906 193.035156 136.023438 197.015625 131.113281 197.015625 C 126.203125 197.015625 122.222656 193.035156 122.222656 188.125 C 122.222656 183.214844 126.203125 179.234375 131.113281 179.234375 C 136.023438 179.234375 140.003906 183.214844 140.003906 188.125 "/>
<path style="fill-rule:nonzero;fill:rgb(97.254902%,46.27451%,42.745098%);fill-opacity:1;stroke-width:0.708661;stroke-linecap:round;stroke-linejoin:round;stroke:rgb(97.254902%,46.27451%,42.745098%);stroke-opacity:1;stroke-miterlimit:10;" d="M 223.308594 146.472656 C 223.308594 151.382813 219.328125 155.363281 214.417969 155.363281 C 209.507813 155.363281 205.527344 151.382813 205.527344 146.472656 C 205.527344 141.5625 209.507813 137.582031 214.417969 137.582031 C 219.328125 137.582031 223.308594 141.5625 223.308594 146.472656 "/>
<path style="fill-rule:nonzero;fill:rgb(97.254902%,46.27451%,42.745098%);fill-opacity:1;stroke-width:0.708661;stroke-linecap:round;stroke-linejoin:round;stroke:rgb(97.254902%,46.27451%,42.745098%);stroke-opacity:1;stroke-miterlimit:10;" d="M 264.960938 229.777344 C 264.960938 234.6875 260.980469 238.667969 256.070313 238.667969 C 251.160156 238.667969 247.179688 234.6875 247.179688 229.777344 C 247.179688 224.871094 251.160156 220.890625 256.070313 220.890625 C 260.980469 220.890625 264.960938 224.871094 264.960938 229.777344 "/>
<path style="fill-rule:nonzero;fill:rgb(97.254902%,46.27451%,42.745098%);fill-opacity:1;stroke-width:0.708661;stroke-linecap:round;stroke-linejoin:round;stroke:rgb(97.254902%,46.27451%,42.745098%);stroke-opacity:1;stroke-miterlimit:10;" d="M 140.003906 250.605469 C 140.003906 255.515625 136.023438 259.496094 131.113281 259.496094 C 126.203125 259.496094 122.222656 255.515625 122.222656 250.605469 C 122.222656 245.695313 126.203125 241.714844 131.113281 241.714844 C 136.023438 241.714844 140.003906 245.695313 140.003906 250.605469 "/>
<path style="fill-rule:nonzero;fill:rgb(97.254902%,46.27451%,42.745098%);fill-opacity:1;stroke-width:0.708661;stroke-linecap:round;stroke-linejoin:round;stroke:rgb(97.254902%,46.27451%,42.745098%);stroke-opacity:1;stroke-miterlimit:10;" d="M 56.699219 146.472656 C 56.699219 151.382813 52.71875 155.363281 47.808594 155.363281 C 42.898438 155.363281 38.917969 151.382813 38.917969 146.472656 C 38.917969 141.5625 42.898438 137.582031 47.808594 137.582031 C 52.71875 137.582031 56.699219 141.5625 56.699219 146.472656 "/>
<path style="fill-rule:nonzero;fill:rgb(97.254902%,46.27451%,42.745098%);fill-opacity:1;stroke-width:0.708661;stroke-linecap:round;stroke-linejoin:round;stroke:rgb(97.254902%,46.27451%,42.745098%);stroke-opacity:1;stroke-miterlimit:10;" d="M 77.523438 63.167969 C 77.523438 68.078125 73.542969 72.058594 68.632813 72.058594 C 63.722656 72.058594 59.742188 68.078125 59.742188 63.167969 C 59.742188 58.257813 63.722656 54.277344 68.632813 54.277344 C 73.542969 54.277344 77.523438 58.257813 77.523438 63.167969 "/>
<path style="fill-rule:nonzero;fill:rgb(97.254902%,46.27451%,42.745098%);fill-opacity:1;stroke-width:0.708661;stroke-linecap:round;stroke-linejoin:round;stroke:rgb(97.254902%,46.27451%,42.745098%);stroke-opacity:1;stroke-miterlimit:10;" d="M 181.65625 21.515625 C 181.65625 26.425781 177.675781 30.40625 172.765625 30.40625 C 167.855469 30.40625 163.875 26.425781 163.875 21.515625 C 163.875 16.605469 167.855469 12.625 172.765625 12.625 C 177.675781 12.625 181.65625 16.605469 181.65625 21.515625 "/>
</g>
</svg>
