<?xml version="1.0" encoding="UTF-8"?>
<svg xmlns="http://www.w3.org/2000/svg" xmlns:xlink="http://www.w3.org/1999/xlink" width="576pt" height="288pt" viewBox="0 0 576 288" version="1.1">
<defs>
<clipPath id="clip1">
  <path d="M 52.765625 258 L 294 258 L 294 259 L 52.765625 259 Z M 52.765625 258 "/>
</clipPath>
<clipPath id="clip2">
  <path d="M 52.765625 220 L 294 220 L 294 222 L 52.765625 222 Z M 52.765625 220 "/>
</clipPath>
<clipPath id="clip3">
  <path d="M 52.765625 182 L 294 182 L 294 184 L 52.765625 184 Z M 52.765625 182 "/>
</clipPath>
<clipPath id="clip4">
  <path d="M 52.765625 145 L 294 145 L 294 146 L 52.765625 146 Z M 52.765625 145 "/>
</clipPath>
<clipPath id="clip5">
  <path d="M 52.765625 107 L 294 107 L 294 109 L 52.765625 109 Z M 52.765625 107 "/>
</clipPath>
<clipPath id="clip6">
  <path d="M 52.765625 69 L 294 69 L 294 71 L 52.765625 71 Z M 52.765625 69 "/>
</clipPath>
<clipPath id="clip7">
  <path d="M 52.765625 32 L 294 32 L 294 33 L 52.765625 33 Z M 52.765625 32 "/>
</clipPath>
<clipPath id="clip8">
  <path d="M 52.765625 13 L 294 13 L 294 14 L 52.765625 14 Z M 52.765625 13 "/>
</clipPath>
<clipPath id="clip9">
  <path d="M 59 5.480469 L 61 5.480469 L 61 267 L 59 267 Z M 59 5.480469 "/>
</clipPath>
<clipPath id="clip10">
  <path d="M 97 5.480469 L 98 5.480469 L 98 267 L 97 267 Z M 97 5.480469 "/>
</clipPath>
<clipPath id="clip11">
  <path d="M 135 5.480469 L 136 5.480469 L 136 267 L 135 267 Z M 135 5.480469 "/>
</clipPath>
<clipPath id="clip12">
  <path d="M 172 5.480469 L 174 5.480469 L 174 267 L 172 267 Z M 172 5.480469 "/>
</clipPath>
<clipPath id="clip13">
  <path d="M 210 5.480469 L 211 5.480469 L 211 267 L 210 267 Z M 210 5.480469 "/>
</clipPath>
<clipPath id="clip14">
  <path d="M 248 5.480469 L 249 5.480469 L 249 267 L 248 267 Z M 248 5.480469 "/>
</clipPath>
<clipPath id="clip15">
  <path d="M 285 5.480469 L 287 5.480469 L 287 267 L 285 267 Z M 285 5.480469 "/>
</clipPath>
<clipPath id="clip16">
  <path d="M 52.765625 239 L 294 239 L 294 241 L 52.765625 241 Z M 52.765625 239 "/>
</clipPath>
<clipPath id="clip17">
  <path d="M 52.765625 201 L 294 201 L 294 203 L 52.765625 203 Z M 52.765625 201 "/>
</clipPath>
<clipPath id="clip18">
  <path d="M 52.765625 163 L 294 163 L 294 165 L 52.765625 165 Z M 52.765625 163 "/>
</clipPath>
<clipPath id="clip19">
  <path d="M 52.765625 126 L 294 126 L 294 128 L 52.765625 128 Z M 52.765625 126 "/>
</clipPath>
<clipPath id="clip20">
  <path d="M 52.765625 88 L 294 88 L 294 90 L 52.765625 90 Z M 52.765625 88 "/>
</clipPath>
<clipPath id="clip21">
  <path d="M 52.765625 50 L 294 50 L 294 52 L 52.765625 52 Z M 52.765625 50 "/>
</clipPath>
<clipPath id="clip22">
  <path d="M 78 5.480469 L 80 5.480469 L 80 267.644531 L 78 267.644531 Z M 78 5.480469 "/>
</clipPath>
<clipPath id="clip23">
  <path d="M 115 5.480469 L 117 5.480469 L 117 267.644531 L 115 267.644531 Z M 115 5.480469 "/>
</clipPath>
<clipPath id="clip24">
  <path d="M 153 5.480469 L 155 5.480469 L 155 267.644531 L 153 267.644531 Z M 153 5.480469 "/>
</clipPath>
<clipPath id="clip25">
  <path d="M 191 5.480469 L 193 5.480469 L 193 267.644531 L 191 267.644531 Z M 191 5.480469 "/>
</clipPath>
<clipPath id="clip26">
  <path d="M 228 5.480469 L 231 5.480469 L 231 267.644531 L 228 267.644531 Z M 228 5.480469 "/>
</clipPath>
<clipPath id="clip27">
  <path d="M 266 5.480469 L 268 5.480469 L 268 267.644531 L 266 267.644531 Z M 266 5.480469 "/>
</clipPath>
<clipPath id="clip28">
  <path d="M 298.679688 258 L 540 258 L 540 259 L 298.679688 259 Z M 298.679688 258 "/>
</clipPath>
<clipPath id="clip29">
  <path d="M 298.679688 220 L 540 220 L 540 222 L 298.679688 222 Z M 298.679688 220 "/>
</clipPath>
<clipPath id="clip30">
  <path d="M 298.679688 182 L 540 182 L 540 184 L 298.679688 184 Z M 298.679688 182 "/>
</clipPath>
<clipPath id="clip31">
  <path d="M 298.679688 145 L 540 145 L 540 146 L 298.679688 146 Z M 298.679688 145 "/>
</clipPath>
<clipPath id="clip32">
  <path d="M 298.679688 107 L 540 107 L 540 109 L 298.679688 109 Z M 298.679688 107 "/>
</clipPath>
<clipPath id="clip33">
  <path d="M 298.679688 69 L 540 69 L 540 71 L 298.679688 71 Z M 298.679688 69 "/>
</clipPath>
<clipPath id="clip34">
  <path d="M 298.679688 32 L 540 32 L 540 33 L 298.679688 33 Z M 298.679688 32 "/>
</clipPath>
<clipPath id="clip35">
  <path d="M 298.679688 13 L 540 13 L 540 14 L 298.679688 14 Z M 298.679688 13 "/>
</clipPath>
<clipPath id="clip36">
  <path d="M 305 5.480469 L 307 5.480469 L 307 267 L 305 267 Z M 305 5.480469 "/>
</clipPath>
<clipPath id="clip37">
  <path d="M 343 5.480469 L 344 5.480469 L 344 267 L 343 267 Z M 343 5.480469 "/>
</clipPath>
<clipPath id="clip38">
  <path d="M 380 5.480469 L 382 5.480469 L 382 267 L 380 267 Z M 380 5.480469 "/>
</clipPath>
<clipPath id="clip39">
  <path d="M 418 5.480469 L 420 5.480469 L 420 267 L 418 267 Z M 418 5.480469 "/>
</clipPath>
<clipPath id="clip40">
  <path d="M 456 5.480469 L 457 5.480469 L 457 267 L 456 267 Z M 456 5.480469 "/>
</clipPath>
<clipPath id="clip41">
  <path d="M 494 5.480469 L 495 5.480469 L 495 267 L 494 267 Z M 494 5.480469 "/>
</clipPath>
<clipPath id="clip42">
  <path d="M 531 5.480469 L 533 5.480469 L 533 267 L 531 267 Z M 531 5.480469 "/>
</clipPath>
<clipPath id="clip43">
  <path d="M 298.679688 239 L 540 239 L 540 241 L 298.679688 241 Z M 298.679688 239 "/>
</clipPath>
<clipPath id="clip44">
  <path d="M 298.679688 201 L 540 201 L 540 203 L 298.679688 203 Z M 298.679688 201 "/>
</clipPath>
<clipPath id="clip45">
  <path d="M 298.679688 163 L 540 163 L 540 165 L 298.679688 165 Z M 298.679688 163 "/>
</clipPath>
<clipPath id="clip46">
  <path d="M 298.679688 126 L 540 126 L 540 128 L 298.679688 128 Z M 298.679688 126 "/>
</clipPath>
<clipPath id="clip47">
  <path d="M 298.679688 88 L 540 88 L 540 90 L 298.679688 90 Z M 298.679688 88 "/>
</clipPath>
<clipPath id="clip48">
  <path d="M 298.679688 50 L 540 50 L 540 52 L 298.679688 52 Z M 298.679688 50 "/>
</clipPath>
<clipPath id="clip49">
  <path d="M 324 5.480469 L 326 5.480469 L 326 267.644531 L 324 267.644531 Z M 324 5.480469 "/>
</clipPath>
<clipPath id="clip50">
  <path d="M 361 5.480469 L 363 5.480469 L 363 267.644531 L 361 267.644531 Z M 361 5.480469 "/>
</clipPath>
<clipPath id="clip51">
  <path d="M 399 5.480469 L 401 5.480469 L 401 267.644531 L 399 267.644531 Z M 399 5.480469 "/>
</clipPath>
<clipPath id="clip52">
  <path d="M 437 5.480469 L 439 5.480469 L 439 267.644531 L 437 267.644531 Z M 437 5.480469 "/>
</clipPath>
<clipPath id="clip53">
  <path d="M 474 5.480469 L 476 5.480469 L 476 267.644531 L 474 267.644531 Z M 474 5.480469 "/>
</clipPath>
<clipPath id="clip54">
  <path d="M 512 5.480469 L 514 5.480469 L 514 267.644531 L 512 267.644531 Z M 512 5.480469 "/>
</clipPath>
</defs>
<g id="surface51">
<rect x="0" y="0" width="576" height="288" style="fill:rgb(100%,100%,100%);fill-opacity:1;stroke:none;"/>
<g clip-path="url(#clip1)" clip-rule="nonzero">
<path style="fill:none;stroke-width:0.533489;stroke-linecap:butt;stroke-linejoin:round;stroke:rgb(92.156863%,92.156863%,92.156863%);stroke-opacity:1;stroke-miterlimit:10;" d="M 52.765625 258.539063 L 293.199219 258.539063 "/>
</g>
<g clip-path="url(#clip2)" clip-rule="nonzero">
<path style="fill:none;stroke-width:0.533489;stroke-linecap:butt;stroke-linejoin:round;stroke:rgb(92.156863%,92.156863%,92.156863%);stroke-opacity:1;stroke-miterlimit:10;" d="M 52.765625 220.851563 L 293.199219 220.851563 "/>
</g>
<g clip-path="url(#clip3)" clip-rule="nonzero">
<path style="fill:none;stroke-width:0.533489;stroke-linecap:butt;stroke-linejoin:round;stroke:rgb(92.156863%,92.156863%,92.156863%);stroke-opacity:1;stroke-miterlimit:10;" d="M 52.765625 183.167969 L 293.199219 183.167969 "/>
</g>
<g clip-path="url(#clip4)" clip-rule="nonzero">
<path style="fill:none;stroke-width:0.533489;stroke-linecap:butt;stroke-linejoin:round;stroke:rgb(92.156863%,92.156863%,92.156863%);stroke-opacity:1;stroke-miterlimit:10;" d="M 52.765625 145.480469 L 293.199219 145.480469 "/>
</g>
<g clip-path="url(#clip5)" clip-rule="nonzero">
<path style="fill:none;stroke-width:0.533489;stroke-linecap:butt;stroke-linejoin:round;stroke:rgb(92.156863%,92.156863%,92.156863%);stroke-opacity:1;stroke-miterlimit:10;" d="M 52.765625 107.796875 L 293.199219 107.796875 "/>
</g>
<g clip-path="url(#clip6)" clip-rule="nonzero">
<path style="fill:none;stroke-width:0.533489;stroke-linecap:butt;stroke-linejoin:round;stroke:rgb(92.156863%,92.156863%,92.156863%);stroke-opacity:1;stroke-miterlimit:10;" d="M 52.765625 70.109375 L 293.199219 70.109375 "/>
</g>
<g clip-path="url(#clip7)" clip-rule="nonzero">
<path style="fill:none;stroke-width:0.533489;stroke-linecap:butt;stroke-linejoin:round;stroke:rgb(92.156863%,92.156863%,92.156863%);stroke-opacity:1;stroke-miterlimit:10;" d="M 52.765625 32.425781 L 293.199219 32.425781 "/>
</g>
<g clip-path="url(#clip8)" clip-rule="nonzero">
<path style="fill:none;stroke-width:0.533489;stroke-linecap:butt;stroke-linejoin:round;stroke:rgb(92.156863%,92.156863%,92.156863%);stroke-opacity:1;stroke-miterlimit:10;" d="M 52.765625 13.582031 L 293.199219 13.582031 "/>
</g>
<g clip-path="url(#clip9)" clip-rule="nonzero">
<path style="fill:none;stroke-width:0.533489;stroke-linecap:butt;stroke-linejoin:round;stroke:rgb(92.156863%,92.156863%,92.156863%);stroke-opacity:1;stroke-miterlimit:10;" d="M 59.925781 266.640625 L 59.925781 5.480469 "/>
</g>
<g clip-path="url(#clip10)" clip-rule="nonzero">
<path style="fill:none;stroke-width:0.533489;stroke-linecap:butt;stroke-linejoin:round;stroke:rgb(92.156863%,92.156863%,92.156863%);stroke-opacity:1;stroke-miterlimit:10;" d="M 97.609375 266.640625 L 97.609375 5.480469 "/>
</g>
<g clip-path="url(#clip11)" clip-rule="nonzero">
<path style="fill:none;stroke-width:0.533489;stroke-linecap:butt;stroke-linejoin:round;stroke:rgb(92.156863%,92.156863%,92.156863%);stroke-opacity:1;stroke-miterlimit:10;" d="M 135.296875 266.640625 L 135.296875 5.480469 "/>
</g>
<g clip-path="url(#clip12)" clip-rule="nonzero">
<path style="fill:none;stroke-width:0.533489;stroke-linecap:butt;stroke-linejoin:round;stroke:rgb(92.156863%,92.156863%,92.156863%);stroke-opacity:1;stroke-miterlimit:10;" d="M 172.980469 266.640625 L 172.980469 5.480469 "/>
</g>
<g clip-path="url(#clip13)" clip-rule="nonzero">
<path style="fill:none;stroke-width:0.533489;stroke-linecap:butt;stroke-linejoin:round;stroke:rgb(92.156863%,92.156863%,92.156863%);stroke-opacity:1;stroke-miterlimit:10;" d="M 210.667969 266.640625 L 210.667969 5.480469 "/>
</g>
<g clip-path="url(#clip14)" clip-rule="nonzero">
<path style="fill:none;stroke-width:0.533489;stroke-linecap:butt;stroke-linejoin:round;stroke:rgb(92.156863%,92.156863%,92.156863%);stroke-opacity:1;stroke-miterlimit:10;" d="M 248.355469 266.640625 L 248.355469 5.480469 "/>
</g>
<g clip-path="url(#clip15)" clip-rule="nonzero">
<path style="fill:none;stroke-width:0.533489;stroke-linecap:butt;stroke-linejoin:round;stroke:rgb(92.156863%,92.156863%,92.156863%);stroke-opacity:1;stroke-miterlimit:10;" d="M 286.039063 266.640625 L 286.039063 5.480469 "/>
</g>
<g clip-path="url(#clip16)" clip-rule="nonzero">
<path style="fill:none;stroke-width:1.066978;stroke-linecap:butt;stroke-linejoin:round;stroke:rgb(92.156863%,92.156863%,92.156863%);stroke-opacity:1;stroke-miterlimit:10;" d="M 52.765625 239.695313 L 293.199219 239.695313 "/>
</g>
<g clip-path="url(#clip17)" clip-rule="nonzero">
<path style="fill:none;stroke-width:1.066978;stroke-linecap:butt;stroke-linejoin:round;stroke:rgb(92.156863%,92.156863%,92.156863%);stroke-opacity:1;stroke-miterlimit:10;" d="M 52.765625 202.011719 L 293.199219 202.011719 "/>
</g>
<g clip-path="url(#clip18)" clip-rule="nonzero">
<path style="fill:none;stroke-width:1.066978;stroke-linecap:butt;stroke-linejoin:round;stroke:rgb(92.156863%,92.156863%,92.156863%);stroke-opacity:1;stroke-miterlimit:10;" d="M 52.765625 164.324219 L 293.199219 164.324219 "/>
</g>
<g clip-path="url(#clip19)" clip-rule="nonzero">
<path style="fill:none;stroke-width:1.066978;stroke-linecap:butt;stroke-linejoin:round;stroke:rgb(92.156863%,92.156863%,92.156863%);stroke-opacity:1;stroke-miterlimit:10;" d="M 52.765625 126.640625 L 293.199219 126.640625 "/>
</g>
<g clip-path="url(#clip20)" clip-rule="nonzero">
<path style="fill:none;stroke-width:1.066978;stroke-linecap:butt;stroke-linejoin:round;stroke:rgb(92.156863%,92.156863%,92.156863%);stroke-opacity:1;stroke-miterlimit:10;" d="M 52.765625 88.953125 L 293.199219 88.953125 "/>
</g>
<g clip-path="url(#clip21)" clip-rule="nonzero">
<path style="fill:none;stroke-width:1.066978;stroke-linecap:butt;stroke-linejoin:round;stroke:rgb(92.156863%,92.156863%,92.156863%);stroke-opacity:1;stroke-miterlimit:10;" d="M 52.765625 51.269531 L 293.199219 51.269531 "/>
</g>
<g clip-path="url(#clip22)" clip-rule="nonzero">
<path style="fill:none;stroke-width:1.066978;stroke-linecap:butt;stroke-linejoin:round;stroke:rgb(92.156863%,92.156863%,92.156863%);stroke-opacity:1;stroke-miterlimit:10;" d="M 78.769531 266.640625 L 78.769531 5.480469 "/>
</g>
<g clip-path="url(#clip23)" clip-rule="nonzero">
<path style="fill:none;stroke-width:1.066978;stroke-linecap:butt;stroke-linejoin:round;stroke:rgb(92.156863%,92.156863%,92.156863%);stroke-opacity:1;stroke-miterlimit:10;" d="M 116.453125 266.640625 L 116.453125 5.480469 "/>
</g>
<g clip-path="url(#clip24)" clip-rule="nonzero">
<path style="fill:none;stroke-width:1.066978;stroke-linecap:butt;stroke-linejoin:round;stroke:rgb(92.156863%,92.156863%,92.156863%);stroke-opacity:1;stroke-miterlimit:10;" d="M 154.140625 266.640625 L 154.140625 5.480469 "/>
</g>
<g clip-path="url(#clip25)" clip-rule="nonzero">
<path style="fill:none;stroke-width:1.066978;stroke-linecap:butt;stroke-linejoin:round;stroke:rgb(92.156863%,92.156863%,92.156863%);stroke-opacity:1;stroke-miterlimit:10;" d="M 191.824219 266.640625 L 191.824219 5.480469 "/>
</g>
<g clip-path="url(#clip26)" clip-rule="nonzero">
<path style="fill:none;stroke-width:1.066978;stroke-linecap:butt;stroke-linejoin:round;stroke:rgb(92.156863%,92.156863%,92.156863%);stroke-opacity:1;stroke-miterlimit:10;" d="M 229.511719 266.640625 L 229.511719 5.480469 "/>
</g>
<g clip-path="url(#clip27)" clip-rule="nonzero">
<path style="fill:none;stroke-width:1.066978;stroke-linecap:butt;stroke-linejoin:round;stroke:rgb(92.156863%,92.156863%,92.156863%);stroke-opacity:1;stroke-miterlimit:10;" d="M 267.195313 266.640625 L 267.195313 5.480469 "/>
</g>
<path style="fill:none;stroke-width:6.40187;stroke-linecap:round;stroke-linejoin:round;stroke:rgb(0%,0%,0%);stroke-opacity:1;stroke-miterlimit:10;" d="M 154.140625 183.167969 L 229.511719 145.480469 L 267.195313 220.851563 L 154.140625 239.695313 L 78.769531 145.480469 L 97.609375 70.109375 L 191.824219 32.425781 "/>
<path style="fill-rule:nonzero;fill:rgb(97.254902%,46.27451%,42.745098%);fill-opacity:1;stroke-width:0.708661;stroke-linecap:round;stroke-linejoin:round;stroke:rgb(97.254902%,46.27451%,42.745098%);stroke-opacity:1;stroke-miterlimit:10;" d="M 163.03125 183.167969 C 163.03125 188.078125 159.050781 192.058594 154.140625 192.058594 C 149.230469 192.058594 145.25 188.078125 145.25 183.167969 C 145.25 178.257813 149.230469 174.277344 154.140625 174.277344 C 159.050781 174.277344 163.03125 178.257813 163.03125 183.167969 "/>
<path style="fill-rule:nonzero;fill:rgb(97.254902%,46.27451%,42.745098%);fill-opacity:1;stroke-width:0.708661;stroke-linecap:round;stroke-linejoin:round;stroke:rgb(97.254902%,46.27451%,42.745098%);stroke-opacity:1;stroke-miterlimit:10;" d="M 238.402344 145.480469 C 238.402344 150.390625 234.421875 154.371094 229.511719 154.371094 C 224.601563 154.371094 220.621094 150.390625 220.621094 145.480469 C 220.621094 140.570313 224.601563 136.59375 229.511719 136.59375 C 234.421875 136.59375 238.402344 140.570313 238.402344 145.480469 "/>
<path style="fill-rule:nonzero;fill:rgb(97.254902%,46.27451%,42.745098%);fill-opacity:1;stroke-width:0.708661;stroke-linecap:round;stroke-linejoin:round;stroke:rgb(97.254902%,46.27451%,42.745098%);stroke-opacity:1;stroke-miterlimit:10;" d="M 276.085938 220.851563 C 276.085938 225.761719 272.105469 229.742188 267.195313 229.742188 C 262.285156 229.742188 258.304688 225.761719 258.304688 220.851563 C 258.304688 215.945313 262.285156 211.964844 267.195313 211.964844 C 272.105469 211.964844 276.085938 215.945313 276.085938 220.851563 "/>
<path style="fill-rule:nonzero;fill:rgb(97.254902%,46.27451%,42.745098%);fill-opacity:1;stroke-width:0.708661;stroke-linecap:round;stroke-linejoin:round;stroke:rgb(97.254902%,46.27451%,42.745098%);stroke-opacity:1;stroke-miterlimit:10;" d="M 163.03125 239.695313 C 163.03125 244.605469 159.050781 248.585938 154.140625 248.585938 C 149.230469 248.585938 145.25 244.605469 145.25 239.695313 C 145.25 234.785156 149.230469 230.804688 154.140625 230.804688 C 159.050781 230.804688 163.03125 234.785156 163.03125 239.695313 "/>
<path style="fill-rule:nonzero;fill:rgb(97.254902%,46.27451%,42.745098%);fill-opacity:1;stroke-width:0.708661;stroke-linecap:round;stroke-linejoin:round;stroke:rgb(97.254902%,46.27451%,42.745098%);stroke-opacity:1;stroke-miterlimit:10;" d="M 87.65625 145.480469 C 87.65625 150.390625 83.675781 154.371094 78.769531 154.371094 C 73.859375 154.371094 69.878906 150.390625 69.878906 145.480469 C 69.878906 140.570313 73.859375 136.59375 78.769531 136.59375 C 83.675781 136.59375 87.65625 140.570313 87.65625 145.480469 "/>
<path style="fill-rule:nonzero;fill:rgb(97.254902%,46.27451%,42.745098%);fill-opacity:1;stroke-width:0.708661;stroke-linecap:round;stroke-linejoin:round;stroke:rgb(97.254902%,46.27451%,42.745098%);stroke-opacity:1;stroke-miterlimit:10;" d="M 106.5 70.109375 C 106.5 75.019531 102.519531 79 97.609375 79 C 92.699219 79 88.71875 75.019531 88.71875 70.109375 C 88.71875 65.199219 92.699219 61.21875 97.609375 61.21875 C 102.519531 61.21875 106.5 65.199219 106.5 70.109375 "/>
<path style="fill-rule:nonzero;fill:rgb(97.254902%,46.27451%,42.745098%);fill-opacity:1;stroke-width:0.708661;stroke-linecap:round;stroke-linejoin:round;stroke:rgb(97.254902%,46.27451%,42.745098%);stroke-opacity:1;stroke-miterlimit:10;" d="M 200.714844 32.425781 C 200.714844 37.335938 196.734375 41.316406 191.824219 41.316406 C 186.914063 41.316406 182.933594 37.335938 182.933594 32.425781 C 182.933594 27.515625 186.914063 23.535156 191.824219 23.535156 C 196.734375 23.535156 200.714844 27.515625 200.714844 32.425781 "/>
<g clip-path="url(#clip28)" clip-rule="nonzero">
<path style="fill:none;stroke-width:0.533489;stroke-linecap:butt;stroke-linejoin:round;stroke:rgb(92.156863%,92.156863%,92.156863%);stroke-opacity:1;stroke-miterlimit:10;" d="M 298.679688 258.539063 L 539.113281 258.539063 "/>
</g>
<g clip-path="url(#clip29)" clip-rule="nonzero">
<path style="fill:none;stroke-width:0.533489;stroke-linecap:butt;stroke-linejoin:round;stroke:rgb(92.156863%,92.156863%,92.156863%);stroke-opacity:1;stroke-miterlimit:10;" d="M 298.679688 220.851563 L 539.113281 220.851563 "/>
</g>
<g clip-path="url(#clip30)" clip-rule="nonzero">
<path style="fill:none;stroke-width:0.533489;stroke-linecap:butt;stroke-linejoin:round;stroke:rgb(92.156863%,92.156863%,92.156863%);stroke-opacity:1;stroke-miterlimit:10;" d="M 298.679688 183.167969 L 539.113281 183.167969 "/>
</g>
<g clip-path="url(#clip31)" clip-rule="nonzero">
<path style="fill:none;stroke-width:0.533489;stroke-linecap:butt;stroke-linejoin:round;stroke:rgb(92.156863%,92.156863%,92.156863%);stroke-opacity:1;stroke-miterlimit:10;" d="M 298.679688 145.480469 L 539.113281 145.480469 "/>
</g>
<g clip-path="url(#clip32)" clip-rule="nonzero">
<path style="fill:none;stroke-width:0.533489;stroke-linecap:butt;stroke-linejoin:round;stroke:rgb(92.156863%,92.156863%,92.156863%);stroke-opacity:1;stroke-miterlimit:10;" d="M 298.679688 107.796875 L 539.113281 107.796875 "/>
</g>
<g clip-path="url(#clip33)" clip-rule="nonzero">
<path style="fill:none;stroke-width:0.533489;stroke-linecap:butt;stroke-linejoin:round;stroke:rgb(92.156863%,92.156863%,92.156863%);stroke-opacity:1;stroke-miterlimit:10;" d="M 298.679688 70.109375 L 539.113281 70.109375 "/>
</g>
<g clip-path="url(#clip34)" clip-rule="nonzero">
<path style="fill:none;stroke-width:0.533489;stroke-linecap:butt;stroke-linejoin:round;stroke:rgb(92.156863%,92.156863%,92.156863%);stroke-opacity:1;stroke-miterlimit:10;" d="M 298.679688 32.425781 L 539.113281 32.425781 "/>
</g>
<g clip-path="url(#clip35)" clip-rule="nonzero">
<path style="fill:none;stroke-width:0.533489;stroke-linecap:butt;stroke-linejoin:round;stroke:rgb(92.156863%,92.156863%,92.156863%);stroke-opacity:1;stroke-miterlimit:10;" d="M 298.679688 13.582031 L 539.113281 13.582031 "/>
</g>
<g clip-path="url(#clip36)" clip-rule="nonzero">
<path style="fill:none;stroke-width:0.533489;stroke-linecap:butt;stroke-linejoin:round;stroke:rgb(92.156863%,92.156863%,92.156863%);stroke-opacity:1;stroke-miterlimit:10;" d="M 305.839844 266.640625 L 305.839844 5.480469 "/>
</g>
<g clip-path="url(#clip37)" clip-rule="nonzero">
<path style="fill:none;stroke-width:0.533489;stroke-linecap:butt;stroke-linejoin:round;stroke:rgb(92.156863%,92.156863%,92.156863%);stroke-opacity:1;stroke-miterlimit:10;" d="M 343.523438 266.640625 L 343.523438 5.480469 "/>
</g>
<g clip-path="url(#clip38)" clip-rule="nonzero">
<path style="fill:none;stroke-width:0.533489;stroke-linecap:butt;stroke-linejoin:round;stroke:rgb(92.156863%,92.156863%,92.156863%);stroke-opacity:1;stroke-miterlimit:10;" d="M 381.210938 266.640625 L 381.210938 5.480469 "/>
</g>
<g clip-path="url(#clip39)" clip-rule="nonzero">
<path style="fill:none;stroke-width:0.533489;stroke-linecap:butt;stroke-linejoin:round;stroke:rgb(92.156863%,92.156863%,92.156863%);stroke-opacity:1;stroke-miterlimit:10;" d="M 418.898438 266.640625 L 418.898438 5.480469 "/>
</g>
<g clip-path="url(#clip40)" clip-rule="nonzero">
<path style="fill:none;stroke-width:0.533489;stroke-linecap:butt;stroke-linejoin:round;stroke:rgb(92.156863%,92.156863%,92.156863%);stroke-opacity:1;stroke-miterlimit:10;" d="M 456.582031 266.640625 L 456.582031 5.480469 "/>
</g>
<g clip-path="url(#clip41)" clip-rule="nonzero">
<path style="fill:none;stroke-width:0.533489;stroke-linecap:butt;stroke-linejoin:round;stroke:rgb(92.156863%,92.156863%,92.156863%);stroke-opacity:1;stroke-miterlimit:10;" d="M 494.269531 266.640625 L 494.269531 5.480469 "/>
</g>
<g clip-path="url(#clip42)" clip-rule="nonzero">
<path style="fill:none;stroke-width:0.533489;stroke-linecap:butt;stroke-linejoin:round;stroke:rgb(92.156863%,92.156863%,92.156863%);stroke-opacity:1;stroke-miterlimit:10;" d="M 531.953125 266.640625 L 531.953125 5.480469 "/>
</g>
<g clip-path="url(#clip43)" clip-rule="nonzero">
<path style="fill:none;stroke-width:1.066978;stroke-linecap:butt;stroke-linejoin:round;stroke:rgb(92.156863%,92.156863%,92.156863%);stroke-opacity:1;stroke-miterlimit:10;" d="M 298.679688 239.695313 L 539.113281 239.695313 "/>
</g>
<g clip-path="url(#clip44)" clip-rule="nonzero">
<path style="fill:none;stroke-width:1.066978;stroke-linecap:butt;stroke-linejoin:round;stroke:rgb(92.156863%,92.156863%,92.156863%);stroke-opacity:1;stroke-miterlimit:10;" d="M 298.679688 202.011719 L 539.113281 202.011719 "/>
</g>
<g clip-path="url(#clip45)" clip-rule="nonzero">
<path style="fill:none;stroke-width:1.066978;stroke-linecap:butt;stroke-linejoin:round;stroke:rgb(92.156863%,92.156863%,92.156863%);stroke-opacity:1;stroke-miterlimit:10;" d="M 298.679688 164.324219 L 539.113281 164.324219 "/>
</g>
<g clip-path="url(#clip46)" clip-rule="nonzero">
<path style="fill:none;stroke-width:1.066978;stroke-linecap:butt;stroke-linejoin:round;stroke:rgb(92.156863%,92.156863%,92.156863%);stroke-opacity:1;stroke-miterlimit:10;" d="M 298.679688 126.640625 L 539.113281 126.640625 "/>
</g>
<g clip-path="url(#clip47)" clip-rule="nonzero">
<path style="fill:none;stroke-width:1.066978;stroke-linecap:butt;stroke-linejoin:round;stroke:rgb(92.156863%,92.156863%,92.156863%);stroke-opacity:1;stroke-miterlimit:10;" d="M 298.679688 88.953125 L 539.113281 88.953125 "/>
</g>
<g clip-path="url(#clip48)" clip-rule="nonzero">
<path style="fill:none;stroke-width:1.066978;stroke-linecap:butt;stroke-linejoin:round;stroke:rgb(92.156863%,92.156863%,92.156863%);stroke-opacity:1;stroke-miterlimit:10;" d="M 298.679688 51.269531 L 539.113281 51.269531 "/>
</g>
<g clip-path="url(#clip49)" clip-rule="nonzero">
<path style="fill:none;stroke-width:1.066978;stroke-linecap:butt;stroke-linejoin:round;stroke:rgb(92.156863%,92.156863%,92.156863%);stroke-opacity:1;stroke-miterlimit:10;" d="M 324.683594 266.640625 L 324.683594 5.480469 "/>
</g>
<g clip-path="url(#clip50)" clip-rule="nonzero">
<path style="fill:none;stroke-width:1.066978;stroke-linecap:butt;stroke-linejoin:round;stroke:rgb(92.156863%,92.156863%,92.156863%);stroke-opacity:1;stroke-miterlimit:10;" d="M 362.367188 266.640625 L 362.367188 5.480469 "/>
</g>
<g clip-path="url(#clip51)" clip-rule="nonzero">
<path style="fill:none;stroke-width:1.066978;stroke-linecap:butt;stroke-linejoin:round;stroke:rgb(92.156863%,92.156863%,92.156863%);stroke-opacity:1;stroke-miterlimit:10;" d="M 400.054688 266.640625 L 400.054688 5.480469 "/>
</g>
<g clip-path="url(#clip52)" clip-rule="nonzero">
<path style="fill:none;stroke-width:1.066978;stroke-linecap:butt;stroke-linejoin:round;stroke:rgb(92.156863%,92.156863%,92.156863%);stroke-opacity:1;stroke-miterlimit:10;" d="M 437.738281 266.640625 L 437.738281 5.480469 "/>
</g>
<g clip-path="url(#clip53)" clip-rule="nonzero">
<path style="fill:none;stroke-width:1.066978;stroke-linecap:butt;stroke-linejoin:round;stroke:rgb(92.156863%,92.156863%,92.156863%);stroke-opacity:1;stroke-miterlimit:10;" d="M 475.425781 266.640625 L 475.425781 5.480469 "/>
</g>
<g clip-path="url(#clip54)" clip-rule="nonzero">
<path style="fill:none;stroke-width:1.066978;stroke-linecap:butt;stroke-linejoin:round;stroke:rgb(92.156863%,92.156863%,92.156863%);stroke-opacity:1;stroke-miterlimit:10;" d="M 513.109375 266.640625 L 513.109375 5.480469 "/>
</g>
<path style="fill:none;stroke-width:6.40187;stroke-linecap:round;stroke-linejoin:round;stroke:rgb(0%,0%,0%);stroke-opacity:1;stroke-miterlimit:10;" d="M 400.054688 183.167969 L 413.257813 164.546875 L 430.203125 149.25 L 452.605469 144.875 L 475.425781 145.480469 L 495.300781 157.75 L 511.558594 174.523438 L 516.445313 197.550781 L 513.109375 220.851563 L 488.847656 239.867188 L 459.984375 250.695313 L 429.613281 247.417969 L 400.054688 239.695313 L 376.121094 220.5 L 353.832031 199.417969 L 338.03125 173.113281 L 324.683594 145.480469 L 325.503906 125.804688 L 328.011719 106.273438 L 334.910156 87.824219 L 343.523438 70.109375 L 364.875 55.726563 L 387.507813 43.457031 L 412.503906 37.402344 L 437.738281 32.425781 "/>
<path style="fill-rule:nonzero;fill:rgb(38.039216%,61.176471%,100%);fill-opacity:1;stroke-width:0.708661;stroke-linecap:round;stroke-linejoin:round;stroke:rgb(38.039216%,61.176471%,100%);stroke-opacity:1;stroke-miterlimit:10;" d="M 408.945313 183.167969 C 408.945313 188.078125 404.964844 192.058594 400.054688 192.058594 C 395.144531 192.058594 391.164063 188.078125 391.164063 183.167969 C 391.164063 178.257813 395.144531 174.277344 400.054688 174.277344 C 404.964844 174.277344 408.945313 178.257813 408.945313 183.167969 "/>
<path style="fill-rule:nonzero;fill:rgb(38.039216%,61.176471%,100%);fill-opacity:1;stroke-width:0.708661;stroke-linecap:round;stroke-linejoin:round;stroke:rgb(38.039216%,61.176471%,100%);stroke-opacity:1;stroke-miterlimit:10;" d="M 422.148438 164.546875 C 422.148438 169.457031 418.167969 173.4375 413.257813 173.4375 C 408.347656 173.4375 404.367188 169.457031 404.367188 164.546875 C 404.367188 159.636719 408.347656 155.65625 413.257813 155.65625 C 418.167969 155.65625 422.148438 159.636719 422.148438 164.546875 "/>
<path style="fill-rule:nonzero;fill:rgb(38.039216%,61.176471%,100%);fill-opacity:1;stroke-width:0.708661;stroke-linecap:round;stroke-linejoin:round;stroke:rgb(38.039216%,61.176471%,100%);stroke-opacity:1;stroke-miterlimit:10;" d="M 439.09375 149.25 C 439.09375 154.160156 435.113281 158.140625 430.203125 158.140625 C 425.292969 158.140625 421.3125 154.160156 421.3125 149.25 C 421.3125 144.339844 425.292969 140.359375 430.203125 140.359375 C 435.113281 140.359375 439.09375 144.339844 439.09375 149.25 "/>
<path style="fill-rule:nonzero;fill:rgb(38.039216%,61.176471%,100%);fill-opacity:1;stroke-width:0.708661;stroke-linecap:round;stroke-linejoin:round;stroke:rgb(38.039216%,61.176471%,100%);stroke-opacity:1;stroke-miterlimit:10;" d="M 461.496094 144.875 C 461.496094 149.785156 457.515625 153.765625 452.605469 153.765625 C 447.695313 153.765625 443.714844 149.785156 443.714844 144.875 C 443.714844 139.964844 447.695313 135.984375 452.605469 135.984375 C 457.515625 135.984375 461.496094 139.964844 461.496094 144.875 "/>
<path style="fill-rule:nonzero;fill:rgb(38.039216%,61.176471%,100%);fill-opacity:1;stroke-width:0.708661;stroke-linecap:round;stroke-linejoin:round;stroke:rgb(38.039216%,61.176471%,100%);stroke-opacity:1;stroke-miterlimit:10;" d="M 484.316406 145.480469 C 484.316406 150.390625 480.335938 154.371094 475.425781 154.371094 C 470.515625 154.371094 466.535156 150.390625 466.535156 145.480469 C 466.535156 140.570313 470.515625 136.59375 475.425781 136.59375 C 480.335938 136.59375 484.316406 140.570313 484.316406 145.480469 "/>
<path style="fill-rule:nonzero;fill:rgb(38.039216%,61.176471%,100%);fill-opacity:1;stroke-width:0.708661;stroke-linecap:round;stroke-linejoin:round;stroke:rgb(38.039216%,61.176471%,100%);stroke-opacity:1;stroke-miterlimit:10;" d="M 504.191406 157.75 C 504.191406 162.660156 500.210938 166.640625 495.300781 166.640625 C 490.390625 166.640625 486.410156 162.660156 486.410156 157.75 C 486.410156 152.839844 490.390625 148.859375 495.300781 148.859375 C 500.210938 148.859375 504.191406 152.839844 504.191406 157.75 "/>
<path style="fill-rule:nonzero;fill:rgb(38.039216%,61.176471%,100%);fill-opacity:1;stroke-width:0.708661;stroke-linecap:round;stroke-linejoin:round;stroke:rgb(38.039216%,61.176471%,100%);stroke-opacity:1;stroke-miterlimit:10;" d="M 520.449219 174.523438 C 520.449219 179.433594 516.46875 183.414063 511.558594 183.414063 C 506.648438 183.414063 502.667969 179.433594 502.667969 174.523438 C 502.667969 169.613281 506.648438 165.632813 511.558594 165.632813 C 516.46875 165.632813 520.449219 169.613281 520.449219 174.523438 "/>
<path style="fill-rule:nonzero;fill:rgb(38.039216%,61.176471%,100%);fill-opacity:1;stroke-width:0.708661;stroke-linecap:round;stroke-linejoin:round;stroke:rgb(38.039216%,61.176471%,100%);stroke-opacity:1;stroke-miterlimit:10;" d="M 525.335938 197.550781 C 525.335938 202.460938 521.355469 206.441406 516.445313 206.441406 C 511.539063 206.441406 507.558594 202.460938 507.558594 197.550781 C 507.558594 192.640625 511.539063 188.660156 516.445313 188.660156 C 521.355469 188.660156 525.335938 192.640625 525.335938 197.550781 "/>
<path style="fill-rule:nonzero;fill:rgb(38.039216%,61.176471%,100%);fill-opacity:1;stroke-width:0.708661;stroke-linecap:round;stroke-linejoin:round;stroke:rgb(38.039216%,61.176471%,100%);stroke-opacity:1;stroke-miterlimit:10;" d="M 522 220.851563 C 522 225.761719 518.019531 229.742188 513.109375 229.742188 C 508.199219 229.742188 504.222656 225.761719 504.222656 220.851563 C 504.222656 215.945313 508.199219 211.964844 513.109375 211.964844 C 518.019531 211.964844 522 215.945313 522 220.851563 "/>
<path style="fill-rule:nonzero;fill:rgb(38.039216%,61.176471%,100%);fill-opacity:1;stroke-width:0.708661;stroke-linecap:round;stroke-linejoin:round;stroke:rgb(38.039216%,61.176471%,100%);stroke-opacity:1;stroke-miterlimit:10;" d="M 497.738281 239.867188 C 497.738281 244.777344 493.757813 248.757813 488.847656 248.757813 C 483.9375 248.757813 479.957031 244.777344 479.957031 239.867188 C 479.957031 234.957031 483.9375 230.976563 488.847656 230.976563 C 493.757813 230.976563 497.738281 234.957031 497.738281 239.867188 "/>
<path style="fill-rule:nonzero;fill:rgb(38.039216%,61.176471%,100%);fill-opacity:1;stroke-width:0.708661;stroke-linecap:round;stroke-linejoin:round;stroke:rgb(38.039216%,61.176471%,100%);stroke-opacity:1;stroke-miterlimit:10;" d="M 468.875 250.695313 C 468.875 255.605469 464.894531 259.585938 459.984375 259.585938 C 455.074219 259.585938 451.097656 255.605469 451.097656 250.695313 C 451.097656 245.785156 455.074219 241.804688 459.984375 241.804688 C 464.894531 241.804688 468.875 245.785156 468.875 250.695313 "/>
<path style="fill-rule:nonzero;fill:rgb(38.039216%,61.176471%,100%);fill-opacity:1;stroke-width:0.708661;stroke-linecap:round;stroke-linejoin:round;stroke:rgb(38.039216%,61.176471%,100%);stroke-opacity:1;stroke-miterlimit:10;" d="M 438.503906 247.417969 C 438.503906 252.328125 434.523438 256.308594 429.613281 256.308594 C 424.703125 256.308594 420.722656 252.328125 420.722656 247.417969 C 420.722656 242.507813 424.703125 238.527344 429.613281 238.527344 C 434.523438 238.527344 438.503906 242.507813 438.503906 247.417969 "/>
<path style="fill-rule:nonzero;fill:rgb(38.039216%,61.176471%,100%);fill-opacity:1;stroke-width:0.708661;stroke-linecap:round;stroke-linejoin:round;stroke:rgb(38.039216%,61.176471%,100%);stroke-opacity:1;stroke-miterlimit:10;" d="M 408.945313 239.695313 C 408.945313 244.605469 404.964844 248.585938 400.054688 248.585938 C 395.144531 248.585938 391.164063 244.605469 391.164063 239.695313 C 391.164063 234.785156 395.144531 230.804688 400.054688 230.804688 C 404.964844 230.804688 408.945313 234.785156 408.945313 239.695313 "/>
<path style="fill-rule:nonzero;fill:rgb(38.039216%,61.176471%,100%);fill-opacity:1;stroke-width:0.708661;stroke-linecap:round;stroke-linejoin:round;stroke:rgb(38.039216%,61.176471%,100%);stroke-opacity:1;stroke-miterlimit:10;" d="M 385.011719 220.5 C 385.011719 225.40625 381.03125 229.386719 376.121094 229.386719 C 371.214844 229.386719 367.234375 225.40625 367.234375 220.5 C 367.234375 215.589844 371.214844 211.609375 376.121094 211.609375 C 381.03125 211.609375 385.011719 215.589844 385.011719 220.5 "/>
<path style="fill-rule:nonzero;fill:rgb(38.039216%,61.176471%,100%);fill-opacity:1;stroke-width:0.708661;stroke-linecap:round;stroke-linejoin:round;stroke:rgb(38.039216%,61.176471%,100%);stroke-opacity:1;stroke-miterlimit:10;" d="M 362.722656 199.417969 C 362.722656 204.328125 358.742188 208.308594 353.832031 208.308594 C 348.921875 208.308594 344.941406 204.328125 344.941406 199.417969 C 344.941406 194.507813 348.921875 190.527344 353.832031 190.527344 C 358.742188 190.527344 362.722656 194.507813 362.722656 199.417969 "/>
<path style="fill-rule:nonzero;fill:rgb(38.039216%,61.176471%,100%);fill-opacity:1;stroke-width:0.708661;stroke-linecap:round;stroke-linejoin:round;stroke:rgb(38.039216%,61.176471%,100%);stroke-opacity:1;stroke-miterlimit:10;" d="M 346.921875 173.113281 C 346.921875 178.023438 342.941406 182.003906 338.03125 182.003906 C 333.121094 182.003906 329.140625 178.023438 329.140625 173.113281 C 329.140625 168.203125 333.121094 164.222656 338.03125 164.222656 C 342.941406 164.222656 346.921875 168.203125 346.921875 173.113281 "/>
<path style="fill-rule:nonzero;fill:rgb(38.039216%,61.176471%,100%);fill-opacity:1;stroke-width:0.708661;stroke-linecap:round;stroke-linejoin:round;stroke:rgb(38.039216%,61.176471%,100%);stroke-opacity:1;stroke-miterlimit:10;" d="M 333.574219 145.480469 C 333.574219 150.390625 329.59375 154.371094 324.683594 154.371094 C 319.773438 154.371094 315.792969 150.390625 315.792969 145.480469 C 315.792969 140.570313 319.773438 136.59375 324.683594 136.59375 C 329.59375 136.59375 333.574219 140.570313 333.574219 145.480469 "/>
<path style="fill-rule:nonzero;fill:rgb(38.039216%,61.176471%,100%);fill-opacity:1;stroke-width:0.708661;stroke-linecap:round;stroke-linejoin:round;stroke:rgb(38.039216%,61.176471%,100%);stroke-opacity:1;stroke-miterlimit:10;" d="M 334.394531 125.804688 C 334.394531 130.714844 330.414063 134.695313 325.503906 134.695313 C 320.59375 134.695313 316.613281 130.714844 316.613281 125.804688 C 316.613281 120.894531 320.59375 116.914063 325.503906 116.914063 C 330.414063 116.914063 334.394531 120.894531 334.394531 125.804688 "/>
<path style="fill-rule:nonzero;fill:rgb(38.039216%,61.176471%,100%);fill-opacity:1;stroke-width:0.708661;stroke-linecap:round;stroke-linejoin:round;stroke:rgb(38.039216%,61.176471%,100%);stroke-opacity:1;stroke-miterlimit:10;" d="M 336.898438 106.273438 C 336.898438 111.183594 332.921875 115.164063 328.011719 115.164063 C 323.101563 115.164063 319.121094 111.183594 319.121094 106.273438 C 319.121094 101.363281 323.101563 97.382813 328.011719 97.382813 C 332.921875 97.382813 336.898438 101.363281 336.898438 106.273438 "/>
<path style="fill-rule:nonzero;fill:rgb(38.039216%,61.176471%,100%);fill-opacity:1;stroke-width:0.708661;stroke-linecap:round;stroke-linejoin:round;stroke:rgb(38.039216%,61.176471%,100%);stroke-opacity:1;stroke-miterlimit:10;" d="M 343.800781 87.824219 C 343.800781 92.734375 339.820313 96.714844 334.910156 96.714844 C 330 96.714844 326.019531 92.734375 326.019531 87.824219 C 326.019531 82.914063 330 78.933594 334.910156 78.933594 C 339.820313 78.933594 343.800781 82.914063 343.800781 87.824219 "/>
<path style="fill-rule:nonzero;fill:rgb(38.039216%,61.176471%,100%);fill-opacity:1;stroke-width:0.708661;stroke-linecap:round;stroke-linejoin:round;stroke:rgb(38.039216%,61.176471%,100%);stroke-opacity:1;stroke-miterlimit:10;" d="M 352.414063 70.109375 C 352.414063 75.019531 348.433594 79 343.523438 79 C 338.617188 79 334.636719 75.019531 334.636719 70.109375 C 334.636719 65.199219 338.617188 61.21875 343.523438 61.21875 C 348.433594 61.21875 352.414063 65.199219 352.414063 70.109375 "/>
<path style="fill-rule:nonzero;fill:rgb(38.039216%,61.176471%,100%);fill-opacity:1;stroke-width:0.708661;stroke-linecap:round;stroke-linejoin:round;stroke:rgb(38.039216%,61.176471%,100%);stroke-opacity:1;stroke-miterlimit:10;" d="M 373.765625 55.726563 C 373.765625 60.636719 369.785156 64.617188 364.875 64.617188 C 359.96875 64.617188 355.988281 60.636719 355.988281 55.726563 C 355.988281 50.816406 359.96875 46.835938 364.875 46.835938 C 369.785156 46.835938 373.765625 50.816406 373.765625 55.726563 "/>
<path style="fill-rule:nonzero;fill:rgb(38.039216%,61.176471%,100%);fill-opacity:1;stroke-width:0.708661;stroke-linecap:round;stroke-linejoin:round;stroke:rgb(38.039216%,61.176471%,100%);stroke-opacity:1;stroke-miterlimit:10;" d="M 396.398438 43.457031 C 396.398438 48.367188 392.417969 52.347656 387.507813 52.347656 C 382.597656 52.347656 378.617188 48.367188 378.617188 43.457031 C 378.617188 38.546875 382.597656 34.566406 387.507813 34.566406 C 392.417969 34.566406 396.398438 38.546875 396.398438 43.457031 "/>
<path style="fill-rule:nonzero;fill:rgb(38.039216%,61.176471%,100%);fill-opacity:1;stroke-width:0.708661;stroke-linecap:round;stroke-linejoin:round;stroke:rgb(38.039216%,61.176471%,100%);stroke-opacity:1;stroke-miterlimit:10;" d="M 421.394531 37.402344 C 421.394531 42.3125 417.414063 46.292969 412.503906 46.292969 C 407.597656 46.292969 403.617188 42.3125 403.617188 37.402344 C 403.617188 32.492188 407.597656 28.511719 412.503906 28.511719 C 417.414063 28.511719 421.394531 32.492188 421.394531 37.402344 "/>
<path style="fill-rule:nonzero;fill:rgb(38.039216%,61.176471%,100%);fill-opacity:1;stroke-width:0.708661;stroke-linecap:round;stroke-linejoin:round;stroke:rgb(38.039216%,61.176471%,100%);stroke-opacity:1;stroke-miterlimit:10;" d="M 446.628906 32.425781 C 446.628906 37.335938 442.648438 41.316406 437.738281 41.316406 C 432.828125 41.316406 428.847656 37.335938 428.847656 32.425781 C 428.847656 27.515625 432.828125 23.535156 437.738281 23.535156 C 442.648438 23.535156 446.628906 27.515625 446.628906 32.425781 "/>
</g>
</svg>
