<?xml version="1.0" encoding="UTF-8"?>
<svg xmlns="http://www.w3.org/2000/svg" xmlns:xlink="http://www.w3.org/1999/xlink" width="288pt" height="576pt" viewBox="0 0 288 576" version="1.1">
<defs>
<clipPath id="clip1">
  <path d="M 21.359375 344 L 150 344 L 150 346 L 21.359375 346 Z M 21.359375 344 "/>
</clipPath>
<clipPath id="clip2">
  <path d="M 21.359375 324 L 150 324 L 150 326 L 21.359375 326 Z M 21.359375 324 "/>
</clipPath>
<clipPath id="clip3">
  <path d="M 21.359375 304 L 150 304 L 150 306 L 21.359375 306 Z M 21.359375 304 "/>
</clipPath>
<clipPath id="clip4">
  <path d="M 21.359375 284 L 150 284 L 150 286 L 21.359375 286 Z M 21.359375 284 "/>
</clipPath>
<clipPath id="clip5">
  <path d="M 21.359375 264 L 150 264 L 150 266 L 21.359375 266 Z M 21.359375 264 "/>
</clipPath>
<clipPath id="clip6">
  <path d="M 21.359375 244 L 150 244 L 150 246 L 21.359375 246 Z M 21.359375 244 "/>
</clipPath>
<clipPath id="clip7">
  <path d="M 21.359375 224 L 150 224 L 150 226 L 21.359375 226 Z M 21.359375 224 "/>
</clipPath>
<clipPath id="clip8">
  <path d="M 21.359375 214 L 150 214 L 150 216 L 21.359375 216 Z M 21.359375 214 "/>
</clipPath>
<clipPath id="clip9">
  <path d="M 24 210.628906 L 26 210.628906 L 26 350 L 24 350 Z M 24 210.628906 "/>
</clipPath>
<clipPath id="clip10">
  <path d="M 44 210.628906 L 46 210.628906 L 46 350 L 44 350 Z M 44 210.628906 "/>
</clipPath>
<clipPath id="clip11">
  <path d="M 64 210.628906 L 66 210.628906 L 66 350 L 64 350 Z M 64 210.628906 "/>
</clipPath>
<clipPath id="clip12">
  <path d="M 85 210.628906 L 86 210.628906 L 86 350 L 85 350 Z M 85 210.628906 "/>
</clipPath>
<clipPath id="clip13">
  <path d="M 105 210.628906 L 106 210.628906 L 106 350 L 105 350 Z M 105 210.628906 "/>
</clipPath>
<clipPath id="clip14">
  <path d="M 125 210.628906 L 126 210.628906 L 126 350 L 125 350 Z M 125 210.628906 "/>
</clipPath>
<clipPath id="clip15">
  <path d="M 145 210.628906 L 146 210.628906 L 146 350 L 145 350 Z M 145 210.628906 "/>
</clipPath>
<clipPath id="clip16">
  <path d="M 21.359375 334 L 150 334 L 150 336 L 21.359375 336 Z M 21.359375 334 "/>
</clipPath>
<clipPath id="clip17">
  <path d="M 21.359375 314 L 150 314 L 150 316 L 21.359375 316 Z M 21.359375 314 "/>
</clipPath>
<clipPath id="clip18">
  <path d="M 21.359375 294 L 150 294 L 150 296 L 21.359375 296 Z M 21.359375 294 "/>
</clipPath>
<clipPath id="clip19">
  <path d="M 21.359375 274 L 150 274 L 150 276 L 21.359375 276 Z M 21.359375 274 "/>
</clipPath>
<clipPath id="clip20">
  <path d="M 21.359375 254 L 150 254 L 150 256 L 21.359375 256 Z M 21.359375 254 "/>
</clipPath>
<clipPath id="clip21">
  <path d="M 21.359375 234 L 150 234 L 150 236 L 21.359375 236 Z M 21.359375 234 "/>
</clipPath>
<clipPath id="clip22">
  <path d="M 34 210.628906 L 36 210.628906 L 36 350.492188 L 34 350.492188 Z M 34 210.628906 "/>
</clipPath>
<clipPath id="clip23">
  <path d="M 54 210.628906 L 56 210.628906 L 56 350.492188 L 54 350.492188 Z M 54 210.628906 "/>
</clipPath>
<clipPath id="clip24">
  <path d="M 74 210.628906 L 76 210.628906 L 76 350.492188 L 74 350.492188 Z M 74 210.628906 "/>
</clipPath>
<clipPath id="clip25">
  <path d="M 94 210.628906 L 96 210.628906 L 96 350.492188 L 94 350.492188 Z M 94 210.628906 "/>
</clipPath>
<clipPath id="clip26">
  <path d="M 114 210.628906 L 116 210.628906 L 116 350.492188 L 114 350.492188 Z M 114 210.628906 "/>
</clipPath>
<clipPath id="clip27">
  <path d="M 134 210.628906 L 136 210.628906 L 136 350.492188 L 134 350.492188 Z M 134 210.628906 "/>
</clipPath>
<clipPath id="clip28">
  <path d="M 154.679688 344 L 283 344 L 283 346 L 154.679688 346 Z M 154.679688 344 "/>
</clipPath>
<clipPath id="clip29">
  <path d="M 154.679688 324 L 283 324 L 283 326 L 154.679688 326 Z M 154.679688 324 "/>
</clipPath>
<clipPath id="clip30">
  <path d="M 154.679688 304 L 283 304 L 283 306 L 154.679688 306 Z M 154.679688 304 "/>
</clipPath>
<clipPath id="clip31">
  <path d="M 154.679688 284 L 283 284 L 283 286 L 154.679688 286 Z M 154.679688 284 "/>
</clipPath>
<clipPath id="clip32">
  <path d="M 154.679688 264 L 283 264 L 283 266 L 154.679688 266 Z M 154.679688 264 "/>
</clipPath>
<clipPath id="clip33">
  <path d="M 154.679688 244 L 283 244 L 283 246 L 154.679688 246 Z M 154.679688 244 "/>
</clipPath>
<clipPath id="clip34">
  <path d="M 154.679688 224 L 283 224 L 283 226 L 154.679688 226 Z M 154.679688 224 "/>
</clipPath>
<clipPath id="clip35">
  <path d="M 154.679688 214 L 283 214 L 283 216 L 154.679688 216 Z M 154.679688 214 "/>
</clipPath>
<clipPath id="clip36">
  <path d="M 158 210.628906 L 159 210.628906 L 159 350 L 158 350 Z M 158 210.628906 "/>
</clipPath>
<clipPath id="clip37">
  <path d="M 178 210.628906 L 179 210.628906 L 179 350 L 178 350 Z M 178 210.628906 "/>
</clipPath>
<clipPath id="clip38">
  <path d="M 198 210.628906 L 199 210.628906 L 199 350 L 198 350 Z M 198 210.628906 "/>
</clipPath>
<clipPath id="clip39">
  <path d="M 218 210.628906 L 219 210.628906 L 219 350 L 218 350 Z M 218 210.628906 "/>
</clipPath>
<clipPath id="clip40">
  <path d="M 238 210.628906 L 239 210.628906 L 239 350 L 238 350 Z M 238 210.628906 "/>
</clipPath>
<clipPath id="clip41">
  <path d="M 258 210.628906 L 259 210.628906 L 259 350 L 258 350 Z M 258 210.628906 "/>
</clipPath>
<clipPath id="clip42">
  <path d="M 278 210.628906 L 279 210.628906 L 279 350 L 278 350 Z M 278 210.628906 "/>
</clipPath>
<clipPath id="clip43">
  <path d="M 154.679688 334 L 283.519531 334 L 283.519531 336 L 154.679688 336 Z M 154.679688 334 "/>
</clipPath>
<clipPath id="clip44">
  <path d="M 154.679688 314 L 283.519531 314 L 283.519531 316 L 154.679688 316 Z M 154.679688 314 "/>
</clipPath>
<clipPath id="clip45">
  <path d="M 154.679688 294 L 283.519531 294 L 283.519531 296 L 154.679688 296 Z M 154.679688 294 "/>
</clipPath>
<clipPath id="clip46">
  <path d="M 154.679688 274 L 283.519531 274 L 283.519531 276 L 154.679688 276 Z M 154.679688 274 "/>
</clipPath>
<clipPath id="clip47">
  <path d="M 154.679688 254 L 283.519531 254 L 283.519531 256 L 154.679688 256 Z M 154.679688 254 "/>
</clipPath>
<clipPath id="clip48">
  <path d="M 154.679688 234 L 283.519531 234 L 283.519531 236 L 154.679688 236 Z M 154.679688 234 "/>
</clipPath>
<clipPath id="clip49">
  <path d="M 167 210.628906 L 170 210.628906 L 170 350.492188 L 167 350.492188 Z M 167 210.628906 "/>
</clipPath>
<clipPath id="clip50">
  <path d="M 188 210.628906 L 190 210.628906 L 190 350.492188 L 188 350.492188 Z M 188 210.628906 "/>
</clipPath>
<clipPath id="clip51">
  <path d="M 208 210.628906 L 210 210.628906 L 210 350.492188 L 208 350.492188 Z M 208 210.628906 "/>
</clipPath>
<clipPath id="clip52">
  <path d="M 228 210.628906 L 230 210.628906 L 230 350.492188 L 228 350.492188 Z M 228 210.628906 "/>
</clipPath>
<clipPath id="clip53">
  <path d="M 248 210.628906 L 250 210.628906 L 250 350.492188 L 248 350.492188 Z M 248 210.628906 "/>
</clipPath>
<clipPath id="clip54">
  <path d="M 268 210.628906 L 270 210.628906 L 270 350.492188 L 268 350.492188 Z M 268 210.628906 "/>
</clipPath>
<clipPath id="clip55">
  <path d="M 231 331 L 250 331 L 250 350.492188 L 231 350.492188 Z M 231 331 "/>
</clipPath>
</defs>
<g id="surface46">
<rect x="0" y="0" width="288" height="576" style="fill:rgb(100%,100%,100%);fill-opacity:1;stroke:none;"/>
<g clip-path="url(#clip1)" clip-rule="nonzero">
<path style="fill:none;stroke-width:0.533489;stroke-linecap:butt;stroke-linejoin:round;stroke:rgb(92.156863%,92.156863%,92.156863%);stroke-opacity:1;stroke-miterlimit:10;" d="M 21.359375 345.183594 L 149.199219 345.183594 "/>
</g>
<g clip-path="url(#clip2)" clip-rule="nonzero">
<path style="fill:none;stroke-width:0.533489;stroke-linecap:butt;stroke-linejoin:round;stroke:rgb(92.156863%,92.156863%,92.156863%);stroke-opacity:1;stroke-miterlimit:10;" d="M 21.359375 325.144531 L 149.199219 325.144531 "/>
</g>
<g clip-path="url(#clip3)" clip-rule="nonzero">
<path style="fill:none;stroke-width:0.533489;stroke-linecap:butt;stroke-linejoin:round;stroke:rgb(92.156863%,92.156863%,92.156863%);stroke-opacity:1;stroke-miterlimit:10;" d="M 21.359375 305.109375 L 149.199219 305.109375 "/>
</g>
<g clip-path="url(#clip4)" clip-rule="nonzero">
<path style="fill:none;stroke-width:0.533489;stroke-linecap:butt;stroke-linejoin:round;stroke:rgb(92.156863%,92.156863%,92.156863%);stroke-opacity:1;stroke-miterlimit:10;" d="M 21.359375 285.070313 L 149.199219 285.070313 "/>
</g>
<g clip-path="url(#clip5)" clip-rule="nonzero">
<path style="fill:none;stroke-width:0.533489;stroke-linecap:butt;stroke-linejoin:round;stroke:rgb(92.156863%,92.156863%,92.156863%);stroke-opacity:1;stroke-miterlimit:10;" d="M 21.359375 265.03125 L 149.199219 265.03125 "/>
</g>
<g clip-path="url(#clip6)" clip-rule="nonzero">
<path style="fill:none;stroke-width:0.533489;stroke-linecap:butt;stroke-linejoin:round;stroke:rgb(92.156863%,92.156863%,92.156863%);stroke-opacity:1;stroke-miterlimit:10;" d="M 21.359375 244.996094 L 149.199219 244.996094 "/>
</g>
<g clip-path="url(#clip7)" clip-rule="nonzero">
<path style="fill:none;stroke-width:0.533489;stroke-linecap:butt;stroke-linejoin:round;stroke:rgb(92.156863%,92.156863%,92.156863%);stroke-opacity:1;stroke-miterlimit:10;" d="M 21.359375 224.957031 L 149.199219 224.957031 "/>
</g>
<g clip-path="url(#clip8)" clip-rule="nonzero">
<path style="fill:none;stroke-width:0.533489;stroke-linecap:butt;stroke-linejoin:round;stroke:rgb(92.156863%,92.156863%,92.156863%);stroke-opacity:1;stroke-miterlimit:10;" d="M 21.359375 214.9375 L 149.199219 214.9375 "/>
</g>
<g clip-path="url(#clip9)" clip-rule="nonzero">
<path style="fill:none;stroke-width:0.533489;stroke-linecap:butt;stroke-linejoin:round;stroke:rgb(92.156863%,92.156863%,92.156863%);stroke-opacity:1;stroke-miterlimit:10;" d="M 25.164063 349.492188 L 25.164063 210.628906 "/>
</g>
<g clip-path="url(#clip10)" clip-rule="nonzero">
<path style="fill:none;stroke-width:0.533489;stroke-linecap:butt;stroke-linejoin:round;stroke:rgb(92.156863%,92.156863%,92.156863%);stroke-opacity:1;stroke-miterlimit:10;" d="M 45.203125 349.492188 L 45.203125 210.628906 "/>
</g>
<g clip-path="url(#clip11)" clip-rule="nonzero">
<path style="fill:none;stroke-width:0.533489;stroke-linecap:butt;stroke-linejoin:round;stroke:rgb(92.156863%,92.156863%,92.156863%);stroke-opacity:1;stroke-miterlimit:10;" d="M 65.242188 349.492188 L 65.242188 210.628906 "/>
</g>
<g clip-path="url(#clip12)" clip-rule="nonzero">
<path style="fill:none;stroke-width:0.533489;stroke-linecap:butt;stroke-linejoin:round;stroke:rgb(92.156863%,92.156863%,92.156863%);stroke-opacity:1;stroke-miterlimit:10;" d="M 85.277344 349.492188 L 85.277344 210.628906 "/>
</g>
<g clip-path="url(#clip13)" clip-rule="nonzero">
<path style="fill:none;stroke-width:0.533489;stroke-linecap:butt;stroke-linejoin:round;stroke:rgb(92.156863%,92.156863%,92.156863%);stroke-opacity:1;stroke-miterlimit:10;" d="M 105.316406 349.492188 L 105.316406 210.628906 "/>
</g>
<g clip-path="url(#clip14)" clip-rule="nonzero">
<path style="fill:none;stroke-width:0.533489;stroke-linecap:butt;stroke-linejoin:round;stroke:rgb(92.156863%,92.156863%,92.156863%);stroke-opacity:1;stroke-miterlimit:10;" d="M 125.355469 349.492188 L 125.355469 210.628906 "/>
</g>
<g clip-path="url(#clip15)" clip-rule="nonzero">
<path style="fill:none;stroke-width:0.533489;stroke-linecap:butt;stroke-linejoin:round;stroke:rgb(92.156863%,92.156863%,92.156863%);stroke-opacity:1;stroke-miterlimit:10;" d="M 145.390625 349.492188 L 145.390625 210.628906 "/>
</g>
<g clip-path="url(#clip16)" clip-rule="nonzero">
<path style="fill:none;stroke-width:1.066978;stroke-linecap:butt;stroke-linejoin:round;stroke:rgb(92.156863%,92.156863%,92.156863%);stroke-opacity:1;stroke-miterlimit:10;" d="M 21.359375 335.164063 L 149.199219 335.164063 "/>
</g>
<g clip-path="url(#clip17)" clip-rule="nonzero">
<path style="fill:none;stroke-width:1.066978;stroke-linecap:butt;stroke-linejoin:round;stroke:rgb(92.156863%,92.156863%,92.156863%);stroke-opacity:1;stroke-miterlimit:10;" d="M 21.359375 315.125 L 149.199219 315.125 "/>
</g>
<g clip-path="url(#clip18)" clip-rule="nonzero">
<path style="fill:none;stroke-width:1.066978;stroke-linecap:butt;stroke-linejoin:round;stroke:rgb(92.156863%,92.156863%,92.156863%);stroke-opacity:1;stroke-miterlimit:10;" d="M 21.359375 295.089844 L 149.199219 295.089844 "/>
</g>
<g clip-path="url(#clip19)" clip-rule="nonzero">
<path style="fill:none;stroke-width:1.066978;stroke-linecap:butt;stroke-linejoin:round;stroke:rgb(92.156863%,92.156863%,92.156863%);stroke-opacity:1;stroke-miterlimit:10;" d="M 21.359375 275.050781 L 149.199219 275.050781 "/>
</g>
<g clip-path="url(#clip20)" clip-rule="nonzero">
<path style="fill:none;stroke-width:1.066978;stroke-linecap:butt;stroke-linejoin:round;stroke:rgb(92.156863%,92.156863%,92.156863%);stroke-opacity:1;stroke-miterlimit:10;" d="M 21.359375 255.011719 L 149.199219 255.011719 "/>
</g>
<g clip-path="url(#clip21)" clip-rule="nonzero">
<path style="fill:none;stroke-width:1.066978;stroke-linecap:butt;stroke-linejoin:round;stroke:rgb(92.156863%,92.156863%,92.156863%);stroke-opacity:1;stroke-miterlimit:10;" d="M 21.359375 234.976563 L 149.199219 234.976563 "/>
</g>
<g clip-path="url(#clip22)" clip-rule="nonzero">
<path style="fill:none;stroke-width:1.066978;stroke-linecap:butt;stroke-linejoin:round;stroke:rgb(92.156863%,92.156863%,92.156863%);stroke-opacity:1;stroke-miterlimit:10;" d="M 35.183594 349.492188 L 35.183594 210.628906 "/>
</g>
<g clip-path="url(#clip23)" clip-rule="nonzero">
<path style="fill:none;stroke-width:1.066978;stroke-linecap:butt;stroke-linejoin:round;stroke:rgb(92.156863%,92.156863%,92.156863%);stroke-opacity:1;stroke-miterlimit:10;" d="M 55.222656 349.492188 L 55.222656 210.628906 "/>
</g>
<g clip-path="url(#clip24)" clip-rule="nonzero">
<path style="fill:none;stroke-width:1.066978;stroke-linecap:butt;stroke-linejoin:round;stroke:rgb(92.156863%,92.156863%,92.156863%);stroke-opacity:1;stroke-miterlimit:10;" d="M 75.261719 349.492188 L 75.261719 210.628906 "/>
</g>
<g clip-path="url(#clip25)" clip-rule="nonzero">
<path style="fill:none;stroke-width:1.066978;stroke-linecap:butt;stroke-linejoin:round;stroke:rgb(92.156863%,92.156863%,92.156863%);stroke-opacity:1;stroke-miterlimit:10;" d="M 95.296875 349.492188 L 95.296875 210.628906 "/>
</g>
<g clip-path="url(#clip26)" clip-rule="nonzero">
<path style="fill:none;stroke-width:1.066978;stroke-linecap:butt;stroke-linejoin:round;stroke:rgb(92.156863%,92.156863%,92.156863%);stroke-opacity:1;stroke-miterlimit:10;" d="M 115.335938 349.492188 L 115.335938 210.628906 "/>
</g>
<g clip-path="url(#clip27)" clip-rule="nonzero">
<path style="fill:none;stroke-width:1.066978;stroke-linecap:butt;stroke-linejoin:round;stroke:rgb(92.156863%,92.156863%,92.156863%);stroke-opacity:1;stroke-miterlimit:10;" d="M 135.375 349.492188 L 135.375 210.628906 "/>
</g>
<path style="fill:none;stroke-width:6.40187;stroke-linecap:round;stroke-linejoin:round;stroke:rgb(0%,0%,0%);stroke-opacity:1;stroke-miterlimit:10;" d="M 75.261719 305.109375 L 115.335938 285.070313 L 135.375 325.144531 L 75.261719 335.164063 L 35.183594 285.070313 L 45.203125 244.996094 L 95.296875 224.957031 "/>
<path style="fill-rule:nonzero;fill:rgb(97.254902%,46.27451%,42.745098%);fill-opacity:1;stroke-width:0.708661;stroke-linecap:round;stroke-linejoin:round;stroke:rgb(97.254902%,46.27451%,42.745098%);stroke-opacity:1;stroke-miterlimit:10;" d="M 84.148438 305.109375 C 84.148438 310.019531 80.171875 313.996094 75.261719 313.996094 C 70.351563 313.996094 66.371094 310.019531 66.371094 305.109375 C 66.371094 300.199219 70.351563 296.21875 75.261719 296.21875 C 80.171875 296.21875 84.148438 300.199219 84.148438 305.109375 "/>
<path style="fill-rule:nonzero;fill:rgb(97.254902%,46.27451%,42.745098%);fill-opacity:1;stroke-width:0.708661;stroke-linecap:round;stroke-linejoin:round;stroke:rgb(97.254902%,46.27451%,42.745098%);stroke-opacity:1;stroke-miterlimit:10;" d="M 124.226563 285.070313 C 124.226563 289.980469 120.246094 293.960938 115.335938 293.960938 C 110.425781 293.960938 106.445313 289.980469 106.445313 285.070313 C 106.445313 280.160156 110.425781 276.179688 115.335938 276.179688 C 120.246094 276.179688 124.226563 280.160156 124.226563 285.070313 "/>
<path style="fill-rule:nonzero;fill:rgb(97.254902%,46.27451%,42.745098%);fill-opacity:1;stroke-width:0.708661;stroke-linecap:round;stroke-linejoin:round;stroke:rgb(97.254902%,46.27451%,42.745098%);stroke-opacity:1;stroke-miterlimit:10;" d="M 144.265625 325.144531 C 144.265625 330.054688 140.285156 334.035156 135.375 334.035156 C 130.464844 334.035156 126.484375 330.054688 126.484375 325.144531 C 126.484375 320.234375 130.464844 316.253906 135.375 316.253906 C 140.285156 316.253906 144.265625 320.234375 144.265625 325.144531 "/>
<path style="fill-rule:nonzero;fill:rgb(97.254902%,46.27451%,42.745098%);fill-opacity:1;stroke-width:0.708661;stroke-linecap:round;stroke-linejoin:round;stroke:rgb(97.254902%,46.27451%,42.745098%);stroke-opacity:1;stroke-miterlimit:10;" d="M 84.148438 335.164063 C 84.148438 340.074219 80.171875 344.054688 75.261719 344.054688 C 70.351563 344.054688 66.371094 340.074219 66.371094 335.164063 C 66.371094 330.253906 70.351563 326.273438 75.261719 326.273438 C 80.171875 326.273438 84.148438 330.253906 84.148438 335.164063 "/>
<path style="fill-rule:nonzero;fill:rgb(97.254902%,46.27451%,42.745098%);fill-opacity:1;stroke-width:0.708661;stroke-linecap:round;stroke-linejoin:round;stroke:rgb(97.254902%,46.27451%,42.745098%);stroke-opacity:1;stroke-miterlimit:10;" d="M 44.074219 285.070313 C 44.074219 289.980469 40.09375 293.960938 35.183594 293.960938 C 30.273438 293.960938 26.292969 289.980469 26.292969 285.070313 C 26.292969 280.160156 30.273438 276.179688 35.183594 276.179688 C 40.09375 276.179688 44.074219 280.160156 44.074219 285.070313 "/>
<path style="fill-rule:nonzero;fill:rgb(97.254902%,46.27451%,42.745098%);fill-opacity:1;stroke-width:0.708661;stroke-linecap:round;stroke-linejoin:round;stroke:rgb(97.254902%,46.27451%,42.745098%);stroke-opacity:1;stroke-miterlimit:10;" d="M 54.09375 244.996094 C 54.09375 249.902344 50.113281 253.882813 45.203125 253.882813 C 40.292969 253.882813 36.3125 249.902344 36.3125 244.996094 C 36.3125 240.085938 40.292969 236.105469 45.203125 236.105469 C 50.113281 236.105469 54.09375 240.085938 54.09375 244.996094 "/>
<path style="fill-rule:nonzero;fill:rgb(97.254902%,46.27451%,42.745098%);fill-opacity:1;stroke-width:0.708661;stroke-linecap:round;stroke-linejoin:round;stroke:rgb(97.254902%,46.27451%,42.745098%);stroke-opacity:1;stroke-miterlimit:10;" d="M 104.1875 224.957031 C 104.1875 229.867188 100.207031 233.847656 95.296875 233.847656 C 90.386719 233.847656 86.40625 229.867188 86.40625 224.957031 C 86.40625 220.046875 90.386719 216.066406 95.296875 216.066406 C 100.207031 216.066406 104.1875 220.046875 104.1875 224.957031 "/>
<g clip-path="url(#clip28)" clip-rule="nonzero">
<path style="fill:none;stroke-width:0.533489;stroke-linecap:butt;stroke-linejoin:round;stroke:rgb(92.156863%,92.156863%,92.156863%);stroke-opacity:1;stroke-miterlimit:10;" d="M 154.679688 345.183594 L 282.519531 345.183594 "/>
</g>
<g clip-path="url(#clip29)" clip-rule="nonzero">
<path style="fill:none;stroke-width:0.533489;stroke-linecap:butt;stroke-linejoin:round;stroke:rgb(92.156863%,92.156863%,92.156863%);stroke-opacity:1;stroke-miterlimit:10;" d="M 154.679688 325.144531 L 282.519531 325.144531 "/>
</g>
<g clip-path="url(#clip30)" clip-rule="nonzero">
<path style="fill:none;stroke-width:0.533489;stroke-linecap:butt;stroke-linejoin:round;stroke:rgb(92.156863%,92.156863%,92.156863%);stroke-opacity:1;stroke-miterlimit:10;" d="M 154.679688 305.109375 L 282.519531 305.109375 "/>
</g>
<g clip-path="url(#clip31)" clip-rule="nonzero">
<path style="fill:none;stroke-width:0.533489;stroke-linecap:butt;stroke-linejoin:round;stroke:rgb(92.156863%,92.156863%,92.156863%);stroke-opacity:1;stroke-miterlimit:10;" d="M 154.679688 285.070313 L 282.519531 285.070313 "/>
</g>
<g clip-path="url(#clip32)" clip-rule="nonzero">
<path style="fill:none;stroke-width:0.533489;stroke-linecap:butt;stroke-linejoin:round;stroke:rgb(92.156863%,92.156863%,92.156863%);stroke-opacity:1;stroke-miterlimit:10;" d="M 154.679688 265.03125 L 282.519531 265.03125 "/>
</g>
<g clip-path="url(#clip33)" clip-rule="nonzero">
<path style="fill:none;stroke-width:0.533489;stroke-linecap:butt;stroke-linejoin:round;stroke:rgb(92.156863%,92.156863%,92.156863%);stroke-opacity:1;stroke-miterlimit:10;" d="M 154.679688 244.996094 L 282.519531 244.996094 "/>
</g>
<g clip-path="url(#clip34)" clip-rule="nonzero">
<path style="fill:none;stroke-width:0.533489;stroke-linecap:butt;stroke-linejoin:round;stroke:rgb(92.156863%,92.156863%,92.156863%);stroke-opacity:1;stroke-miterlimit:10;" d="M 154.679688 224.957031 L 282.519531 224.957031 "/>
</g>
<g clip-path="url(#clip35)" clip-rule="nonzero">
<path style="fill:none;stroke-width:0.533489;stroke-linecap:butt;stroke-linejoin:round;stroke:rgb(92.156863%,92.156863%,92.156863%);stroke-opacity:1;stroke-miterlimit:10;" d="M 154.679688 214.9375 L 282.519531 214.9375 "/>
</g>
<g clip-path="url(#clip36)" clip-rule="nonzero">
<path style="fill:none;stroke-width:0.533489;stroke-linecap:butt;stroke-linejoin:round;stroke:rgb(92.156863%,92.156863%,92.156863%);stroke-opacity:1;stroke-miterlimit:10;" d="M 158.488281 349.492188 L 158.488281 210.628906 "/>
</g>
<g clip-path="url(#clip37)" clip-rule="nonzero">
<path style="fill:none;stroke-width:0.533489;stroke-linecap:butt;stroke-linejoin:round;stroke:rgb(92.156863%,92.156863%,92.156863%);stroke-opacity:1;stroke-miterlimit:10;" d="M 178.523438 349.492188 L 178.523438 210.628906 "/>
</g>
<g clip-path="url(#clip38)" clip-rule="nonzero">
<path style="fill:none;stroke-width:0.533489;stroke-linecap:butt;stroke-linejoin:round;stroke:rgb(92.156863%,92.156863%,92.156863%);stroke-opacity:1;stroke-miterlimit:10;" d="M 198.5625 349.492188 L 198.5625 210.628906 "/>
</g>
<g clip-path="url(#clip39)" clip-rule="nonzero">
<path style="fill:none;stroke-width:0.533489;stroke-linecap:butt;stroke-linejoin:round;stroke:rgb(92.156863%,92.156863%,92.156863%);stroke-opacity:1;stroke-miterlimit:10;" d="M 218.601563 349.492188 L 218.601563 210.628906 "/>
</g>
<g clip-path="url(#clip40)" clip-rule="nonzero">
<path style="fill:none;stroke-width:0.533489;stroke-linecap:butt;stroke-linejoin:round;stroke:rgb(92.156863%,92.156863%,92.156863%);stroke-opacity:1;stroke-miterlimit:10;" d="M 238.636719 349.492188 L 238.636719 210.628906 "/>
</g>
<g clip-path="url(#clip41)" clip-rule="nonzero">
<path style="fill:none;stroke-width:0.533489;stroke-linecap:butt;stroke-linejoin:round;stroke:rgb(92.156863%,92.156863%,92.156863%);stroke-opacity:1;stroke-miterlimit:10;" d="M 258.675781 349.492188 L 258.675781 210.628906 "/>
</g>
<g clip-path="url(#clip42)" clip-rule="nonzero">
<path style="fill:none;stroke-width:0.533489;stroke-linecap:butt;stroke-linejoin:round;stroke:rgb(92.156863%,92.156863%,92.156863%);stroke-opacity:1;stroke-miterlimit:10;" d="M 278.714844 349.492188 L 278.714844 210.628906 "/>
</g>
<g clip-path="url(#clip43)" clip-rule="nonzero">
<path style="fill:none;stroke-width:1.066978;stroke-linecap:butt;stroke-linejoin:round;stroke:rgb(92.156863%,92.156863%,92.156863%);stroke-opacity:1;stroke-miterlimit:10;" d="M 154.679688 335.164063 L 282.519531 335.164063 "/>
</g>
<g clip-path="url(#clip44)" clip-rule="nonzero">
<path style="fill:none;stroke-width:1.066978;stroke-linecap:butt;stroke-linejoin:round;stroke:rgb(92.156863%,92.156863%,92.156863%);stroke-opacity:1;stroke-miterlimit:10;" d="M 154.679688 315.125 L 282.519531 315.125 "/>
</g>
<g clip-path="url(#clip45)" clip-rule="nonzero">
<path style="fill:none;stroke-width:1.066978;stroke-linecap:butt;stroke-linejoin:round;stroke:rgb(92.156863%,92.156863%,92.156863%);stroke-opacity:1;stroke-miterlimit:10;" d="M 154.679688 295.089844 L 282.519531 295.089844 "/>
</g>
<g clip-path="url(#clip46)" clip-rule="nonzero">
<path style="fill:none;stroke-width:1.066978;stroke-linecap:butt;stroke-linejoin:round;stroke:rgb(92.156863%,92.156863%,92.156863%);stroke-opacity:1;stroke-miterlimit:10;" d="M 154.679688 275.050781 L 282.519531 275.050781 "/>
</g>
<g clip-path="url(#clip47)" clip-rule="nonzero">
<path style="fill:none;stroke-width:1.066978;stroke-linecap:butt;stroke-linejoin:round;stroke:rgb(92.156863%,92.156863%,92.156863%);stroke-opacity:1;stroke-miterlimit:10;" d="M 154.679688 255.011719 L 282.519531 255.011719 "/>
</g>
<g clip-path="url(#clip48)" clip-rule="nonzero">
<path style="fill:none;stroke-width:1.066978;stroke-linecap:butt;stroke-linejoin:round;stroke:rgb(92.156863%,92.156863%,92.156863%);stroke-opacity:1;stroke-miterlimit:10;" d="M 154.679688 234.976563 L 282.519531 234.976563 "/>
</g>
<g clip-path="url(#clip49)" clip-rule="nonzero">
<path style="fill:none;stroke-width:1.066978;stroke-linecap:butt;stroke-linejoin:round;stroke:rgb(92.156863%,92.156863%,92.156863%);stroke-opacity:1;stroke-miterlimit:10;" d="M 168.503906 349.492188 L 168.503906 210.628906 "/>
</g>
<g clip-path="url(#clip50)" clip-rule="nonzero">
<path style="fill:none;stroke-width:1.066978;stroke-linecap:butt;stroke-linejoin:round;stroke:rgb(92.156863%,92.156863%,92.156863%);stroke-opacity:1;stroke-miterlimit:10;" d="M 188.542969 349.492188 L 188.542969 210.628906 "/>
</g>
<g clip-path="url(#clip51)" clip-rule="nonzero">
<path style="fill:none;stroke-width:1.066978;stroke-linecap:butt;stroke-linejoin:round;stroke:rgb(92.156863%,92.156863%,92.156863%);stroke-opacity:1;stroke-miterlimit:10;" d="M 208.582031 349.492188 L 208.582031 210.628906 "/>
</g>
<g clip-path="url(#clip52)" clip-rule="nonzero">
<path style="fill:none;stroke-width:1.066978;stroke-linecap:butt;stroke-linejoin:round;stroke:rgb(92.156863%,92.156863%,92.156863%);stroke-opacity:1;stroke-miterlimit:10;" d="M 228.617188 349.492188 L 228.617188 210.628906 "/>
</g>
<g clip-path="url(#clip53)" clip-rule="nonzero">
<path style="fill:none;stroke-width:1.066978;stroke-linecap:butt;stroke-linejoin:round;stroke:rgb(92.156863%,92.156863%,92.156863%);stroke-opacity:1;stroke-miterlimit:10;" d="M 248.65625 349.492188 L 248.65625 210.628906 "/>
</g>
<g clip-path="url(#clip54)" clip-rule="nonzero">
<path style="fill:none;stroke-width:1.066978;stroke-linecap:butt;stroke-linejoin:round;stroke:rgb(92.156863%,92.156863%,92.156863%);stroke-opacity:1;stroke-miterlimit:10;" d="M 268.695313 349.492188 L 268.695313 210.628906 "/>
</g>
<path style="fill:none;stroke-width:6.40187;stroke-linecap:round;stroke-linejoin:round;stroke:rgb(0%,0%,0%);stroke-opacity:1;stroke-miterlimit:10;" d="M 208.582031 305.109375 L 215.601563 295.207031 L 224.609375 287.074219 L 236.523438 284.746094 L 248.65625 285.070313 L 259.226563 291.59375 L 267.871094 300.511719 L 270.46875 312.753906 L 268.695313 325.144531 L 255.792969 335.257813 L 240.449219 341.011719 L 224.296875 339.269531 L 208.582031 335.164063 L 195.855469 324.957031 L 184.003906 313.75 L 175.601563 299.761719 L 168.503906 285.070313 L 168.941406 274.609375 L 170.273438 264.222656 L 173.941406 254.414063 L 178.523438 244.996094 L 189.878906 237.347656 L 201.910156 230.824219 L 215.203125 227.605469 L 228.617188 224.957031 "/>
<path style="fill-rule:nonzero;fill:rgb(38.039216%,61.176471%,100%);fill-opacity:1;stroke-width:0.708661;stroke-linecap:round;stroke-linejoin:round;stroke:rgb(38.039216%,61.176471%,100%);stroke-opacity:1;stroke-miterlimit:10;" d="M 217.472656 305.109375 C 217.472656 310.019531 213.492188 313.996094 208.582031 313.996094 C 203.671875 313.996094 199.691406 310.019531 199.691406 305.109375 C 199.691406 300.199219 203.671875 296.21875 208.582031 296.21875 C 213.492188 296.21875 217.472656 300.199219 217.472656 305.109375 "/>
<path style="fill-rule:nonzero;fill:rgb(38.039216%,61.176471%,100%);fill-opacity:1;stroke-width:0.708661;stroke-linecap:round;stroke-linejoin:round;stroke:rgb(38.039216%,61.176471%,100%);stroke-opacity:1;stroke-miterlimit:10;" d="M 224.492188 295.207031 C 224.492188 300.117188 220.511719 304.097656 215.601563 304.097656 C 210.691406 304.097656 206.710938 300.117188 206.710938 295.207031 C 206.710938 290.296875 210.691406 286.316406 215.601563 286.316406 C 220.511719 286.316406 224.492188 290.296875 224.492188 295.207031 "/>
<path style="fill-rule:nonzero;fill:rgb(38.039216%,61.176471%,100%);fill-opacity:1;stroke-width:0.708661;stroke-linecap:round;stroke-linejoin:round;stroke:rgb(38.039216%,61.176471%,100%);stroke-opacity:1;stroke-miterlimit:10;" d="M 233.5 287.074219 C 233.5 291.984375 229.519531 295.964844 224.609375 295.964844 C 219.703125 295.964844 215.722656 291.984375 215.722656 287.074219 C 215.722656 282.164063 219.703125 278.183594 224.609375 278.183594 C 229.519531 278.183594 233.5 282.164063 233.5 287.074219 "/>
<path style="fill-rule:nonzero;fill:rgb(38.039216%,61.176471%,100%);fill-opacity:1;stroke-width:0.708661;stroke-linecap:round;stroke-linejoin:round;stroke:rgb(38.039216%,61.176471%,100%);stroke-opacity:1;stroke-miterlimit:10;" d="M 245.414063 284.746094 C 245.414063 289.65625 241.433594 293.636719 236.523438 293.636719 C 231.613281 293.636719 227.632813 289.65625 227.632813 284.746094 C 227.632813 279.835938 231.613281 275.855469 236.523438 275.855469 C 241.433594 275.855469 245.414063 279.835938 245.414063 284.746094 "/>
<path style="fill-rule:nonzero;fill:rgb(38.039216%,61.176471%,100%);fill-opacity:1;stroke-width:0.708661;stroke-linecap:round;stroke-linejoin:round;stroke:rgb(38.039216%,61.176471%,100%);stroke-opacity:1;stroke-miterlimit:10;" d="M 257.546875 285.070313 C 257.546875 289.980469 253.566406 293.960938 248.65625 293.960938 C 243.746094 293.960938 239.765625 289.980469 239.765625 285.070313 C 239.765625 280.160156 243.746094 276.179688 248.65625 276.179688 C 253.566406 276.179688 257.546875 280.160156 257.546875 285.070313 "/>
<path style="fill-rule:nonzero;fill:rgb(38.039216%,61.176471%,100%);fill-opacity:1;stroke-width:0.708661;stroke-linecap:round;stroke-linejoin:round;stroke:rgb(38.039216%,61.176471%,100%);stroke-opacity:1;stroke-miterlimit:10;" d="M 268.113281 291.59375 C 268.113281 296.503906 264.136719 300.484375 259.226563 300.484375 C 254.316406 300.484375 250.335938 296.503906 250.335938 291.59375 C 250.335938 286.683594 254.316406 282.703125 259.226563 282.703125 C 264.136719 282.703125 268.113281 286.683594 268.113281 291.59375 "/>
<path style="fill-rule:nonzero;fill:rgb(38.039216%,61.176471%,100%);fill-opacity:1;stroke-width:0.708661;stroke-linecap:round;stroke-linejoin:round;stroke:rgb(38.039216%,61.176471%,100%);stroke-opacity:1;stroke-miterlimit:10;" d="M 276.757813 300.511719 C 276.757813 305.421875 272.777344 309.402344 267.871094 309.402344 C 262.960938 309.402344 258.980469 305.421875 258.980469 300.511719 C 258.980469 295.601563 262.960938 291.621094 267.871094 291.621094 C 272.777344 291.621094 276.757813 295.601563 276.757813 300.511719 "/>
<path style="fill-rule:nonzero;fill:rgb(38.039216%,61.176471%,100%);fill-opacity:1;stroke-width:0.708661;stroke-linecap:round;stroke-linejoin:round;stroke:rgb(38.039216%,61.176471%,100%);stroke-opacity:1;stroke-miterlimit:10;" d="M 279.359375 312.753906 C 279.359375 317.664063 275.378906 321.644531 270.46875 321.644531 C 265.558594 321.644531 261.578125 317.664063 261.578125 312.753906 C 261.578125 307.84375 265.558594 303.863281 270.46875 303.863281 C 275.378906 303.863281 279.359375 307.84375 279.359375 312.753906 "/>
<path style="fill-rule:nonzero;fill:rgb(38.039216%,61.176471%,100%);fill-opacity:1;stroke-width:0.708661;stroke-linecap:round;stroke-linejoin:round;stroke:rgb(38.039216%,61.176471%,100%);stroke-opacity:1;stroke-miterlimit:10;" d="M 277.585938 325.144531 C 277.585938 330.054688 273.605469 334.035156 268.695313 334.035156 C 263.785156 334.035156 259.804688 330.054688 259.804688 325.144531 C 259.804688 320.234375 263.785156 316.253906 268.695313 316.253906 C 273.605469 316.253906 277.585938 320.234375 277.585938 325.144531 "/>
<path style="fill-rule:nonzero;fill:rgb(38.039216%,61.176471%,100%);fill-opacity:1;stroke-width:0.708661;stroke-linecap:round;stroke-linejoin:round;stroke:rgb(38.039216%,61.176471%,100%);stroke-opacity:1;stroke-miterlimit:10;" d="M 264.683594 335.257813 C 264.683594 340.167969 260.703125 344.144531 255.792969 344.144531 C 250.882813 344.144531 246.902344 340.167969 246.902344 335.257813 C 246.902344 330.347656 250.882813 326.367188 255.792969 326.367188 C 260.703125 326.367188 264.683594 330.347656 264.683594 335.257813 "/>
<path style=" stroke:none;fill-rule:nonzero;fill:rgb(38.039216%,61.176471%,100%);fill-opacity:1;" d="M 249.335938 341.011719 C 249.335938 345.921875 245.355469 349.902344 240.449219 349.902344 C 235.539063 349.902344 231.558594 345.921875 231.558594 341.011719 C 231.558594 336.101563 235.539063 332.125 240.449219 332.125 C 245.355469 332.125 249.335938 336.101563 249.335938 341.011719 "/>
<g clip-path="url(#clip55)" clip-rule="nonzero">
<path style="fill:none;stroke-width:0.708661;stroke-linecap:round;stroke-linejoin:round;stroke:rgb(38.039216%,61.176471%,100%);stroke-opacity:1;stroke-miterlimit:10;" d="M 249.335938 341.011719 C 249.335938 345.921875 245.355469 349.902344 240.449219 349.902344 C 235.539063 349.902344 231.558594 345.921875 231.558594 341.011719 C 231.558594 336.101563 235.539063 332.125 240.449219 332.125 C 245.355469 332.125 249.335938 336.101563 249.335938 341.011719 "/>
</g>
<path style="fill-rule:nonzero;fill:rgb(38.039216%,61.176471%,100%);fill-opacity:1;stroke-width:0.708661;stroke-linecap:round;stroke-linejoin:round;stroke:rgb(38.039216%,61.176471%,100%);stroke-opacity:1;stroke-miterlimit:10;" d="M 233.1875 339.269531 C 233.1875 344.179688 229.207031 348.160156 224.296875 348.160156 C 219.386719 348.160156 215.40625 344.179688 215.40625 339.269531 C 215.40625 334.359375 219.386719 330.378906 224.296875 330.378906 C 229.207031 330.378906 233.1875 334.359375 233.1875 339.269531 "/>
<path style="fill-rule:nonzero;fill:rgb(38.039216%,61.176471%,100%);fill-opacity:1;stroke-width:0.708661;stroke-linecap:round;stroke-linejoin:round;stroke:rgb(38.039216%,61.176471%,100%);stroke-opacity:1;stroke-miterlimit:10;" d="M 217.472656 335.164063 C 217.472656 340.074219 213.492188 344.054688 208.582031 344.054688 C 203.671875 344.054688 199.691406 340.074219 199.691406 335.164063 C 199.691406 330.253906 203.671875 326.273438 208.582031 326.273438 C 213.492188 326.273438 217.472656 330.253906 217.472656 335.164063 "/>
<path style="fill-rule:nonzero;fill:rgb(38.039216%,61.176471%,100%);fill-opacity:1;stroke-width:0.708661;stroke-linecap:round;stroke-linejoin:round;stroke:rgb(38.039216%,61.176471%,100%);stroke-opacity:1;stroke-miterlimit:10;" d="M 204.746094 324.957031 C 204.746094 329.867188 200.765625 333.847656 195.855469 333.847656 C 190.945313 333.847656 186.964844 329.867188 186.964844 324.957031 C 186.964844 320.046875 190.945313 316.066406 195.855469 316.066406 C 200.765625 316.066406 204.746094 320.046875 204.746094 324.957031 "/>
<path style="fill-rule:nonzero;fill:rgb(38.039216%,61.176471%,100%);fill-opacity:1;stroke-width:0.708661;stroke-linecap:round;stroke-linejoin:round;stroke:rgb(38.039216%,61.176471%,100%);stroke-opacity:1;stroke-miterlimit:10;" d="M 192.894531 313.75 C 192.894531 318.660156 188.914063 322.640625 184.003906 322.640625 C 179.09375 322.640625 175.113281 318.660156 175.113281 313.75 C 175.113281 308.839844 179.09375 304.859375 184.003906 304.859375 C 188.914063 304.859375 192.894531 308.839844 192.894531 313.75 "/>
<path style="fill-rule:nonzero;fill:rgb(38.039216%,61.176471%,100%);fill-opacity:1;stroke-width:0.708661;stroke-linecap:round;stroke-linejoin:round;stroke:rgb(38.039216%,61.176471%,100%);stroke-opacity:1;stroke-miterlimit:10;" d="M 184.492188 299.761719 C 184.492188 304.671875 180.511719 308.652344 175.601563 308.652344 C 170.691406 308.652344 166.710938 304.671875 166.710938 299.761719 C 166.710938 294.851563 170.691406 290.871094 175.601563 290.871094 C 180.511719 290.871094 184.492188 294.851563 184.492188 299.761719 "/>
<path style="fill-rule:nonzero;fill:rgb(38.039216%,61.176471%,100%);fill-opacity:1;stroke-width:0.708661;stroke-linecap:round;stroke-linejoin:round;stroke:rgb(38.039216%,61.176471%,100%);stroke-opacity:1;stroke-miterlimit:10;" d="M 177.394531 285.070313 C 177.394531 289.980469 173.414063 293.960938 168.503906 293.960938 C 163.59375 293.960938 159.613281 289.980469 159.613281 285.070313 C 159.613281 280.160156 163.59375 276.179688 168.503906 276.179688 C 173.414063 276.179688 177.394531 280.160156 177.394531 285.070313 "/>
<path style="fill-rule:nonzero;fill:rgb(38.039216%,61.176471%,100%);fill-opacity:1;stroke-width:0.708661;stroke-linecap:round;stroke-linejoin:round;stroke:rgb(38.039216%,61.176471%,100%);stroke-opacity:1;stroke-miterlimit:10;" d="M 177.832031 274.609375 C 177.832031 279.519531 173.851563 283.5 168.941406 283.5 C 164.03125 283.5 160.050781 279.519531 160.050781 274.609375 C 160.050781 269.699219 164.03125 265.71875 168.941406 265.71875 C 173.851563 265.71875 177.832031 269.699219 177.832031 274.609375 "/>
<path style="fill-rule:nonzero;fill:rgb(38.039216%,61.176471%,100%);fill-opacity:1;stroke-width:0.708661;stroke-linecap:round;stroke-linejoin:round;stroke:rgb(38.039216%,61.176471%,100%);stroke-opacity:1;stroke-miterlimit:10;" d="M 179.164063 264.222656 C 179.164063 269.132813 175.183594 273.113281 170.273438 273.113281 C 165.363281 273.113281 161.382813 269.132813 161.382813 264.222656 C 161.382813 259.3125 165.363281 255.332031 170.273438 255.332031 C 175.183594 255.332031 179.164063 259.3125 179.164063 264.222656 "/>
<path style="fill-rule:nonzero;fill:rgb(38.039216%,61.176471%,100%);fill-opacity:1;stroke-width:0.708661;stroke-linecap:round;stroke-linejoin:round;stroke:rgb(38.039216%,61.176471%,100%);stroke-opacity:1;stroke-miterlimit:10;" d="M 182.832031 254.414063 C 182.832031 259.320313 178.851563 263.300781 173.941406 263.300781 C 169.03125 263.300781 165.050781 259.320313 165.050781 254.414063 C 165.050781 249.503906 169.03125 245.523438 173.941406 245.523438 C 178.851563 245.523438 182.832031 249.503906 182.832031 254.414063 "/>
<path style="fill-rule:nonzero;fill:rgb(38.039216%,61.176471%,100%);fill-opacity:1;stroke-width:0.708661;stroke-linecap:round;stroke-linejoin:round;stroke:rgb(38.039216%,61.176471%,100%);stroke-opacity:1;stroke-miterlimit:10;" d="M 187.414063 244.996094 C 187.414063 249.902344 183.433594 253.882813 178.523438 253.882813 C 173.613281 253.882813 169.632813 249.902344 169.632813 244.996094 C 169.632813 240.085938 173.613281 236.105469 178.523438 236.105469 C 183.433594 236.105469 187.414063 240.085938 187.414063 244.996094 "/>
<path style="fill-rule:nonzero;fill:rgb(38.039216%,61.176471%,100%);fill-opacity:1;stroke-width:0.708661;stroke-linecap:round;stroke-linejoin:round;stroke:rgb(38.039216%,61.176471%,100%);stroke-opacity:1;stroke-miterlimit:10;" d="M 198.765625 237.347656 C 198.765625 242.257813 194.785156 246.238281 189.878906 246.238281 C 184.96875 246.238281 180.988281 242.257813 180.988281 237.347656 C 180.988281 232.4375 184.96875 228.457031 189.878906 228.457031 C 194.785156 228.457031 198.765625 232.4375 198.765625 237.347656 "/>
<path style="fill-rule:nonzero;fill:rgb(38.039216%,61.176471%,100%);fill-opacity:1;stroke-width:0.708661;stroke-linecap:round;stroke-linejoin:round;stroke:rgb(38.039216%,61.176471%,100%);stroke-opacity:1;stroke-miterlimit:10;" d="M 210.800781 230.824219 C 210.800781 235.730469 206.820313 239.710938 201.910156 239.710938 C 197 239.710938 193.019531 235.730469 193.019531 230.824219 C 193.019531 225.914063 197 221.933594 201.910156 221.933594 C 206.820313 221.933594 210.800781 225.914063 210.800781 230.824219 "/>
<path style="fill-rule:nonzero;fill:rgb(38.039216%,61.176471%,100%);fill-opacity:1;stroke-width:0.708661;stroke-linecap:round;stroke-linejoin:round;stroke:rgb(38.039216%,61.176471%,100%);stroke-opacity:1;stroke-miterlimit:10;" d="M 224.09375 227.605469 C 224.09375 232.511719 220.113281 236.492188 215.203125 236.492188 C 210.292969 236.492188 206.3125 232.511719 206.3125 227.605469 C 206.3125 222.695313 210.292969 218.714844 215.203125 218.714844 C 220.113281 218.714844 224.09375 222.695313 224.09375 227.605469 "/>
<path style="fill-rule:nonzero;fill:rgb(38.039216%,61.176471%,100%);fill-opacity:1;stroke-width:0.708661;stroke-linecap:round;stroke-linejoin:round;stroke:rgb(38.039216%,61.176471%,100%);stroke-opacity:1;stroke-miterlimit:10;" d="M 237.507813 224.957031 C 237.507813 229.867188 233.527344 233.847656 228.617188 233.847656 C 223.707031 233.847656 219.730469 229.867188 219.730469 224.957031 C 219.730469 220.046875 223.707031 216.066406 228.617188 216.066406 C 233.527344 216.066406 237.507813 220.046875 237.507813 224.957031 "/>
</g>
</svg>
