<?xml version="1.0" encoding="UTF-8"?>
<svg xmlns="http://www.w3.org/2000/svg" xmlns:xlink="http://www.w3.org/1999/xlink" width="432pt" height="216pt" viewBox="0 0 432 216" version="1.1">
<defs>
<clipPath id="clip1">
  <path d="M 46.152344 183 L 222 183 L 222 184 L 46.152344 184 Z M 46.152344 183 "/>
</clipPath>
<clipPath id="clip2">
  <path d="M 46.152344 157 L 222 157 L 222 159 L 46.152344 159 Z M 46.152344 157 "/>
</clipPath>
<clipPath id="clip3">
  <path d="M 46.152344 131 L 222 131 L 222 133 L 46.152344 133 Z M 46.152344 131 "/>
</clipPath>
<clipPath id="clip4">
  <path d="M 46.152344 106 L 222 106 L 222 107 L 46.152344 107 Z M 46.152344 106 "/>
</clipPath>
<clipPath id="clip5">
  <path d="M 46.152344 80 L 222 80 L 222 82 L 46.152344 82 Z M 46.152344 80 "/>
</clipPath>
<clipPath id="clip6">
  <path d="M 46.152344 54 L 222 54 L 222 56 L 46.152344 56 Z M 46.152344 54 "/>
</clipPath>
<clipPath id="clip7">
  <path d="M 46.152344 29 L 222 29 L 222 30 L 46.152344 30 Z M 46.152344 29 "/>
</clipPath>
<clipPath id="clip8">
  <path d="M 46.152344 16 L 222 16 L 222 17 L 46.152344 17 Z M 46.152344 16 "/>
</clipPath>
<clipPath id="clip9">
  <path d="M 56 5.480469 L 57 5.480469 L 57 195 L 56 195 Z M 56 5.480469 "/>
</clipPath>
<clipPath id="clip10">
  <path d="M 82 5.480469 L 83 5.480469 L 83 195 L 82 195 Z M 82 5.480469 "/>
</clipPath>
<clipPath id="clip11">
  <path d="M 107 5.480469 L 109 5.480469 L 109 195 L 107 195 Z M 107 5.480469 "/>
</clipPath>
<clipPath id="clip12">
  <path d="M 133 5.480469 L 134 5.480469 L 134 195 L 133 195 Z M 133 5.480469 "/>
</clipPath>
<clipPath id="clip13">
  <path d="M 159 5.480469 L 160 5.480469 L 160 195 L 159 195 Z M 159 5.480469 "/>
</clipPath>
<clipPath id="clip14">
  <path d="M 184 5.480469 L 186 5.480469 L 186 195 L 184 195 Z M 184 5.480469 "/>
</clipPath>
<clipPath id="clip15">
  <path d="M 210 5.480469 L 211 5.480469 L 211 195 L 210 195 Z M 210 5.480469 "/>
</clipPath>
<clipPath id="clip16">
  <path d="M 46.152344 170 L 222 170 L 222 172 L 46.152344 172 Z M 46.152344 170 "/>
</clipPath>
<clipPath id="clip17">
  <path d="M 46.152344 144 L 222 144 L 222 146 L 46.152344 146 Z M 46.152344 144 "/>
</clipPath>
<clipPath id="clip18">
  <path d="M 46.152344 118 L 222 118 L 222 120 L 46.152344 120 Z M 46.152344 118 "/>
</clipPath>
<clipPath id="clip19">
  <path d="M 46.152344 93 L 222 93 L 222 95 L 46.152344 95 Z M 46.152344 93 "/>
</clipPath>
<clipPath id="clip20">
  <path d="M 46.152344 67 L 222 67 L 222 69 L 46.152344 69 Z M 46.152344 67 "/>
</clipPath>
<clipPath id="clip21">
  <path d="M 46.152344 41 L 222 41 L 222 43 L 46.152344 43 Z M 46.152344 41 "/>
</clipPath>
<clipPath id="clip22">
  <path d="M 68 5.480469 L 71 5.480469 L 71 195.644531 L 68 195.644531 Z M 68 5.480469 "/>
</clipPath>
<clipPath id="clip23">
  <path d="M 94 5.480469 L 96 5.480469 L 96 195.644531 L 94 195.644531 Z M 94 5.480469 "/>
</clipPath>
<clipPath id="clip24">
  <path d="M 120 5.480469 L 122 5.480469 L 122 195.644531 L 120 195.644531 Z M 120 5.480469 "/>
</clipPath>
<clipPath id="clip25">
  <path d="M 145 5.480469 L 148 5.480469 L 148 195.644531 L 145 195.644531 Z M 145 5.480469 "/>
</clipPath>
<clipPath id="clip26">
  <path d="M 171 5.480469 L 173 5.480469 L 173 195.644531 L 171 195.644531 Z M 171 5.480469 "/>
</clipPath>
<clipPath id="clip27">
  <path d="M 197 5.480469 L 199 5.480469 L 199 195.644531 L 197 195.644531 Z M 197 5.480469 "/>
</clipPath>
<clipPath id="clip28">
  <path d="M 226.679688 183 L 402 183 L 402 184 L 226.679688 184 Z M 226.679688 183 "/>
</clipPath>
<clipPath id="clip29">
  <path d="M 226.679688 157 L 402 157 L 402 159 L 226.679688 159 Z M 226.679688 157 "/>
</clipPath>
<clipPath id="clip30">
  <path d="M 226.679688 131 L 402 131 L 402 133 L 226.679688 133 Z M 226.679688 131 "/>
</clipPath>
<clipPath id="clip31">
  <path d="M 226.679688 106 L 402 106 L 402 107 L 226.679688 107 Z M 226.679688 106 "/>
</clipPath>
<clipPath id="clip32">
  <path d="M 226.679688 80 L 402 80 L 402 82 L 226.679688 82 Z M 226.679688 80 "/>
</clipPath>
<clipPath id="clip33">
  <path d="M 226.679688 54 L 402 54 L 402 56 L 226.679688 56 Z M 226.679688 54 "/>
</clipPath>
<clipPath id="clip34">
  <path d="M 226.679688 29 L 402 29 L 402 30 L 226.679688 30 Z M 226.679688 29 "/>
</clipPath>
<clipPath id="clip35">
  <path d="M 226.679688 16 L 402 16 L 402 17 L 226.679688 17 Z M 226.679688 16 "/>
</clipPath>
<clipPath id="clip36">
  <path d="M 236 5.480469 L 238 5.480469 L 238 195 L 236 195 Z M 236 5.480469 "/>
</clipPath>
<clipPath id="clip37">
  <path d="M 262 5.480469 L 264 5.480469 L 264 195 L 262 195 Z M 262 5.480469 "/>
</clipPath>
<clipPath id="clip38">
  <path d="M 288 5.480469 L 289 5.480469 L 289 195 L 288 195 Z M 288 5.480469 "/>
</clipPath>
<clipPath id="clip39">
  <path d="M 313 5.480469 L 315 5.480469 L 315 195 L 313 195 Z M 313 5.480469 "/>
</clipPath>
<clipPath id="clip40">
  <path d="M 339 5.480469 L 341 5.480469 L 341 195 L 339 195 Z M 339 5.480469 "/>
</clipPath>
<clipPath id="clip41">
  <path d="M 365 5.480469 L 366 5.480469 L 366 195 L 365 195 Z M 365 5.480469 "/>
</clipPath>
<clipPath id="clip42">
  <path d="M 390 5.480469 L 392 5.480469 L 392 195 L 390 195 Z M 390 5.480469 "/>
</clipPath>
<clipPath id="clip43">
  <path d="M 226.679688 170 L 402.726563 170 L 402.726563 172 L 226.679688 172 Z M 226.679688 170 "/>
</clipPath>
<clipPath id="clip44">
  <path d="M 226.679688 144 L 402.726563 144 L 402.726563 146 L 226.679688 146 Z M 226.679688 144 "/>
</clipPath>
<clipPath id="clip45">
  <path d="M 226.679688 118 L 402.726563 118 L 402.726563 120 L 226.679688 120 Z M 226.679688 118 "/>
</clipPath>
<clipPath id="clip46">
  <path d="M 226.679688 93 L 402.726563 93 L 402.726563 95 L 226.679688 95 Z M 226.679688 93 "/>
</clipPath>
<clipPath id="clip47">
  <path d="M 226.679688 67 L 402.726563 67 L 402.726563 69 L 226.679688 69 Z M 226.679688 67 "/>
</clipPath>
<clipPath id="clip48">
  <path d="M 226.679688 41 L 402.726563 41 L 402.726563 43 L 226.679688 43 Z M 226.679688 41 "/>
</clipPath>
<clipPath id="clip49">
  <path d="M 249 5.480469 L 251 5.480469 L 251 195.644531 L 249 195.644531 Z M 249 5.480469 "/>
</clipPath>
<clipPath id="clip50">
  <path d="M 275 5.480469 L 277 5.480469 L 277 195.644531 L 275 195.644531 Z M 275 5.480469 "/>
</clipPath>
<clipPath id="clip51">
  <path d="M 300 5.480469 L 302 5.480469 L 302 195.644531 L 300 195.644531 Z M 300 5.480469 "/>
</clipPath>
<clipPath id="clip52">
  <path d="M 326 5.480469 L 328 5.480469 L 328 195.644531 L 326 195.644531 Z M 326 5.480469 "/>
</clipPath>
<clipPath id="clip53">
  <path d="M 352 5.480469 L 354 5.480469 L 354 195.644531 L 352 195.644531 Z M 352 5.480469 "/>
</clipPath>
<clipPath id="clip54">
  <path d="M 377 5.480469 L 379 5.480469 L 379 195.644531 L 377 195.644531 Z M 377 5.480469 "/>
</clipPath>
</defs>
<g id="surface31">
<rect x="0" y="0" width="432" height="216" style="fill:rgb(100%,100%,100%);fill-opacity:1;stroke:none;"/>
<g clip-path="url(#clip1)" clip-rule="nonzero">
<path style="fill:none;stroke-width:0.533489;stroke-linecap:butt;stroke-linejoin:round;stroke:rgb(92.156863%,92.156863%,92.156863%);stroke-opacity:1;stroke-miterlimit:10;" d="M 46.152344 183.476563 L 221.199219 183.476563 "/>
</g>
<g clip-path="url(#clip2)" clip-rule="nonzero">
<path style="fill:none;stroke-width:0.533489;stroke-linecap:butt;stroke-linejoin:round;stroke:rgb(92.156863%,92.156863%,92.156863%);stroke-opacity:1;stroke-miterlimit:10;" d="M 46.152344 157.808594 L 221.199219 157.808594 "/>
</g>
<g clip-path="url(#clip3)" clip-rule="nonzero">
<path style="fill:none;stroke-width:0.533489;stroke-linecap:butt;stroke-linejoin:round;stroke:rgb(92.156863%,92.156863%,92.156863%);stroke-opacity:1;stroke-miterlimit:10;" d="M 46.152344 132.144531 L 221.199219 132.144531 "/>
</g>
<g clip-path="url(#clip4)" clip-rule="nonzero">
<path style="fill:none;stroke-width:0.533489;stroke-linecap:butt;stroke-linejoin:round;stroke:rgb(92.156863%,92.156863%,92.156863%);stroke-opacity:1;stroke-miterlimit:10;" d="M 46.152344 106.476563 L 221.199219 106.476563 "/>
</g>
<g clip-path="url(#clip5)" clip-rule="nonzero">
<path style="fill:none;stroke-width:0.533489;stroke-linecap:butt;stroke-linejoin:round;stroke:rgb(92.156863%,92.156863%,92.156863%);stroke-opacity:1;stroke-miterlimit:10;" d="M 46.152344 80.8125 L 221.199219 80.8125 "/>
</g>
<g clip-path="url(#clip6)" clip-rule="nonzero">
<path style="fill:none;stroke-width:0.533489;stroke-linecap:butt;stroke-linejoin:round;stroke:rgb(92.156863%,92.156863%,92.156863%);stroke-opacity:1;stroke-miterlimit:10;" d="M 46.152344 55.144531 L 221.199219 55.144531 "/>
</g>
<g clip-path="url(#clip7)" clip-rule="nonzero">
<path style="fill:none;stroke-width:0.533489;stroke-linecap:butt;stroke-linejoin:round;stroke:rgb(92.156863%,92.156863%,92.156863%);stroke-opacity:1;stroke-miterlimit:10;" d="M 46.152344 29.476563 L 221.199219 29.476563 "/>
</g>
<g clip-path="url(#clip8)" clip-rule="nonzero">
<path style="fill:none;stroke-width:0.533489;stroke-linecap:butt;stroke-linejoin:round;stroke:rgb(92.156863%,92.156863%,92.156863%);stroke-opacity:1;stroke-miterlimit:10;" d="M 46.152344 16.644531 L 221.199219 16.644531 "/>
</g>
<g clip-path="url(#clip9)" clip-rule="nonzero">
<path style="fill:none;stroke-width:0.533489;stroke-linecap:butt;stroke-linejoin:round;stroke:rgb(92.156863%,92.156863%,92.156863%);stroke-opacity:1;stroke-miterlimit:10;" d="M 56.675781 194.640625 L 56.675781 5.480469 "/>
</g>
<g clip-path="url(#clip10)" clip-rule="nonzero">
<path style="fill:none;stroke-width:0.533489;stroke-linecap:butt;stroke-linejoin:round;stroke:rgb(92.156863%,92.156863%,92.156863%);stroke-opacity:1;stroke-miterlimit:10;" d="M 82.34375 194.640625 L 82.34375 5.480469 "/>
</g>
<g clip-path="url(#clip11)" clip-rule="nonzero">
<path style="fill:none;stroke-width:0.533489;stroke-linecap:butt;stroke-linejoin:round;stroke:rgb(92.156863%,92.156863%,92.156863%);stroke-opacity:1;stroke-miterlimit:10;" d="M 108.011719 194.640625 L 108.011719 5.480469 "/>
</g>
<g clip-path="url(#clip12)" clip-rule="nonzero">
<path style="fill:none;stroke-width:0.533489;stroke-linecap:butt;stroke-linejoin:round;stroke:rgb(92.156863%,92.156863%,92.156863%);stroke-opacity:1;stroke-miterlimit:10;" d="M 133.675781 194.640625 L 133.675781 5.480469 "/>
</g>
<g clip-path="url(#clip13)" clip-rule="nonzero">
<path style="fill:none;stroke-width:0.533489;stroke-linecap:butt;stroke-linejoin:round;stroke:rgb(92.156863%,92.156863%,92.156863%);stroke-opacity:1;stroke-miterlimit:10;" d="M 159.34375 194.640625 L 159.34375 5.480469 "/>
</g>
<g clip-path="url(#clip14)" clip-rule="nonzero">
<path style="fill:none;stroke-width:0.533489;stroke-linecap:butt;stroke-linejoin:round;stroke:rgb(92.156863%,92.156863%,92.156863%);stroke-opacity:1;stroke-miterlimit:10;" d="M 185.011719 194.640625 L 185.011719 5.480469 "/>
</g>
<g clip-path="url(#clip15)" clip-rule="nonzero">
<path style="fill:none;stroke-width:0.533489;stroke-linecap:butt;stroke-linejoin:round;stroke:rgb(92.156863%,92.156863%,92.156863%);stroke-opacity:1;stroke-miterlimit:10;" d="M 210.675781 194.640625 L 210.675781 5.480469 "/>
</g>
<g clip-path="url(#clip16)" clip-rule="nonzero">
<path style="fill:none;stroke-width:1.066978;stroke-linecap:butt;stroke-linejoin:round;stroke:rgb(92.156863%,92.156863%,92.156863%);stroke-opacity:1;stroke-miterlimit:10;" d="M 46.152344 170.644531 L 221.199219 170.644531 "/>
</g>
<g clip-path="url(#clip17)" clip-rule="nonzero">
<path style="fill:none;stroke-width:1.066978;stroke-linecap:butt;stroke-linejoin:round;stroke:rgb(92.156863%,92.156863%,92.156863%);stroke-opacity:1;stroke-miterlimit:10;" d="M 46.152344 144.976563 L 221.199219 144.976563 "/>
</g>
<g clip-path="url(#clip18)" clip-rule="nonzero">
<path style="fill:none;stroke-width:1.066978;stroke-linecap:butt;stroke-linejoin:round;stroke:rgb(92.156863%,92.156863%,92.156863%);stroke-opacity:1;stroke-miterlimit:10;" d="M 46.152344 119.308594 L 221.199219 119.308594 "/>
</g>
<g clip-path="url(#clip19)" clip-rule="nonzero">
<path style="fill:none;stroke-width:1.066978;stroke-linecap:butt;stroke-linejoin:round;stroke:rgb(92.156863%,92.156863%,92.156863%);stroke-opacity:1;stroke-miterlimit:10;" d="M 46.152344 93.644531 L 221.199219 93.644531 "/>
</g>
<g clip-path="url(#clip20)" clip-rule="nonzero">
<path style="fill:none;stroke-width:1.066978;stroke-linecap:butt;stroke-linejoin:round;stroke:rgb(92.156863%,92.156863%,92.156863%);stroke-opacity:1;stroke-miterlimit:10;" d="M 46.152344 67.976563 L 221.199219 67.976563 "/>
</g>
<g clip-path="url(#clip21)" clip-rule="nonzero">
<path style="fill:none;stroke-width:1.066978;stroke-linecap:butt;stroke-linejoin:round;stroke:rgb(92.156863%,92.156863%,92.156863%);stroke-opacity:1;stroke-miterlimit:10;" d="M 46.152344 42.3125 L 221.199219 42.3125 "/>
</g>
<g clip-path="url(#clip22)" clip-rule="nonzero">
<path style="fill:none;stroke-width:1.066978;stroke-linecap:butt;stroke-linejoin:round;stroke:rgb(92.156863%,92.156863%,92.156863%);stroke-opacity:1;stroke-miterlimit:10;" d="M 69.511719 194.640625 L 69.511719 5.480469 "/>
</g>
<g clip-path="url(#clip23)" clip-rule="nonzero">
<path style="fill:none;stroke-width:1.066978;stroke-linecap:butt;stroke-linejoin:round;stroke:rgb(92.156863%,92.156863%,92.156863%);stroke-opacity:1;stroke-miterlimit:10;" d="M 95.175781 194.640625 L 95.175781 5.480469 "/>
</g>
<g clip-path="url(#clip24)" clip-rule="nonzero">
<path style="fill:none;stroke-width:1.066978;stroke-linecap:butt;stroke-linejoin:round;stroke:rgb(92.156863%,92.156863%,92.156863%);stroke-opacity:1;stroke-miterlimit:10;" d="M 120.84375 194.640625 L 120.84375 5.480469 "/>
</g>
<g clip-path="url(#clip25)" clip-rule="nonzero">
<path style="fill:none;stroke-width:1.066978;stroke-linecap:butt;stroke-linejoin:round;stroke:rgb(92.156863%,92.156863%,92.156863%);stroke-opacity:1;stroke-miterlimit:10;" d="M 146.511719 194.640625 L 146.511719 5.480469 "/>
</g>
<g clip-path="url(#clip26)" clip-rule="nonzero">
<path style="fill:none;stroke-width:1.066978;stroke-linecap:butt;stroke-linejoin:round;stroke:rgb(92.156863%,92.156863%,92.156863%);stroke-opacity:1;stroke-miterlimit:10;" d="M 172.175781 194.640625 L 172.175781 5.480469 "/>
</g>
<g clip-path="url(#clip27)" clip-rule="nonzero">
<path style="fill:none;stroke-width:1.066978;stroke-linecap:butt;stroke-linejoin:round;stroke:rgb(92.156863%,92.156863%,92.156863%);stroke-opacity:1;stroke-miterlimit:10;" d="M 197.84375 194.640625 L 197.84375 5.480469 "/>
</g>
<path style="fill:none;stroke-width:5.334892;stroke-linecap:round;stroke-linejoin:round;stroke:rgb(0%,0%,0%);stroke-opacity:1;stroke-miterlimit:10;" d="M 120.84375 132.144531 L 172.175781 106.476563 L 197.84375 157.808594 L 120.84375 170.644531 L 69.511719 106.476563 L 82.34375 55.144531 L 146.511719 29.476563 "/>
<path style="fill-rule:nonzero;fill:rgb(97.254902%,46.27451%,42.745098%);fill-opacity:1;stroke-width:0.708661;stroke-linecap:round;stroke-linejoin:round;stroke:rgb(97.254902%,46.27451%,42.745098%);stroke-opacity:1;stroke-miterlimit:10;" d="M 126.53125 132.144531 C 126.53125 135.285156 123.984375 137.832031 120.84375 137.832031 C 117.703125 137.832031 115.15625 135.285156 115.15625 132.144531 C 115.15625 129 117.703125 126.453125 120.84375 126.453125 C 123.984375 126.453125 126.53125 129 126.53125 132.144531 "/>
<path style="fill-rule:nonzero;fill:rgb(97.254902%,46.27451%,42.745098%);fill-opacity:1;stroke-width:0.708661;stroke-linecap:round;stroke-linejoin:round;stroke:rgb(97.254902%,46.27451%,42.745098%);stroke-opacity:1;stroke-miterlimit:10;" d="M 177.867188 106.476563 C 177.867188 109.621094 175.320313 112.167969 172.175781 112.167969 C 169.035156 112.167969 166.488281 109.621094 166.488281 106.476563 C 166.488281 103.335938 169.035156 100.789063 172.175781 100.789063 C 175.320313 100.789063 177.867188 103.335938 177.867188 106.476563 "/>
<path style="fill-rule:nonzero;fill:rgb(97.254902%,46.27451%,42.745098%);fill-opacity:1;stroke-width:0.708661;stroke-linecap:round;stroke-linejoin:round;stroke:rgb(97.254902%,46.27451%,42.745098%);stroke-opacity:1;stroke-miterlimit:10;" d="M 203.53125 157.808594 C 203.53125 160.953125 200.984375 163.5 197.84375 163.5 C 194.699219 163.5 192.152344 160.953125 192.152344 157.808594 C 192.152344 154.667969 194.699219 152.121094 197.84375 152.121094 C 200.984375 152.121094 203.53125 154.667969 203.53125 157.808594 "/>
<path style="fill-rule:nonzero;fill:rgb(97.254902%,46.27451%,42.745098%);fill-opacity:1;stroke-width:0.708661;stroke-linecap:round;stroke-linejoin:round;stroke:rgb(97.254902%,46.27451%,42.745098%);stroke-opacity:1;stroke-miterlimit:10;" d="M 126.53125 170.644531 C 126.53125 173.785156 123.984375 176.332031 120.84375 176.332031 C 117.703125 176.332031 115.15625 173.785156 115.15625 170.644531 C 115.15625 167.5 117.703125 164.953125 120.84375 164.953125 C 123.984375 164.953125 126.53125 167.5 126.53125 170.644531 "/>
<path style="fill-rule:nonzero;fill:rgb(97.254902%,46.27451%,42.745098%);fill-opacity:1;stroke-width:0.708661;stroke-linecap:round;stroke-linejoin:round;stroke:rgb(97.254902%,46.27451%,42.745098%);stroke-opacity:1;stroke-miterlimit:10;" d="M 75.199219 106.476563 C 75.199219 109.621094 72.652344 112.167969 69.511719 112.167969 C 66.367188 112.167969 63.820313 109.621094 63.820313 106.476563 C 63.820313 103.335938 66.367188 100.789063 69.511719 100.789063 C 72.652344 100.789063 75.199219 103.335938 75.199219 106.476563 "/>
<path style="fill-rule:nonzero;fill:rgb(97.254902%,46.27451%,42.745098%);fill-opacity:1;stroke-width:0.708661;stroke-linecap:round;stroke-linejoin:round;stroke:rgb(97.254902%,46.27451%,42.745098%);stroke-opacity:1;stroke-miterlimit:10;" d="M 88.03125 55.144531 C 88.03125 58.285156 85.484375 60.832031 82.34375 60.832031 C 79.203125 60.832031 76.65625 58.285156 76.65625 55.144531 C 76.65625 52.003906 79.203125 49.453125 82.34375 49.453125 C 85.484375 49.453125 88.03125 52.003906 88.03125 55.144531 "/>
<path style="fill-rule:nonzero;fill:rgb(97.254902%,46.27451%,42.745098%);fill-opacity:1;stroke-width:0.708661;stroke-linecap:round;stroke-linejoin:round;stroke:rgb(97.254902%,46.27451%,42.745098%);stroke-opacity:1;stroke-miterlimit:10;" d="M 152.199219 29.476563 C 152.199219 32.621094 149.652344 35.167969 146.511719 35.167969 C 143.367188 35.167969 140.820313 32.621094 140.820313 29.476563 C 140.820313 26.335938 143.367188 23.789063 146.511719 23.789063 C 149.652344 23.789063 152.199219 26.335938 152.199219 29.476563 "/>
<g clip-path="url(#clip28)" clip-rule="nonzero">
<path style="fill:none;stroke-width:0.533489;stroke-linecap:butt;stroke-linejoin:round;stroke:rgb(92.156863%,92.156863%,92.156863%);stroke-opacity:1;stroke-miterlimit:10;" d="M 226.679688 183.476563 L 401.726563 183.476563 "/>
</g>
<g clip-path="url(#clip29)" clip-rule="nonzero">
<path style="fill:none;stroke-width:0.533489;stroke-linecap:butt;stroke-linejoin:round;stroke:rgb(92.156863%,92.156863%,92.156863%);stroke-opacity:1;stroke-miterlimit:10;" d="M 226.679688 157.808594 L 401.726563 157.808594 "/>
</g>
<g clip-path="url(#clip30)" clip-rule="nonzero">
<path style="fill:none;stroke-width:0.533489;stroke-linecap:butt;stroke-linejoin:round;stroke:rgb(92.156863%,92.156863%,92.156863%);stroke-opacity:1;stroke-miterlimit:10;" d="M 226.679688 132.144531 L 401.726563 132.144531 "/>
</g>
<g clip-path="url(#clip31)" clip-rule="nonzero">
<path style="fill:none;stroke-width:0.533489;stroke-linecap:butt;stroke-linejoin:round;stroke:rgb(92.156863%,92.156863%,92.156863%);stroke-opacity:1;stroke-miterlimit:10;" d="M 226.679688 106.476563 L 401.726563 106.476563 "/>
</g>
<g clip-path="url(#clip32)" clip-rule="nonzero">
<path style="fill:none;stroke-width:0.533489;stroke-linecap:butt;stroke-linejoin:round;stroke:rgb(92.156863%,92.156863%,92.156863%);stroke-opacity:1;stroke-miterlimit:10;" d="M 226.679688 80.8125 L 401.726563 80.8125 "/>
</g>
<g clip-path="url(#clip33)" clip-rule="nonzero">
<path style="fill:none;stroke-width:0.533489;stroke-linecap:butt;stroke-linejoin:round;stroke:rgb(92.156863%,92.156863%,92.156863%);stroke-opacity:1;stroke-miterlimit:10;" d="M 226.679688 55.144531 L 401.726563 55.144531 "/>
</g>
<g clip-path="url(#clip34)" clip-rule="nonzero">
<path style="fill:none;stroke-width:0.533489;stroke-linecap:butt;stroke-linejoin:round;stroke:rgb(92.156863%,92.156863%,92.156863%);stroke-opacity:1;stroke-miterlimit:10;" d="M 226.679688 29.476563 L 401.726563 29.476563 "/>
</g>
<g clip-path="url(#clip35)" clip-rule="nonzero">
<path style="fill:none;stroke-width:0.533489;stroke-linecap:butt;stroke-linejoin:round;stroke:rgb(92.156863%,92.156863%,92.156863%);stroke-opacity:1;stroke-miterlimit:10;" d="M 226.679688 16.644531 L 401.726563 16.644531 "/>
</g>
<g clip-path="url(#clip36)" clip-rule="nonzero">
<path style="fill:none;stroke-width:0.533489;stroke-linecap:butt;stroke-linejoin:round;stroke:rgb(92.156863%,92.156863%,92.156863%);stroke-opacity:1;stroke-miterlimit:10;" d="M 237.203125 194.640625 L 237.203125 5.480469 "/>
</g>
<g clip-path="url(#clip37)" clip-rule="nonzero">
<path style="fill:none;stroke-width:0.533489;stroke-linecap:butt;stroke-linejoin:round;stroke:rgb(92.156863%,92.156863%,92.156863%);stroke-opacity:1;stroke-miterlimit:10;" d="M 262.867188 194.640625 L 262.867188 5.480469 "/>
</g>
<g clip-path="url(#clip38)" clip-rule="nonzero">
<path style="fill:none;stroke-width:0.533489;stroke-linecap:butt;stroke-linejoin:round;stroke:rgb(92.156863%,92.156863%,92.156863%);stroke-opacity:1;stroke-miterlimit:10;" d="M 288.535156 194.640625 L 288.535156 5.480469 "/>
</g>
<g clip-path="url(#clip39)" clip-rule="nonzero">
<path style="fill:none;stroke-width:0.533489;stroke-linecap:butt;stroke-linejoin:round;stroke:rgb(92.156863%,92.156863%,92.156863%);stroke-opacity:1;stroke-miterlimit:10;" d="M 314.203125 194.640625 L 314.203125 5.480469 "/>
</g>
<g clip-path="url(#clip40)" clip-rule="nonzero">
<path style="fill:none;stroke-width:0.533489;stroke-linecap:butt;stroke-linejoin:round;stroke:rgb(92.156863%,92.156863%,92.156863%);stroke-opacity:1;stroke-miterlimit:10;" d="M 339.867188 194.640625 L 339.867188 5.480469 "/>
</g>
<g clip-path="url(#clip41)" clip-rule="nonzero">
<path style="fill:none;stroke-width:0.533489;stroke-linecap:butt;stroke-linejoin:round;stroke:rgb(92.156863%,92.156863%,92.156863%);stroke-opacity:1;stroke-miterlimit:10;" d="M 365.535156 194.640625 L 365.535156 5.480469 "/>
</g>
<g clip-path="url(#clip42)" clip-rule="nonzero">
<path style="fill:none;stroke-width:0.533489;stroke-linecap:butt;stroke-linejoin:round;stroke:rgb(92.156863%,92.156863%,92.156863%);stroke-opacity:1;stroke-miterlimit:10;" d="M 391.203125 194.640625 L 391.203125 5.480469 "/>
</g>
<g clip-path="url(#clip43)" clip-rule="nonzero">
<path style="fill:none;stroke-width:1.066978;stroke-linecap:butt;stroke-linejoin:round;stroke:rgb(92.156863%,92.156863%,92.156863%);stroke-opacity:1;stroke-miterlimit:10;" d="M 226.679688 170.644531 L 401.726563 170.644531 "/>
</g>
<g clip-path="url(#clip44)" clip-rule="nonzero">
<path style="fill:none;stroke-width:1.066978;stroke-linecap:butt;stroke-linejoin:round;stroke:rgb(92.156863%,92.156863%,92.156863%);stroke-opacity:1;stroke-miterlimit:10;" d="M 226.679688 144.976563 L 401.726563 144.976563 "/>
</g>
<g clip-path="url(#clip45)" clip-rule="nonzero">
<path style="fill:none;stroke-width:1.066978;stroke-linecap:butt;stroke-linejoin:round;stroke:rgb(92.156863%,92.156863%,92.156863%);stroke-opacity:1;stroke-miterlimit:10;" d="M 226.679688 119.308594 L 401.726563 119.308594 "/>
</g>
<g clip-path="url(#clip46)" clip-rule="nonzero">
<path style="fill:none;stroke-width:1.066978;stroke-linecap:butt;stroke-linejoin:round;stroke:rgb(92.156863%,92.156863%,92.156863%);stroke-opacity:1;stroke-miterlimit:10;" d="M 226.679688 93.644531 L 401.726563 93.644531 "/>
</g>
<g clip-path="url(#clip47)" clip-rule="nonzero">
<path style="fill:none;stroke-width:1.066978;stroke-linecap:butt;stroke-linejoin:round;stroke:rgb(92.156863%,92.156863%,92.156863%);stroke-opacity:1;stroke-miterlimit:10;" d="M 226.679688 67.976563 L 401.726563 67.976563 "/>
</g>
<g clip-path="url(#clip48)" clip-rule="nonzero">
<path style="fill:none;stroke-width:1.066978;stroke-linecap:butt;stroke-linejoin:round;stroke:rgb(92.156863%,92.156863%,92.156863%);stroke-opacity:1;stroke-miterlimit:10;" d="M 226.679688 42.3125 L 401.726563 42.3125 "/>
</g>
<g clip-path="url(#clip49)" clip-rule="nonzero">
<path style="fill:none;stroke-width:1.066978;stroke-linecap:butt;stroke-linejoin:round;stroke:rgb(92.156863%,92.156863%,92.156863%);stroke-opacity:1;stroke-miterlimit:10;" d="M 250.035156 194.640625 L 250.035156 5.480469 "/>
</g>
<g clip-path="url(#clip50)" clip-rule="nonzero">
<path style="fill:none;stroke-width:1.066978;stroke-linecap:butt;stroke-linejoin:round;stroke:rgb(92.156863%,92.156863%,92.156863%);stroke-opacity:1;stroke-miterlimit:10;" d="M 275.703125 194.640625 L 275.703125 5.480469 "/>
</g>
<g clip-path="url(#clip51)" clip-rule="nonzero">
<path style="fill:none;stroke-width:1.066978;stroke-linecap:butt;stroke-linejoin:round;stroke:rgb(92.156863%,92.156863%,92.156863%);stroke-opacity:1;stroke-miterlimit:10;" d="M 301.367188 194.640625 L 301.367188 5.480469 "/>
</g>
<g clip-path="url(#clip52)" clip-rule="nonzero">
<path style="fill:none;stroke-width:1.066978;stroke-linecap:butt;stroke-linejoin:round;stroke:rgb(92.156863%,92.156863%,92.156863%);stroke-opacity:1;stroke-miterlimit:10;" d="M 327.035156 194.640625 L 327.035156 5.480469 "/>
</g>
<g clip-path="url(#clip53)" clip-rule="nonzero">
<path style="fill:none;stroke-width:1.066978;stroke-linecap:butt;stroke-linejoin:round;stroke:rgb(92.156863%,92.156863%,92.156863%);stroke-opacity:1;stroke-miterlimit:10;" d="M 352.703125 194.640625 L 352.703125 5.480469 "/>
</g>
<g clip-path="url(#clip54)" clip-rule="nonzero">
<path style="fill:none;stroke-width:1.066978;stroke-linecap:butt;stroke-linejoin:round;stroke:rgb(92.156863%,92.156863%,92.156863%);stroke-opacity:1;stroke-miterlimit:10;" d="M 378.367188 194.640625 L 378.367188 5.480469 "/>
</g>
<path style="fill:none;stroke-width:5.334892;stroke-linecap:round;stroke-linejoin:round;stroke:rgb(0%,0%,0%);stroke-opacity:1;stroke-miterlimit:10;" d="M 301.367188 132.144531 L 310.359375 119.460938 L 321.902344 109.042969 L 337.160156 106.0625 L 352.703125 106.476563 L 366.238281 114.832031 L 377.3125 126.253906 L 380.640625 141.9375 L 378.367188 157.808594 L 361.84375 170.761719 L 342.1875 178.136719 L 321.5 175.902344 L 301.367188 170.644531 L 285.070313 157.566406 L 269.886719 143.210938 L 259.128906 125.296875 L 250.035156 106.476563 L 250.597656 93.078125 L 252.300781 79.773438 L 257 67.207031 L 262.867188 55.144531 L 277.410156 45.347656 L 292.824219 36.992188 L 309.847656 32.867188 L 327.035156 29.476563 "/>
<path style="fill-rule:nonzero;fill:rgb(38.039216%,61.176471%,100%);fill-opacity:1;stroke-width:0.708661;stroke-linecap:round;stroke-linejoin:round;stroke:rgb(38.039216%,61.176471%,100%);stroke-opacity:1;stroke-miterlimit:10;" d="M 307.058594 132.144531 C 307.058594 135.285156 304.511719 137.832031 301.367188 137.832031 C 298.226563 137.832031 295.679688 135.285156 295.679688 132.144531 C 295.679688 129 298.226563 126.453125 301.367188 126.453125 C 304.511719 126.453125 307.058594 129 307.058594 132.144531 "/>
<path style="fill-rule:nonzero;fill:rgb(38.039216%,61.176471%,100%);fill-opacity:1;stroke-width:0.708661;stroke-linecap:round;stroke-linejoin:round;stroke:rgb(38.039216%,61.176471%,100%);stroke-opacity:1;stroke-miterlimit:10;" d="M 316.050781 119.460938 C 316.050781 122.601563 313.503906 125.148438 310.359375 125.148438 C 307.21875 125.148438 304.671875 122.601563 304.671875 119.460938 C 304.671875 116.320313 307.21875 113.773438 310.359375 113.773438 C 313.503906 113.773438 316.050781 116.320313 316.050781 119.460938 "/>
<path style="fill-rule:nonzero;fill:rgb(38.039216%,61.176471%,100%);fill-opacity:1;stroke-width:0.708661;stroke-linecap:round;stroke-linejoin:round;stroke:rgb(38.039216%,61.176471%,100%);stroke-opacity:1;stroke-miterlimit:10;" d="M 327.589844 109.042969 C 327.589844 112.1875 325.042969 114.734375 321.902344 114.734375 C 318.761719 114.734375 316.210938 112.1875 316.210938 109.042969 C 316.210938 105.902344 318.761719 103.355469 321.902344 103.355469 C 325.042969 103.355469 327.589844 105.902344 327.589844 109.042969 "/>
<path style="fill-rule:nonzero;fill:rgb(38.039216%,61.176471%,100%);fill-opacity:1;stroke-width:0.708661;stroke-linecap:round;stroke-linejoin:round;stroke:rgb(38.039216%,61.176471%,100%);stroke-opacity:1;stroke-miterlimit:10;" d="M 342.851563 106.0625 C 342.851563 109.207031 340.300781 111.753906 337.160156 111.753906 C 334.019531 111.753906 331.472656 109.207031 331.472656 106.0625 C 331.472656 102.921875 334.019531 100.375 337.160156 100.375 C 340.300781 100.375 342.851563 102.921875 342.851563 106.0625 "/>
<path style="fill-rule:nonzero;fill:rgb(38.039216%,61.176471%,100%);fill-opacity:1;stroke-width:0.708661;stroke-linecap:round;stroke-linejoin:round;stroke:rgb(38.039216%,61.176471%,100%);stroke-opacity:1;stroke-miterlimit:10;" d="M 358.390625 106.476563 C 358.390625 109.621094 355.84375 112.167969 352.703125 112.167969 C 349.558594 112.167969 347.011719 109.621094 347.011719 106.476563 C 347.011719 103.335938 349.558594 100.789063 352.703125 100.789063 C 355.84375 100.789063 358.390625 103.335938 358.390625 106.476563 "/>
<path style="fill-rule:nonzero;fill:rgb(38.039216%,61.176471%,100%);fill-opacity:1;stroke-width:0.708661;stroke-linecap:round;stroke-linejoin:round;stroke:rgb(38.039216%,61.176471%,100%);stroke-opacity:1;stroke-miterlimit:10;" d="M 371.929688 114.832031 C 371.929688 117.976563 369.382813 120.523438 366.238281 120.523438 C 363.097656 120.523438 360.550781 117.976563 360.550781 114.832031 C 360.550781 111.691406 363.097656 109.144531 366.238281 109.144531 C 369.382813 109.144531 371.929688 111.691406 371.929688 114.832031 "/>
<path style="fill-rule:nonzero;fill:rgb(38.039216%,61.176471%,100%);fill-opacity:1;stroke-width:0.708661;stroke-linecap:round;stroke-linejoin:round;stroke:rgb(38.039216%,61.176471%,100%);stroke-opacity:1;stroke-miterlimit:10;" d="M 383 126.253906 C 383 129.398438 380.453125 131.945313 377.3125 131.945313 C 374.167969 131.945313 371.621094 129.398438 371.621094 126.253906 C 371.621094 123.113281 374.167969 120.566406 377.3125 120.566406 C 380.453125 120.566406 383 123.113281 383 126.253906 "/>
<path style="fill-rule:nonzero;fill:rgb(38.039216%,61.176471%,100%);fill-opacity:1;stroke-width:0.708661;stroke-linecap:round;stroke-linejoin:round;stroke:rgb(38.039216%,61.176471%,100%);stroke-opacity:1;stroke-miterlimit:10;" d="M 386.328125 141.9375 C 386.328125 145.082031 383.78125 147.628906 380.640625 147.628906 C 377.5 147.628906 374.949219 145.082031 374.949219 141.9375 C 374.949219 138.796875 377.5 136.25 380.640625 136.25 C 383.78125 136.25 386.328125 138.796875 386.328125 141.9375 "/>
<path style="fill-rule:nonzero;fill:rgb(38.039216%,61.176471%,100%);fill-opacity:1;stroke-width:0.708661;stroke-linecap:round;stroke-linejoin:round;stroke:rgb(38.039216%,61.176471%,100%);stroke-opacity:1;stroke-miterlimit:10;" d="M 384.058594 157.808594 C 384.058594 160.953125 381.511719 163.5 378.367188 163.5 C 375.226563 163.5 372.679688 160.953125 372.679688 157.808594 C 372.679688 154.667969 375.226563 152.121094 378.367188 152.121094 C 381.511719 152.121094 384.058594 154.667969 384.058594 157.808594 "/>
<path style="fill-rule:nonzero;fill:rgb(38.039216%,61.176471%,100%);fill-opacity:1;stroke-width:0.708661;stroke-linecap:round;stroke-linejoin:round;stroke:rgb(38.039216%,61.176471%,100%);stroke-opacity:1;stroke-miterlimit:10;" d="M 367.53125 170.761719 C 367.53125 173.902344 364.984375 176.449219 361.84375 176.449219 C 358.703125 176.449219 356.15625 173.902344 356.15625 170.761719 C 356.15625 167.617188 358.703125 165.070313 361.84375 165.070313 C 364.984375 165.070313 367.53125 167.617188 367.53125 170.761719 "/>
<path style="fill-rule:nonzero;fill:rgb(38.039216%,61.176471%,100%);fill-opacity:1;stroke-width:0.708661;stroke-linecap:round;stroke-linejoin:round;stroke:rgb(38.039216%,61.176471%,100%);stroke-opacity:1;stroke-miterlimit:10;" d="M 347.875 178.136719 C 347.875 181.277344 345.328125 183.824219 342.1875 183.824219 C 339.042969 183.824219 336.496094 181.277344 336.496094 178.136719 C 336.496094 174.992188 339.042969 172.445313 342.1875 172.445313 C 345.328125 172.445313 347.875 174.992188 347.875 178.136719 "/>
<path style="fill-rule:nonzero;fill:rgb(38.039216%,61.176471%,100%);fill-opacity:1;stroke-width:0.708661;stroke-linecap:round;stroke-linejoin:round;stroke:rgb(38.039216%,61.176471%,100%);stroke-opacity:1;stroke-miterlimit:10;" d="M 327.1875 175.902344 C 327.1875 179.042969 324.640625 181.589844 321.5 181.589844 C 318.359375 181.589844 315.8125 179.042969 315.8125 175.902344 C 315.8125 172.761719 318.359375 170.214844 321.5 170.214844 C 324.640625 170.214844 327.1875 172.761719 327.1875 175.902344 "/>
<path style="fill-rule:nonzero;fill:rgb(38.039216%,61.176471%,100%);fill-opacity:1;stroke-width:0.708661;stroke-linecap:round;stroke-linejoin:round;stroke:rgb(38.039216%,61.176471%,100%);stroke-opacity:1;stroke-miterlimit:10;" d="M 307.058594 170.644531 C 307.058594 173.785156 304.511719 176.332031 301.367188 176.332031 C 298.226563 176.332031 295.679688 173.785156 295.679688 170.644531 C 295.679688 167.5 298.226563 164.953125 301.367188 164.953125 C 304.511719 164.953125 307.058594 167.5 307.058594 170.644531 "/>
<path style="fill-rule:nonzero;fill:rgb(38.039216%,61.176471%,100%);fill-opacity:1;stroke-width:0.708661;stroke-linecap:round;stroke-linejoin:round;stroke:rgb(38.039216%,61.176471%,100%);stroke-opacity:1;stroke-miterlimit:10;" d="M 290.757813 157.566406 C 290.757813 160.710938 288.210938 163.257813 285.070313 163.257813 C 281.929688 163.257813 279.382813 160.710938 279.382813 157.566406 C 279.382813 154.425781 281.929688 151.878906 285.070313 151.878906 C 288.210938 151.878906 290.757813 154.425781 290.757813 157.566406 "/>
<path style="fill-rule:nonzero;fill:rgb(38.039216%,61.176471%,100%);fill-opacity:1;stroke-width:0.708661;stroke-linecap:round;stroke-linejoin:round;stroke:rgb(38.039216%,61.176471%,100%);stroke-opacity:1;stroke-miterlimit:10;" d="M 275.578125 143.210938 C 275.578125 146.355469 273.03125 148.902344 269.886719 148.902344 C 266.746094 148.902344 264.199219 146.355469 264.199219 143.210938 C 264.199219 140.070313 266.746094 137.523438 269.886719 137.523438 C 273.03125 137.523438 275.578125 140.070313 275.578125 143.210938 "/>
<path style="fill-rule:nonzero;fill:rgb(38.039216%,61.176471%,100%);fill-opacity:1;stroke-width:0.708661;stroke-linecap:round;stroke-linejoin:round;stroke:rgb(38.039216%,61.176471%,100%);stroke-opacity:1;stroke-miterlimit:10;" d="M 264.816406 125.296875 C 264.816406 128.4375 262.269531 130.984375 259.128906 130.984375 C 255.984375 130.984375 253.4375 128.4375 253.4375 125.296875 C 253.4375 122.152344 255.984375 119.605469 259.128906 119.605469 C 262.269531 119.605469 264.816406 122.152344 264.816406 125.296875 "/>
<path style="fill-rule:nonzero;fill:rgb(38.039216%,61.176471%,100%);fill-opacity:1;stroke-width:0.708661;stroke-linecap:round;stroke-linejoin:round;stroke:rgb(38.039216%,61.176471%,100%);stroke-opacity:1;stroke-miterlimit:10;" d="M 255.726563 106.476563 C 255.726563 109.621094 253.179688 112.167969 250.035156 112.167969 C 246.894531 112.167969 244.347656 109.621094 244.347656 106.476563 C 244.347656 103.335938 246.894531 100.789063 250.035156 100.789063 C 253.179688 100.789063 255.726563 103.335938 255.726563 106.476563 "/>
<path style="fill-rule:nonzero;fill:rgb(38.039216%,61.176471%,100%);fill-opacity:1;stroke-width:0.708661;stroke-linecap:round;stroke-linejoin:round;stroke:rgb(38.039216%,61.176471%,100%);stroke-opacity:1;stroke-miterlimit:10;" d="M 256.285156 93.078125 C 256.285156 96.21875 253.738281 98.765625 250.597656 98.765625 C 247.453125 98.765625 244.90625 96.21875 244.90625 93.078125 C 244.90625 89.933594 247.453125 87.386719 250.597656 87.386719 C 253.738281 87.386719 256.285156 89.933594 256.285156 93.078125 "/>
<path style="fill-rule:nonzero;fill:rgb(38.039216%,61.176471%,100%);fill-opacity:1;stroke-width:0.708661;stroke-linecap:round;stroke-linejoin:round;stroke:rgb(38.039216%,61.176471%,100%);stroke-opacity:1;stroke-miterlimit:10;" d="M 257.992188 79.773438 C 257.992188 82.914063 255.445313 85.460938 252.300781 85.460938 C 249.160156 85.460938 246.613281 82.914063 246.613281 79.773438 C 246.613281 76.632813 249.160156 74.082031 252.300781 74.082031 C 255.445313 74.082031 257.992188 76.632813 257.992188 79.773438 "/>
<path style="fill-rule:nonzero;fill:rgb(38.039216%,61.176471%,100%);fill-opacity:1;stroke-width:0.708661;stroke-linecap:round;stroke-linejoin:round;stroke:rgb(38.039216%,61.176471%,100%);stroke-opacity:1;stroke-miterlimit:10;" d="M 262.691406 67.207031 C 262.691406 70.351563 260.144531 72.898438 257 72.898438 C 253.859375 72.898438 251.3125 70.351563 251.3125 67.207031 C 251.3125 64.066406 253.859375 61.519531 257 61.519531 C 260.144531 61.519531 262.691406 64.066406 262.691406 67.207031 "/>
<path style="fill-rule:nonzero;fill:rgb(38.039216%,61.176471%,100%);fill-opacity:1;stroke-width:0.708661;stroke-linecap:round;stroke-linejoin:round;stroke:rgb(38.039216%,61.176471%,100%);stroke-opacity:1;stroke-miterlimit:10;" d="M 268.558594 55.144531 C 268.558594 58.285156 266.011719 60.832031 262.867188 60.832031 C 259.726563 60.832031 257.179688 58.285156 257.179688 55.144531 C 257.179688 52.003906 259.726563 49.453125 262.867188 49.453125 C 266.011719 49.453125 268.558594 52.003906 268.558594 55.144531 "/>
<path style="fill-rule:nonzero;fill:rgb(38.039216%,61.176471%,100%);fill-opacity:1;stroke-width:0.708661;stroke-linecap:round;stroke-linejoin:round;stroke:rgb(38.039216%,61.176471%,100%);stroke-opacity:1;stroke-miterlimit:10;" d="M 283.101563 45.347656 C 283.101563 48.492188 280.554688 51.039063 277.410156 51.039063 C 274.269531 51.039063 271.722656 48.492188 271.722656 45.347656 C 271.722656 42.207031 274.269531 39.660156 277.410156 39.660156 C 280.554688 39.660156 283.101563 42.207031 283.101563 45.347656 "/>
<path style="fill-rule:nonzero;fill:rgb(38.039216%,61.176471%,100%);fill-opacity:1;stroke-width:0.708661;stroke-linecap:round;stroke-linejoin:round;stroke:rgb(38.039216%,61.176471%,100%);stroke-opacity:1;stroke-miterlimit:10;" d="M 298.511719 36.992188 C 298.511719 40.132813 295.964844 42.679688 292.824219 42.679688 C 289.683594 42.679688 287.136719 40.132813 287.136719 36.992188 C 287.136719 33.847656 289.683594 31.300781 292.824219 31.300781 C 295.964844 31.300781 298.511719 33.847656 298.511719 36.992188 "/>
<path style="fill-rule:nonzero;fill:rgb(38.039216%,61.176471%,100%);fill-opacity:1;stroke-width:0.708661;stroke-linecap:round;stroke-linejoin:round;stroke:rgb(38.039216%,61.176471%,100%);stroke-opacity:1;stroke-miterlimit:10;" d="M 315.539063 32.867188 C 315.539063 36.011719 312.992188 38.558594 309.847656 38.558594 C 306.707031 38.558594 304.160156 36.011719 304.160156 32.867188 C 304.160156 29.726563 306.707031 27.179688 309.847656 27.179688 C 312.992188 27.179688 315.539063 29.726563 315.539063 32.867188 "/>
<path style="fill-rule:nonzero;fill:rgb(38.039216%,61.176471%,100%);fill-opacity:1;stroke-width:0.708661;stroke-linecap:round;stroke-linejoin:round;stroke:rgb(38.039216%,61.176471%,100%);stroke-opacity:1;stroke-miterlimit:10;" d="M 332.722656 29.476563 C 332.722656 32.621094 330.175781 35.167969 327.035156 35.167969 C 323.894531 35.167969 321.347656 32.621094 321.347656 29.476563 C 321.347656 26.335938 323.894531 23.789063 327.035156 23.789063 C 330.175781 23.789063 332.722656 26.335938 332.722656 29.476563 "/>
</g>
</svg>
