<?xml version="1.0" encoding="UTF-8"?>
<svg xmlns="http://www.w3.org/2000/svg" xmlns:xlink="http://www.w3.org/1999/xlink" width="432pt" height="216pt" viewBox="0 0 432 216" version="1.1">
<defs>
<clipPath id="clip1">
  <path d="M 38.09375 183 L 214 183 L 214 184 L 38.09375 184 Z M 38.09375 183 "/>
</clipPath>
<clipPath id="clip2">
  <path d="M 38.09375 157 L 214 157 L 214 159 L 38.09375 159 Z M 38.09375 157 "/>
</clipPath>
<clipPath id="clip3">
  <path d="M 38.09375 131 L 214 131 L 214 133 L 38.09375 133 Z M 38.09375 131 "/>
</clipPath>
<clipPath id="clip4">
  <path d="M 38.09375 106 L 214 106 L 214 107 L 38.09375 107 Z M 38.09375 106 "/>
</clipPath>
<clipPath id="clip5">
  <path d="M 38.09375 80 L 214 80 L 214 82 L 38.09375 82 Z M 38.09375 80 "/>
</clipPath>
<clipPath id="clip6">
  <path d="M 38.09375 54 L 214 54 L 214 56 L 38.09375 56 Z M 38.09375 54 "/>
</clipPath>
<clipPath id="clip7">
  <path d="M 38.09375 29 L 214 29 L 214 30 L 38.09375 30 Z M 38.09375 29 "/>
</clipPath>
<clipPath id="clip8">
  <path d="M 38.09375 16 L 214 16 L 214 17 L 38.09375 17 Z M 38.09375 16 "/>
</clipPath>
<clipPath id="clip9">
  <path d="M 48 5.480469 L 49 5.480469 L 49 195 L 48 195 Z M 48 5.480469 "/>
</clipPath>
<clipPath id="clip10">
  <path d="M 74 5.480469 L 75 5.480469 L 75 195 L 74 195 Z M 74 5.480469 "/>
</clipPath>
<clipPath id="clip11">
  <path d="M 99 5.480469 L 101 5.480469 L 101 195 L 99 195 Z M 99 5.480469 "/>
</clipPath>
<clipPath id="clip12">
  <path d="M 125 5.480469 L 126 5.480469 L 126 195 L 125 195 Z M 125 5.480469 "/>
</clipPath>
<clipPath id="clip13">
  <path d="M 151 5.480469 L 152 5.480469 L 152 195 L 151 195 Z M 151 5.480469 "/>
</clipPath>
<clipPath id="clip14">
  <path d="M 176 5.480469 L 178 5.480469 L 178 195 L 176 195 Z M 176 5.480469 "/>
</clipPath>
<clipPath id="clip15">
  <path d="M 202 5.480469 L 203 5.480469 L 203 195 L 202 195 Z M 202 5.480469 "/>
</clipPath>
<clipPath id="clip16">
  <path d="M 38.09375 170 L 214 170 L 214 172 L 38.09375 172 Z M 38.09375 170 "/>
</clipPath>
<clipPath id="clip17">
  <path d="M 38.09375 144 L 214 144 L 214 146 L 38.09375 146 Z M 38.09375 144 "/>
</clipPath>
<clipPath id="clip18">
  <path d="M 38.09375 118 L 214 118 L 214 120 L 38.09375 120 Z M 38.09375 118 "/>
</clipPath>
<clipPath id="clip19">
  <path d="M 38.09375 93 L 214 93 L 214 95 L 38.09375 95 Z M 38.09375 93 "/>
</clipPath>
<clipPath id="clip20">
  <path d="M 38.09375 67 L 214 67 L 214 69 L 38.09375 69 Z M 38.09375 67 "/>
</clipPath>
<clipPath id="clip21">
  <path d="M 38.09375 41 L 214 41 L 214 43 L 38.09375 43 Z M 38.09375 41 "/>
</clipPath>
<clipPath id="clip22">
  <path d="M 60 5.480469 L 62 5.480469 L 62 195.644531 L 60 195.644531 Z M 60 5.480469 "/>
</clipPath>
<clipPath id="clip23">
  <path d="M 86 5.480469 L 88 5.480469 L 88 195.644531 L 86 195.644531 Z M 86 5.480469 "/>
</clipPath>
<clipPath id="clip24">
  <path d="M 112 5.480469 L 114 5.480469 L 114 195.644531 L 112 195.644531 Z M 112 5.480469 "/>
</clipPath>
<clipPath id="clip25">
  <path d="M 137 5.480469 L 139 5.480469 L 139 195.644531 L 137 195.644531 Z M 137 5.480469 "/>
</clipPath>
<clipPath id="clip26">
  <path d="M 163 5.480469 L 165 5.480469 L 165 195.644531 L 163 195.644531 Z M 163 5.480469 "/>
</clipPath>
<clipPath id="clip27">
  <path d="M 189 5.480469 L 191 5.480469 L 191 195.644531 L 189 195.644531 Z M 189 5.480469 "/>
</clipPath>
<clipPath id="clip28">
  <path d="M 234.738281 183 L 410.785156 183 L 410.785156 184 L 234.738281 184 Z M 234.738281 183 "/>
</clipPath>
<clipPath id="clip29">
  <path d="M 234.738281 157 L 410.785156 157 L 410.785156 159 L 234.738281 159 Z M 234.738281 157 "/>
</clipPath>
<clipPath id="clip30">
  <path d="M 234.738281 131 L 410.785156 131 L 410.785156 133 L 234.738281 133 Z M 234.738281 131 "/>
</clipPath>
<clipPath id="clip31">
  <path d="M 234.738281 106 L 410.785156 106 L 410.785156 107 L 234.738281 107 Z M 234.738281 106 "/>
</clipPath>
<clipPath id="clip32">
  <path d="M 234.738281 80 L 410.785156 80 L 410.785156 82 L 234.738281 82 Z M 234.738281 80 "/>
</clipPath>
<clipPath id="clip33">
  <path d="M 234.738281 54 L 410.785156 54 L 410.785156 56 L 234.738281 56 Z M 234.738281 54 "/>
</clipPath>
<clipPath id="clip34">
  <path d="M 234.738281 29 L 410.785156 29 L 410.785156 30 L 234.738281 30 Z M 234.738281 29 "/>
</clipPath>
<clipPath id="clip35">
  <path d="M 234.738281 16 L 410.785156 16 L 410.785156 17 L 234.738281 17 Z M 234.738281 16 "/>
</clipPath>
<clipPath id="clip36">
  <path d="M 244 5.480469 L 246 5.480469 L 246 195 L 244 195 Z M 244 5.480469 "/>
</clipPath>
<clipPath id="clip37">
  <path d="M 270 5.480469 L 272 5.480469 L 272 195 L 270 195 Z M 270 5.480469 "/>
</clipPath>
<clipPath id="clip38">
  <path d="M 296 5.480469 L 297 5.480469 L 297 195 L 296 195 Z M 296 5.480469 "/>
</clipPath>
<clipPath id="clip39">
  <path d="M 321 5.480469 L 323 5.480469 L 323 195 L 321 195 Z M 321 5.480469 "/>
</clipPath>
<clipPath id="clip40">
  <path d="M 347 5.480469 L 349 5.480469 L 349 195 L 347 195 Z M 347 5.480469 "/>
</clipPath>
<clipPath id="clip41">
  <path d="M 373 5.480469 L 374 5.480469 L 374 195 L 373 195 Z M 373 5.480469 "/>
</clipPath>
<clipPath id="clip42">
  <path d="M 398 5.480469 L 400 5.480469 L 400 195 L 398 195 Z M 398 5.480469 "/>
</clipPath>
<clipPath id="clip43">
  <path d="M 234.738281 170 L 410.785156 170 L 410.785156 172 L 234.738281 172 Z M 234.738281 170 "/>
</clipPath>
<clipPath id="clip44">
  <path d="M 234.738281 144 L 410.785156 144 L 410.785156 146 L 234.738281 146 Z M 234.738281 144 "/>
</clipPath>
<clipPath id="clip45">
  <path d="M 234.738281 118 L 410.785156 118 L 410.785156 120 L 234.738281 120 Z M 234.738281 118 "/>
</clipPath>
<clipPath id="clip46">
  <path d="M 234.738281 93 L 410.785156 93 L 410.785156 95 L 234.738281 95 Z M 234.738281 93 "/>
</clipPath>
<clipPath id="clip47">
  <path d="M 234.738281 67 L 410.785156 67 L 410.785156 69 L 234.738281 69 Z M 234.738281 67 "/>
</clipPath>
<clipPath id="clip48">
  <path d="M 234.738281 41 L 410.785156 41 L 410.785156 43 L 234.738281 43 Z M 234.738281 41 "/>
</clipPath>
<clipPath id="clip49">
  <path d="M 257 5.480469 L 259 5.480469 L 259 195.644531 L 257 195.644531 Z M 257 5.480469 "/>
</clipPath>
<clipPath id="clip50">
  <path d="M 283 5.480469 L 285 5.480469 L 285 195.644531 L 283 195.644531 Z M 283 5.480469 "/>
</clipPath>
<clipPath id="clip51">
  <path d="M 308 5.480469 L 310 5.480469 L 310 195.644531 L 308 195.644531 Z M 308 5.480469 "/>
</clipPath>
<clipPath id="clip52">
  <path d="M 334 5.480469 L 336 5.480469 L 336 195.644531 L 334 195.644531 Z M 334 5.480469 "/>
</clipPath>
<clipPath id="clip53">
  <path d="M 360 5.480469 L 362 5.480469 L 362 195.644531 L 360 195.644531 Z M 360 5.480469 "/>
</clipPath>
<clipPath id="clip54">
  <path d="M 385 5.480469 L 387 5.480469 L 387 195.644531 L 385 195.644531 Z M 385 5.480469 "/>
</clipPath>
</defs>
<g id="surface1">
<rect x="0" y="0" width="432" height="216" style="fill:rgb(100%,100%,100%);fill-opacity:1;stroke:none;"/>
<g clip-path="url(#clip1)" clip-rule="nonzero">
<path style="fill:none;stroke-width:0.533489;stroke-linecap:butt;stroke-linejoin:round;stroke:rgb(92.156863%,92.156863%,92.156863%);stroke-opacity:1;stroke-miterlimit:10;" d="M 38.09375 183.476563 L 213.140625 183.476563 "/>
</g>
<g clip-path="url(#clip2)" clip-rule="nonzero">
<path style="fill:none;stroke-width:0.533489;stroke-linecap:butt;stroke-linejoin:round;stroke:rgb(92.156863%,92.156863%,92.156863%);stroke-opacity:1;stroke-miterlimit:10;" d="M 38.09375 157.808594 L 213.140625 157.808594 "/>
</g>
<g clip-path="url(#clip3)" clip-rule="nonzero">
<path style="fill:none;stroke-width:0.533489;stroke-linecap:butt;stroke-linejoin:round;stroke:rgb(92.156863%,92.156863%,92.156863%);stroke-opacity:1;stroke-miterlimit:10;" d="M 38.09375 132.144531 L 213.140625 132.144531 "/>
</g>
<g clip-path="url(#clip4)" clip-rule="nonzero">
<path style="fill:none;stroke-width:0.533489;stroke-linecap:butt;stroke-linejoin:round;stroke:rgb(92.156863%,92.156863%,92.156863%);stroke-opacity:1;stroke-miterlimit:10;" d="M 38.09375 106.476563 L 213.140625 106.476563 "/>
</g>
<g clip-path="url(#clip5)" clip-rule="nonzero">
<path style="fill:none;stroke-width:0.533489;stroke-linecap:butt;stroke-linejoin:round;stroke:rgb(92.156863%,92.156863%,92.156863%);stroke-opacity:1;stroke-miterlimit:10;" d="M 38.09375 80.8125 L 213.140625 80.8125 "/>
</g>
<g clip-path="url(#clip6)" clip-rule="nonzero">
<path style="fill:none;stroke-width:0.533489;stroke-linecap:butt;stroke-linejoin:round;stroke:rgb(92.156863%,92.156863%,92.156863%);stroke-opacity:1;stroke-miterlimit:10;" d="M 38.09375 55.144531 L 213.140625 55.144531 "/>
</g>
<g clip-path="url(#clip7)" clip-rule="nonzero">
<path style="fill:none;stroke-width:0.533489;stroke-linecap:butt;stroke-linejoin:round;stroke:rgb(92.156863%,92.156863%,92.156863%);stroke-opacity:1;stroke-miterlimit:10;" d="M 38.09375 29.476563 L 213.140625 29.476563 "/>
</g>
<g clip-path="url(#clip8)" clip-rule="nonzero">
<path style="fill:none;stroke-width:0.533489;stroke-linecap:butt;stroke-linejoin:round;stroke:rgb(92.156863%,92.156863%,92.156863%);stroke-opacity:1;stroke-miterlimit:10;" d="M 38.09375 16.644531 L 213.140625 16.644531 "/>
</g>
<g clip-path="url(#clip9)" clip-rule="nonzero">
<path style="fill:none;stroke-width:0.533489;stroke-linecap:butt;stroke-linejoin:round;stroke:rgb(92.156863%,92.156863%,92.156863%);stroke-opacity:1;stroke-miterlimit:10;" d="M 48.617188 194.640625 L 48.617188 5.480469 "/>
</g>
<g clip-path="url(#clip10)" clip-rule="nonzero">
<path style="fill:none;stroke-width:0.533489;stroke-linecap:butt;stroke-linejoin:round;stroke:rgb(92.156863%,92.156863%,92.156863%);stroke-opacity:1;stroke-miterlimit:10;" d="M 74.285156 194.640625 L 74.285156 5.480469 "/>
</g>
<g clip-path="url(#clip11)" clip-rule="nonzero">
<path style="fill:none;stroke-width:0.533489;stroke-linecap:butt;stroke-linejoin:round;stroke:rgb(92.156863%,92.156863%,92.156863%);stroke-opacity:1;stroke-miterlimit:10;" d="M 99.949219 194.640625 L 99.949219 5.480469 "/>
</g>
<g clip-path="url(#clip12)" clip-rule="nonzero">
<path style="fill:none;stroke-width:0.533489;stroke-linecap:butt;stroke-linejoin:round;stroke:rgb(92.156863%,92.156863%,92.156863%);stroke-opacity:1;stroke-miterlimit:10;" d="M 125.617188 194.640625 L 125.617188 5.480469 "/>
</g>
<g clip-path="url(#clip13)" clip-rule="nonzero">
<path style="fill:none;stroke-width:0.533489;stroke-linecap:butt;stroke-linejoin:round;stroke:rgb(92.156863%,92.156863%,92.156863%);stroke-opacity:1;stroke-miterlimit:10;" d="M 151.28125 194.640625 L 151.28125 5.480469 "/>
</g>
<g clip-path="url(#clip14)" clip-rule="nonzero">
<path style="fill:none;stroke-width:0.533489;stroke-linecap:butt;stroke-linejoin:round;stroke:rgb(92.156863%,92.156863%,92.156863%);stroke-opacity:1;stroke-miterlimit:10;" d="M 176.949219 194.640625 L 176.949219 5.480469 "/>
</g>
<g clip-path="url(#clip15)" clip-rule="nonzero">
<path style="fill:none;stroke-width:0.533489;stroke-linecap:butt;stroke-linejoin:round;stroke:rgb(92.156863%,92.156863%,92.156863%);stroke-opacity:1;stroke-miterlimit:10;" d="M 202.617188 194.640625 L 202.617188 5.480469 "/>
</g>
<g clip-path="url(#clip16)" clip-rule="nonzero">
<path style="fill:none;stroke-width:1.066978;stroke-linecap:butt;stroke-linejoin:round;stroke:rgb(92.156863%,92.156863%,92.156863%);stroke-opacity:1;stroke-miterlimit:10;" d="M 38.09375 170.644531 L 213.140625 170.644531 "/>
</g>
<g clip-path="url(#clip17)" clip-rule="nonzero">
<path style="fill:none;stroke-width:1.066978;stroke-linecap:butt;stroke-linejoin:round;stroke:rgb(92.156863%,92.156863%,92.156863%);stroke-opacity:1;stroke-miterlimit:10;" d="M 38.09375 144.976563 L 213.140625 144.976563 "/>
</g>
<g clip-path="url(#clip18)" clip-rule="nonzero">
<path style="fill:none;stroke-width:1.066978;stroke-linecap:butt;stroke-linejoin:round;stroke:rgb(92.156863%,92.156863%,92.156863%);stroke-opacity:1;stroke-miterlimit:10;" d="M 38.09375 119.308594 L 213.140625 119.308594 "/>
</g>
<g clip-path="url(#clip19)" clip-rule="nonzero">
<path style="fill:none;stroke-width:1.066978;stroke-linecap:butt;stroke-linejoin:round;stroke:rgb(92.156863%,92.156863%,92.156863%);stroke-opacity:1;stroke-miterlimit:10;" d="M 38.09375 93.644531 L 213.140625 93.644531 "/>
</g>
<g clip-path="url(#clip20)" clip-rule="nonzero">
<path style="fill:none;stroke-width:1.066978;stroke-linecap:butt;stroke-linejoin:round;stroke:rgb(92.156863%,92.156863%,92.156863%);stroke-opacity:1;stroke-miterlimit:10;" d="M 38.09375 67.976563 L 213.140625 67.976563 "/>
</g>
<g clip-path="url(#clip21)" clip-rule="nonzero">
<path style="fill:none;stroke-width:1.066978;stroke-linecap:butt;stroke-linejoin:round;stroke:rgb(92.156863%,92.156863%,92.156863%);stroke-opacity:1;stroke-miterlimit:10;" d="M 38.09375 42.3125 L 213.140625 42.3125 "/>
</g>
<g clip-path="url(#clip22)" clip-rule="nonzero">
<path style="fill:none;stroke-width:1.066978;stroke-linecap:butt;stroke-linejoin:round;stroke:rgb(92.156863%,92.156863%,92.156863%);stroke-opacity:1;stroke-miterlimit:10;" d="M 61.449219 194.640625 L 61.449219 5.480469 "/>
</g>
<g clip-path="url(#clip23)" clip-rule="nonzero">
<path style="fill:none;stroke-width:1.066978;stroke-linecap:butt;stroke-linejoin:round;stroke:rgb(92.156863%,92.156863%,92.156863%);stroke-opacity:1;stroke-miterlimit:10;" d="M 87.117188 194.640625 L 87.117188 5.480469 "/>
</g>
<g clip-path="url(#clip24)" clip-rule="nonzero">
<path style="fill:none;stroke-width:1.066978;stroke-linecap:butt;stroke-linejoin:round;stroke:rgb(92.156863%,92.156863%,92.156863%);stroke-opacity:1;stroke-miterlimit:10;" d="M 112.785156 194.640625 L 112.785156 5.480469 "/>
</g>
<g clip-path="url(#clip25)" clip-rule="nonzero">
<path style="fill:none;stroke-width:1.066978;stroke-linecap:butt;stroke-linejoin:round;stroke:rgb(92.156863%,92.156863%,92.156863%);stroke-opacity:1;stroke-miterlimit:10;" d="M 138.449219 194.640625 L 138.449219 5.480469 "/>
</g>
<g clip-path="url(#clip26)" clip-rule="nonzero">
<path style="fill:none;stroke-width:1.066978;stroke-linecap:butt;stroke-linejoin:round;stroke:rgb(92.156863%,92.156863%,92.156863%);stroke-opacity:1;stroke-miterlimit:10;" d="M 164.117188 194.640625 L 164.117188 5.480469 "/>
</g>
<g clip-path="url(#clip27)" clip-rule="nonzero">
<path style="fill:none;stroke-width:1.066978;stroke-linecap:butt;stroke-linejoin:round;stroke:rgb(92.156863%,92.156863%,92.156863%);stroke-opacity:1;stroke-miterlimit:10;" d="M 189.78125 194.640625 L 189.78125 5.480469 "/>
</g>
<path style="fill:none;stroke-width:5.334892;stroke-linecap:round;stroke-linejoin:round;stroke:rgb(0%,0%,0%);stroke-opacity:1;stroke-miterlimit:10;" d="M 112.785156 132.144531 L 164.117188 106.476563 L 189.78125 157.808594 L 112.785156 170.644531 L 61.449219 106.476563 L 74.285156 55.144531 L 138.449219 29.476563 "/>
<path style="fill-rule:nonzero;fill:rgb(97.254902%,46.27451%,42.745098%);fill-opacity:1;stroke-width:0.708661;stroke-linecap:round;stroke-linejoin:round;stroke:rgb(97.254902%,46.27451%,42.745098%);stroke-opacity:1;stroke-miterlimit:10;" d="M 118.472656 132.144531 C 118.472656 135.285156 115.925781 137.832031 112.785156 137.832031 C 109.640625 137.832031 107.09375 135.285156 107.09375 132.144531 C 107.09375 129 109.640625 126.453125 112.785156 126.453125 C 115.925781 126.453125 118.472656 129 118.472656 132.144531 "/>
<path style="fill-rule:nonzero;fill:rgb(97.254902%,46.27451%,42.745098%);fill-opacity:1;stroke-width:0.708661;stroke-linecap:round;stroke-linejoin:round;stroke:rgb(97.254902%,46.27451%,42.745098%);stroke-opacity:1;stroke-miterlimit:10;" d="M 169.804688 106.476563 C 169.804688 109.621094 167.257813 112.167969 164.117188 112.167969 C 160.972656 112.167969 158.425781 109.621094 158.425781 106.476563 C 158.425781 103.335938 160.972656 100.789063 164.117188 100.789063 C 167.257813 100.789063 169.804688 103.335938 169.804688 106.476563 "/>
<path style="fill-rule:nonzero;fill:rgb(97.254902%,46.27451%,42.745098%);fill-opacity:1;stroke-width:0.708661;stroke-linecap:round;stroke-linejoin:round;stroke:rgb(97.254902%,46.27451%,42.745098%);stroke-opacity:1;stroke-miterlimit:10;" d="M 195.472656 157.808594 C 195.472656 160.953125 192.925781 163.5 189.78125 163.5 C 186.640625 163.5 184.09375 160.953125 184.09375 157.808594 C 184.09375 154.667969 186.640625 152.121094 189.78125 152.121094 C 192.925781 152.121094 195.472656 154.667969 195.472656 157.808594 "/>
<path style="fill-rule:nonzero;fill:rgb(97.254902%,46.27451%,42.745098%);fill-opacity:1;stroke-width:0.708661;stroke-linecap:round;stroke-linejoin:round;stroke:rgb(97.254902%,46.27451%,42.745098%);stroke-opacity:1;stroke-miterlimit:10;" d="M 118.472656 170.644531 C 118.472656 173.785156 115.925781 176.332031 112.785156 176.332031 C 109.640625 176.332031 107.09375 173.785156 107.09375 170.644531 C 107.09375 167.5 109.640625 164.953125 112.785156 164.953125 C 115.925781 164.953125 118.472656 167.5 118.472656 170.644531 "/>
<path style="fill-rule:nonzero;fill:rgb(97.254902%,46.27451%,42.745098%);fill-opacity:1;stroke-width:0.708661;stroke-linecap:round;stroke-linejoin:round;stroke:rgb(97.254902%,46.27451%,42.745098%);stroke-opacity:1;stroke-miterlimit:10;" d="M 67.140625 106.476563 C 67.140625 109.621094 64.59375 112.167969 61.449219 112.167969 C 58.308594 112.167969 55.761719 109.621094 55.761719 106.476563 C 55.761719 103.335938 58.308594 100.789063 61.449219 100.789063 C 64.59375 100.789063 67.140625 103.335938 67.140625 106.476563 "/>
<path style="fill-rule:nonzero;fill:rgb(97.254902%,46.27451%,42.745098%);fill-opacity:1;stroke-width:0.708661;stroke-linecap:round;stroke-linejoin:round;stroke:rgb(97.254902%,46.27451%,42.745098%);stroke-opacity:1;stroke-miterlimit:10;" d="M 79.972656 55.144531 C 79.972656 58.285156 77.425781 60.832031 74.285156 60.832031 C 71.140625 60.832031 68.59375 58.285156 68.59375 55.144531 C 68.59375 52.003906 71.140625 49.453125 74.285156 49.453125 C 77.425781 49.453125 79.972656 52.003906 79.972656 55.144531 "/>
<path style="fill-rule:nonzero;fill:rgb(97.254902%,46.27451%,42.745098%);fill-opacity:1;stroke-width:0.708661;stroke-linecap:round;stroke-linejoin:round;stroke:rgb(97.254902%,46.27451%,42.745098%);stroke-opacity:1;stroke-miterlimit:10;" d="M 144.140625 29.476563 C 144.140625 32.621094 141.59375 35.167969 138.449219 35.167969 C 135.308594 35.167969 132.761719 32.621094 132.761719 29.476563 C 132.761719 26.335938 135.308594 23.789063 138.449219 23.789063 C 141.59375 23.789063 144.140625 26.335938 144.140625 29.476563 "/>
<g clip-path="url(#clip28)" clip-rule="nonzero">
<path style="fill:none;stroke-width:0.533489;stroke-linecap:butt;stroke-linejoin:round;stroke:rgb(92.156863%,92.156863%,92.156863%);stroke-opacity:1;stroke-miterlimit:10;" d="M 234.738281 183.476563 L 409.785156 183.476563 "/>
</g>
<g clip-path="url(#clip29)" clip-rule="nonzero">
<path style="fill:none;stroke-width:0.533489;stroke-linecap:butt;stroke-linejoin:round;stroke:rgb(92.156863%,92.156863%,92.156863%);stroke-opacity:1;stroke-miterlimit:10;" d="M 234.738281 157.808594 L 409.785156 157.808594 "/>
</g>
<g clip-path="url(#clip30)" clip-rule="nonzero">
<path style="fill:none;stroke-width:0.533489;stroke-linecap:butt;stroke-linejoin:round;stroke:rgb(92.156863%,92.156863%,92.156863%);stroke-opacity:1;stroke-miterlimit:10;" d="M 234.738281 132.144531 L 409.785156 132.144531 "/>
</g>
<g clip-path="url(#clip31)" clip-rule="nonzero">
<path style="fill:none;stroke-width:0.533489;stroke-linecap:butt;stroke-linejoin:round;stroke:rgb(92.156863%,92.156863%,92.156863%);stroke-opacity:1;stroke-miterlimit:10;" d="M 234.738281 106.476563 L 409.785156 106.476563 "/>
</g>
<g clip-path="url(#clip32)" clip-rule="nonzero">
<path style="fill:none;stroke-width:0.533489;stroke-linecap:butt;stroke-linejoin:round;stroke:rgb(92.156863%,92.156863%,92.156863%);stroke-opacity:1;stroke-miterlimit:10;" d="M 234.738281 80.8125 L 409.785156 80.8125 "/>
</g>
<g clip-path="url(#clip33)" clip-rule="nonzero">
<path style="fill:none;stroke-width:0.533489;stroke-linecap:butt;stroke-linejoin:round;stroke:rgb(92.156863%,92.156863%,92.156863%);stroke-opacity:1;stroke-miterlimit:10;" d="M 234.738281 55.144531 L 409.785156 55.144531 "/>
</g>
<g clip-path="url(#clip34)" clip-rule="nonzero">
<path style="fill:none;stroke-width:0.533489;stroke-linecap:butt;stroke-linejoin:round;stroke:rgb(92.156863%,92.156863%,92.156863%);stroke-opacity:1;stroke-miterlimit:10;" d="M 234.738281 29.476563 L 409.785156 29.476563 "/>
</g>
<g clip-path="url(#clip35)" clip-rule="nonzero">
<path style="fill:none;stroke-width:0.533489;stroke-linecap:butt;stroke-linejoin:round;stroke:rgb(92.156863%,92.156863%,92.156863%);stroke-opacity:1;stroke-miterlimit:10;" d="M 234.738281 16.644531 L 409.785156 16.644531 "/>
</g>
<g clip-path="url(#clip36)" clip-rule="nonzero">
<path style="fill:none;stroke-width:0.533489;stroke-linecap:butt;stroke-linejoin:round;stroke:rgb(92.156863%,92.156863%,92.156863%);stroke-opacity:1;stroke-miterlimit:10;" d="M 245.261719 194.640625 L 245.261719 5.480469 "/>
</g>
<g clip-path="url(#clip37)" clip-rule="nonzero">
<path style="fill:none;stroke-width:0.533489;stroke-linecap:butt;stroke-linejoin:round;stroke:rgb(92.156863%,92.156863%,92.156863%);stroke-opacity:1;stroke-miterlimit:10;" d="M 270.929688 194.640625 L 270.929688 5.480469 "/>
</g>
<g clip-path="url(#clip38)" clip-rule="nonzero">
<path style="fill:none;stroke-width:0.533489;stroke-linecap:butt;stroke-linejoin:round;stroke:rgb(92.156863%,92.156863%,92.156863%);stroke-opacity:1;stroke-miterlimit:10;" d="M 296.597656 194.640625 L 296.597656 5.480469 "/>
</g>
<g clip-path="url(#clip39)" clip-rule="nonzero">
<path style="fill:none;stroke-width:0.533489;stroke-linecap:butt;stroke-linejoin:round;stroke:rgb(92.156863%,92.156863%,92.156863%);stroke-opacity:1;stroke-miterlimit:10;" d="M 322.261719 194.640625 L 322.261719 5.480469 "/>
</g>
<g clip-path="url(#clip40)" clip-rule="nonzero">
<path style="fill:none;stroke-width:0.533489;stroke-linecap:butt;stroke-linejoin:round;stroke:rgb(92.156863%,92.156863%,92.156863%);stroke-opacity:1;stroke-miterlimit:10;" d="M 347.929688 194.640625 L 347.929688 5.480469 "/>
</g>
<g clip-path="url(#clip41)" clip-rule="nonzero">
<path style="fill:none;stroke-width:0.533489;stroke-linecap:butt;stroke-linejoin:round;stroke:rgb(92.156863%,92.156863%,92.156863%);stroke-opacity:1;stroke-miterlimit:10;" d="M 373.59375 194.640625 L 373.59375 5.480469 "/>
</g>
<g clip-path="url(#clip42)" clip-rule="nonzero">
<path style="fill:none;stroke-width:0.533489;stroke-linecap:butt;stroke-linejoin:round;stroke:rgb(92.156863%,92.156863%,92.156863%);stroke-opacity:1;stroke-miterlimit:10;" d="M 399.261719 194.640625 L 399.261719 5.480469 "/>
</g>
<g clip-path="url(#clip43)" clip-rule="nonzero">
<path style="fill:none;stroke-width:1.066978;stroke-linecap:butt;stroke-linejoin:round;stroke:rgb(92.156863%,92.156863%,92.156863%);stroke-opacity:1;stroke-miterlimit:10;" d="M 234.738281 170.644531 L 409.785156 170.644531 "/>
</g>
<g clip-path="url(#clip44)" clip-rule="nonzero">
<path style="fill:none;stroke-width:1.066978;stroke-linecap:butt;stroke-linejoin:round;stroke:rgb(92.156863%,92.156863%,92.156863%);stroke-opacity:1;stroke-miterlimit:10;" d="M 234.738281 144.976563 L 409.785156 144.976563 "/>
</g>
<g clip-path="url(#clip45)" clip-rule="nonzero">
<path style="fill:none;stroke-width:1.066978;stroke-linecap:butt;stroke-linejoin:round;stroke:rgb(92.156863%,92.156863%,92.156863%);stroke-opacity:1;stroke-miterlimit:10;" d="M 234.738281 119.308594 L 409.785156 119.308594 "/>
</g>
<g clip-path="url(#clip46)" clip-rule="nonzero">
<path style="fill:none;stroke-width:1.066978;stroke-linecap:butt;stroke-linejoin:round;stroke:rgb(92.156863%,92.156863%,92.156863%);stroke-opacity:1;stroke-miterlimit:10;" d="M 234.738281 93.644531 L 409.785156 93.644531 "/>
</g>
<g clip-path="url(#clip47)" clip-rule="nonzero">
<path style="fill:none;stroke-width:1.066978;stroke-linecap:butt;stroke-linejoin:round;stroke:rgb(92.156863%,92.156863%,92.156863%);stroke-opacity:1;stroke-miterlimit:10;" d="M 234.738281 67.976563 L 409.785156 67.976563 "/>
</g>
<g clip-path="url(#clip48)" clip-rule="nonzero">
<path style="fill:none;stroke-width:1.066978;stroke-linecap:butt;stroke-linejoin:round;stroke:rgb(92.156863%,92.156863%,92.156863%);stroke-opacity:1;stroke-miterlimit:10;" d="M 234.738281 42.3125 L 409.785156 42.3125 "/>
</g>
<g clip-path="url(#clip49)" clip-rule="nonzero">
<path style="fill:none;stroke-width:1.066978;stroke-linecap:butt;stroke-linejoin:round;stroke:rgb(92.156863%,92.156863%,92.156863%);stroke-opacity:1;stroke-miterlimit:10;" d="M 258.097656 194.640625 L 258.097656 5.480469 "/>
</g>
<g clip-path="url(#clip50)" clip-rule="nonzero">
<path style="fill:none;stroke-width:1.066978;stroke-linecap:butt;stroke-linejoin:round;stroke:rgb(92.156863%,92.156863%,92.156863%);stroke-opacity:1;stroke-miterlimit:10;" d="M 283.761719 194.640625 L 283.761719 5.480469 "/>
</g>
<g clip-path="url(#clip51)" clip-rule="nonzero">
<path style="fill:none;stroke-width:1.066978;stroke-linecap:butt;stroke-linejoin:round;stroke:rgb(92.156863%,92.156863%,92.156863%);stroke-opacity:1;stroke-miterlimit:10;" d="M 309.429688 194.640625 L 309.429688 5.480469 "/>
</g>
<g clip-path="url(#clip52)" clip-rule="nonzero">
<path style="fill:none;stroke-width:1.066978;stroke-linecap:butt;stroke-linejoin:round;stroke:rgb(92.156863%,92.156863%,92.156863%);stroke-opacity:1;stroke-miterlimit:10;" d="M 335.09375 194.640625 L 335.09375 5.480469 "/>
</g>
<g clip-path="url(#clip53)" clip-rule="nonzero">
<path style="fill:none;stroke-width:1.066978;stroke-linecap:butt;stroke-linejoin:round;stroke:rgb(92.156863%,92.156863%,92.156863%);stroke-opacity:1;stroke-miterlimit:10;" d="M 360.761719 194.640625 L 360.761719 5.480469 "/>
</g>
<g clip-path="url(#clip54)" clip-rule="nonzero">
<path style="fill:none;stroke-width:1.066978;stroke-linecap:butt;stroke-linejoin:round;stroke:rgb(92.156863%,92.156863%,92.156863%);stroke-opacity:1;stroke-miterlimit:10;" d="M 386.429688 194.640625 L 386.429688 5.480469 "/>
</g>
<path style="fill:none;stroke-width:5.334892;stroke-linecap:round;stroke-linejoin:round;stroke:rgb(0%,0%,0%);stroke-opacity:1;stroke-miterlimit:10;" d="M 309.429688 132.144531 L 318.421875 119.460938 L 329.960938 109.042969 L 345.21875 106.0625 L 360.761719 106.476563 L 374.300781 114.832031 L 385.371094 126.253906 L 388.699219 141.9375 L 386.429688 157.808594 L 369.902344 170.761719 L 350.246094 178.136719 L 329.558594 175.902344 L 309.429688 170.644531 L 293.128906 157.566406 L 277.949219 143.210938 L 267.1875 125.296875 L 258.097656 106.476563 L 258.65625 93.078125 L 260.363281 79.773438 L 265.0625 67.207031 L 270.929688 55.144531 L 285.472656 45.347656 L 300.882813 36.992188 L 317.910156 32.867188 L 335.09375 29.476563 "/>
<path style="fill-rule:nonzero;fill:rgb(38.039216%,61.176471%,100%);fill-opacity:1;stroke-width:0.708661;stroke-linecap:round;stroke-linejoin:round;stroke:rgb(38.039216%,61.176471%,100%);stroke-opacity:1;stroke-miterlimit:10;" d="M 315.117188 132.144531 C 315.117188 135.285156 312.570313 137.832031 309.429688 137.832031 C 306.285156 137.832031 303.738281 135.285156 303.738281 132.144531 C 303.738281 129 306.285156 126.453125 309.429688 126.453125 C 312.570313 126.453125 315.117188 129 315.117188 132.144531 "/>
<path style="fill-rule:nonzero;fill:rgb(38.039216%,61.176471%,100%);fill-opacity:1;stroke-width:0.708661;stroke-linecap:round;stroke-linejoin:round;stroke:rgb(38.039216%,61.176471%,100%);stroke-opacity:1;stroke-miterlimit:10;" d="M 324.109375 119.460938 C 324.109375 122.601563 321.5625 125.148438 318.421875 125.148438 C 315.277344 125.148438 312.730469 122.601563 312.730469 119.460938 C 312.730469 116.320313 315.277344 113.773438 318.421875 113.773438 C 321.5625 113.773438 324.109375 116.320313 324.109375 119.460938 "/>
<path style="fill-rule:nonzero;fill:rgb(38.039216%,61.176471%,100%);fill-opacity:1;stroke-width:0.708661;stroke-linecap:round;stroke-linejoin:round;stroke:rgb(38.039216%,61.176471%,100%);stroke-opacity:1;stroke-miterlimit:10;" d="M 335.652344 109.042969 C 335.652344 112.1875 333.105469 114.734375 329.960938 114.734375 C 326.820313 114.734375 324.273438 112.1875 324.273438 109.042969 C 324.273438 105.902344 326.820313 103.355469 329.960938 103.355469 C 333.105469 103.355469 335.652344 105.902344 335.652344 109.042969 "/>
<path style="fill-rule:nonzero;fill:rgb(38.039216%,61.176471%,100%);fill-opacity:1;stroke-width:0.708661;stroke-linecap:round;stroke-linejoin:round;stroke:rgb(38.039216%,61.176471%,100%);stroke-opacity:1;stroke-miterlimit:10;" d="M 350.910156 106.0625 C 350.910156 109.207031 348.363281 111.753906 345.21875 111.753906 C 342.078125 111.753906 339.53125 109.207031 339.53125 106.0625 C 339.53125 102.921875 342.078125 100.375 345.21875 100.375 C 348.363281 100.375 350.910156 102.921875 350.910156 106.0625 "/>
<path style="fill-rule:nonzero;fill:rgb(38.039216%,61.176471%,100%);fill-opacity:1;stroke-width:0.708661;stroke-linecap:round;stroke-linejoin:round;stroke:rgb(38.039216%,61.176471%,100%);stroke-opacity:1;stroke-miterlimit:10;" d="M 366.453125 106.476563 C 366.453125 109.621094 363.902344 112.167969 360.761719 112.167969 C 357.621094 112.167969 355.074219 109.621094 355.074219 106.476563 C 355.074219 103.335938 357.621094 100.789063 360.761719 100.789063 C 363.902344 100.789063 366.453125 103.335938 366.453125 106.476563 "/>
<path style="fill-rule:nonzero;fill:rgb(38.039216%,61.176471%,100%);fill-opacity:1;stroke-width:0.708661;stroke-linecap:round;stroke-linejoin:round;stroke:rgb(38.039216%,61.176471%,100%);stroke-opacity:1;stroke-miterlimit:10;" d="M 379.988281 114.832031 C 379.988281 117.976563 377.441406 120.523438 374.300781 120.523438 C 371.15625 120.523438 368.609375 117.976563 368.609375 114.832031 C 368.609375 111.691406 371.15625 109.144531 374.300781 109.144531 C 377.441406 109.144531 379.988281 111.691406 379.988281 114.832031 "/>
<path style="fill-rule:nonzero;fill:rgb(38.039216%,61.176471%,100%);fill-opacity:1;stroke-width:0.708661;stroke-linecap:round;stroke-linejoin:round;stroke:rgb(38.039216%,61.176471%,100%);stroke-opacity:1;stroke-miterlimit:10;" d="M 391.0625 126.253906 C 391.0625 129.398438 388.511719 131.945313 385.371094 131.945313 C 382.230469 131.945313 379.683594 129.398438 379.683594 126.253906 C 379.683594 123.113281 382.230469 120.566406 385.371094 120.566406 C 388.511719 120.566406 391.0625 123.113281 391.0625 126.253906 "/>
<path style="fill-rule:nonzero;fill:rgb(38.039216%,61.176471%,100%);fill-opacity:1;stroke-width:0.708661;stroke-linecap:round;stroke-linejoin:round;stroke:rgb(38.039216%,61.176471%,100%);stroke-opacity:1;stroke-miterlimit:10;" d="M 394.390625 141.9375 C 394.390625 145.082031 391.84375 147.628906 388.699219 147.628906 C 385.558594 147.628906 383.011719 145.082031 383.011719 141.9375 C 383.011719 138.796875 385.558594 136.25 388.699219 136.25 C 391.84375 136.25 394.390625 138.796875 394.390625 141.9375 "/>
<path style="fill-rule:nonzero;fill:rgb(38.039216%,61.176471%,100%);fill-opacity:1;stroke-width:0.708661;stroke-linecap:round;stroke-linejoin:round;stroke:rgb(38.039216%,61.176471%,100%);stroke-opacity:1;stroke-miterlimit:10;" d="M 392.117188 157.808594 C 392.117188 160.953125 389.570313 163.5 386.429688 163.5 C 383.285156 163.5 380.738281 160.953125 380.738281 157.808594 C 380.738281 154.667969 383.285156 152.121094 386.429688 152.121094 C 389.570313 152.121094 392.117188 154.667969 392.117188 157.808594 "/>
<path style="fill-rule:nonzero;fill:rgb(38.039216%,61.176471%,100%);fill-opacity:1;stroke-width:0.708661;stroke-linecap:round;stroke-linejoin:round;stroke:rgb(38.039216%,61.176471%,100%);stroke-opacity:1;stroke-miterlimit:10;" d="M 375.59375 170.761719 C 375.59375 173.902344 373.046875 176.449219 369.902344 176.449219 C 366.761719 176.449219 364.214844 173.902344 364.214844 170.761719 C 364.214844 167.617188 366.761719 165.070313 369.902344 165.070313 C 373.046875 165.070313 375.59375 167.617188 375.59375 170.761719 "/>
<path style="fill-rule:nonzero;fill:rgb(38.039216%,61.176471%,100%);fill-opacity:1;stroke-width:0.708661;stroke-linecap:round;stroke-linejoin:round;stroke:rgb(38.039216%,61.176471%,100%);stroke-opacity:1;stroke-miterlimit:10;" d="M 355.9375 178.136719 C 355.9375 181.277344 353.390625 183.824219 350.246094 183.824219 C 347.105469 183.824219 344.558594 181.277344 344.558594 178.136719 C 344.558594 174.992188 347.105469 172.445313 350.246094 172.445313 C 353.390625 172.445313 355.9375 174.992188 355.9375 178.136719 "/>
<path style="fill-rule:nonzero;fill:rgb(38.039216%,61.176471%,100%);fill-opacity:1;stroke-width:0.708661;stroke-linecap:round;stroke-linejoin:round;stroke:rgb(38.039216%,61.176471%,100%);stroke-opacity:1;stroke-miterlimit:10;" d="M 335.25 175.902344 C 335.25 179.042969 332.703125 181.589844 329.558594 181.589844 C 326.417969 181.589844 323.871094 179.042969 323.871094 175.902344 C 323.871094 172.761719 326.417969 170.214844 329.558594 170.214844 C 332.703125 170.214844 335.25 172.761719 335.25 175.902344 "/>
<path style="fill-rule:nonzero;fill:rgb(38.039216%,61.176471%,100%);fill-opacity:1;stroke-width:0.708661;stroke-linecap:round;stroke-linejoin:round;stroke:rgb(38.039216%,61.176471%,100%);stroke-opacity:1;stroke-miterlimit:10;" d="M 315.117188 170.644531 C 315.117188 173.785156 312.570313 176.332031 309.429688 176.332031 C 306.285156 176.332031 303.738281 173.785156 303.738281 170.644531 C 303.738281 167.5 306.285156 164.953125 309.429688 164.953125 C 312.570313 164.953125 315.117188 167.5 315.117188 170.644531 "/>
<path style="fill-rule:nonzero;fill:rgb(38.039216%,61.176471%,100%);fill-opacity:1;stroke-width:0.708661;stroke-linecap:round;stroke-linejoin:round;stroke:rgb(38.039216%,61.176471%,100%);stroke-opacity:1;stroke-miterlimit:10;" d="M 298.820313 157.566406 C 298.820313 160.710938 296.273438 163.257813 293.128906 163.257813 C 289.988281 163.257813 287.441406 160.710938 287.441406 157.566406 C 287.441406 154.425781 289.988281 151.878906 293.128906 151.878906 C 296.273438 151.878906 298.820313 154.425781 298.820313 157.566406 "/>
<path style="fill-rule:nonzero;fill:rgb(38.039216%,61.176471%,100%);fill-opacity:1;stroke-width:0.708661;stroke-linecap:round;stroke-linejoin:round;stroke:rgb(38.039216%,61.176471%,100%);stroke-opacity:1;stroke-miterlimit:10;" d="M 283.636719 143.210938 C 283.636719 146.355469 281.089844 148.902344 277.949219 148.902344 C 274.804688 148.902344 272.257813 146.355469 272.257813 143.210938 C 272.257813 140.070313 274.804688 137.523438 277.949219 137.523438 C 281.089844 137.523438 283.636719 140.070313 283.636719 143.210938 "/>
<path style="fill-rule:nonzero;fill:rgb(38.039216%,61.176471%,100%);fill-opacity:1;stroke-width:0.708661;stroke-linecap:round;stroke-linejoin:round;stroke:rgb(38.039216%,61.176471%,100%);stroke-opacity:1;stroke-miterlimit:10;" d="M 272.875 125.296875 C 272.875 128.4375 270.328125 130.984375 267.1875 130.984375 C 264.046875 130.984375 261.5 128.4375 261.5 125.296875 C 261.5 122.152344 264.046875 119.605469 267.1875 119.605469 C 270.328125 119.605469 272.875 122.152344 272.875 125.296875 "/>
<path style="fill-rule:nonzero;fill:rgb(38.039216%,61.176471%,100%);fill-opacity:1;stroke-width:0.708661;stroke-linecap:round;stroke-linejoin:round;stroke:rgb(38.039216%,61.176471%,100%);stroke-opacity:1;stroke-miterlimit:10;" d="M 263.785156 106.476563 C 263.785156 109.621094 261.238281 112.167969 258.097656 112.167969 C 254.953125 112.167969 252.40625 109.621094 252.40625 106.476563 C 252.40625 103.335938 254.953125 100.789063 258.097656 100.789063 C 261.238281 100.789063 263.785156 103.335938 263.785156 106.476563 "/>
<path style="fill-rule:nonzero;fill:rgb(38.039216%,61.176471%,100%);fill-opacity:1;stroke-width:0.708661;stroke-linecap:round;stroke-linejoin:round;stroke:rgb(38.039216%,61.176471%,100%);stroke-opacity:1;stroke-miterlimit:10;" d="M 264.34375 93.078125 C 264.34375 96.21875 261.796875 98.765625 258.65625 98.765625 C 255.515625 98.765625 252.96875 96.21875 252.96875 93.078125 C 252.96875 89.933594 255.515625 87.386719 258.65625 87.386719 C 261.796875 87.386719 264.34375 89.933594 264.34375 93.078125 "/>
<path style="fill-rule:nonzero;fill:rgb(38.039216%,61.176471%,100%);fill-opacity:1;stroke-width:0.708661;stroke-linecap:round;stroke-linejoin:round;stroke:rgb(38.039216%,61.176471%,100%);stroke-opacity:1;stroke-miterlimit:10;" d="M 266.050781 79.773438 C 266.050781 82.914063 263.503906 85.460938 260.363281 85.460938 C 257.21875 85.460938 254.671875 82.914063 254.671875 79.773438 C 254.671875 76.632813 257.21875 74.082031 260.363281 74.082031 C 263.503906 74.082031 266.050781 76.632813 266.050781 79.773438 "/>
<path style="fill-rule:nonzero;fill:rgb(38.039216%,61.176471%,100%);fill-opacity:1;stroke-width:0.708661;stroke-linecap:round;stroke-linejoin:round;stroke:rgb(38.039216%,61.176471%,100%);stroke-opacity:1;stroke-miterlimit:10;" d="M 270.75 67.207031 C 270.75 70.351563 268.203125 72.898438 265.0625 72.898438 C 261.917969 72.898438 259.371094 70.351563 259.371094 67.207031 C 259.371094 64.066406 261.917969 61.519531 265.0625 61.519531 C 268.203125 61.519531 270.75 64.066406 270.75 67.207031 "/>
<path style="fill-rule:nonzero;fill:rgb(38.039216%,61.176471%,100%);fill-opacity:1;stroke-width:0.708661;stroke-linecap:round;stroke-linejoin:round;stroke:rgb(38.039216%,61.176471%,100%);stroke-opacity:1;stroke-miterlimit:10;" d="M 276.617188 55.144531 C 276.617188 58.285156 274.070313 60.832031 270.929688 60.832031 C 267.789063 60.832031 265.238281 58.285156 265.238281 55.144531 C 265.238281 52.003906 267.789063 49.453125 270.929688 49.453125 C 274.070313 49.453125 276.617188 52.003906 276.617188 55.144531 "/>
<path style="fill-rule:nonzero;fill:rgb(38.039216%,61.176471%,100%);fill-opacity:1;stroke-width:0.708661;stroke-linecap:round;stroke-linejoin:round;stroke:rgb(38.039216%,61.176471%,100%);stroke-opacity:1;stroke-miterlimit:10;" d="M 291.160156 45.347656 C 291.160156 48.492188 288.613281 51.039063 285.472656 51.039063 C 282.328125 51.039063 279.78125 48.492188 279.78125 45.347656 C 279.78125 42.207031 282.328125 39.660156 285.472656 39.660156 C 288.613281 39.660156 291.160156 42.207031 291.160156 45.347656 "/>
<path style="fill-rule:nonzero;fill:rgb(38.039216%,61.176471%,100%);fill-opacity:1;stroke-width:0.708661;stroke-linecap:round;stroke-linejoin:round;stroke:rgb(38.039216%,61.176471%,100%);stroke-opacity:1;stroke-miterlimit:10;" d="M 306.574219 36.992188 C 306.574219 40.132813 304.027344 42.679688 300.882813 42.679688 C 297.742188 42.679688 295.195313 40.132813 295.195313 36.992188 C 295.195313 33.847656 297.742188 31.300781 300.882813 31.300781 C 304.027344 31.300781 306.574219 33.847656 306.574219 36.992188 "/>
<path style="fill-rule:nonzero;fill:rgb(38.039216%,61.176471%,100%);fill-opacity:1;stroke-width:0.708661;stroke-linecap:round;stroke-linejoin:round;stroke:rgb(38.039216%,61.176471%,100%);stroke-opacity:1;stroke-miterlimit:10;" d="M 323.597656 32.867188 C 323.597656 36.011719 321.050781 38.558594 317.910156 38.558594 C 314.765625 38.558594 312.21875 36.011719 312.21875 32.867188 C 312.21875 29.726563 314.765625 27.179688 317.910156 27.179688 C 321.050781 27.179688 323.597656 29.726563 323.597656 32.867188 "/>
<path style="fill-rule:nonzero;fill:rgb(38.039216%,61.176471%,100%);fill-opacity:1;stroke-width:0.708661;stroke-linecap:round;stroke-linejoin:round;stroke:rgb(38.039216%,61.176471%,100%);stroke-opacity:1;stroke-miterlimit:10;" d="M 340.785156 29.476563 C 340.785156 32.621094 338.238281 35.167969 335.09375 35.167969 C 331.953125 35.167969 329.40625 32.621094 329.40625 29.476563 C 329.40625 26.335938 331.953125 23.789063 335.09375 23.789063 C 338.238281 23.789063 340.785156 26.335938 340.785156 29.476563 "/>
</g>
</svg>
