<?xml version="1.0" encoding="UTF-8"?>
<svg xmlns="http://www.w3.org/2000/svg" xmlns:xlink="http://www.w3.org/1999/xlink" width="432pt" height="216pt" viewBox="0 0 432 216" version="1.1">
<defs>
<clipPath id="clip1">
  <path d="M 19.367188 195 L 207 195 L 207 197 L 19.367188 197 Z M 19.367188 195 "/>
</clipPath>
<clipPath id="clip2">
  <path d="M 19.367188 168 L 207 168 L 207 169 L 19.367188 169 Z M 19.367188 168 "/>
</clipPath>
<clipPath id="clip3">
  <path d="M 19.367188 140 L 207 140 L 207 142 L 19.367188 142 Z M 19.367188 140 "/>
</clipPath>
<clipPath id="clip4">
  <path d="M 19.367188 113 L 207 113 L 207 114 L 19.367188 114 Z M 19.367188 113 "/>
</clipPath>
<clipPath id="clip5">
  <path d="M 19.367188 85 L 207 85 L 207 87 L 19.367188 87 Z M 19.367188 85 "/>
</clipPath>
<clipPath id="clip6">
  <path d="M 19.367188 58 L 207 58 L 207 59 L 19.367188 59 Z M 19.367188 58 "/>
</clipPath>
<clipPath id="clip7">
  <path d="M 19.367188 30 L 207 30 L 207 32 L 19.367188 32 Z M 19.367188 30 "/>
</clipPath>
<clipPath id="clip8">
  <path d="M 19.367188 17 L 207 17 L 207 18 L 19.367188 18 Z M 19.367188 17 "/>
</clipPath>
<clipPath id="clip9">
  <path d="M 30 5.480469 L 31 5.480469 L 31 208.78125 L 30 208.78125 Z M 30 5.480469 "/>
</clipPath>
<clipPath id="clip10">
  <path d="M 57 5.480469 L 59 5.480469 L 59 208.78125 L 57 208.78125 Z M 57 5.480469 "/>
</clipPath>
<clipPath id="clip11">
  <path d="M 85 5.480469 L 86 5.480469 L 86 208.78125 L 85 208.78125 Z M 85 5.480469 "/>
</clipPath>
<clipPath id="clip12">
  <path d="M 112 5.480469 L 114 5.480469 L 114 208.78125 L 112 208.78125 Z M 112 5.480469 "/>
</clipPath>
<clipPath id="clip13">
  <path d="M 140 5.480469 L 141 5.480469 L 141 208.78125 L 140 208.78125 Z M 140 5.480469 "/>
</clipPath>
<clipPath id="clip14">
  <path d="M 167 5.480469 L 169 5.480469 L 169 208.78125 L 167 208.78125 Z M 167 5.480469 "/>
</clipPath>
<clipPath id="clip15">
  <path d="M 195 5.480469 L 196 5.480469 L 196 208.78125 L 195 208.78125 Z M 195 5.480469 "/>
</clipPath>
<clipPath id="clip16">
  <path d="M 19.367188 181 L 207.570313 181 L 207.570313 183 L 19.367188 183 Z M 19.367188 181 "/>
</clipPath>
<clipPath id="clip17">
  <path d="M 19.367188 154 L 207.570313 154 L 207.570313 156 L 19.367188 156 Z M 19.367188 154 "/>
</clipPath>
<clipPath id="clip18">
  <path d="M 19.367188 126 L 207.570313 126 L 207.570313 128 L 19.367188 128 Z M 19.367188 126 "/>
</clipPath>
<clipPath id="clip19">
  <path d="M 19.367188 99 L 207.570313 99 L 207.570313 101 L 19.367188 101 Z M 19.367188 99 "/>
</clipPath>
<clipPath id="clip20">
  <path d="M 19.367188 71 L 207.570313 71 L 207.570313 73 L 19.367188 73 Z M 19.367188 71 "/>
</clipPath>
<clipPath id="clip21">
  <path d="M 19.367188 44 L 207.570313 44 L 207.570313 46 L 19.367188 46 Z M 19.367188 44 "/>
</clipPath>
<clipPath id="clip22">
  <path d="M 43 5.480469 L 45 5.480469 L 45 208.78125 L 43 208.78125 Z M 43 5.480469 "/>
</clipPath>
<clipPath id="clip23">
  <path d="M 71 5.480469 L 73 5.480469 L 73 208.78125 L 71 208.78125 Z M 71 5.480469 "/>
</clipPath>
<clipPath id="clip24">
  <path d="M 98 5.480469 L 100 5.480469 L 100 208.78125 L 98 208.78125 Z M 98 5.480469 "/>
</clipPath>
<clipPath id="clip25">
  <path d="M 126 5.480469 L 128 5.480469 L 128 208.78125 L 126 208.78125 Z M 126 5.480469 "/>
</clipPath>
<clipPath id="clip26">
  <path d="M 153 5.480469 L 155 5.480469 L 155 208.78125 L 153 208.78125 Z M 153 5.480469 "/>
</clipPath>
<clipPath id="clip27">
  <path d="M 181 5.480469 L 183 5.480469 L 183 208.78125 L 181 208.78125 Z M 181 5.480469 "/>
</clipPath>
<clipPath id="clip28">
  <path d="M 228.167969 195 L 416 195 L 416 197 L 228.167969 197 Z M 228.167969 195 "/>
</clipPath>
<clipPath id="clip29">
  <path d="M 228.167969 168 L 416 168 L 416 169 L 228.167969 169 Z M 228.167969 168 "/>
</clipPath>
<clipPath id="clip30">
  <path d="M 228.167969 140 L 416 140 L 416 142 L 228.167969 142 Z M 228.167969 140 "/>
</clipPath>
<clipPath id="clip31">
  <path d="M 228.167969 113 L 416 113 L 416 114 L 228.167969 114 Z M 228.167969 113 "/>
</clipPath>
<clipPath id="clip32">
  <path d="M 228.167969 85 L 416 85 L 416 87 L 228.167969 87 Z M 228.167969 85 "/>
</clipPath>
<clipPath id="clip33">
  <path d="M 228.167969 58 L 416 58 L 416 59 L 228.167969 59 Z M 228.167969 58 "/>
</clipPath>
<clipPath id="clip34">
  <path d="M 228.167969 30 L 416 30 L 416 32 L 228.167969 32 Z M 228.167969 30 "/>
</clipPath>
<clipPath id="clip35">
  <path d="M 228.167969 17 L 416 17 L 416 18 L 228.167969 18 Z M 228.167969 17 "/>
</clipPath>
<clipPath id="clip36">
  <path d="M 239 5.480469 L 240 5.480469 L 240 208.78125 L 239 208.78125 Z M 239 5.480469 "/>
</clipPath>
<clipPath id="clip37">
  <path d="M 266 5.480469 L 268 5.480469 L 268 208.78125 L 266 208.78125 Z M 266 5.480469 "/>
</clipPath>
<clipPath id="clip38">
  <path d="M 294 5.480469 L 295 5.480469 L 295 208.78125 L 294 208.78125 Z M 294 5.480469 "/>
</clipPath>
<clipPath id="clip39">
  <path d="M 321 5.480469 L 323 5.480469 L 323 208.78125 L 321 208.78125 Z M 321 5.480469 "/>
</clipPath>
<clipPath id="clip40">
  <path d="M 348 5.480469 L 350 5.480469 L 350 208.78125 L 348 208.78125 Z M 348 5.480469 "/>
</clipPath>
<clipPath id="clip41">
  <path d="M 376 5.480469 L 377 5.480469 L 377 208.78125 L 376 208.78125 Z M 376 5.480469 "/>
</clipPath>
<clipPath id="clip42">
  <path d="M 403 5.480469 L 405 5.480469 L 405 208.78125 L 403 208.78125 Z M 403 5.480469 "/>
</clipPath>
<clipPath id="clip43">
  <path d="M 228.167969 181 L 416 181 L 416 183 L 228.167969 183 Z M 228.167969 181 "/>
</clipPath>
<clipPath id="clip44">
  <path d="M 228.167969 154 L 416 154 L 416 156 L 228.167969 156 Z M 228.167969 154 "/>
</clipPath>
<clipPath id="clip45">
  <path d="M 228.167969 126 L 416 126 L 416 128 L 228.167969 128 Z M 228.167969 126 "/>
</clipPath>
<clipPath id="clip46">
  <path d="M 228.167969 99 L 416 99 L 416 101 L 228.167969 101 Z M 228.167969 99 "/>
</clipPath>
<clipPath id="clip47">
  <path d="M 228.167969 71 L 416 71 L 416 73 L 228.167969 73 Z M 228.167969 71 "/>
</clipPath>
<clipPath id="clip48">
  <path d="M 228.167969 44 L 416 44 L 416 46 L 228.167969 46 Z M 228.167969 44 "/>
</clipPath>
<clipPath id="clip49">
  <path d="M 252 5.480469 L 254 5.480469 L 254 208.78125 L 252 208.78125 Z M 252 5.480469 "/>
</clipPath>
<clipPath id="clip50">
  <path d="M 280 5.480469 L 282 5.480469 L 282 208.78125 L 280 208.78125 Z M 280 5.480469 "/>
</clipPath>
<clipPath id="clip51">
  <path d="M 307 5.480469 L 309 5.480469 L 309 208.78125 L 307 208.78125 Z M 307 5.480469 "/>
</clipPath>
<clipPath id="clip52">
  <path d="M 334 5.480469 L 337 5.480469 L 337 208.78125 L 334 208.78125 Z M 334 5.480469 "/>
</clipPath>
<clipPath id="clip53">
  <path d="M 362 5.480469 L 364 5.480469 L 364 208.78125 L 362 208.78125 Z M 362 5.480469 "/>
</clipPath>
<clipPath id="clip54">
  <path d="M 389 5.480469 L 391 5.480469 L 391 208.78125 L 389 208.78125 Z M 389 5.480469 "/>
</clipPath>
</defs>
<g id="surface1">
<rect x="0" y="0" width="432" height="216" style="fill:rgb(100%,100%,100%);fill-opacity:1;stroke:none;"/>
<g clip-path="url(#clip1)" clip-rule="nonzero">
<path style="fill:none;stroke-width:0.533489;stroke-linecap:butt;stroke-linejoin:round;stroke:rgb(92.156863%,92.156863%,92.156863%);stroke-opacity:1;stroke-miterlimit:10;" d="M 19.367188 195.839844 L 206.570313 195.839844 "/>
</g>
<g clip-path="url(#clip2)" clip-rule="nonzero">
<path style="fill:none;stroke-width:0.533489;stroke-linecap:butt;stroke-linejoin:round;stroke:rgb(92.156863%,92.156863%,92.156863%);stroke-opacity:1;stroke-miterlimit:10;" d="M 19.367188 168.390625 L 206.570313 168.390625 "/>
</g>
<g clip-path="url(#clip3)" clip-rule="nonzero">
<path style="fill:none;stroke-width:0.533489;stroke-linecap:butt;stroke-linejoin:round;stroke:rgb(92.156863%,92.156863%,92.156863%);stroke-opacity:1;stroke-miterlimit:10;" d="M 19.367188 140.941406 L 206.570313 140.941406 "/>
</g>
<g clip-path="url(#clip4)" clip-rule="nonzero">
<path style="fill:none;stroke-width:0.533489;stroke-linecap:butt;stroke-linejoin:round;stroke:rgb(92.156863%,92.156863%,92.156863%);stroke-opacity:1;stroke-miterlimit:10;" d="M 19.367188 113.492188 L 206.570313 113.492188 "/>
</g>
<g clip-path="url(#clip5)" clip-rule="nonzero">
<path style="fill:none;stroke-width:0.533489;stroke-linecap:butt;stroke-linejoin:round;stroke:rgb(92.156863%,92.156863%,92.156863%);stroke-opacity:1;stroke-miterlimit:10;" d="M 19.367188 86.042969 L 206.570313 86.042969 "/>
</g>
<g clip-path="url(#clip6)" clip-rule="nonzero">
<path style="fill:none;stroke-width:0.533489;stroke-linecap:butt;stroke-linejoin:round;stroke:rgb(92.156863%,92.156863%,92.156863%);stroke-opacity:1;stroke-miterlimit:10;" d="M 19.367188 58.59375 L 206.570313 58.59375 "/>
</g>
<g clip-path="url(#clip7)" clip-rule="nonzero">
<path style="fill:none;stroke-width:0.533489;stroke-linecap:butt;stroke-linejoin:round;stroke:rgb(92.156863%,92.156863%,92.156863%);stroke-opacity:1;stroke-miterlimit:10;" d="M 19.367188 31.144531 L 206.570313 31.144531 "/>
</g>
<g clip-path="url(#clip8)" clip-rule="nonzero">
<path style="fill:none;stroke-width:0.533489;stroke-linecap:butt;stroke-linejoin:round;stroke:rgb(92.156863%,92.156863%,92.156863%);stroke-opacity:1;stroke-miterlimit:10;" d="M 19.367188 17.417969 L 206.570313 17.417969 "/>
</g>
<g clip-path="url(#clip9)" clip-rule="nonzero">
<path style="fill:none;stroke-width:0.533489;stroke-linecap:butt;stroke-linejoin:round;stroke:rgb(92.156863%,92.156863%,92.156863%);stroke-opacity:1;stroke-miterlimit:10;" d="M 30.621094 207.78125 L 30.621094 5.480469 "/>
</g>
<g clip-path="url(#clip10)" clip-rule="nonzero">
<path style="fill:none;stroke-width:0.533489;stroke-linecap:butt;stroke-linejoin:round;stroke:rgb(92.156863%,92.156863%,92.156863%);stroke-opacity:1;stroke-miterlimit:10;" d="M 58.070313 207.78125 L 58.070313 5.480469 "/>
</g>
<g clip-path="url(#clip11)" clip-rule="nonzero">
<path style="fill:none;stroke-width:0.533489;stroke-linecap:butt;stroke-linejoin:round;stroke:rgb(92.156863%,92.156863%,92.156863%);stroke-opacity:1;stroke-miterlimit:10;" d="M 85.519531 207.78125 L 85.519531 5.480469 "/>
</g>
<g clip-path="url(#clip12)" clip-rule="nonzero">
<path style="fill:none;stroke-width:0.533489;stroke-linecap:butt;stroke-linejoin:round;stroke:rgb(92.156863%,92.156863%,92.156863%);stroke-opacity:1;stroke-miterlimit:10;" d="M 112.96875 207.78125 L 112.96875 5.480469 "/>
</g>
<g clip-path="url(#clip13)" clip-rule="nonzero">
<path style="fill:none;stroke-width:0.533489;stroke-linecap:butt;stroke-linejoin:round;stroke:rgb(92.156863%,92.156863%,92.156863%);stroke-opacity:1;stroke-miterlimit:10;" d="M 140.417969 207.78125 L 140.417969 5.480469 "/>
</g>
<g clip-path="url(#clip14)" clip-rule="nonzero">
<path style="fill:none;stroke-width:0.533489;stroke-linecap:butt;stroke-linejoin:round;stroke:rgb(92.156863%,92.156863%,92.156863%);stroke-opacity:1;stroke-miterlimit:10;" d="M 167.867188 207.78125 L 167.867188 5.480469 "/>
</g>
<g clip-path="url(#clip15)" clip-rule="nonzero">
<path style="fill:none;stroke-width:0.533489;stroke-linecap:butt;stroke-linejoin:round;stroke:rgb(92.156863%,92.156863%,92.156863%);stroke-opacity:1;stroke-miterlimit:10;" d="M 195.316406 207.78125 L 195.316406 5.480469 "/>
</g>
<g clip-path="url(#clip16)" clip-rule="nonzero">
<path style="fill:none;stroke-width:1.066978;stroke-linecap:butt;stroke-linejoin:round;stroke:rgb(92.156863%,92.156863%,92.156863%);stroke-opacity:1;stroke-miterlimit:10;" d="M 19.367188 182.117188 L 206.570313 182.117188 "/>
</g>
<g clip-path="url(#clip17)" clip-rule="nonzero">
<path style="fill:none;stroke-width:1.066978;stroke-linecap:butt;stroke-linejoin:round;stroke:rgb(92.156863%,92.156863%,92.156863%);stroke-opacity:1;stroke-miterlimit:10;" d="M 19.367188 154.667969 L 206.570313 154.667969 "/>
</g>
<g clip-path="url(#clip18)" clip-rule="nonzero">
<path style="fill:none;stroke-width:1.066978;stroke-linecap:butt;stroke-linejoin:round;stroke:rgb(92.156863%,92.156863%,92.156863%);stroke-opacity:1;stroke-miterlimit:10;" d="M 19.367188 127.21875 L 206.570313 127.21875 "/>
</g>
<g clip-path="url(#clip19)" clip-rule="nonzero">
<path style="fill:none;stroke-width:1.066978;stroke-linecap:butt;stroke-linejoin:round;stroke:rgb(92.156863%,92.156863%,92.156863%);stroke-opacity:1;stroke-miterlimit:10;" d="M 19.367188 99.769531 L 206.570313 99.769531 "/>
</g>
<g clip-path="url(#clip20)" clip-rule="nonzero">
<path style="fill:none;stroke-width:1.066978;stroke-linecap:butt;stroke-linejoin:round;stroke:rgb(92.156863%,92.156863%,92.156863%);stroke-opacity:1;stroke-miterlimit:10;" d="M 19.367188 72.320313 L 206.570313 72.320313 "/>
</g>
<g clip-path="url(#clip21)" clip-rule="nonzero">
<path style="fill:none;stroke-width:1.066978;stroke-linecap:butt;stroke-linejoin:round;stroke:rgb(92.156863%,92.156863%,92.156863%);stroke-opacity:1;stroke-miterlimit:10;" d="M 19.367188 44.871094 L 206.570313 44.871094 "/>
</g>
<g clip-path="url(#clip22)" clip-rule="nonzero">
<path style="fill:none;stroke-width:1.066978;stroke-linecap:butt;stroke-linejoin:round;stroke:rgb(92.156863%,92.156863%,92.156863%);stroke-opacity:1;stroke-miterlimit:10;" d="M 44.34375 207.78125 L 44.34375 5.480469 "/>
</g>
<g clip-path="url(#clip23)" clip-rule="nonzero">
<path style="fill:none;stroke-width:1.066978;stroke-linecap:butt;stroke-linejoin:round;stroke:rgb(92.156863%,92.156863%,92.156863%);stroke-opacity:1;stroke-miterlimit:10;" d="M 71.792969 207.78125 L 71.792969 5.480469 "/>
</g>
<g clip-path="url(#clip24)" clip-rule="nonzero">
<path style="fill:none;stroke-width:1.066978;stroke-linecap:butt;stroke-linejoin:round;stroke:rgb(92.156863%,92.156863%,92.156863%);stroke-opacity:1;stroke-miterlimit:10;" d="M 99.242188 207.78125 L 99.242188 5.480469 "/>
</g>
<g clip-path="url(#clip25)" clip-rule="nonzero">
<path style="fill:none;stroke-width:1.066978;stroke-linecap:butt;stroke-linejoin:round;stroke:rgb(92.156863%,92.156863%,92.156863%);stroke-opacity:1;stroke-miterlimit:10;" d="M 126.691406 207.78125 L 126.691406 5.480469 "/>
</g>
<g clip-path="url(#clip26)" clip-rule="nonzero">
<path style="fill:none;stroke-width:1.066978;stroke-linecap:butt;stroke-linejoin:round;stroke:rgb(92.156863%,92.156863%,92.156863%);stroke-opacity:1;stroke-miterlimit:10;" d="M 154.140625 207.78125 L 154.140625 5.480469 "/>
</g>
<g clip-path="url(#clip27)" clip-rule="nonzero">
<path style="fill:none;stroke-width:1.066978;stroke-linecap:butt;stroke-linejoin:round;stroke:rgb(92.156863%,92.156863%,92.156863%);stroke-opacity:1;stroke-miterlimit:10;" d="M 181.589844 207.78125 L 181.589844 5.480469 "/>
</g>
<path style="fill:none;stroke-width:5.334892;stroke-linecap:round;stroke-linejoin:round;stroke:rgb(0%,0%,0%);stroke-opacity:1;stroke-miterlimit:10;" d="M 99.242188 140.941406 L 154.140625 113.492188 L 181.589844 168.390625 L 99.242188 182.117188 L 44.34375 113.492188 L 58.070313 58.59375 L 126.691406 31.144531 "/>
<path style="fill-rule:nonzero;fill:rgb(97.254902%,46.27451%,42.745098%);fill-opacity:1;stroke-width:0.708661;stroke-linecap:round;stroke-linejoin:round;stroke:rgb(97.254902%,46.27451%,42.745098%);stroke-opacity:1;stroke-miterlimit:10;" d="M 104.933594 140.941406 C 104.933594 144.082031 102.386719 146.632813 99.242188 146.632813 C 96.101563 146.632813 93.554688 144.082031 93.554688 140.941406 C 93.554688 137.800781 96.101563 135.253906 99.242188 135.253906 C 102.386719 135.253906 104.933594 137.800781 104.933594 140.941406 "/>
<path style="fill-rule:nonzero;fill:rgb(97.254902%,46.27451%,42.745098%);fill-opacity:1;stroke-width:0.708661;stroke-linecap:round;stroke-linejoin:round;stroke:rgb(97.254902%,46.27451%,42.745098%);stroke-opacity:1;stroke-miterlimit:10;" d="M 159.832031 113.492188 C 159.832031 116.632813 157.285156 119.183594 154.140625 119.183594 C 151 119.183594 148.453125 116.632813 148.453125 113.492188 C 148.453125 110.351563 151 107.804688 154.140625 107.804688 C 157.285156 107.804688 159.832031 110.351563 159.832031 113.492188 "/>
<path style="fill-rule:nonzero;fill:rgb(97.254902%,46.27451%,42.745098%);fill-opacity:1;stroke-width:0.708661;stroke-linecap:round;stroke-linejoin:round;stroke:rgb(97.254902%,46.27451%,42.745098%);stroke-opacity:1;stroke-miterlimit:10;" d="M 187.28125 168.390625 C 187.28125 171.53125 184.734375 174.082031 181.589844 174.082031 C 178.449219 174.082031 175.902344 171.53125 175.902344 168.390625 C 175.902344 165.25 178.449219 162.703125 181.589844 162.703125 C 184.734375 162.703125 187.28125 165.25 187.28125 168.390625 "/>
<path style="fill-rule:nonzero;fill:rgb(97.254902%,46.27451%,42.745098%);fill-opacity:1;stroke-width:0.708661;stroke-linecap:round;stroke-linejoin:round;stroke:rgb(97.254902%,46.27451%,42.745098%);stroke-opacity:1;stroke-miterlimit:10;" d="M 104.933594 182.117188 C 104.933594 185.257813 102.386719 187.804688 99.242188 187.804688 C 96.101563 187.804688 93.554688 185.257813 93.554688 182.117188 C 93.554688 178.972656 96.101563 176.425781 99.242188 176.425781 C 102.386719 176.425781 104.933594 178.972656 104.933594 182.117188 "/>
<path style="fill-rule:nonzero;fill:rgb(97.254902%,46.27451%,42.745098%);fill-opacity:1;stroke-width:0.708661;stroke-linecap:round;stroke-linejoin:round;stroke:rgb(97.254902%,46.27451%,42.745098%);stroke-opacity:1;stroke-miterlimit:10;" d="M 50.035156 113.492188 C 50.035156 116.632813 47.488281 119.183594 44.34375 119.183594 C 41.203125 119.183594 38.65625 116.632813 38.65625 113.492188 C 38.65625 110.351563 41.203125 107.804688 44.34375 107.804688 C 47.488281 107.804688 50.035156 110.351563 50.035156 113.492188 "/>
<path style="fill-rule:nonzero;fill:rgb(97.254902%,46.27451%,42.745098%);fill-opacity:1;stroke-width:0.708661;stroke-linecap:round;stroke-linejoin:round;stroke:rgb(97.254902%,46.27451%,42.745098%);stroke-opacity:1;stroke-miterlimit:10;" d="M 63.757813 58.59375 C 63.757813 61.734375 61.210938 64.28125 58.070313 64.28125 C 54.925781 64.28125 52.378906 61.734375 52.378906 58.59375 C 52.378906 55.453125 54.925781 52.90625 58.070313 52.90625 C 61.210938 52.90625 63.757813 55.453125 63.757813 58.59375 "/>
<path style="fill-rule:nonzero;fill:rgb(97.254902%,46.27451%,42.745098%);fill-opacity:1;stroke-width:0.708661;stroke-linecap:round;stroke-linejoin:round;stroke:rgb(97.254902%,46.27451%,42.745098%);stroke-opacity:1;stroke-miterlimit:10;" d="M 132.382813 31.144531 C 132.382813 34.285156 129.835938 36.832031 126.691406 36.832031 C 123.550781 36.832031 121.003906 34.285156 121.003906 31.144531 C 121.003906 28.003906 123.550781 25.457031 126.691406 25.457031 C 129.835938 25.457031 132.382813 28.003906 132.382813 31.144531 "/>
<g clip-path="url(#clip28)" clip-rule="nonzero">
<path style="fill:none;stroke-width:0.533489;stroke-linecap:butt;stroke-linejoin:round;stroke:rgb(92.156863%,92.156863%,92.156863%);stroke-opacity:1;stroke-miterlimit:10;" d="M 228.167969 195.839844 L 415.375 195.839844 "/>
</g>
<g clip-path="url(#clip29)" clip-rule="nonzero">
<path style="fill:none;stroke-width:0.533489;stroke-linecap:butt;stroke-linejoin:round;stroke:rgb(92.156863%,92.156863%,92.156863%);stroke-opacity:1;stroke-miterlimit:10;" d="M 228.167969 168.390625 L 415.375 168.390625 "/>
</g>
<g clip-path="url(#clip30)" clip-rule="nonzero">
<path style="fill:none;stroke-width:0.533489;stroke-linecap:butt;stroke-linejoin:round;stroke:rgb(92.156863%,92.156863%,92.156863%);stroke-opacity:1;stroke-miterlimit:10;" d="M 228.167969 140.941406 L 415.375 140.941406 "/>
</g>
<g clip-path="url(#clip31)" clip-rule="nonzero">
<path style="fill:none;stroke-width:0.533489;stroke-linecap:butt;stroke-linejoin:round;stroke:rgb(92.156863%,92.156863%,92.156863%);stroke-opacity:1;stroke-miterlimit:10;" d="M 228.167969 113.492188 L 415.375 113.492188 "/>
</g>
<g clip-path="url(#clip32)" clip-rule="nonzero">
<path style="fill:none;stroke-width:0.533489;stroke-linecap:butt;stroke-linejoin:round;stroke:rgb(92.156863%,92.156863%,92.156863%);stroke-opacity:1;stroke-miterlimit:10;" d="M 228.167969 86.042969 L 415.375 86.042969 "/>
</g>
<g clip-path="url(#clip33)" clip-rule="nonzero">
<path style="fill:none;stroke-width:0.533489;stroke-linecap:butt;stroke-linejoin:round;stroke:rgb(92.156863%,92.156863%,92.156863%);stroke-opacity:1;stroke-miterlimit:10;" d="M 228.167969 58.59375 L 415.375 58.59375 "/>
</g>
<g clip-path="url(#clip34)" clip-rule="nonzero">
<path style="fill:none;stroke-width:0.533489;stroke-linecap:butt;stroke-linejoin:round;stroke:rgb(92.156863%,92.156863%,92.156863%);stroke-opacity:1;stroke-miterlimit:10;" d="M 228.167969 31.144531 L 415.375 31.144531 "/>
</g>
<g clip-path="url(#clip35)" clip-rule="nonzero">
<path style="fill:none;stroke-width:0.533489;stroke-linecap:butt;stroke-linejoin:round;stroke:rgb(92.156863%,92.156863%,92.156863%);stroke-opacity:1;stroke-miterlimit:10;" d="M 228.167969 17.417969 L 415.375 17.417969 "/>
</g>
<g clip-path="url(#clip36)" clip-rule="nonzero">
<path style="fill:none;stroke-width:0.533489;stroke-linecap:butt;stroke-linejoin:round;stroke:rgb(92.156863%,92.156863%,92.156863%);stroke-opacity:1;stroke-miterlimit:10;" d="M 239.425781 207.78125 L 239.425781 5.480469 "/>
</g>
<g clip-path="url(#clip37)" clip-rule="nonzero">
<path style="fill:none;stroke-width:0.533489;stroke-linecap:butt;stroke-linejoin:round;stroke:rgb(92.156863%,92.156863%,92.156863%);stroke-opacity:1;stroke-miterlimit:10;" d="M 266.875 207.78125 L 266.875 5.480469 "/>
</g>
<g clip-path="url(#clip38)" clip-rule="nonzero">
<path style="fill:none;stroke-width:0.533489;stroke-linecap:butt;stroke-linejoin:round;stroke:rgb(92.156863%,92.156863%,92.156863%);stroke-opacity:1;stroke-miterlimit:10;" d="M 294.324219 207.78125 L 294.324219 5.480469 "/>
</g>
<g clip-path="url(#clip39)" clip-rule="nonzero">
<path style="fill:none;stroke-width:0.533489;stroke-linecap:butt;stroke-linejoin:round;stroke:rgb(92.156863%,92.156863%,92.156863%);stroke-opacity:1;stroke-miterlimit:10;" d="M 321.773438 207.78125 L 321.773438 5.480469 "/>
</g>
<g clip-path="url(#clip40)" clip-rule="nonzero">
<path style="fill:none;stroke-width:0.533489;stroke-linecap:butt;stroke-linejoin:round;stroke:rgb(92.156863%,92.156863%,92.156863%);stroke-opacity:1;stroke-miterlimit:10;" d="M 349.222656 207.78125 L 349.222656 5.480469 "/>
</g>
<g clip-path="url(#clip41)" clip-rule="nonzero">
<path style="fill:none;stroke-width:0.533489;stroke-linecap:butt;stroke-linejoin:round;stroke:rgb(92.156863%,92.156863%,92.156863%);stroke-opacity:1;stroke-miterlimit:10;" d="M 376.671875 207.78125 L 376.671875 5.480469 "/>
</g>
<g clip-path="url(#clip42)" clip-rule="nonzero">
<path style="fill:none;stroke-width:0.533489;stroke-linecap:butt;stroke-linejoin:round;stroke:rgb(92.156863%,92.156863%,92.156863%);stroke-opacity:1;stroke-miterlimit:10;" d="M 404.121094 207.78125 L 404.121094 5.480469 "/>
</g>
<g clip-path="url(#clip43)" clip-rule="nonzero">
<path style="fill:none;stroke-width:1.066978;stroke-linecap:butt;stroke-linejoin:round;stroke:rgb(92.156863%,92.156863%,92.156863%);stroke-opacity:1;stroke-miterlimit:10;" d="M 228.167969 182.117188 L 415.375 182.117188 "/>
</g>
<g clip-path="url(#clip44)" clip-rule="nonzero">
<path style="fill:none;stroke-width:1.066978;stroke-linecap:butt;stroke-linejoin:round;stroke:rgb(92.156863%,92.156863%,92.156863%);stroke-opacity:1;stroke-miterlimit:10;" d="M 228.167969 154.667969 L 415.375 154.667969 "/>
</g>
<g clip-path="url(#clip45)" clip-rule="nonzero">
<path style="fill:none;stroke-width:1.066978;stroke-linecap:butt;stroke-linejoin:round;stroke:rgb(92.156863%,92.156863%,92.156863%);stroke-opacity:1;stroke-miterlimit:10;" d="M 228.167969 127.21875 L 415.375 127.21875 "/>
</g>
<g clip-path="url(#clip46)" clip-rule="nonzero">
<path style="fill:none;stroke-width:1.066978;stroke-linecap:butt;stroke-linejoin:round;stroke:rgb(92.156863%,92.156863%,92.156863%);stroke-opacity:1;stroke-miterlimit:10;" d="M 228.167969 99.769531 L 415.375 99.769531 "/>
</g>
<g clip-path="url(#clip47)" clip-rule="nonzero">
<path style="fill:none;stroke-width:1.066978;stroke-linecap:butt;stroke-linejoin:round;stroke:rgb(92.156863%,92.156863%,92.156863%);stroke-opacity:1;stroke-miterlimit:10;" d="M 228.167969 72.320313 L 415.375 72.320313 "/>
</g>
<g clip-path="url(#clip48)" clip-rule="nonzero">
<path style="fill:none;stroke-width:1.066978;stroke-linecap:butt;stroke-linejoin:round;stroke:rgb(92.156863%,92.156863%,92.156863%);stroke-opacity:1;stroke-miterlimit:10;" d="M 228.167969 44.871094 L 415.375 44.871094 "/>
</g>
<g clip-path="url(#clip49)" clip-rule="nonzero">
<path style="fill:none;stroke-width:1.066978;stroke-linecap:butt;stroke-linejoin:round;stroke:rgb(92.156863%,92.156863%,92.156863%);stroke-opacity:1;stroke-miterlimit:10;" d="M 253.148438 207.78125 L 253.148438 5.480469 "/>
</g>
<g clip-path="url(#clip50)" clip-rule="nonzero">
<path style="fill:none;stroke-width:1.066978;stroke-linecap:butt;stroke-linejoin:round;stroke:rgb(92.156863%,92.156863%,92.156863%);stroke-opacity:1;stroke-miterlimit:10;" d="M 280.597656 207.78125 L 280.597656 5.480469 "/>
</g>
<g clip-path="url(#clip51)" clip-rule="nonzero">
<path style="fill:none;stroke-width:1.066978;stroke-linecap:butt;stroke-linejoin:round;stroke:rgb(92.156863%,92.156863%,92.156863%);stroke-opacity:1;stroke-miterlimit:10;" d="M 308.046875 207.78125 L 308.046875 5.480469 "/>
</g>
<g clip-path="url(#clip52)" clip-rule="nonzero">
<path style="fill:none;stroke-width:1.066978;stroke-linecap:butt;stroke-linejoin:round;stroke:rgb(92.156863%,92.156863%,92.156863%);stroke-opacity:1;stroke-miterlimit:10;" d="M 335.496094 207.78125 L 335.496094 5.480469 "/>
</g>
<g clip-path="url(#clip53)" clip-rule="nonzero">
<path style="fill:none;stroke-width:1.066978;stroke-linecap:butt;stroke-linejoin:round;stroke:rgb(92.156863%,92.156863%,92.156863%);stroke-opacity:1;stroke-miterlimit:10;" d="M 362.945313 207.78125 L 362.945313 5.480469 "/>
</g>
<g clip-path="url(#clip54)" clip-rule="nonzero">
<path style="fill:none;stroke-width:1.066978;stroke-linecap:butt;stroke-linejoin:round;stroke:rgb(92.156863%,92.156863%,92.156863%);stroke-opacity:1;stroke-miterlimit:10;" d="M 390.394531 207.78125 L 390.394531 5.480469 "/>
</g>
<path style="fill:none;stroke-width:5.334892;stroke-linecap:round;stroke-linejoin:round;stroke:rgb(0%,0%,0%);stroke-opacity:1;stroke-miterlimit:10;" d="M 308.046875 140.941406 L 317.664063 127.378906 L 330.007813 116.238281 L 346.324219 113.050781 L 362.945313 113.492188 L 377.421875 122.429688 L 389.265625 134.644531 L 392.824219 151.417969 L 390.394531 168.390625 L 372.722656 182.242188 L 351.699219 190.128906 L 329.578125 187.738281 L 308.046875 182.117188 L 290.617188 168.132813 L 274.378906 152.777344 L 262.871094 133.617188 L 253.148438 113.492188 L 253.746094 99.160156 L 255.574219 84.933594 L 260.597656 71.496094 L 266.875 58.59375 L 282.425781 48.117188 L 298.910156 39.179688 L 317.117188 34.769531 L 335.496094 31.144531 "/>
<path style="fill-rule:nonzero;fill:rgb(38.039216%,61.176471%,100%);fill-opacity:1;stroke-width:0.708661;stroke-linecap:round;stroke-linejoin:round;stroke:rgb(38.039216%,61.176471%,100%);stroke-opacity:1;stroke-miterlimit:10;" d="M 313.738281 140.941406 C 313.738281 144.082031 311.1875 146.632813 308.046875 146.632813 C 304.90625 146.632813 302.359375 144.082031 302.359375 140.941406 C 302.359375 137.800781 304.90625 135.253906 308.046875 135.253906 C 311.1875 135.253906 313.738281 137.800781 313.738281 140.941406 "/>
<path style="fill-rule:nonzero;fill:rgb(38.039216%,61.176471%,100%);fill-opacity:1;stroke-width:0.708661;stroke-linecap:round;stroke-linejoin:round;stroke:rgb(38.039216%,61.176471%,100%);stroke-opacity:1;stroke-miterlimit:10;" d="M 323.351563 127.378906 C 323.351563 130.519531 320.804688 133.066406 317.664063 133.066406 C 314.523438 133.066406 311.976563 130.519531 311.976563 127.378906 C 311.976563 124.234375 314.523438 121.6875 317.664063 121.6875 C 320.804688 121.6875 323.351563 124.234375 323.351563 127.378906 "/>
<path style="fill-rule:nonzero;fill:rgb(38.039216%,61.176471%,100%);fill-opacity:1;stroke-width:0.708661;stroke-linecap:round;stroke-linejoin:round;stroke:rgb(38.039216%,61.176471%,100%);stroke-opacity:1;stroke-miterlimit:10;" d="M 335.695313 116.238281 C 335.695313 119.378906 333.148438 121.925781 330.007813 121.925781 C 326.863281 121.925781 324.316406 119.378906 324.316406 116.238281 C 324.316406 113.09375 326.863281 110.546875 330.007813 110.546875 C 333.148438 110.546875 335.695313 113.09375 335.695313 116.238281 "/>
<path style="fill-rule:nonzero;fill:rgb(38.039216%,61.176471%,100%);fill-opacity:1;stroke-width:0.708661;stroke-linecap:round;stroke-linejoin:round;stroke:rgb(38.039216%,61.176471%,100%);stroke-opacity:1;stroke-miterlimit:10;" d="M 352.015625 113.050781 C 352.015625 116.191406 349.46875 118.738281 346.324219 118.738281 C 343.183594 118.738281 340.636719 116.191406 340.636719 113.050781 C 340.636719 109.90625 343.183594 107.359375 346.324219 107.359375 C 349.46875 107.359375 352.015625 109.90625 352.015625 113.050781 "/>
<path style="fill-rule:nonzero;fill:rgb(38.039216%,61.176471%,100%);fill-opacity:1;stroke-width:0.708661;stroke-linecap:round;stroke-linejoin:round;stroke:rgb(38.039216%,61.176471%,100%);stroke-opacity:1;stroke-miterlimit:10;" d="M 368.636719 113.492188 C 368.636719 116.632813 366.089844 119.183594 362.945313 119.183594 C 359.804688 119.183594 357.257813 116.632813 357.257813 113.492188 C 357.257813 110.351563 359.804688 107.804688 362.945313 107.804688 C 366.089844 107.804688 368.636719 110.351563 368.636719 113.492188 "/>
<path style="fill-rule:nonzero;fill:rgb(38.039216%,61.176471%,100%);fill-opacity:1;stroke-width:0.708661;stroke-linecap:round;stroke-linejoin:round;stroke:rgb(38.039216%,61.176471%,100%);stroke-opacity:1;stroke-miterlimit:10;" d="M 383.113281 122.429688 C 383.113281 125.570313 380.566406 128.117188 377.421875 128.117188 C 374.28125 128.117188 371.734375 125.570313 371.734375 122.429688 C 371.734375 119.285156 374.28125 116.738281 377.421875 116.738281 C 380.566406 116.738281 383.113281 119.285156 383.113281 122.429688 "/>
<path style="fill-rule:nonzero;fill:rgb(38.039216%,61.176471%,100%);fill-opacity:1;stroke-width:0.708661;stroke-linecap:round;stroke-linejoin:round;stroke:rgb(38.039216%,61.176471%,100%);stroke-opacity:1;stroke-miterlimit:10;" d="M 394.953125 134.644531 C 394.953125 137.785156 392.40625 140.332031 389.265625 140.332031 C 386.121094 140.332031 383.574219 137.785156 383.574219 134.644531 C 383.574219 131.503906 386.121094 128.957031 389.265625 128.957031 C 392.40625 128.957031 394.953125 131.503906 394.953125 134.644531 "/>
<path style="fill-rule:nonzero;fill:rgb(38.039216%,61.176471%,100%);fill-opacity:1;stroke-width:0.708661;stroke-linecap:round;stroke-linejoin:round;stroke:rgb(38.039216%,61.176471%,100%);stroke-opacity:1;stroke-miterlimit:10;" d="M 398.515625 151.417969 C 398.515625 154.558594 395.96875 157.105469 392.824219 157.105469 C 389.683594 157.105469 387.136719 154.558594 387.136719 151.417969 C 387.136719 148.277344 389.683594 145.726563 392.824219 145.726563 C 395.96875 145.726563 398.515625 148.277344 398.515625 151.417969 "/>
<path style="fill-rule:nonzero;fill:rgb(38.039216%,61.176471%,100%);fill-opacity:1;stroke-width:0.708661;stroke-linecap:round;stroke-linejoin:round;stroke:rgb(38.039216%,61.176471%,100%);stroke-opacity:1;stroke-miterlimit:10;" d="M 396.085938 168.390625 C 396.085938 171.53125 393.539063 174.082031 390.394531 174.082031 C 387.253906 174.082031 384.707031 171.53125 384.707031 168.390625 C 384.707031 165.25 387.253906 162.703125 390.394531 162.703125 C 393.539063 162.703125 396.085938 165.25 396.085938 168.390625 "/>
<path style="fill-rule:nonzero;fill:rgb(38.039216%,61.176471%,100%);fill-opacity:1;stroke-width:0.708661;stroke-linecap:round;stroke-linejoin:round;stroke:rgb(38.039216%,61.176471%,100%);stroke-opacity:1;stroke-miterlimit:10;" d="M 378.410156 182.242188 C 378.410156 185.382813 375.863281 187.929688 372.722656 187.929688 C 369.582031 187.929688 367.035156 185.382813 367.035156 182.242188 C 367.035156 179.097656 369.582031 176.550781 372.722656 176.550781 C 375.863281 176.550781 378.410156 179.097656 378.410156 182.242188 "/>
<path style="fill-rule:nonzero;fill:rgb(38.039216%,61.176471%,100%);fill-opacity:1;stroke-width:0.708661;stroke-linecap:round;stroke-linejoin:round;stroke:rgb(38.039216%,61.176471%,100%);stroke-opacity:1;stroke-miterlimit:10;" d="M 357.390625 190.128906 C 357.390625 193.269531 354.84375 195.816406 351.699219 195.816406 C 348.558594 195.816406 346.011719 193.269531 346.011719 190.128906 C 346.011719 186.984375 348.558594 184.4375 351.699219 184.4375 C 354.84375 184.4375 357.390625 186.984375 357.390625 190.128906 "/>
<path style="fill-rule:nonzero;fill:rgb(38.039216%,61.176471%,100%);fill-opacity:1;stroke-width:0.708661;stroke-linecap:round;stroke-linejoin:round;stroke:rgb(38.039216%,61.176471%,100%);stroke-opacity:1;stroke-miterlimit:10;" d="M 335.265625 187.738281 C 335.265625 190.882813 332.71875 193.429688 329.578125 193.429688 C 326.433594 193.429688 323.886719 190.882813 323.886719 187.738281 C 323.886719 184.597656 326.433594 182.050781 329.578125 182.050781 C 332.71875 182.050781 335.265625 184.597656 335.265625 187.738281 "/>
<path style="fill-rule:nonzero;fill:rgb(38.039216%,61.176471%,100%);fill-opacity:1;stroke-width:0.708661;stroke-linecap:round;stroke-linejoin:round;stroke:rgb(38.039216%,61.176471%,100%);stroke-opacity:1;stroke-miterlimit:10;" d="M 313.738281 182.117188 C 313.738281 185.257813 311.1875 187.804688 308.046875 187.804688 C 304.90625 187.804688 302.359375 185.257813 302.359375 182.117188 C 302.359375 178.972656 304.90625 176.425781 308.046875 176.425781 C 311.1875 176.425781 313.738281 178.972656 313.738281 182.117188 "/>
<path style="fill-rule:nonzero;fill:rgb(38.039216%,61.176471%,100%);fill-opacity:1;stroke-width:0.708661;stroke-linecap:round;stroke-linejoin:round;stroke:rgb(38.039216%,61.176471%,100%);stroke-opacity:1;stroke-miterlimit:10;" d="M 296.304688 168.132813 C 296.304688 171.273438 293.757813 173.820313 290.617188 173.820313 C 287.476563 173.820313 284.925781 171.273438 284.925781 168.132813 C 284.925781 164.988281 287.476563 162.441406 290.617188 162.441406 C 293.757813 162.441406 296.304688 164.988281 296.304688 168.132813 "/>
<path style="fill-rule:nonzero;fill:rgb(38.039216%,61.176471%,100%);fill-opacity:1;stroke-width:0.708661;stroke-linecap:round;stroke-linejoin:round;stroke:rgb(38.039216%,61.176471%,100%);stroke-opacity:1;stroke-miterlimit:10;" d="M 280.070313 152.777344 C 280.070313 155.921875 277.523438 158.46875 274.378906 158.46875 C 271.238281 158.46875 268.691406 155.921875 268.691406 152.777344 C 268.691406 149.636719 271.238281 147.089844 274.378906 147.089844 C 277.523438 147.089844 280.070313 149.636719 280.070313 152.777344 "/>
<path style="fill-rule:nonzero;fill:rgb(38.039216%,61.176471%,100%);fill-opacity:1;stroke-width:0.708661;stroke-linecap:round;stroke-linejoin:round;stroke:rgb(38.039216%,61.176471%,100%);stroke-opacity:1;stroke-miterlimit:10;" d="M 268.5625 133.617188 C 268.5625 136.761719 266.015625 139.308594 262.871094 139.308594 C 259.730469 139.308594 257.183594 136.761719 257.183594 133.617188 C 257.183594 130.476563 259.730469 127.929688 262.871094 127.929688 C 266.015625 127.929688 268.5625 130.476563 268.5625 133.617188 "/>
<path style="fill-rule:nonzero;fill:rgb(38.039216%,61.176471%,100%);fill-opacity:1;stroke-width:0.708661;stroke-linecap:round;stroke-linejoin:round;stroke:rgb(38.039216%,61.176471%,100%);stroke-opacity:1;stroke-miterlimit:10;" d="M 258.839844 113.492188 C 258.839844 116.632813 256.289063 119.183594 253.148438 119.183594 C 250.007813 119.183594 247.460938 116.632813 247.460938 113.492188 C 247.460938 110.351563 250.007813 107.804688 253.148438 107.804688 C 256.289063 107.804688 258.839844 110.351563 258.839844 113.492188 "/>
<path style="fill-rule:nonzero;fill:rgb(38.039216%,61.176471%,100%);fill-opacity:1;stroke-width:0.708661;stroke-linecap:round;stroke-linejoin:round;stroke:rgb(38.039216%,61.176471%,100%);stroke-opacity:1;stroke-miterlimit:10;" d="M 259.4375 99.160156 C 259.4375 102.304688 256.890625 104.851563 253.746094 104.851563 C 250.605469 104.851563 248.058594 102.304688 248.058594 99.160156 C 248.058594 96.019531 250.605469 93.472656 253.746094 93.472656 C 256.890625 93.472656 259.4375 96.019531 259.4375 99.160156 "/>
<path style="fill-rule:nonzero;fill:rgb(38.039216%,61.176471%,100%);fill-opacity:1;stroke-width:0.708661;stroke-linecap:round;stroke-linejoin:round;stroke:rgb(38.039216%,61.176471%,100%);stroke-opacity:1;stroke-miterlimit:10;" d="M 261.261719 84.933594 C 261.261719 88.074219 258.714844 90.621094 255.574219 90.621094 C 252.429688 90.621094 249.882813 88.074219 249.882813 84.933594 C 249.882813 81.792969 252.429688 79.246094 255.574219 79.246094 C 258.714844 79.246094 261.261719 81.792969 261.261719 84.933594 "/>
<path style="fill-rule:nonzero;fill:rgb(38.039216%,61.176471%,100%);fill-opacity:1;stroke-width:0.708661;stroke-linecap:round;stroke-linejoin:round;stroke:rgb(38.039216%,61.176471%,100%);stroke-opacity:1;stroke-miterlimit:10;" d="M 266.285156 71.496094 C 266.285156 74.636719 263.738281 77.183594 260.597656 77.183594 C 257.457031 77.183594 254.910156 74.636719 254.910156 71.496094 C 254.910156 68.351563 257.457031 65.804688 260.597656 65.804688 C 263.738281 65.804688 266.285156 68.351563 266.285156 71.496094 "/>
<path style="fill-rule:nonzero;fill:rgb(38.039216%,61.176471%,100%);fill-opacity:1;stroke-width:0.708661;stroke-linecap:round;stroke-linejoin:round;stroke:rgb(38.039216%,61.176471%,100%);stroke-opacity:1;stroke-miterlimit:10;" d="M 272.5625 58.59375 C 272.5625 61.734375 270.015625 64.28125 266.875 64.28125 C 263.730469 64.28125 261.183594 61.734375 261.183594 58.59375 C 261.183594 55.453125 263.730469 52.90625 266.875 52.90625 C 270.015625 52.90625 272.5625 55.453125 272.5625 58.59375 "/>
<path style="fill-rule:nonzero;fill:rgb(38.039216%,61.176471%,100%);fill-opacity:1;stroke-width:0.708661;stroke-linecap:round;stroke-linejoin:round;stroke:rgb(38.039216%,61.176471%,100%);stroke-opacity:1;stroke-miterlimit:10;" d="M 288.113281 48.117188 C 288.113281 51.261719 285.566406 53.808594 282.425781 53.808594 C 279.285156 53.808594 276.734375 51.261719 276.734375 48.117188 C 276.734375 44.976563 279.285156 42.429688 282.425781 42.429688 C 285.566406 42.429688 288.113281 44.976563 288.113281 48.117188 "/>
<path style="fill-rule:nonzero;fill:rgb(38.039216%,61.176471%,100%);fill-opacity:1;stroke-width:0.708661;stroke-linecap:round;stroke-linejoin:round;stroke:rgb(38.039216%,61.176471%,100%);stroke-opacity:1;stroke-miterlimit:10;" d="M 304.597656 39.179688 C 304.597656 42.324219 302.050781 44.871094 298.910156 44.871094 C 295.765625 44.871094 293.21875 42.324219 293.21875 39.179688 C 293.21875 36.039063 295.765625 33.492188 298.910156 33.492188 C 302.050781 33.492188 304.597656 36.039063 304.597656 39.179688 "/>
<path style="fill-rule:nonzero;fill:rgb(38.039216%,61.176471%,100%);fill-opacity:1;stroke-width:0.708661;stroke-linecap:round;stroke-linejoin:round;stroke:rgb(38.039216%,61.176471%,100%);stroke-opacity:1;stroke-miterlimit:10;" d="M 322.804688 34.769531 C 322.804688 37.914063 320.257813 40.460938 317.117188 40.460938 C 313.976563 40.460938 311.429688 37.914063 311.429688 34.769531 C 311.429688 31.628906 313.976563 29.082031 317.117188 29.082031 C 320.257813 29.082031 322.804688 31.628906 322.804688 34.769531 "/>
<path style="fill-rule:nonzero;fill:rgb(38.039216%,61.176471%,100%);fill-opacity:1;stroke-width:0.708661;stroke-linecap:round;stroke-linejoin:round;stroke:rgb(38.039216%,61.176471%,100%);stroke-opacity:1;stroke-miterlimit:10;" d="M 341.1875 31.144531 C 341.1875 34.285156 338.640625 36.832031 335.496094 36.832031 C 332.355469 36.832031 329.808594 34.285156 329.808594 31.144531 C 329.808594 28.003906 332.355469 25.457031 335.496094 25.457031 C 338.640625 25.457031 341.1875 28.003906 341.1875 31.144531 "/>
</g>
</svg>
