<?xml version="1.0" encoding="UTF-8"?>
<svg xmlns="http://www.w3.org/2000/svg" xmlns:xlink="http://www.w3.org/1999/xlink" width="432pt" height="216pt" viewBox="0 0 432 216" version="1.1">
<defs>
<clipPath id="clip1">
  <path d="M 34.492188 183 L 210 183 L 210 184 L 34.492188 184 Z M 34.492188 183 "/>
</clipPath>
<clipPath id="clip2">
  <path d="M 34.492188 157 L 210 157 L 210 159 L 34.492188 159 Z M 34.492188 157 "/>
</clipPath>
<clipPath id="clip3">
  <path d="M 34.492188 131 L 210 131 L 210 133 L 34.492188 133 Z M 34.492188 131 "/>
</clipPath>
<clipPath id="clip4">
  <path d="M 34.492188 106 L 210 106 L 210 107 L 34.492188 107 Z M 34.492188 106 "/>
</clipPath>
<clipPath id="clip5">
  <path d="M 34.492188 80 L 210 80 L 210 82 L 34.492188 82 Z M 34.492188 80 "/>
</clipPath>
<clipPath id="clip6">
  <path d="M 34.492188 54 L 210 54 L 210 56 L 34.492188 56 Z M 34.492188 54 "/>
</clipPath>
<clipPath id="clip7">
  <path d="M 34.492188 29 L 210 29 L 210 30 L 34.492188 30 Z M 34.492188 29 "/>
</clipPath>
<clipPath id="clip8">
  <path d="M 34.492188 16 L 210 16 L 210 17 L 34.492188 17 Z M 34.492188 16 "/>
</clipPath>
<clipPath id="clip9">
  <path d="M 44 5.480469 L 46 5.480469 L 46 195 L 44 195 Z M 44 5.480469 "/>
</clipPath>
<clipPath id="clip10">
  <path d="M 70 5.480469 L 71 5.480469 L 71 195 L 70 195 Z M 70 5.480469 "/>
</clipPath>
<clipPath id="clip11">
  <path d="M 96 5.480469 L 97 5.480469 L 97 195 L 96 195 Z M 96 5.480469 "/>
</clipPath>
<clipPath id="clip12">
  <path d="M 121 5.480469 L 123 5.480469 L 123 195 L 121 195 Z M 121 5.480469 "/>
</clipPath>
<clipPath id="clip13">
  <path d="M 147 5.480469 L 148 5.480469 L 148 195 L 147 195 Z M 147 5.480469 "/>
</clipPath>
<clipPath id="clip14">
  <path d="M 173 5.480469 L 174 5.480469 L 174 195 L 173 195 Z M 173 5.480469 "/>
</clipPath>
<clipPath id="clip15">
  <path d="M 198 5.480469 L 200 5.480469 L 200 195 L 198 195 Z M 198 5.480469 "/>
</clipPath>
<clipPath id="clip16">
  <path d="M 34.492188 170 L 210.539063 170 L 210.539063 172 L 34.492188 172 Z M 34.492188 170 "/>
</clipPath>
<clipPath id="clip17">
  <path d="M 34.492188 144 L 210.539063 144 L 210.539063 146 L 34.492188 146 Z M 34.492188 144 "/>
</clipPath>
<clipPath id="clip18">
  <path d="M 34.492188 118 L 210.539063 118 L 210.539063 120 L 34.492188 120 Z M 34.492188 118 "/>
</clipPath>
<clipPath id="clip19">
  <path d="M 34.492188 93 L 210.539063 93 L 210.539063 95 L 34.492188 95 Z M 34.492188 93 "/>
</clipPath>
<clipPath id="clip20">
  <path d="M 34.492188 67 L 210.539063 67 L 210.539063 69 L 34.492188 69 Z M 34.492188 67 "/>
</clipPath>
<clipPath id="clip21">
  <path d="M 34.492188 41 L 210.539063 41 L 210.539063 43 L 34.492188 43 Z M 34.492188 41 "/>
</clipPath>
<clipPath id="clip22">
  <path d="M 57 5.480469 L 59 5.480469 L 59 195.644531 L 57 195.644531 Z M 57 5.480469 "/>
</clipPath>
<clipPath id="clip23">
  <path d="M 82 5.480469 L 85 5.480469 L 85 195.644531 L 82 195.644531 Z M 82 5.480469 "/>
</clipPath>
<clipPath id="clip24">
  <path d="M 108 5.480469 L 110 5.480469 L 110 195.644531 L 108 195.644531 Z M 108 5.480469 "/>
</clipPath>
<clipPath id="clip25">
  <path d="M 134 5.480469 L 136 5.480469 L 136 195.644531 L 134 195.644531 Z M 134 5.480469 "/>
</clipPath>
<clipPath id="clip26">
  <path d="M 159 5.480469 L 162 5.480469 L 162 195.644531 L 159 195.644531 Z M 159 5.480469 "/>
</clipPath>
<clipPath id="clip27">
  <path d="M 185 5.480469 L 187 5.480469 L 187 195.644531 L 185 195.644531 Z M 185 5.480469 "/>
</clipPath>
<clipPath id="clip28">
  <path d="M 238.339844 183 L 414 183 L 414 184 L 238.339844 184 Z M 238.339844 183 "/>
</clipPath>
<clipPath id="clip29">
  <path d="M 238.339844 157 L 414 157 L 414 159 L 238.339844 159 Z M 238.339844 157 "/>
</clipPath>
<clipPath id="clip30">
  <path d="M 238.339844 131 L 414 131 L 414 133 L 238.339844 133 Z M 238.339844 131 "/>
</clipPath>
<clipPath id="clip31">
  <path d="M 238.339844 106 L 414 106 L 414 107 L 238.339844 107 Z M 238.339844 106 "/>
</clipPath>
<clipPath id="clip32">
  <path d="M 238.339844 80 L 414 80 L 414 82 L 238.339844 82 Z M 238.339844 80 "/>
</clipPath>
<clipPath id="clip33">
  <path d="M 238.339844 54 L 414 54 L 414 56 L 238.339844 56 Z M 238.339844 54 "/>
</clipPath>
<clipPath id="clip34">
  <path d="M 238.339844 29 L 414 29 L 414 30 L 238.339844 30 Z M 238.339844 29 "/>
</clipPath>
<clipPath id="clip35">
  <path d="M 238.339844 16 L 414 16 L 414 17 L 238.339844 17 Z M 238.339844 16 "/>
</clipPath>
<clipPath id="clip36">
  <path d="M 248 5.480469 L 250 5.480469 L 250 195 L 248 195 Z M 248 5.480469 "/>
</clipPath>
<clipPath id="clip37">
  <path d="M 274 5.480469 L 275 5.480469 L 275 195 L 274 195 Z M 274 5.480469 "/>
</clipPath>
<clipPath id="clip38">
  <path d="M 299 5.480469 L 301 5.480469 L 301 195 L 299 195 Z M 299 5.480469 "/>
</clipPath>
<clipPath id="clip39">
  <path d="M 325 5.480469 L 327 5.480469 L 327 195 L 325 195 Z M 325 5.480469 "/>
</clipPath>
<clipPath id="clip40">
  <path d="M 351 5.480469 L 352 5.480469 L 352 195 L 351 195 Z M 351 5.480469 "/>
</clipPath>
<clipPath id="clip41">
  <path d="M 376 5.480469 L 378 5.480469 L 378 195 L 376 195 Z M 376 5.480469 "/>
</clipPath>
<clipPath id="clip42">
  <path d="M 402 5.480469 L 404 5.480469 L 404 195 L 402 195 Z M 402 5.480469 "/>
</clipPath>
<clipPath id="clip43">
  <path d="M 238.339844 170 L 414 170 L 414 172 L 238.339844 172 Z M 238.339844 170 "/>
</clipPath>
<clipPath id="clip44">
  <path d="M 238.339844 144 L 414 144 L 414 146 L 238.339844 146 Z M 238.339844 144 "/>
</clipPath>
<clipPath id="clip45">
  <path d="M 238.339844 118 L 414 118 L 414 120 L 238.339844 120 Z M 238.339844 118 "/>
</clipPath>
<clipPath id="clip46">
  <path d="M 238.339844 93 L 414 93 L 414 95 L 238.339844 95 Z M 238.339844 93 "/>
</clipPath>
<clipPath id="clip47">
  <path d="M 238.339844 67 L 414 67 L 414 69 L 238.339844 69 Z M 238.339844 67 "/>
</clipPath>
<clipPath id="clip48">
  <path d="M 238.339844 41 L 414 41 L 414 43 L 238.339844 43 Z M 238.339844 41 "/>
</clipPath>
<clipPath id="clip49">
  <path d="M 261 5.480469 L 263 5.480469 L 263 195.644531 L 261 195.644531 Z M 261 5.480469 "/>
</clipPath>
<clipPath id="clip50">
  <path d="M 286 5.480469 L 288 5.480469 L 288 195.644531 L 286 195.644531 Z M 286 5.480469 "/>
</clipPath>
<clipPath id="clip51">
  <path d="M 312 5.480469 L 314 5.480469 L 314 195.644531 L 312 195.644531 Z M 312 5.480469 "/>
</clipPath>
<clipPath id="clip52">
  <path d="M 338 5.480469 L 340 5.480469 L 340 195.644531 L 338 195.644531 Z M 338 5.480469 "/>
</clipPath>
<clipPath id="clip53">
  <path d="M 363 5.480469 L 365 5.480469 L 365 195.644531 L 363 195.644531 Z M 363 5.480469 "/>
</clipPath>
<clipPath id="clip54">
  <path d="M 389 5.480469 L 391 5.480469 L 391 195.644531 L 389 195.644531 Z M 389 5.480469 "/>
</clipPath>
</defs>
<g id="surface31">
<rect x="0" y="0" width="432" height="216" style="fill:rgb(100%,100%,100%);fill-opacity:1;stroke:none;"/>
<g clip-path="url(#clip1)" clip-rule="nonzero">
<path style="fill:none;stroke-width:0.533489;stroke-linecap:butt;stroke-linejoin:round;stroke:rgb(92.156863%,92.156863%,92.156863%);stroke-opacity:1;stroke-miterlimit:10;" d="M 34.492188 183.476563 L 209.539063 183.476563 "/>
</g>
<g clip-path="url(#clip2)" clip-rule="nonzero">
<path style="fill:none;stroke-width:0.533489;stroke-linecap:butt;stroke-linejoin:round;stroke:rgb(92.156863%,92.156863%,92.156863%);stroke-opacity:1;stroke-miterlimit:10;" d="M 34.492188 157.808594 L 209.539063 157.808594 "/>
</g>
<g clip-path="url(#clip3)" clip-rule="nonzero">
<path style="fill:none;stroke-width:0.533489;stroke-linecap:butt;stroke-linejoin:round;stroke:rgb(92.156863%,92.156863%,92.156863%);stroke-opacity:1;stroke-miterlimit:10;" d="M 34.492188 132.144531 L 209.539063 132.144531 "/>
</g>
<g clip-path="url(#clip4)" clip-rule="nonzero">
<path style="fill:none;stroke-width:0.533489;stroke-linecap:butt;stroke-linejoin:round;stroke:rgb(92.156863%,92.156863%,92.156863%);stroke-opacity:1;stroke-miterlimit:10;" d="M 34.492188 106.476563 L 209.539063 106.476563 "/>
</g>
<g clip-path="url(#clip5)" clip-rule="nonzero">
<path style="fill:none;stroke-width:0.533489;stroke-linecap:butt;stroke-linejoin:round;stroke:rgb(92.156863%,92.156863%,92.156863%);stroke-opacity:1;stroke-miterlimit:10;" d="M 34.492188 80.8125 L 209.539063 80.8125 "/>
</g>
<g clip-path="url(#clip6)" clip-rule="nonzero">
<path style="fill:none;stroke-width:0.533489;stroke-linecap:butt;stroke-linejoin:round;stroke:rgb(92.156863%,92.156863%,92.156863%);stroke-opacity:1;stroke-miterlimit:10;" d="M 34.492188 55.144531 L 209.539063 55.144531 "/>
</g>
<g clip-path="url(#clip7)" clip-rule="nonzero">
<path style="fill:none;stroke-width:0.533489;stroke-linecap:butt;stroke-linejoin:round;stroke:rgb(92.156863%,92.156863%,92.156863%);stroke-opacity:1;stroke-miterlimit:10;" d="M 34.492188 29.476563 L 209.539063 29.476563 "/>
</g>
<g clip-path="url(#clip8)" clip-rule="nonzero">
<path style="fill:none;stroke-width:0.533489;stroke-linecap:butt;stroke-linejoin:round;stroke:rgb(92.156863%,92.156863%,92.156863%);stroke-opacity:1;stroke-miterlimit:10;" d="M 34.492188 16.644531 L 209.539063 16.644531 "/>
</g>
<g clip-path="url(#clip9)" clip-rule="nonzero">
<path style="fill:none;stroke-width:0.533489;stroke-linecap:butt;stroke-linejoin:round;stroke:rgb(92.156863%,92.156863%,92.156863%);stroke-opacity:1;stroke-miterlimit:10;" d="M 45.015625 194.640625 L 45.015625 5.480469 "/>
</g>
<g clip-path="url(#clip10)" clip-rule="nonzero">
<path style="fill:none;stroke-width:0.533489;stroke-linecap:butt;stroke-linejoin:round;stroke:rgb(92.156863%,92.156863%,92.156863%);stroke-opacity:1;stroke-miterlimit:10;" d="M 70.683594 194.640625 L 70.683594 5.480469 "/>
</g>
<g clip-path="url(#clip11)" clip-rule="nonzero">
<path style="fill:none;stroke-width:0.533489;stroke-linecap:butt;stroke-linejoin:round;stroke:rgb(92.156863%,92.156863%,92.156863%);stroke-opacity:1;stroke-miterlimit:10;" d="M 96.351563 194.640625 L 96.351563 5.480469 "/>
</g>
<g clip-path="url(#clip12)" clip-rule="nonzero">
<path style="fill:none;stroke-width:0.533489;stroke-linecap:butt;stroke-linejoin:round;stroke:rgb(92.156863%,92.156863%,92.156863%);stroke-opacity:1;stroke-miterlimit:10;" d="M 122.015625 194.640625 L 122.015625 5.480469 "/>
</g>
<g clip-path="url(#clip13)" clip-rule="nonzero">
<path style="fill:none;stroke-width:0.533489;stroke-linecap:butt;stroke-linejoin:round;stroke:rgb(92.156863%,92.156863%,92.156863%);stroke-opacity:1;stroke-miterlimit:10;" d="M 147.683594 194.640625 L 147.683594 5.480469 "/>
</g>
<g clip-path="url(#clip14)" clip-rule="nonzero">
<path style="fill:none;stroke-width:0.533489;stroke-linecap:butt;stroke-linejoin:round;stroke:rgb(92.156863%,92.156863%,92.156863%);stroke-opacity:1;stroke-miterlimit:10;" d="M 173.351563 194.640625 L 173.351563 5.480469 "/>
</g>
<g clip-path="url(#clip15)" clip-rule="nonzero">
<path style="fill:none;stroke-width:0.533489;stroke-linecap:butt;stroke-linejoin:round;stroke:rgb(92.156863%,92.156863%,92.156863%);stroke-opacity:1;stroke-miterlimit:10;" d="M 199.015625 194.640625 L 199.015625 5.480469 "/>
</g>
<g clip-path="url(#clip16)" clip-rule="nonzero">
<path style="fill:none;stroke-width:1.066978;stroke-linecap:butt;stroke-linejoin:round;stroke:rgb(92.156863%,92.156863%,92.156863%);stroke-opacity:1;stroke-miterlimit:10;" d="M 34.492188 170.644531 L 209.539063 170.644531 "/>
</g>
<g clip-path="url(#clip17)" clip-rule="nonzero">
<path style="fill:none;stroke-width:1.066978;stroke-linecap:butt;stroke-linejoin:round;stroke:rgb(92.156863%,92.156863%,92.156863%);stroke-opacity:1;stroke-miterlimit:10;" d="M 34.492188 144.976563 L 209.539063 144.976563 "/>
</g>
<g clip-path="url(#clip18)" clip-rule="nonzero">
<path style="fill:none;stroke-width:1.066978;stroke-linecap:butt;stroke-linejoin:round;stroke:rgb(92.156863%,92.156863%,92.156863%);stroke-opacity:1;stroke-miterlimit:10;" d="M 34.492188 119.308594 L 209.539063 119.308594 "/>
</g>
<g clip-path="url(#clip19)" clip-rule="nonzero">
<path style="fill:none;stroke-width:1.066978;stroke-linecap:butt;stroke-linejoin:round;stroke:rgb(92.156863%,92.156863%,92.156863%);stroke-opacity:1;stroke-miterlimit:10;" d="M 34.492188 93.644531 L 209.539063 93.644531 "/>
</g>
<g clip-path="url(#clip20)" clip-rule="nonzero">
<path style="fill:none;stroke-width:1.066978;stroke-linecap:butt;stroke-linejoin:round;stroke:rgb(92.156863%,92.156863%,92.156863%);stroke-opacity:1;stroke-miterlimit:10;" d="M 34.492188 67.976563 L 209.539063 67.976563 "/>
</g>
<g clip-path="url(#clip21)" clip-rule="nonzero">
<path style="fill:none;stroke-width:1.066978;stroke-linecap:butt;stroke-linejoin:round;stroke:rgb(92.156863%,92.156863%,92.156863%);stroke-opacity:1;stroke-miterlimit:10;" d="M 34.492188 42.3125 L 209.539063 42.3125 "/>
</g>
<g clip-path="url(#clip22)" clip-rule="nonzero">
<path style="fill:none;stroke-width:1.066978;stroke-linecap:butt;stroke-linejoin:round;stroke:rgb(92.156863%,92.156863%,92.156863%);stroke-opacity:1;stroke-miterlimit:10;" d="M 57.851563 194.640625 L 57.851563 5.480469 "/>
</g>
<g clip-path="url(#clip23)" clip-rule="nonzero">
<path style="fill:none;stroke-width:1.066978;stroke-linecap:butt;stroke-linejoin:round;stroke:rgb(92.156863%,92.156863%,92.156863%);stroke-opacity:1;stroke-miterlimit:10;" d="M 83.515625 194.640625 L 83.515625 5.480469 "/>
</g>
<g clip-path="url(#clip24)" clip-rule="nonzero">
<path style="fill:none;stroke-width:1.066978;stroke-linecap:butt;stroke-linejoin:round;stroke:rgb(92.156863%,92.156863%,92.156863%);stroke-opacity:1;stroke-miterlimit:10;" d="M 109.183594 194.640625 L 109.183594 5.480469 "/>
</g>
<g clip-path="url(#clip25)" clip-rule="nonzero">
<path style="fill:none;stroke-width:1.066978;stroke-linecap:butt;stroke-linejoin:round;stroke:rgb(92.156863%,92.156863%,92.156863%);stroke-opacity:1;stroke-miterlimit:10;" d="M 134.851563 194.640625 L 134.851563 5.480469 "/>
</g>
<g clip-path="url(#clip26)" clip-rule="nonzero">
<path style="fill:none;stroke-width:1.066978;stroke-linecap:butt;stroke-linejoin:round;stroke:rgb(92.156863%,92.156863%,92.156863%);stroke-opacity:1;stroke-miterlimit:10;" d="M 160.515625 194.640625 L 160.515625 5.480469 "/>
</g>
<g clip-path="url(#clip27)" clip-rule="nonzero">
<path style="fill:none;stroke-width:1.066978;stroke-linecap:butt;stroke-linejoin:round;stroke:rgb(92.156863%,92.156863%,92.156863%);stroke-opacity:1;stroke-miterlimit:10;" d="M 186.183594 194.640625 L 186.183594 5.480469 "/>
</g>
<path style="fill:none;stroke-width:5.334892;stroke-linecap:round;stroke-linejoin:round;stroke:rgb(0%,0%,0%);stroke-opacity:1;stroke-miterlimit:10;" d="M 109.183594 132.144531 L 160.515625 106.476563 L 186.183594 157.808594 L 109.183594 170.644531 L 57.851563 106.476563 L 70.683594 55.144531 L 134.851563 29.476563 "/>
<path style="fill-rule:nonzero;fill:rgb(97.254902%,46.27451%,42.745098%);fill-opacity:1;stroke-width:0.708661;stroke-linecap:round;stroke-linejoin:round;stroke:rgb(97.254902%,46.27451%,42.745098%);stroke-opacity:1;stroke-miterlimit:10;" d="M 114.871094 132.144531 C 114.871094 135.285156 112.324219 137.832031 109.183594 137.832031 C 106.042969 137.832031 103.492188 135.285156 103.492188 132.144531 C 103.492188 129 106.042969 126.453125 109.183594 126.453125 C 112.324219 126.453125 114.871094 129 114.871094 132.144531 "/>
<path style="fill-rule:nonzero;fill:rgb(97.254902%,46.27451%,42.745098%);fill-opacity:1;stroke-width:0.708661;stroke-linecap:round;stroke-linejoin:round;stroke:rgb(97.254902%,46.27451%,42.745098%);stroke-opacity:1;stroke-miterlimit:10;" d="M 166.207031 106.476563 C 166.207031 109.621094 163.660156 112.167969 160.515625 112.167969 C 157.375 112.167969 154.828125 109.621094 154.828125 106.476563 C 154.828125 103.335938 157.375 100.789063 160.515625 100.789063 C 163.660156 100.789063 166.207031 103.335938 166.207031 106.476563 "/>
<path style="fill-rule:nonzero;fill:rgb(97.254902%,46.27451%,42.745098%);fill-opacity:1;stroke-width:0.708661;stroke-linecap:round;stroke-linejoin:round;stroke:rgb(97.254902%,46.27451%,42.745098%);stroke-opacity:1;stroke-miterlimit:10;" d="M 191.871094 157.808594 C 191.871094 160.953125 189.324219 163.5 186.183594 163.5 C 183.039063 163.5 180.492188 160.953125 180.492188 157.808594 C 180.492188 154.667969 183.039063 152.121094 186.183594 152.121094 C 189.324219 152.121094 191.871094 154.667969 191.871094 157.808594 "/>
<path style="fill-rule:nonzero;fill:rgb(97.254902%,46.27451%,42.745098%);fill-opacity:1;stroke-width:0.708661;stroke-linecap:round;stroke-linejoin:round;stroke:rgb(97.254902%,46.27451%,42.745098%);stroke-opacity:1;stroke-miterlimit:10;" d="M 114.871094 170.644531 C 114.871094 173.785156 112.324219 176.332031 109.183594 176.332031 C 106.042969 176.332031 103.492188 173.785156 103.492188 170.644531 C 103.492188 167.5 106.042969 164.953125 109.183594 164.953125 C 112.324219 164.953125 114.871094 167.5 114.871094 170.644531 "/>
<path style="fill-rule:nonzero;fill:rgb(97.254902%,46.27451%,42.745098%);fill-opacity:1;stroke-width:0.708661;stroke-linecap:round;stroke-linejoin:round;stroke:rgb(97.254902%,46.27451%,42.745098%);stroke-opacity:1;stroke-miterlimit:10;" d="M 63.539063 106.476563 C 63.539063 109.621094 60.992188 112.167969 57.851563 112.167969 C 54.707031 112.167969 52.160156 109.621094 52.160156 106.476563 C 52.160156 103.335938 54.707031 100.789063 57.851563 100.789063 C 60.992188 100.789063 63.539063 103.335938 63.539063 106.476563 "/>
<path style="fill-rule:nonzero;fill:rgb(97.254902%,46.27451%,42.745098%);fill-opacity:1;stroke-width:0.708661;stroke-linecap:round;stroke-linejoin:round;stroke:rgb(97.254902%,46.27451%,42.745098%);stroke-opacity:1;stroke-miterlimit:10;" d="M 76.371094 55.144531 C 76.371094 58.285156 73.824219 60.832031 70.683594 60.832031 C 67.542969 60.832031 64.996094 58.285156 64.996094 55.144531 C 64.996094 52.003906 67.542969 49.453125 70.683594 49.453125 C 73.824219 49.453125 76.371094 52.003906 76.371094 55.144531 "/>
<path style="fill-rule:nonzero;fill:rgb(97.254902%,46.27451%,42.745098%);fill-opacity:1;stroke-width:0.708661;stroke-linecap:round;stroke-linejoin:round;stroke:rgb(97.254902%,46.27451%,42.745098%);stroke-opacity:1;stroke-miterlimit:10;" d="M 140.539063 29.476563 C 140.539063 32.621094 137.992188 35.167969 134.851563 35.167969 C 131.707031 35.167969 129.160156 32.621094 129.160156 29.476563 C 129.160156 26.335938 131.707031 23.789063 134.851563 23.789063 C 137.992188 23.789063 140.539063 26.335938 140.539063 29.476563 "/>
<g clip-path="url(#clip28)" clip-rule="nonzero">
<path style="fill:none;stroke-width:0.533489;stroke-linecap:butt;stroke-linejoin:round;stroke:rgb(92.156863%,92.156863%,92.156863%);stroke-opacity:1;stroke-miterlimit:10;" d="M 238.339844 183.476563 L 413.386719 183.476563 "/>
</g>
<g clip-path="url(#clip29)" clip-rule="nonzero">
<path style="fill:none;stroke-width:0.533489;stroke-linecap:butt;stroke-linejoin:round;stroke:rgb(92.156863%,92.156863%,92.156863%);stroke-opacity:1;stroke-miterlimit:10;" d="M 238.339844 157.808594 L 413.386719 157.808594 "/>
</g>
<g clip-path="url(#clip30)" clip-rule="nonzero">
<path style="fill:none;stroke-width:0.533489;stroke-linecap:butt;stroke-linejoin:round;stroke:rgb(92.156863%,92.156863%,92.156863%);stroke-opacity:1;stroke-miterlimit:10;" d="M 238.339844 132.144531 L 413.386719 132.144531 "/>
</g>
<g clip-path="url(#clip31)" clip-rule="nonzero">
<path style="fill:none;stroke-width:0.533489;stroke-linecap:butt;stroke-linejoin:round;stroke:rgb(92.156863%,92.156863%,92.156863%);stroke-opacity:1;stroke-miterlimit:10;" d="M 238.339844 106.476563 L 413.386719 106.476563 "/>
</g>
<g clip-path="url(#clip32)" clip-rule="nonzero">
<path style="fill:none;stroke-width:0.533489;stroke-linecap:butt;stroke-linejoin:round;stroke:rgb(92.156863%,92.156863%,92.156863%);stroke-opacity:1;stroke-miterlimit:10;" d="M 238.339844 80.8125 L 413.386719 80.8125 "/>
</g>
<g clip-path="url(#clip33)" clip-rule="nonzero">
<path style="fill:none;stroke-width:0.533489;stroke-linecap:butt;stroke-linejoin:round;stroke:rgb(92.156863%,92.156863%,92.156863%);stroke-opacity:1;stroke-miterlimit:10;" d="M 238.339844 55.144531 L 413.386719 55.144531 "/>
</g>
<g clip-path="url(#clip34)" clip-rule="nonzero">
<path style="fill:none;stroke-width:0.533489;stroke-linecap:butt;stroke-linejoin:round;stroke:rgb(92.156863%,92.156863%,92.156863%);stroke-opacity:1;stroke-miterlimit:10;" d="M 238.339844 29.476563 L 413.386719 29.476563 "/>
</g>
<g clip-path="url(#clip35)" clip-rule="nonzero">
<path style="fill:none;stroke-width:0.533489;stroke-linecap:butt;stroke-linejoin:round;stroke:rgb(92.156863%,92.156863%,92.156863%);stroke-opacity:1;stroke-miterlimit:10;" d="M 238.339844 16.644531 L 413.386719 16.644531 "/>
</g>
<g clip-path="url(#clip36)" clip-rule="nonzero">
<path style="fill:none;stroke-width:0.533489;stroke-linecap:butt;stroke-linejoin:round;stroke:rgb(92.156863%,92.156863%,92.156863%);stroke-opacity:1;stroke-miterlimit:10;" d="M 248.863281 194.640625 L 248.863281 5.480469 "/>
</g>
<g clip-path="url(#clip37)" clip-rule="nonzero">
<path style="fill:none;stroke-width:0.533489;stroke-linecap:butt;stroke-linejoin:round;stroke:rgb(92.156863%,92.156863%,92.156863%);stroke-opacity:1;stroke-miterlimit:10;" d="M 274.527344 194.640625 L 274.527344 5.480469 "/>
</g>
<g clip-path="url(#clip38)" clip-rule="nonzero">
<path style="fill:none;stroke-width:0.533489;stroke-linecap:butt;stroke-linejoin:round;stroke:rgb(92.156863%,92.156863%,92.156863%);stroke-opacity:1;stroke-miterlimit:10;" d="M 300.195313 194.640625 L 300.195313 5.480469 "/>
</g>
<g clip-path="url(#clip39)" clip-rule="nonzero">
<path style="fill:none;stroke-width:0.533489;stroke-linecap:butt;stroke-linejoin:round;stroke:rgb(92.156863%,92.156863%,92.156863%);stroke-opacity:1;stroke-miterlimit:10;" d="M 325.863281 194.640625 L 325.863281 5.480469 "/>
</g>
<g clip-path="url(#clip40)" clip-rule="nonzero">
<path style="fill:none;stroke-width:0.533489;stroke-linecap:butt;stroke-linejoin:round;stroke:rgb(92.156863%,92.156863%,92.156863%);stroke-opacity:1;stroke-miterlimit:10;" d="M 351.527344 194.640625 L 351.527344 5.480469 "/>
</g>
<g clip-path="url(#clip41)" clip-rule="nonzero">
<path style="fill:none;stroke-width:0.533489;stroke-linecap:butt;stroke-linejoin:round;stroke:rgb(92.156863%,92.156863%,92.156863%);stroke-opacity:1;stroke-miterlimit:10;" d="M 377.195313 194.640625 L 377.195313 5.480469 "/>
</g>
<g clip-path="url(#clip42)" clip-rule="nonzero">
<path style="fill:none;stroke-width:0.533489;stroke-linecap:butt;stroke-linejoin:round;stroke:rgb(92.156863%,92.156863%,92.156863%);stroke-opacity:1;stroke-miterlimit:10;" d="M 402.863281 194.640625 L 402.863281 5.480469 "/>
</g>
<g clip-path="url(#clip43)" clip-rule="nonzero">
<path style="fill:none;stroke-width:1.066978;stroke-linecap:butt;stroke-linejoin:round;stroke:rgb(92.156863%,92.156863%,92.156863%);stroke-opacity:1;stroke-miterlimit:10;" d="M 238.339844 170.644531 L 413.386719 170.644531 "/>
</g>
<g clip-path="url(#clip44)" clip-rule="nonzero">
<path style="fill:none;stroke-width:1.066978;stroke-linecap:butt;stroke-linejoin:round;stroke:rgb(92.156863%,92.156863%,92.156863%);stroke-opacity:1;stroke-miterlimit:10;" d="M 238.339844 144.976563 L 413.386719 144.976563 "/>
</g>
<g clip-path="url(#clip45)" clip-rule="nonzero">
<path style="fill:none;stroke-width:1.066978;stroke-linecap:butt;stroke-linejoin:round;stroke:rgb(92.156863%,92.156863%,92.156863%);stroke-opacity:1;stroke-miterlimit:10;" d="M 238.339844 119.308594 L 413.386719 119.308594 "/>
</g>
<g clip-path="url(#clip46)" clip-rule="nonzero">
<path style="fill:none;stroke-width:1.066978;stroke-linecap:butt;stroke-linejoin:round;stroke:rgb(92.156863%,92.156863%,92.156863%);stroke-opacity:1;stroke-miterlimit:10;" d="M 238.339844 93.644531 L 413.386719 93.644531 "/>
</g>
<g clip-path="url(#clip47)" clip-rule="nonzero">
<path style="fill:none;stroke-width:1.066978;stroke-linecap:butt;stroke-linejoin:round;stroke:rgb(92.156863%,92.156863%,92.156863%);stroke-opacity:1;stroke-miterlimit:10;" d="M 238.339844 67.976563 L 413.386719 67.976563 "/>
</g>
<g clip-path="url(#clip48)" clip-rule="nonzero">
<path style="fill:none;stroke-width:1.066978;stroke-linecap:butt;stroke-linejoin:round;stroke:rgb(92.156863%,92.156863%,92.156863%);stroke-opacity:1;stroke-miterlimit:10;" d="M 238.339844 42.3125 L 413.386719 42.3125 "/>
</g>
<g clip-path="url(#clip49)" clip-rule="nonzero">
<path style="fill:none;stroke-width:1.066978;stroke-linecap:butt;stroke-linejoin:round;stroke:rgb(92.156863%,92.156863%,92.156863%);stroke-opacity:1;stroke-miterlimit:10;" d="M 261.695313 194.640625 L 261.695313 5.480469 "/>
</g>
<g clip-path="url(#clip50)" clip-rule="nonzero">
<path style="fill:none;stroke-width:1.066978;stroke-linecap:butt;stroke-linejoin:round;stroke:rgb(92.156863%,92.156863%,92.156863%);stroke-opacity:1;stroke-miterlimit:10;" d="M 287.363281 194.640625 L 287.363281 5.480469 "/>
</g>
<g clip-path="url(#clip51)" clip-rule="nonzero">
<path style="fill:none;stroke-width:1.066978;stroke-linecap:butt;stroke-linejoin:round;stroke:rgb(92.156863%,92.156863%,92.156863%);stroke-opacity:1;stroke-miterlimit:10;" d="M 313.027344 194.640625 L 313.027344 5.480469 "/>
</g>
<g clip-path="url(#clip52)" clip-rule="nonzero">
<path style="fill:none;stroke-width:1.066978;stroke-linecap:butt;stroke-linejoin:round;stroke:rgb(92.156863%,92.156863%,92.156863%);stroke-opacity:1;stroke-miterlimit:10;" d="M 338.695313 194.640625 L 338.695313 5.480469 "/>
</g>
<g clip-path="url(#clip53)" clip-rule="nonzero">
<path style="fill:none;stroke-width:1.066978;stroke-linecap:butt;stroke-linejoin:round;stroke:rgb(92.156863%,92.156863%,92.156863%);stroke-opacity:1;stroke-miterlimit:10;" d="M 364.363281 194.640625 L 364.363281 5.480469 "/>
</g>
<g clip-path="url(#clip54)" clip-rule="nonzero">
<path style="fill:none;stroke-width:1.066978;stroke-linecap:butt;stroke-linejoin:round;stroke:rgb(92.156863%,92.156863%,92.156863%);stroke-opacity:1;stroke-miterlimit:10;" d="M 390.027344 194.640625 L 390.027344 5.480469 "/>
</g>
<path style="fill:none;stroke-width:5.334892;stroke-linecap:round;stroke-linejoin:round;stroke:rgb(0%,0%,0%);stroke-opacity:1;stroke-miterlimit:10;" d="M 313.027344 132.144531 L 322.019531 119.460938 L 333.5625 109.042969 L 348.820313 106.0625 L 364.363281 106.476563 L 377.898438 114.832031 L 388.972656 126.253906 L 392.300781 141.9375 L 390.027344 157.808594 L 373.503906 170.761719 L 353.847656 178.136719 L 333.160156 175.902344 L 313.027344 170.644531 L 296.730469 157.566406 L 281.546875 143.210938 L 270.789063 125.296875 L 261.695313 106.476563 L 262.257813 93.078125 L 263.960938 79.773438 L 268.660156 67.207031 L 274.527344 55.144531 L 289.070313 45.347656 L 304.484375 36.992188 L 321.507813 32.867188 L 338.695313 29.476563 "/>
<path style="fill-rule:nonzero;fill:rgb(38.039216%,61.176471%,100%);fill-opacity:1;stroke-width:0.708661;stroke-linecap:round;stroke-linejoin:round;stroke:rgb(38.039216%,61.176471%,100%);stroke-opacity:1;stroke-miterlimit:10;" d="M 318.71875 132.144531 C 318.71875 135.285156 316.171875 137.832031 313.027344 137.832031 C 309.886719 137.832031 307.339844 135.285156 307.339844 132.144531 C 307.339844 129 309.886719 126.453125 313.027344 126.453125 C 316.171875 126.453125 318.71875 129 318.71875 132.144531 "/>
<path style="fill-rule:nonzero;fill:rgb(38.039216%,61.176471%,100%);fill-opacity:1;stroke-width:0.708661;stroke-linecap:round;stroke-linejoin:round;stroke:rgb(38.039216%,61.176471%,100%);stroke-opacity:1;stroke-miterlimit:10;" d="M 327.710938 119.460938 C 327.710938 122.601563 325.164063 125.148438 322.019531 125.148438 C 318.878906 125.148438 316.332031 122.601563 316.332031 119.460938 C 316.332031 116.320313 318.878906 113.773438 322.019531 113.773438 C 325.164063 113.773438 327.710938 116.320313 327.710938 119.460938 "/>
<path style="fill-rule:nonzero;fill:rgb(38.039216%,61.176471%,100%);fill-opacity:1;stroke-width:0.708661;stroke-linecap:round;stroke-linejoin:round;stroke:rgb(38.039216%,61.176471%,100%);stroke-opacity:1;stroke-miterlimit:10;" d="M 339.25 109.042969 C 339.25 112.1875 336.703125 114.734375 333.5625 114.734375 C 330.421875 114.734375 327.871094 112.1875 327.871094 109.042969 C 327.871094 105.902344 330.421875 103.355469 333.5625 103.355469 C 336.703125 103.355469 339.25 105.902344 339.25 109.042969 "/>
<path style="fill-rule:nonzero;fill:rgb(38.039216%,61.176471%,100%);fill-opacity:1;stroke-width:0.708661;stroke-linecap:round;stroke-linejoin:round;stroke:rgb(38.039216%,61.176471%,100%);stroke-opacity:1;stroke-miterlimit:10;" d="M 354.511719 106.0625 C 354.511719 109.207031 351.960938 111.753906 348.820313 111.753906 C 345.679688 111.753906 343.132813 109.207031 343.132813 106.0625 C 343.132813 102.921875 345.679688 100.375 348.820313 100.375 C 351.960938 100.375 354.511719 102.921875 354.511719 106.0625 "/>
<path style="fill-rule:nonzero;fill:rgb(38.039216%,61.176471%,100%);fill-opacity:1;stroke-width:0.708661;stroke-linecap:round;stroke-linejoin:round;stroke:rgb(38.039216%,61.176471%,100%);stroke-opacity:1;stroke-miterlimit:10;" d="M 370.050781 106.476563 C 370.050781 109.621094 367.503906 112.167969 364.363281 112.167969 C 361.21875 112.167969 358.671875 109.621094 358.671875 106.476563 C 358.671875 103.335938 361.21875 100.789063 364.363281 100.789063 C 367.503906 100.789063 370.050781 103.335938 370.050781 106.476563 "/>
<path style="fill-rule:nonzero;fill:rgb(38.039216%,61.176471%,100%);fill-opacity:1;stroke-width:0.708661;stroke-linecap:round;stroke-linejoin:round;stroke:rgb(38.039216%,61.176471%,100%);stroke-opacity:1;stroke-miterlimit:10;" d="M 383.589844 114.832031 C 383.589844 117.976563 381.042969 120.523438 377.898438 120.523438 C 374.757813 120.523438 372.210938 117.976563 372.210938 114.832031 C 372.210938 111.691406 374.757813 109.144531 377.898438 109.144531 C 381.042969 109.144531 383.589844 111.691406 383.589844 114.832031 "/>
<path style="fill-rule:nonzero;fill:rgb(38.039216%,61.176471%,100%);fill-opacity:1;stroke-width:0.708661;stroke-linecap:round;stroke-linejoin:round;stroke:rgb(38.039216%,61.176471%,100%);stroke-opacity:1;stroke-miterlimit:10;" d="M 394.660156 126.253906 C 394.660156 129.398438 392.113281 131.945313 388.972656 131.945313 C 385.828125 131.945313 383.28125 129.398438 383.28125 126.253906 C 383.28125 123.113281 385.828125 120.566406 388.972656 120.566406 C 392.113281 120.566406 394.660156 123.113281 394.660156 126.253906 "/>
<path style="fill-rule:nonzero;fill:rgb(38.039216%,61.176471%,100%);fill-opacity:1;stroke-width:0.708661;stroke-linecap:round;stroke-linejoin:round;stroke:rgb(38.039216%,61.176471%,100%);stroke-opacity:1;stroke-miterlimit:10;" d="M 397.988281 141.9375 C 397.988281 145.082031 395.441406 147.628906 392.300781 147.628906 C 389.160156 147.628906 386.613281 145.082031 386.613281 141.9375 C 386.613281 138.796875 389.160156 136.25 392.300781 136.25 C 395.441406 136.25 397.988281 138.796875 397.988281 141.9375 "/>
<path style="fill-rule:nonzero;fill:rgb(38.039216%,61.176471%,100%);fill-opacity:1;stroke-width:0.708661;stroke-linecap:round;stroke-linejoin:round;stroke:rgb(38.039216%,61.176471%,100%);stroke-opacity:1;stroke-miterlimit:10;" d="M 395.71875 157.808594 C 395.71875 160.953125 393.171875 163.5 390.027344 163.5 C 386.886719 163.5 384.339844 160.953125 384.339844 157.808594 C 384.339844 154.667969 386.886719 152.121094 390.027344 152.121094 C 393.171875 152.121094 395.71875 154.667969 395.71875 157.808594 "/>
<path style="fill-rule:nonzero;fill:rgb(38.039216%,61.176471%,100%);fill-opacity:1;stroke-width:0.708661;stroke-linecap:round;stroke-linejoin:round;stroke:rgb(38.039216%,61.176471%,100%);stroke-opacity:1;stroke-miterlimit:10;" d="M 379.191406 170.761719 C 379.191406 173.902344 376.644531 176.449219 373.503906 176.449219 C 370.363281 176.449219 367.816406 173.902344 367.816406 170.761719 C 367.816406 167.617188 370.363281 165.070313 373.503906 165.070313 C 376.644531 165.070313 379.191406 167.617188 379.191406 170.761719 "/>
<path style="fill-rule:nonzero;fill:rgb(38.039216%,61.176471%,100%);fill-opacity:1;stroke-width:0.708661;stroke-linecap:round;stroke-linejoin:round;stroke:rgb(38.039216%,61.176471%,100%);stroke-opacity:1;stroke-miterlimit:10;" d="M 359.535156 178.136719 C 359.535156 181.277344 356.988281 183.824219 353.847656 183.824219 C 350.703125 183.824219 348.15625 181.277344 348.15625 178.136719 C 348.15625 174.992188 350.703125 172.445313 353.847656 172.445313 C 356.988281 172.445313 359.535156 174.992188 359.535156 178.136719 "/>
<path style="fill-rule:nonzero;fill:rgb(38.039216%,61.176471%,100%);fill-opacity:1;stroke-width:0.708661;stroke-linecap:round;stroke-linejoin:round;stroke:rgb(38.039216%,61.176471%,100%);stroke-opacity:1;stroke-miterlimit:10;" d="M 338.847656 175.902344 C 338.847656 179.042969 336.300781 181.589844 333.160156 181.589844 C 330.019531 181.589844 327.472656 179.042969 327.472656 175.902344 C 327.472656 172.761719 330.019531 170.214844 333.160156 170.214844 C 336.300781 170.214844 338.847656 172.761719 338.847656 175.902344 "/>
<path style="fill-rule:nonzero;fill:rgb(38.039216%,61.176471%,100%);fill-opacity:1;stroke-width:0.708661;stroke-linecap:round;stroke-linejoin:round;stroke:rgb(38.039216%,61.176471%,100%);stroke-opacity:1;stroke-miterlimit:10;" d="M 318.71875 170.644531 C 318.71875 173.785156 316.171875 176.332031 313.027344 176.332031 C 309.886719 176.332031 307.339844 173.785156 307.339844 170.644531 C 307.339844 167.5 309.886719 164.953125 313.027344 164.953125 C 316.171875 164.953125 318.71875 167.5 318.71875 170.644531 "/>
<path style="fill-rule:nonzero;fill:rgb(38.039216%,61.176471%,100%);fill-opacity:1;stroke-width:0.708661;stroke-linecap:round;stroke-linejoin:round;stroke:rgb(38.039216%,61.176471%,100%);stroke-opacity:1;stroke-miterlimit:10;" d="M 302.417969 157.566406 C 302.417969 160.710938 299.871094 163.257813 296.730469 163.257813 C 293.589844 163.257813 291.042969 160.710938 291.042969 157.566406 C 291.042969 154.425781 293.589844 151.878906 296.730469 151.878906 C 299.871094 151.878906 302.417969 154.425781 302.417969 157.566406 "/>
<path style="fill-rule:nonzero;fill:rgb(38.039216%,61.176471%,100%);fill-opacity:1;stroke-width:0.708661;stroke-linecap:round;stroke-linejoin:round;stroke:rgb(38.039216%,61.176471%,100%);stroke-opacity:1;stroke-miterlimit:10;" d="M 287.238281 143.210938 C 287.238281 146.355469 284.691406 148.902344 281.546875 148.902344 C 278.40625 148.902344 275.859375 146.355469 275.859375 143.210938 C 275.859375 140.070313 278.40625 137.523438 281.546875 137.523438 C 284.691406 137.523438 287.238281 140.070313 287.238281 143.210938 "/>
<path style="fill-rule:nonzero;fill:rgb(38.039216%,61.176471%,100%);fill-opacity:1;stroke-width:0.708661;stroke-linecap:round;stroke-linejoin:round;stroke:rgb(38.039216%,61.176471%,100%);stroke-opacity:1;stroke-miterlimit:10;" d="M 276.476563 125.296875 C 276.476563 128.4375 273.929688 130.984375 270.789063 130.984375 C 267.644531 130.984375 265.097656 128.4375 265.097656 125.296875 C 265.097656 122.152344 267.644531 119.605469 270.789063 119.605469 C 273.929688 119.605469 276.476563 122.152344 276.476563 125.296875 "/>
<path style="fill-rule:nonzero;fill:rgb(38.039216%,61.176471%,100%);fill-opacity:1;stroke-width:0.708661;stroke-linecap:round;stroke-linejoin:round;stroke:rgb(38.039216%,61.176471%,100%);stroke-opacity:1;stroke-miterlimit:10;" d="M 267.386719 106.476563 C 267.386719 109.621094 264.839844 112.167969 261.695313 112.167969 C 258.554688 112.167969 256.007813 109.621094 256.007813 106.476563 C 256.007813 103.335938 258.554688 100.789063 261.695313 100.789063 C 264.839844 100.789063 267.386719 103.335938 267.386719 106.476563 "/>
<path style="fill-rule:nonzero;fill:rgb(38.039216%,61.176471%,100%);fill-opacity:1;stroke-width:0.708661;stroke-linecap:round;stroke-linejoin:round;stroke:rgb(38.039216%,61.176471%,100%);stroke-opacity:1;stroke-miterlimit:10;" d="M 267.945313 93.078125 C 267.945313 96.21875 265.398438 98.765625 262.257813 98.765625 C 259.113281 98.765625 256.566406 96.21875 256.566406 93.078125 C 256.566406 89.933594 259.113281 87.386719 262.257813 87.386719 C 265.398438 87.386719 267.945313 89.933594 267.945313 93.078125 "/>
<path style="fill-rule:nonzero;fill:rgb(38.039216%,61.176471%,100%);fill-opacity:1;stroke-width:0.708661;stroke-linecap:round;stroke-linejoin:round;stroke:rgb(38.039216%,61.176471%,100%);stroke-opacity:1;stroke-miterlimit:10;" d="M 269.652344 79.773438 C 269.652344 82.914063 267.105469 85.460938 263.960938 85.460938 C 260.820313 85.460938 258.273438 82.914063 258.273438 79.773438 C 258.273438 76.632813 260.820313 74.082031 263.960938 74.082031 C 267.105469 74.082031 269.652344 76.632813 269.652344 79.773438 "/>
<path style="fill-rule:nonzero;fill:rgb(38.039216%,61.176471%,100%);fill-opacity:1;stroke-width:0.708661;stroke-linecap:round;stroke-linejoin:round;stroke:rgb(38.039216%,61.176471%,100%);stroke-opacity:1;stroke-miterlimit:10;" d="M 274.351563 67.207031 C 274.351563 70.351563 271.804688 72.898438 268.660156 72.898438 C 265.519531 72.898438 262.972656 70.351563 262.972656 67.207031 C 262.972656 64.066406 265.519531 61.519531 268.660156 61.519531 C 271.804688 61.519531 274.351563 64.066406 274.351563 67.207031 "/>
<path style="fill-rule:nonzero;fill:rgb(38.039216%,61.176471%,100%);fill-opacity:1;stroke-width:0.708661;stroke-linecap:round;stroke-linejoin:round;stroke:rgb(38.039216%,61.176471%,100%);stroke-opacity:1;stroke-miterlimit:10;" d="M 280.21875 55.144531 C 280.21875 58.285156 277.671875 60.832031 274.527344 60.832031 C 271.386719 60.832031 268.839844 58.285156 268.839844 55.144531 C 268.839844 52.003906 271.386719 49.453125 274.527344 49.453125 C 277.671875 49.453125 280.21875 52.003906 280.21875 55.144531 "/>
<path style="fill-rule:nonzero;fill:rgb(38.039216%,61.176471%,100%);fill-opacity:1;stroke-width:0.708661;stroke-linecap:round;stroke-linejoin:round;stroke:rgb(38.039216%,61.176471%,100%);stroke-opacity:1;stroke-miterlimit:10;" d="M 294.761719 45.347656 C 294.761719 48.492188 292.214844 51.039063 289.070313 51.039063 C 285.929688 51.039063 283.382813 48.492188 283.382813 45.347656 C 283.382813 42.207031 285.929688 39.660156 289.070313 39.660156 C 292.214844 39.660156 294.761719 42.207031 294.761719 45.347656 "/>
<path style="fill-rule:nonzero;fill:rgb(38.039216%,61.176471%,100%);fill-opacity:1;stroke-width:0.708661;stroke-linecap:round;stroke-linejoin:round;stroke:rgb(38.039216%,61.176471%,100%);stroke-opacity:1;stroke-miterlimit:10;" d="M 310.171875 36.992188 C 310.171875 40.132813 307.625 42.679688 304.484375 42.679688 C 301.34375 42.679688 298.796875 40.132813 298.796875 36.992188 C 298.796875 33.847656 301.34375 31.300781 304.484375 31.300781 C 307.625 31.300781 310.171875 33.847656 310.171875 36.992188 "/>
<path style="fill-rule:nonzero;fill:rgb(38.039216%,61.176471%,100%);fill-opacity:1;stroke-width:0.708661;stroke-linecap:round;stroke-linejoin:round;stroke:rgb(38.039216%,61.176471%,100%);stroke-opacity:1;stroke-miterlimit:10;" d="M 327.199219 32.867188 C 327.199219 36.011719 324.652344 38.558594 321.507813 38.558594 C 318.367188 38.558594 315.820313 36.011719 315.820313 32.867188 C 315.820313 29.726563 318.367188 27.179688 321.507813 27.179688 C 324.652344 27.179688 327.199219 29.726563 327.199219 32.867188 "/>
<path style="fill-rule:nonzero;fill:rgb(38.039216%,61.176471%,100%);fill-opacity:1;stroke-width:0.708661;stroke-linecap:round;stroke-linejoin:round;stroke:rgb(38.039216%,61.176471%,100%);stroke-opacity:1;stroke-miterlimit:10;" d="M 344.382813 29.476563 C 344.382813 32.621094 341.835938 35.167969 338.695313 35.167969 C 335.554688 35.167969 333.007813 32.621094 333.007813 29.476563 C 333.007813 26.335938 335.554688 23.789063 338.695313 23.789063 C 341.835938 23.789063 344.382813 26.335938 344.382813 29.476563 "/>
</g>
</svg>
