<?xml version="1.0" encoding="UTF-8"?>
<svg xmlns="http://www.w3.org/2000/svg" xmlns:xlink="http://www.w3.org/1999/xlink" width="216pt" height="216pt" viewBox="0 0 216 216" version="1.1">
<defs>
<clipPath id="clip1">
  <path d="M 21.359375 185 L 211 185 L 211 187 L 21.359375 187 Z M 21.359375 185 "/>
</clipPath>
<clipPath id="clip2">
  <path d="M 21.359375 142 L 211 142 L 211 144 L 21.359375 144 Z M 21.359375 142 "/>
</clipPath>
<clipPath id="clip3">
  <path d="M 21.359375 99 L 211 99 L 211 101 L 21.359375 101 Z M 21.359375 99 "/>
</clipPath>
<clipPath id="clip4">
  <path d="M 21.359375 56 L 211 56 L 211 58 L 21.359375 58 Z M 21.359375 56 "/>
</clipPath>
<clipPath id="clip5">
  <path d="M 21.359375 13 L 211 13 L 211 15 L 21.359375 15 Z M 21.359375 13 "/>
</clipPath>
<clipPath id="clip6">
  <path d="M 51 5.480469 L 52 5.480469 L 52 195 L 51 195 Z M 51 5.480469 "/>
</clipPath>
<clipPath id="clip7">
  <path d="M 94 5.480469 L 95 5.480469 L 95 195 L 94 195 Z M 94 5.480469 "/>
</clipPath>
<clipPath id="clip8">
  <path d="M 137 5.480469 L 138 5.480469 L 138 195 L 137 195 Z M 137 5.480469 "/>
</clipPath>
<clipPath id="clip9">
  <path d="M 180 5.480469 L 181 5.480469 L 181 195 L 180 195 Z M 180 5.480469 "/>
</clipPath>
<clipPath id="clip10">
  <path d="M 21.359375 164 L 211.523438 164 L 211.523438 166 L 21.359375 166 Z M 21.359375 164 "/>
</clipPath>
<clipPath id="clip11">
  <path d="M 21.359375 121 L 211.523438 121 L 211.523438 123 L 21.359375 123 Z M 21.359375 121 "/>
</clipPath>
<clipPath id="clip12">
  <path d="M 21.359375 78 L 211.523438 78 L 211.523438 80 L 21.359375 80 Z M 21.359375 78 "/>
</clipPath>
<clipPath id="clip13">
  <path d="M 21.359375 35 L 211.523438 35 L 211.523438 37 L 21.359375 37 Z M 21.359375 35 "/>
</clipPath>
<clipPath id="clip14">
  <path d="M 29 5.480469 L 31 5.480469 L 31 195.644531 L 29 195.644531 Z M 29 5.480469 "/>
</clipPath>
<clipPath id="clip15">
  <path d="M 72 5.480469 L 74 5.480469 L 74 195.644531 L 72 195.644531 Z M 72 5.480469 "/>
</clipPath>
<clipPath id="clip16">
  <path d="M 115 5.480469 L 117 5.480469 L 117 195.644531 L 115 195.644531 Z M 115 5.480469 "/>
</clipPath>
<clipPath id="clip17">
  <path d="M 158 5.480469 L 160 5.480469 L 160 195.644531 L 158 195.644531 Z M 158 5.480469 "/>
</clipPath>
<clipPath id="clip18">
  <path d="M 201 5.480469 L 203 5.480469 L 203 195.644531 L 201 195.644531 Z M 201 5.480469 "/>
</clipPath>
</defs>
<g id="surface56">
<rect x="0" y="0" width="216" height="216" style="fill:rgb(100%,100%,100%);fill-opacity:1;stroke:none;"/>
<g clip-path="url(#clip1)" clip-rule="nonzero">
<path style="fill:none;stroke-width:0.533489;stroke-linecap:butt;stroke-linejoin:round;stroke:rgb(92.156863%,92.156863%,92.156863%);stroke-opacity:1;stroke-miterlimit:10;" d="M 21.359375 186.042969 L 210.519531 186.042969 "/>
</g>
<g clip-path="url(#clip2)" clip-rule="nonzero">
<path style="fill:none;stroke-width:0.533489;stroke-linecap:butt;stroke-linejoin:round;stroke:rgb(92.156863%,92.156863%,92.156863%);stroke-opacity:1;stroke-miterlimit:10;" d="M 21.359375 143.050781 L 210.519531 143.050781 "/>
</g>
<g clip-path="url(#clip3)" clip-rule="nonzero">
<path style="fill:none;stroke-width:0.533489;stroke-linecap:butt;stroke-linejoin:round;stroke:rgb(92.156863%,92.156863%,92.156863%);stroke-opacity:1;stroke-miterlimit:10;" d="M 21.359375 100.0625 L 210.519531 100.0625 "/>
</g>
<g clip-path="url(#clip4)" clip-rule="nonzero">
<path style="fill:none;stroke-width:0.533489;stroke-linecap:butt;stroke-linejoin:round;stroke:rgb(92.156863%,92.156863%,92.156863%);stroke-opacity:1;stroke-miterlimit:10;" d="M 21.359375 57.070313 L 210.519531 57.070313 "/>
</g>
<g clip-path="url(#clip5)" clip-rule="nonzero">
<path style="fill:none;stroke-width:0.533489;stroke-linecap:butt;stroke-linejoin:round;stroke:rgb(92.156863%,92.156863%,92.156863%);stroke-opacity:1;stroke-miterlimit:10;" d="M 21.359375 14.078125 L 210.519531 14.078125 "/>
</g>
<g clip-path="url(#clip6)" clip-rule="nonzero">
<path style="fill:none;stroke-width:0.533489;stroke-linecap:butt;stroke-linejoin:round;stroke:rgb(92.156863%,92.156863%,92.156863%);stroke-opacity:1;stroke-miterlimit:10;" d="M 51.453125 194.640625 L 51.453125 5.480469 "/>
</g>
<g clip-path="url(#clip7)" clip-rule="nonzero">
<path style="fill:none;stroke-width:0.533489;stroke-linecap:butt;stroke-linejoin:round;stroke:rgb(92.156863%,92.156863%,92.156863%);stroke-opacity:1;stroke-miterlimit:10;" d="M 94.445313 194.640625 L 94.445313 5.480469 "/>
</g>
<g clip-path="url(#clip8)" clip-rule="nonzero">
<path style="fill:none;stroke-width:0.533489;stroke-linecap:butt;stroke-linejoin:round;stroke:rgb(92.156863%,92.156863%,92.156863%);stroke-opacity:1;stroke-miterlimit:10;" d="M 137.433594 194.640625 L 137.433594 5.480469 "/>
</g>
<g clip-path="url(#clip9)" clip-rule="nonzero">
<path style="fill:none;stroke-width:0.533489;stroke-linecap:butt;stroke-linejoin:round;stroke:rgb(92.156863%,92.156863%,92.156863%);stroke-opacity:1;stroke-miterlimit:10;" d="M 180.425781 194.640625 L 180.425781 5.480469 "/>
</g>
<g clip-path="url(#clip10)" clip-rule="nonzero">
<path style="fill:none;stroke-width:1.066978;stroke-linecap:butt;stroke-linejoin:round;stroke:rgb(92.156863%,92.156863%,92.156863%);stroke-opacity:1;stroke-miterlimit:10;" d="M 21.359375 164.546875 L 210.519531 164.546875 "/>
</g>
<g clip-path="url(#clip11)" clip-rule="nonzero">
<path style="fill:none;stroke-width:1.066978;stroke-linecap:butt;stroke-linejoin:round;stroke:rgb(92.156863%,92.156863%,92.156863%);stroke-opacity:1;stroke-miterlimit:10;" d="M 21.359375 121.554688 L 210.519531 121.554688 "/>
</g>
<g clip-path="url(#clip12)" clip-rule="nonzero">
<path style="fill:none;stroke-width:1.066978;stroke-linecap:butt;stroke-linejoin:round;stroke:rgb(92.156863%,92.156863%,92.156863%);stroke-opacity:1;stroke-miterlimit:10;" d="M 21.359375 78.566406 L 210.519531 78.566406 "/>
</g>
<g clip-path="url(#clip13)" clip-rule="nonzero">
<path style="fill:none;stroke-width:1.066978;stroke-linecap:butt;stroke-linejoin:round;stroke:rgb(92.156863%,92.156863%,92.156863%);stroke-opacity:1;stroke-miterlimit:10;" d="M 21.359375 35.574219 L 210.519531 35.574219 "/>
</g>
<g clip-path="url(#clip14)" clip-rule="nonzero">
<path style="fill:none;stroke-width:1.066978;stroke-linecap:butt;stroke-linejoin:round;stroke:rgb(92.156863%,92.156863%,92.156863%);stroke-opacity:1;stroke-miterlimit:10;" d="M 29.957031 194.640625 L 29.957031 5.480469 "/>
</g>
<g clip-path="url(#clip15)" clip-rule="nonzero">
<path style="fill:none;stroke-width:1.066978;stroke-linecap:butt;stroke-linejoin:round;stroke:rgb(92.156863%,92.156863%,92.156863%);stroke-opacity:1;stroke-miterlimit:10;" d="M 72.949219 194.640625 L 72.949219 5.480469 "/>
</g>
<g clip-path="url(#clip16)" clip-rule="nonzero">
<path style="fill:none;stroke-width:1.066978;stroke-linecap:butt;stroke-linejoin:round;stroke:rgb(92.156863%,92.156863%,92.156863%);stroke-opacity:1;stroke-miterlimit:10;" d="M 115.9375 194.640625 L 115.9375 5.480469 "/>
</g>
<g clip-path="url(#clip17)" clip-rule="nonzero">
<path style="fill:none;stroke-width:1.066978;stroke-linecap:butt;stroke-linejoin:round;stroke:rgb(92.156863%,92.156863%,92.156863%);stroke-opacity:1;stroke-miterlimit:10;" d="M 158.929688 194.640625 L 158.929688 5.480469 "/>
</g>
<g clip-path="url(#clip18)" clip-rule="nonzero">
<path style="fill:none;stroke-width:1.066978;stroke-linecap:butt;stroke-linejoin:round;stroke:rgb(92.156863%,92.156863%,92.156863%);stroke-opacity:1;stroke-miterlimit:10;" d="M 201.921875 194.640625 L 201.921875 5.480469 "/>
</g>
<path style="fill:none;stroke-width:3.200935;stroke-linecap:round;stroke-linejoin:round;stroke:rgb(0%,0%,100%);stroke-opacity:1;stroke-miterlimit:10;" d="M 115.9375 121.554688 L 115.9375 35.574219 "/>
<path style="fill-rule:nonzero;fill:rgb(0%,0%,100%);fill-opacity:1;stroke-width:3.200935;stroke-linecap:round;stroke-linejoin:round;stroke:rgb(0%,0%,100%);stroke-opacity:1;stroke-miterlimit:10;" d="M 123.027344 47.847656 L 115.9375 35.574219 L 108.851563 47.847656 Z M 123.027344 47.847656 "/>
<path style="fill:none;stroke-width:3.200935;stroke-linecap:round;stroke-linejoin:round;stroke:rgb(0%,0%,100%);stroke-opacity:1;stroke-miterlimit:10;" d="M 115.9375 121.554688 L 41.476563 164.546875 "/>
<path style="fill-rule:nonzero;fill:rgb(0%,0%,100%);fill-opacity:1;stroke-width:3.200935;stroke-linecap:round;stroke-linejoin:round;stroke:rgb(0%,0%,100%);stroke-opacity:1;stroke-miterlimit:10;" d="M 48.5625 152.273438 L 41.476563 164.546875 L 55.648438 164.546875 Z M 48.5625 152.273438 "/>
<path style="fill:none;stroke-width:3.200935;stroke-linecap:round;stroke-linejoin:round;stroke:rgb(0%,0%,100%);stroke-opacity:1;stroke-miterlimit:10;" d="M 115.9375 121.554688 L 190.402344 164.546875 "/>
<path style="fill-rule:nonzero;fill:rgb(0%,0%,100%);fill-opacity:1;stroke-width:3.200935;stroke-linecap:round;stroke-linejoin:round;stroke:rgb(0%,0%,100%);stroke-opacity:1;stroke-miterlimit:10;" d="M 176.230469 164.546875 L 190.402344 164.546875 L 183.316406 152.273438 Z M 176.230469 164.546875 "/>
<path style="fill-rule:nonzero;fill:rgb(0%,0%,0%);fill-opacity:1;stroke-width:0.708661;stroke-linecap:round;stroke-linejoin:round;stroke:rgb(0%,0%,0%);stroke-opacity:1;stroke-miterlimit:10;" d="M 120.5625 121.554688 C 120.5625 127.71875 111.316406 127.71875 111.316406 121.554688 C 111.316406 115.394531 120.5625 115.394531 120.5625 121.554688 "/>
<path style="fill-rule:nonzero;fill:rgb(0%,0%,0%);fill-opacity:1;stroke-width:0.708661;stroke-linecap:round;stroke-linejoin:round;stroke:rgb(0%,0%,0%);stroke-opacity:1;stroke-miterlimit:10;" d="M 120.5625 121.554688 C 120.5625 127.71875 111.316406 127.71875 111.316406 121.554688 C 111.316406 115.394531 120.5625 115.394531 120.5625 121.554688 "/>
<path style="fill-rule:nonzero;fill:rgb(0%,0%,0%);fill-opacity:1;stroke-width:0.708661;stroke-linecap:round;stroke-linejoin:round;stroke:rgb(0%,0%,0%);stroke-opacity:1;stroke-miterlimit:10;" d="M 120.5625 121.554688 C 120.5625 127.71875 111.316406 127.71875 111.316406 121.554688 C 111.316406 115.394531 120.5625 115.394531 120.5625 121.554688 "/>
</g>
</svg>
