<?xml version="1.0" encoding="UTF-8"?>
<svg xmlns="http://www.w3.org/2000/svg" xmlns:xlink="http://www.w3.org/1999/xlink" width="216pt" height="216pt" viewBox="0 0 216 216" version="1.1">
<defs>
<clipPath id="clip1">
  <path d="M 8.21875 198 L 211 198 L 211 199 L 8.21875 199 Z M 8.21875 198 "/>
</clipPath>
<clipPath id="clip2">
  <path d="M 8.21875 152 L 211 152 L 211 153 L 8.21875 153 Z M 8.21875 152 "/>
</clipPath>
<clipPath id="clip3">
  <path d="M 8.21875 106 L 211 106 L 211 107 L 8.21875 107 Z M 8.21875 106 "/>
</clipPath>
<clipPath id="clip4">
  <path d="M 8.21875 60 L 211 60 L 211 61 L 8.21875 61 Z M 8.21875 60 "/>
</clipPath>
<clipPath id="clip5">
  <path d="M 8.21875 14 L 211 14 L 211 15 L 8.21875 15 Z M 8.21875 14 "/>
</clipPath>
<clipPath id="clip6">
  <path d="M 40 5.480469 L 41 5.480469 L 41 208.78125 L 40 208.78125 Z M 40 5.480469 "/>
</clipPath>
<clipPath id="clip7">
  <path d="M 86 5.480469 L 87 5.480469 L 87 208.78125 L 86 208.78125 Z M 86 5.480469 "/>
</clipPath>
<clipPath id="clip8">
  <path d="M 132 5.480469 L 133 5.480469 L 133 208.78125 L 132 208.78125 Z M 132 5.480469 "/>
</clipPath>
<clipPath id="clip9">
  <path d="M 178 5.480469 L 179 5.480469 L 179 208.78125 L 178 208.78125 Z M 178 5.480469 "/>
</clipPath>
<clipPath id="clip10">
  <path d="M 8.21875 175 L 211.519531 175 L 211.519531 177 L 8.21875 177 Z M 8.21875 175 "/>
</clipPath>
<clipPath id="clip11">
  <path d="M 8.21875 129 L 211.519531 129 L 211.519531 131 L 8.21875 131 Z M 8.21875 129 "/>
</clipPath>
<clipPath id="clip12">
  <path d="M 8.21875 83 L 211.519531 83 L 211.519531 85 L 8.21875 85 Z M 8.21875 83 "/>
</clipPath>
<clipPath id="clip13">
  <path d="M 8.21875 37 L 211.519531 37 L 211.519531 39 L 8.21875 39 Z M 8.21875 37 "/>
</clipPath>
<clipPath id="clip14">
  <path d="M 16 5.480469 L 18 5.480469 L 18 208.78125 L 16 208.78125 Z M 16 5.480469 "/>
</clipPath>
<clipPath id="clip15">
  <path d="M 62 5.480469 L 64 5.480469 L 64 208.78125 L 62 208.78125 Z M 62 5.480469 "/>
</clipPath>
<clipPath id="clip16">
  <path d="M 108 5.480469 L 110 5.480469 L 110 208.78125 L 108 208.78125 Z M 108 5.480469 "/>
</clipPath>
<clipPath id="clip17">
  <path d="M 154 5.480469 L 156 5.480469 L 156 208.78125 L 154 208.78125 Z M 154 5.480469 "/>
</clipPath>
<clipPath id="clip18">
  <path d="M 200 5.480469 L 202 5.480469 L 202 208.78125 L 200 208.78125 Z M 200 5.480469 "/>
</clipPath>
</defs>
<g id="surface6">
<rect x="0" y="0" width="216" height="216" style="fill:rgb(100%,100%,100%);fill-opacity:1;stroke:none;"/>
<g clip-path="url(#clip1)" clip-rule="nonzero">
<path style="fill:none;stroke-width:0.533489;stroke-linecap:butt;stroke-linejoin:round;stroke:rgb(92.156863%,92.156863%,92.156863%);stroke-opacity:1;stroke-miterlimit:10;" d="M 8.21875 198.585938 L 210.519531 198.585938 "/>
</g>
<g clip-path="url(#clip2)" clip-rule="nonzero">
<path style="fill:none;stroke-width:0.533489;stroke-linecap:butt;stroke-linejoin:round;stroke:rgb(92.156863%,92.156863%,92.156863%);stroke-opacity:1;stroke-miterlimit:10;" d="M 8.21875 152.609375 L 210.519531 152.609375 "/>
</g>
<g clip-path="url(#clip3)" clip-rule="nonzero">
<path style="fill:none;stroke-width:0.533489;stroke-linecap:butt;stroke-linejoin:round;stroke:rgb(92.156863%,92.156863%,92.156863%);stroke-opacity:1;stroke-miterlimit:10;" d="M 8.21875 106.628906 L 210.519531 106.628906 "/>
</g>
<g clip-path="url(#clip4)" clip-rule="nonzero">
<path style="fill:none;stroke-width:0.533489;stroke-linecap:butt;stroke-linejoin:round;stroke:rgb(92.156863%,92.156863%,92.156863%);stroke-opacity:1;stroke-miterlimit:10;" d="M 8.21875 60.652344 L 210.519531 60.652344 "/>
</g>
<g clip-path="url(#clip5)" clip-rule="nonzero">
<path style="fill:none;stroke-width:0.533489;stroke-linecap:butt;stroke-linejoin:round;stroke:rgb(92.156863%,92.156863%,92.156863%);stroke-opacity:1;stroke-miterlimit:10;" d="M 8.21875 14.675781 L 210.519531 14.675781 "/>
</g>
<g clip-path="url(#clip6)" clip-rule="nonzero">
<path style="fill:none;stroke-width:0.533489;stroke-linecap:butt;stroke-linejoin:round;stroke:rgb(92.156863%,92.156863%,92.156863%);stroke-opacity:1;stroke-miterlimit:10;" d="M 40.402344 207.78125 L 40.402344 5.480469 "/>
</g>
<g clip-path="url(#clip7)" clip-rule="nonzero">
<path style="fill:none;stroke-width:0.533489;stroke-linecap:butt;stroke-linejoin:round;stroke:rgb(92.156863%,92.156863%,92.156863%);stroke-opacity:1;stroke-miterlimit:10;" d="M 86.382813 207.78125 L 86.382813 5.480469 "/>
</g>
<g clip-path="url(#clip8)" clip-rule="nonzero">
<path style="fill:none;stroke-width:0.533489;stroke-linecap:butt;stroke-linejoin:round;stroke:rgb(92.156863%,92.156863%,92.156863%);stroke-opacity:1;stroke-miterlimit:10;" d="M 132.359375 207.78125 L 132.359375 5.480469 "/>
</g>
<g clip-path="url(#clip9)" clip-rule="nonzero">
<path style="fill:none;stroke-width:0.533489;stroke-linecap:butt;stroke-linejoin:round;stroke:rgb(92.156863%,92.156863%,92.156863%);stroke-opacity:1;stroke-miterlimit:10;" d="M 178.335938 207.78125 L 178.335938 5.480469 "/>
</g>
<g clip-path="url(#clip10)" clip-rule="nonzero">
<path style="fill:none;stroke-width:1.066978;stroke-linecap:butt;stroke-linejoin:round;stroke:rgb(92.156863%,92.156863%,92.156863%);stroke-opacity:1;stroke-miterlimit:10;" d="M 8.21875 175.597656 L 210.519531 175.597656 "/>
</g>
<g clip-path="url(#clip11)" clip-rule="nonzero">
<path style="fill:none;stroke-width:1.066978;stroke-linecap:butt;stroke-linejoin:round;stroke:rgb(92.156863%,92.156863%,92.156863%);stroke-opacity:1;stroke-miterlimit:10;" d="M 8.21875 129.617188 L 210.519531 129.617188 "/>
</g>
<g clip-path="url(#clip12)" clip-rule="nonzero">
<path style="fill:none;stroke-width:1.066978;stroke-linecap:butt;stroke-linejoin:round;stroke:rgb(92.156863%,92.156863%,92.156863%);stroke-opacity:1;stroke-miterlimit:10;" d="M 8.21875 83.640625 L 210.519531 83.640625 "/>
</g>
<g clip-path="url(#clip13)" clip-rule="nonzero">
<path style="fill:none;stroke-width:1.066978;stroke-linecap:butt;stroke-linejoin:round;stroke:rgb(92.156863%,92.156863%,92.156863%);stroke-opacity:1;stroke-miterlimit:10;" d="M 8.21875 37.664063 L 210.519531 37.664063 "/>
</g>
<g clip-path="url(#clip14)" clip-rule="nonzero">
<path style="fill:none;stroke-width:1.066978;stroke-linecap:butt;stroke-linejoin:round;stroke:rgb(92.156863%,92.156863%,92.156863%);stroke-opacity:1;stroke-miterlimit:10;" d="M 17.414063 207.78125 L 17.414063 5.480469 "/>
</g>
<g clip-path="url(#clip15)" clip-rule="nonzero">
<path style="fill:none;stroke-width:1.066978;stroke-linecap:butt;stroke-linejoin:round;stroke:rgb(92.156863%,92.156863%,92.156863%);stroke-opacity:1;stroke-miterlimit:10;" d="M 63.390625 207.78125 L 63.390625 5.480469 "/>
</g>
<g clip-path="url(#clip16)" clip-rule="nonzero">
<path style="fill:none;stroke-width:1.066978;stroke-linecap:butt;stroke-linejoin:round;stroke:rgb(92.156863%,92.156863%,92.156863%);stroke-opacity:1;stroke-miterlimit:10;" d="M 109.371094 207.78125 L 109.371094 5.480469 "/>
</g>
<g clip-path="url(#clip17)" clip-rule="nonzero">
<path style="fill:none;stroke-width:1.066978;stroke-linecap:butt;stroke-linejoin:round;stroke:rgb(92.156863%,92.156863%,92.156863%);stroke-opacity:1;stroke-miterlimit:10;" d="M 155.347656 207.78125 L 155.347656 5.480469 "/>
</g>
<g clip-path="url(#clip18)" clip-rule="nonzero">
<path style="fill:none;stroke-width:1.066978;stroke-linecap:butt;stroke-linejoin:round;stroke:rgb(92.156863%,92.156863%,92.156863%);stroke-opacity:1;stroke-miterlimit:10;" d="M 201.324219 207.78125 L 201.324219 5.480469 "/>
</g>
<path style="fill:none;stroke-width:3.200935;stroke-linecap:round;stroke-linejoin:round;stroke:rgb(0%,0%,100%);stroke-opacity:1;stroke-miterlimit:10;" d="M 109.371094 129.617188 L 109.371094 37.664063 "/>
<path style="fill-rule:nonzero;fill:rgb(0%,0%,100%);fill-opacity:1;stroke-width:3.200935;stroke-linecap:round;stroke-linejoin:round;stroke:rgb(0%,0%,100%);stroke-opacity:1;stroke-miterlimit:10;" d="M 116.457031 49.9375 L 109.371094 37.664063 L 102.285156 49.9375 Z M 116.457031 49.9375 "/>
<path style="fill:none;stroke-width:3.200935;stroke-linecap:round;stroke-linejoin:round;stroke:rgb(0%,0%,100%);stroke-opacity:1;stroke-miterlimit:10;" d="M 109.371094 129.617188 L 29.734375 175.597656 "/>
<path style="fill-rule:nonzero;fill:rgb(0%,0%,100%);fill-opacity:1;stroke-width:3.200935;stroke-linecap:round;stroke-linejoin:round;stroke:rgb(0%,0%,100%);stroke-opacity:1;stroke-miterlimit:10;" d="M 36.820313 163.320313 L 29.734375 175.597656 L 43.90625 175.597656 Z M 36.820313 163.320313 "/>
<path style="fill:none;stroke-width:3.200935;stroke-linecap:round;stroke-linejoin:round;stroke:rgb(0%,0%,100%);stroke-opacity:1;stroke-miterlimit:10;" d="M 109.371094 129.617188 L 189.003906 175.597656 "/>
<path style="fill-rule:nonzero;fill:rgb(0%,0%,100%);fill-opacity:1;stroke-width:3.200935;stroke-linecap:round;stroke-linejoin:round;stroke:rgb(0%,0%,100%);stroke-opacity:1;stroke-miterlimit:10;" d="M 174.832031 175.597656 L 189.003906 175.597656 L 181.917969 163.320313 Z M 174.832031 175.597656 "/>
<path style="fill-rule:nonzero;fill:rgb(0%,0%,0%);fill-opacity:1;stroke-width:0.708661;stroke-linecap:round;stroke-linejoin:round;stroke:rgb(0%,0%,0%);stroke-opacity:1;stroke-miterlimit:10;" d="M 113.992188 129.617188 C 113.992188 135.78125 104.746094 135.78125 104.746094 129.617188 C 104.746094 123.457031 113.992188 123.457031 113.992188 129.617188 "/>
<path style="fill-rule:nonzero;fill:rgb(0%,0%,0%);fill-opacity:1;stroke-width:0.708661;stroke-linecap:round;stroke-linejoin:round;stroke:rgb(0%,0%,0%);stroke-opacity:1;stroke-miterlimit:10;" d="M 113.992188 129.617188 C 113.992188 135.78125 104.746094 135.78125 104.746094 129.617188 C 104.746094 123.457031 113.992188 123.457031 113.992188 129.617188 "/>
<path style="fill-rule:nonzero;fill:rgb(0%,0%,0%);fill-opacity:1;stroke-width:0.708661;stroke-linecap:round;stroke-linejoin:round;stroke:rgb(0%,0%,0%);stroke-opacity:1;stroke-miterlimit:10;" d="M 113.992188 129.617188 C 113.992188 135.78125 104.746094 135.78125 104.746094 129.617188 C 104.746094 123.457031 113.992188 123.457031 113.992188 129.617188 "/>
</g>
</svg>
