<?xml version="1.0" encoding="UTF-8"?>
<svg xmlns="http://www.w3.org/2000/svg" xmlns:xlink="http://www.w3.org/1999/xlink" width="432pt" height="216pt" viewBox="0 0 432 216" version="1.1">
<defs>
<clipPath id="clip1">
  <path d="M 129.359375 185 L 319 185 L 319 187 L 129.359375 187 Z M 129.359375 185 "/>
</clipPath>
<clipPath id="clip2">
  <path d="M 129.359375 142 L 319 142 L 319 144 L 129.359375 144 Z M 129.359375 142 "/>
</clipPath>
<clipPath id="clip3">
  <path d="M 129.359375 99 L 319 99 L 319 101 L 129.359375 101 Z M 129.359375 99 "/>
</clipPath>
<clipPath id="clip4">
  <path d="M 129.359375 56 L 319 56 L 319 58 L 129.359375 58 Z M 129.359375 56 "/>
</clipPath>
<clipPath id="clip5">
  <path d="M 129.359375 13 L 319 13 L 319 15 L 129.359375 15 Z M 129.359375 13 "/>
</clipPath>
<clipPath id="clip6">
  <path d="M 159 5.480469 L 160 5.480469 L 160 195 L 159 195 Z M 159 5.480469 "/>
</clipPath>
<clipPath id="clip7">
  <path d="M 202 5.480469 L 203 5.480469 L 203 195 L 202 195 Z M 202 5.480469 "/>
</clipPath>
<clipPath id="clip8">
  <path d="M 245 5.480469 L 246 5.480469 L 246 195 L 245 195 Z M 245 5.480469 "/>
</clipPath>
<clipPath id="clip9">
  <path d="M 288 5.480469 L 289 5.480469 L 289 195 L 288 195 Z M 288 5.480469 "/>
</clipPath>
<clipPath id="clip10">
  <path d="M 129.359375 164 L 319.523438 164 L 319.523438 166 L 129.359375 166 Z M 129.359375 164 "/>
</clipPath>
<clipPath id="clip11">
  <path d="M 129.359375 121 L 319.523438 121 L 319.523438 123 L 129.359375 123 Z M 129.359375 121 "/>
</clipPath>
<clipPath id="clip12">
  <path d="M 129.359375 78 L 319.523438 78 L 319.523438 80 L 129.359375 80 Z M 129.359375 78 "/>
</clipPath>
<clipPath id="clip13">
  <path d="M 129.359375 35 L 319.523438 35 L 319.523438 37 L 129.359375 37 Z M 129.359375 35 "/>
</clipPath>
<clipPath id="clip14">
  <path d="M 137 5.480469 L 139 5.480469 L 139 195.644531 L 137 195.644531 Z M 137 5.480469 "/>
</clipPath>
<clipPath id="clip15">
  <path d="M 180 5.480469 L 182 5.480469 L 182 195.644531 L 180 195.644531 Z M 180 5.480469 "/>
</clipPath>
<clipPath id="clip16">
  <path d="M 223 5.480469 L 225 5.480469 L 225 195.644531 L 223 195.644531 Z M 223 5.480469 "/>
</clipPath>
<clipPath id="clip17">
  <path d="M 266 5.480469 L 268 5.480469 L 268 195.644531 L 266 195.644531 Z M 266 5.480469 "/>
</clipPath>
<clipPath id="clip18">
  <path d="M 309 5.480469 L 311 5.480469 L 311 195.644531 L 309 195.644531 Z M 309 5.480469 "/>
</clipPath>
</defs>
<g id="surface6">
<rect x="0" y="0" width="432" height="216" style="fill:rgb(100%,100%,100%);fill-opacity:1;stroke:none;"/>
<g clip-path="url(#clip1)" clip-rule="nonzero">
<path style="fill:none;stroke-width:0.533489;stroke-linecap:butt;stroke-linejoin:round;stroke:rgb(92.156863%,92.156863%,92.156863%);stroke-opacity:1;stroke-miterlimit:10;" d="M 129.359375 186.042969 L 318.519531 186.042969 "/>
</g>
<g clip-path="url(#clip2)" clip-rule="nonzero">
<path style="fill:none;stroke-width:0.533489;stroke-linecap:butt;stroke-linejoin:round;stroke:rgb(92.156863%,92.156863%,92.156863%);stroke-opacity:1;stroke-miterlimit:10;" d="M 129.359375 143.050781 L 318.519531 143.050781 "/>
</g>
<g clip-path="url(#clip3)" clip-rule="nonzero">
<path style="fill:none;stroke-width:0.533489;stroke-linecap:butt;stroke-linejoin:round;stroke:rgb(92.156863%,92.156863%,92.156863%);stroke-opacity:1;stroke-miterlimit:10;" d="M 129.359375 100.0625 L 318.519531 100.0625 "/>
</g>
<g clip-path="url(#clip4)" clip-rule="nonzero">
<path style="fill:none;stroke-width:0.533489;stroke-linecap:butt;stroke-linejoin:round;stroke:rgb(92.156863%,92.156863%,92.156863%);stroke-opacity:1;stroke-miterlimit:10;" d="M 129.359375 57.070313 L 318.519531 57.070313 "/>
</g>
<g clip-path="url(#clip5)" clip-rule="nonzero">
<path style="fill:none;stroke-width:0.533489;stroke-linecap:butt;stroke-linejoin:round;stroke:rgb(92.156863%,92.156863%,92.156863%);stroke-opacity:1;stroke-miterlimit:10;" d="M 129.359375 14.078125 L 318.519531 14.078125 "/>
</g>
<g clip-path="url(#clip6)" clip-rule="nonzero">
<path style="fill:none;stroke-width:0.533489;stroke-linecap:butt;stroke-linejoin:round;stroke:rgb(92.156863%,92.156863%,92.156863%);stroke-opacity:1;stroke-miterlimit:10;" d="M 159.453125 194.640625 L 159.453125 5.480469 "/>
</g>
<g clip-path="url(#clip7)" clip-rule="nonzero">
<path style="fill:none;stroke-width:0.533489;stroke-linecap:butt;stroke-linejoin:round;stroke:rgb(92.156863%,92.156863%,92.156863%);stroke-opacity:1;stroke-miterlimit:10;" d="M 202.445313 194.640625 L 202.445313 5.480469 "/>
</g>
<g clip-path="url(#clip8)" clip-rule="nonzero">
<path style="fill:none;stroke-width:0.533489;stroke-linecap:butt;stroke-linejoin:round;stroke:rgb(92.156863%,92.156863%,92.156863%);stroke-opacity:1;stroke-miterlimit:10;" d="M 245.433594 194.640625 L 245.433594 5.480469 "/>
</g>
<g clip-path="url(#clip9)" clip-rule="nonzero">
<path style="fill:none;stroke-width:0.533489;stroke-linecap:butt;stroke-linejoin:round;stroke:rgb(92.156863%,92.156863%,92.156863%);stroke-opacity:1;stroke-miterlimit:10;" d="M 288.425781 194.640625 L 288.425781 5.480469 "/>
</g>
<g clip-path="url(#clip10)" clip-rule="nonzero">
<path style="fill:none;stroke-width:1.066978;stroke-linecap:butt;stroke-linejoin:round;stroke:rgb(92.156863%,92.156863%,92.156863%);stroke-opacity:1;stroke-miterlimit:10;" d="M 129.359375 164.546875 L 318.519531 164.546875 "/>
</g>
<g clip-path="url(#clip11)" clip-rule="nonzero">
<path style="fill:none;stroke-width:1.066978;stroke-linecap:butt;stroke-linejoin:round;stroke:rgb(92.156863%,92.156863%,92.156863%);stroke-opacity:1;stroke-miterlimit:10;" d="M 129.359375 121.554688 L 318.519531 121.554688 "/>
</g>
<g clip-path="url(#clip12)" clip-rule="nonzero">
<path style="fill:none;stroke-width:1.066978;stroke-linecap:butt;stroke-linejoin:round;stroke:rgb(92.156863%,92.156863%,92.156863%);stroke-opacity:1;stroke-miterlimit:10;" d="M 129.359375 78.566406 L 318.519531 78.566406 "/>
</g>
<g clip-path="url(#clip13)" clip-rule="nonzero">
<path style="fill:none;stroke-width:1.066978;stroke-linecap:butt;stroke-linejoin:round;stroke:rgb(92.156863%,92.156863%,92.156863%);stroke-opacity:1;stroke-miterlimit:10;" d="M 129.359375 35.574219 L 318.519531 35.574219 "/>
</g>
<g clip-path="url(#clip14)" clip-rule="nonzero">
<path style="fill:none;stroke-width:1.066978;stroke-linecap:butt;stroke-linejoin:round;stroke:rgb(92.156863%,92.156863%,92.156863%);stroke-opacity:1;stroke-miterlimit:10;" d="M 137.957031 194.640625 L 137.957031 5.480469 "/>
</g>
<g clip-path="url(#clip15)" clip-rule="nonzero">
<path style="fill:none;stroke-width:1.066978;stroke-linecap:butt;stroke-linejoin:round;stroke:rgb(92.156863%,92.156863%,92.156863%);stroke-opacity:1;stroke-miterlimit:10;" d="M 180.949219 194.640625 L 180.949219 5.480469 "/>
</g>
<g clip-path="url(#clip16)" clip-rule="nonzero">
<path style="fill:none;stroke-width:1.066978;stroke-linecap:butt;stroke-linejoin:round;stroke:rgb(92.156863%,92.156863%,92.156863%);stroke-opacity:1;stroke-miterlimit:10;" d="M 223.9375 194.640625 L 223.9375 5.480469 "/>
</g>
<g clip-path="url(#clip17)" clip-rule="nonzero">
<path style="fill:none;stroke-width:1.066978;stroke-linecap:butt;stroke-linejoin:round;stroke:rgb(92.156863%,92.156863%,92.156863%);stroke-opacity:1;stroke-miterlimit:10;" d="M 266.929688 194.640625 L 266.929688 5.480469 "/>
</g>
<g clip-path="url(#clip18)" clip-rule="nonzero">
<path style="fill:none;stroke-width:1.066978;stroke-linecap:butt;stroke-linejoin:round;stroke:rgb(92.156863%,92.156863%,92.156863%);stroke-opacity:1;stroke-miterlimit:10;" d="M 309.921875 194.640625 L 309.921875 5.480469 "/>
</g>
<path style="fill:none;stroke-width:3.200935;stroke-linecap:round;stroke-linejoin:round;stroke:rgb(0%,0%,100%);stroke-opacity:1;stroke-miterlimit:10;" d="M 223.9375 121.554688 L 223.9375 35.574219 "/>
<path style="fill-rule:nonzero;fill:rgb(0%,0%,100%);fill-opacity:1;stroke-width:3.200935;stroke-linecap:round;stroke-linejoin:round;stroke:rgb(0%,0%,100%);stroke-opacity:1;stroke-miterlimit:10;" d="M 231.027344 47.847656 L 223.9375 35.574219 L 216.851563 47.847656 Z M 231.027344 47.847656 "/>
<path style="fill:none;stroke-width:3.200935;stroke-linecap:round;stroke-linejoin:round;stroke:rgb(0%,0%,100%);stroke-opacity:1;stroke-miterlimit:10;" d="M 223.9375 121.554688 L 149.476563 164.546875 "/>
<path style="fill-rule:nonzero;fill:rgb(0%,0%,100%);fill-opacity:1;stroke-width:3.200935;stroke-linecap:round;stroke-linejoin:round;stroke:rgb(0%,0%,100%);stroke-opacity:1;stroke-miterlimit:10;" d="M 156.5625 152.273438 L 149.476563 164.546875 L 163.648438 164.546875 Z M 156.5625 152.273438 "/>
<path style="fill:none;stroke-width:3.200935;stroke-linecap:round;stroke-linejoin:round;stroke:rgb(0%,0%,100%);stroke-opacity:1;stroke-miterlimit:10;" d="M 223.9375 121.554688 L 298.402344 164.546875 "/>
<path style="fill-rule:nonzero;fill:rgb(0%,0%,100%);fill-opacity:1;stroke-width:3.200935;stroke-linecap:round;stroke-linejoin:round;stroke:rgb(0%,0%,100%);stroke-opacity:1;stroke-miterlimit:10;" d="M 284.230469 164.546875 L 298.402344 164.546875 L 291.316406 152.273438 Z M 284.230469 164.546875 "/>
</g>
</svg>
